<svg width="54" height="40" viewBox="0 0 54 40" fill="none" xmlns="http://www.w3.org/2000/svg">
<path d="M46.79 1.46447C45.8483 0.526784 44.571 -4.12156e-07 43.2391 -4.70373e-07L0 -2.36041e-06L-1.74846e-06 40L36.0652 40C37.3971 40 38.6744 39.4732 39.6161 38.5355C40.5579 37.5979 41.087 36.3261 41.087 35C41.087 33.6739 40.5579 32.4021 39.6161 31.4645C38.6744 30.5268 37.3971 30 36.0652 30C35.4944 30 34.947 29.7742 34.5434 29.3724C34.1398 28.9705 33.913 28.4255 33.913 27.8571L33.913 27.1429L46.8261 27.1429C48.7287 27.1429 50.5534 26.3903 51.8988 25.0508C53.2442 23.7112 54 21.8944 54 20C54 18.1056 53.2442 16.2888 51.8988 14.9492C50.5534 13.6097 48.7287 12.8571 46.8261 12.8571L41.087 12.8571L41.087 12.1429C41.087 11.5745 41.3137 11.0295 41.7173 10.6276C42.1209 10.2258 42.6683 10 43.2391 10C44.571 10 45.8483 9.47322 46.79 8.53553C47.7318 7.59785 48.2609 6.32608 48.2609 5C48.2609 3.67392 47.7318 2.40215 46.79 1.46447Z" fill="#222222"/>
<path d="M46.79 1.46447C45.8483 0.526784 44.571 -4.12156e-07 43.2391 -4.70373e-07L0 -2.36041e-06L-1.74846e-06 40L36.0652 40C37.3971 40 38.6744 39.4732 39.6161 38.5355C40.5579 37.5979 41.087 36.3261 41.087 35C41.087 33.6739 40.5579 32.4021 39.6161 31.4645C38.6744 30.5268 37.3971 30 36.0652 30C35.4944 30 34.947 29.7742 34.5434 29.3724C34.1398 28.9705 33.913 28.4255 33.913 27.8571L33.913 27.1429L46.8261 27.1429C48.7287 27.1429 50.5534 26.3903 51.8988 25.0508C53.2442 23.7112 54 21.8944 54 20C54 18.1056 53.2442 16.2888 51.8988 14.9492C50.5534 13.6097 48.7287 12.8571 46.8261 12.8571L41.087 12.8571L41.087 12.1429C41.087 11.5745 41.3137 11.0295 41.7173 10.6276C42.1209 10.2258 42.6683 10 43.2391 10C44.571 10 45.8483 9.47322 46.79 8.53553C47.7318 7.59785 48.2609 6.32608 48.2609 5C48.2609 3.67392 47.7318 2.40215 46.79 1.46447Z" fill="#222222"/>
</svg>
