<svg width="241" height="240" viewBox="0 0 241 240" fill="none" xmlns="http://www.w3.org/2000/svg">
<rect width="240" height="240" transform="translate(0.5)" fill="white"/>
<path fill-rule="evenodd" clip-rule="evenodd" d="M217.746 130.843C213.156 136.888 207.205 141.742 202.02 147.286C195.271 154.504 189.815 162.929 185.989 172.04C182.03 181.468 179.55 192.022 172.262 199.195C161.778 209.514 144.461 209.3 130.877 203.653C109.674 194.838 94.6663 175.577 83.1764 155.697C80.8689 151.704 78.5281 147.504 74.716 144.909C67.7854 140.191 58.5567 142.198 50.2095 142.984C44.2765 143.543 38.0974 143.342 32.6492 140.927C24.4898 137.311 19.0233 129.012 17.2546 120.264C15.4858 111.516 17.0163 102.384 19.8774 93.9306C27.7233 70.7481 45.7945 51.4217 68.023 41.1804C90.2515 30.9392 116.297 29.6885 139.702 36.8461C149.955 39.9819 160.032 44.8978 166.951 53.0894C173.054 60.3148 176.372 69.6867 183.072 76.3617C189.488 82.7529 198.289 85.9862 206.276 90.2551C214.262 94.524 222.174 100.792 223.993 109.664C225.517 117.1 222.336 124.798 217.746 130.843Z" fill="#FFC000"/>
<path fill-rule="evenodd" clip-rule="evenodd" d="M51.2363 54.366L51.4195 54.3759C54.6525 54.5619 58.386 55.9345 59.1554 59.0801C61.3905 51.0611 66.4871 43.8716 73.3138 39.1076C71.212 43.5564 70.3909 48.6015 70.9734 53.4872C72.7999 48.8438 76.1742 44.8246 80.4312 42.2217C78.5028 44.9534 77.3997 48.2598 77.3017 51.6021C77.2305 54.0325 77.7293 56.577 79.2509 58.4734C80.2336 59.6982 81.578 60.578 82.9505 61.3412C83.2938 61.5321 83.6405 61.7163 83.9902 61.8939C84.129 61.9644 84.2681 62.0337 84.4077 62.102C84.7315 62.2605 85.0577 62.4133 85.3862 62.5605C85.6806 62.6923 85.9769 62.8197 86.2749 62.9426L86.4721 63.0232C86.6687 63.1028 86.8661 63.1804 87.0642 63.2561L87.3904 63.3788L87.5731 63.4458L87.9279 63.5724L88.0621 63.6191L88.3721 63.7244C88.5791 63.7937 88.7867 63.8609 88.995 63.926L89.4119 64.0534L89.6839 64.1334L90.011 64.2263L90.3112 64.3084L90.7408 64.4207L90.929 64.468L91.2184 64.5386L91.3856 64.5782L91.6795 64.6455L91.9028 64.6949L92.0466 64.7259L92.4358 64.8066L92.8331 64.8841L93.2154 64.9541L93.5977 65.0197L94.0008 65.0842L94.3711 65.1392L94.7689 65.1938L95.1616 65.2431L95.5164 65.2839L95.7378 65.3075L96.0713 65.3403L96.3083 65.3618L96.5509 65.382L96.9452 65.4114L97.0729 65.42L97.4708 65.4438L97.859 65.4627L98.2365 65.477L98.4831 65.4842L98.8534 65.4918L99.0269 65.494L99.4216 65.496L99.8163 65.4937L99.9862 65.4914L100.341 65.4839L100.756 65.4707L100.997 65.4608L101.362 65.4428L101.762 65.4188L102.151 65.3912L102.545 65.3589L102.736 65.3417L103.12 65.304L103.523 65.2598L103.725 65.236L104.088 65.1903L104.476 65.1373L104.701 65.1045L104.889 65.0761L105.076 65.0467L105.437 64.9873L105.675 64.9459L105.836 64.917L106.042 64.879L106.433 64.8033L106.611 64.7673L106.809 64.7263L107.156 64.6514L107.556 64.5605L107.925 64.4722L108.134 64.4205L108.493 64.3284L108.709 64.271L109.077 64.1698L109.455 64.0617L109.627 64.0107L109.852 63.9426L110.214 63.8299L110.384 63.7753L110.568 63.7152L110.781 63.6445L110.93 63.5939L111.148 63.5184L111.505 63.3914L111.691 63.3236L112.061 63.1852L112.412 63.0489L112.776 62.9033L113.104 62.7676L113.336 62.6691L113.683 62.5182L113.855 62.4417L114.016 62.3687L114.207 62.2815L114.389 62.1964L114.548 62.1212L114.912 61.9454L115.078 61.8629L115.25 61.7767L115.581 61.6073L115.78 61.5029L115.95 61.4123L116.306 61.2187L116.446 61.1409L116.656 61.0227L116.792 60.9447L116.97 60.842L117.139 60.7426L117.309 60.6416L117.641 60.4398L117.96 60.2405L118.15 60.1195L118.297 60.0244L118.472 59.9094L118.613 59.8162L118.799 59.6911L118.94 59.5948L119.103 59.4823L119.283 59.3566L119.429 59.2528L119.599 59.1307C119.667 59.0817 119.734 59.0324 119.802 58.9828C119.826 58.6317 119.799 58.3244 119.731 58.049C119.452 57.8753 119.175 57.6842 118.903 57.4757C117.951 56.7468 117.06 55.5205 116.23 53.7967L116.011 53.4988C114.788 51.8134 113.862 50.1939 113.806 49.9363C113.428 48.2197 113.314 46.4703 113.335 44.7122L113.332 44.7016C113.156 43.4998 113.243 42.2712 113.531 41.041C113.582 40.4286 113.638 39.8171 113.695 39.2075L113.952 39.6141L113.975 39.5472C114.259 38.7571 114.811 40.2664 115.433 41.9577L116.968 44.3871C116.067 38.259 118.378 31.749 122.94 27.5596C120.697 36.4589 123.31 46.4278 129.63 53.0826C137.039 60.8839 148.551 63.8697 155.642 71.9606C162.01 79.2259 163.743 89.3237 167.783 98.1047L167.919 98.3969C169.362 101.484 171.326 104.613 174.463 105.945C177.52 107.242 181.014 106.558 184.26 105.855L193.37 103.88C190.187 110.918 180.793 114.339 173.83 110.997C176.099 114.265 180.289 116.084 184.226 115.509C189.92 114.678 194.363 109.435 200.109 109.12C201.617 109.038 203.258 109.377 204.259 110.507C205.701 112.135 205.18 114.887 203.565 116.343C201.95 117.799 199.595 118.153 197.435 117.907C200.086 116.905 202.91 111.544 201.02 111.744C196.453 112.228 189.22 115.944 184.056 119.991C185.207 119.678 186.576 119.883 187.745 119.645C190.482 119.089 191.493 118.562 193.868 117.907C192.604 120.618 189.527 121.23 186.369 122.779C191.374 122.058 196.161 120.639 201.166 119.919C202.972 119.659 207.606 121.385 207.495 122.156C207.457 122.426 204.244 122.378 203.694 122.363C201.573 122.306 200.031 121.902 198.187 122.95C192.972 125.916 185.682 126.309 180.076 124.173L181.032 124.9L181.752 125.443C185.121 127.971 188.62 130.374 192.604 131.687C197.199 133.2 202.64 133.02 206.439 130.041L206.569 129.937C209.516 127.552 213.23 126.131 217.015 125.941C212.73 127.999 208.793 130.781 205.424 134.135C208.451 132.249 212.465 132.063 215.655 133.659C213.225 133.709 210.811 134.385 208.709 135.604C207.858 136.097 206.957 137.106 207.495 137.929C207.737 138.3 208.196 138.459 208.63 138.547C212.011 139.231 215.152 137.086 218.002 135.014L218.861 134.388C221.934 132.155 226.16 130.202 229.338 132.284C223.178 135.722 218.902 142.495 212.059 144.207C206.595 145.574 200.912 143.31 195.933 140.679L194.722 140.037L194.218 139.772C191.411 138.305 188.482 136.964 185.37 137.193C181.619 137.468 177.93 141.32 179.408 144.779C180.37 147.032 183.01 148.074 185.449 148.307C187.888 148.539 190.386 148.201 192.772 148.758C198.099 150 201.518 154.771 205.576 158.449L206.503 159.279L206.777 159.521C208.956 161.438 211.872 163.8 214.94 164.673C218.388 165.655 222.05 164.637 224.01 164.673C228.012 164.746 232.323 165.995 234.614 169.276L234.021 169.107L233.619 168.996C231.214 168.341 228.954 167.913 226.724 168.387C225.635 168.618 219.065 172.404 212.059 169.673C206.461 167.491 201.995 162.696 199.725 161.003C196.398 158.521 185.719 152.891 186.897 154.152C187.034 154.573 186.508 154.452 185.508 153.933L185.678 154.301C187.649 158.624 187.805 162.022 186.145 164.493C184.417 167.066 181.882 167.45 178.54 165.646L177.777 165.134C175.822 163.818 174.487 162.884 173.772 162.333C173.084 161.803 174.851 173.242 178.54 176.842C180.266 178.527 185.828 179.619 190.53 181.852C191.86 182.483 193.342 183.769 194.974 185.709C192.751 184.59 190.784 183.876 189.073 183.567C181.659 182.229 176.349 183.918 173.194 179.791C170.038 175.665 170.439 174.173 170.105 170.659L169.516 164.493C165.939 169.748 162.59 173.206 159.469 174.866C156.675 176.352 153.856 176.336 151.012 174.817L150.879 174.745L150.938 174.78C153.283 176.163 155.321 177.118 157.052 177.647C159.006 178.245 161.478 178.576 164.466 178.641C155.885 183.838 148.398 183.238 142.006 176.842L141.658 176.492C138.174 172.956 133.363 167.292 130.72 158.995L130.524 158.369C129.381 154.766 128.332 152.55 129.196 145.652L129.296 144.878C129.507 143.176 129.738 140.328 129.253 137.621C129.04 136.428 128.255 134.667 126.899 132.336C121.364 138.932 118.401 145.466 118.01 151.938C117.62 158.41 119.053 165.839 122.309 174.224L122.374 174.399L122.425 174.544C123.15 175.314 123.853 176.221 124.507 177.321C127.869 182.973 132.51 188.403 132.736 194.975C132.877 199.084 131.108 203.219 128.04 205.955C130.638 199.212 128.634 190.963 123.255 186.146L123.09 186.001C117.228 180.893 113.504 173.403 112.971 165.646C113.013 165.8 113.058 165.95 113.106 166.095C112.399 162.756 112.087 159.346 112.172 155.865L112.182 155.504C112.303 151.727 112.901 146.411 113.978 139.555L113.704 140.299C112.654 143.172 111.918 145.56 111.688 146.877C110.041 156.326 110.318 168.533 111.688 174.927L110.915 175.176C98.5306 179.157 91.9231 180.563 91.0925 179.392L88.1515 174.927C79.0857 159.043 76.4905 138.417 80.668 120.103L80.7966 119.549L80.7143 119.793C79.0696 124.71 77.5651 131.929 77.095 138.434L77.0658 138.86C76.6183 145.726 77.3924 151.718 77.1043 153L77.095 153.038C76.2434 156.29 80.5116 168.791 85.5966 177.459C88.8474 183.001 93.9327 186.081 93.3265 187.099C92.8576 187.887 85.7071 183.195 79.8454 177.654L79.5154 177.339C74.1514 172.19 70.0528 166.349 69.9492 167.321C69.3383 173.053 77.095 184.385 77.095 185.647L77.0937 186.234C77.0685 191.576 76.6757 195.953 74.7449 200.508L74.5894 200.87C73.5163 203.333 72.0427 205.958 69.4535 206.535C71.9462 202.751 73.7284 198.502 74.6798 194.072C75.0968 192.131 75.3555 190.123 75.0527 188.16C74.6532 185.572 73.3017 183.223 71.7241 181.132C67.7005 175.799 61.8382 171.253 60.7848 164.656C60.2403 161.246 61.1064 157.771 60.9865 154.32C60.8712 151.003 59.8492 147.787 59.4463 144.492C58.4346 136.219 61.6111 127.541 67.7248 121.875C61.136 122.514 54.7815 125.368 49.9274 129.869C47.6866 131.947 45.7377 134.378 43.1834 136.055C39.9136 138.202 35.9423 138.931 32.0904 139.613C39.0397 134.961 45.0665 128.936 49.7216 121.988C46.1046 126.662 40.605 129.834 34.7484 130.625L35.1575 130.358C38.766 127.982 42.235 125.196 44.3499 121.439C46.5446 117.541 46.9902 112.385 44.4344 108.713C41.8786 105.042 35.9239 103.883 32.7944 107.08C36.0626 102.944 41.0771 100.235 46.3279 99.7701C51.4596 99.3154 58.1101 100.075 62.6494 97.6056C54.817 96.0195 46.8864 94.9186 38.9182 94.3122C37.4082 94.1973 35.5908 93.9513 33.9262 93.6448C32.2306 93.4241 30.7722 93.0982 29.632 92.5219C29.506 92.4648 29.3964 92.4084 29.3054 92.3527C29.2665 92.3289 29.2305 92.3059 29.1972 92.2836L29.1208 92.2317L29.1021 92.2168C28.3424 91.6456 29.5306 91.587 30.0693 91.4107C29.8344 91.1324 29.1976 90.9589 29.1605 90.6931C29.1577 90.6729 29.1649 90.6517 29.1798 90.6296L29.1613 90.5716C29.1348 90.2799 29.8582 90.2587 29.8317 89.967C29.6212 89.549 29.2402 89.5243 29.2337 89.318L29.1981 89.2784C29.032 89.0835 29.0618 88.9376 29.7597 88.9458L29.8317 88.9471C31.4182 88.9869 32.1557 89.1092 33.5894 89.7621L33.6122 89.7681L33.2806 89.4086C32.8709 88.9566 32.3858 88.3362 32.8825 88.1101C32.8974 88.0999 32.9156 88.0928 32.9372 88.0885C33.0274 88.0565 33.1444 88.0353 33.2921 88.0271C35.709 87.8925 36.0152 89.1364 38.0111 89.1665L38.4942 89.1725C46.5185 89.2529 60.9114 88.4566 60.4104 88.2841C59.8992 88.108 50.0019 80.9047 43.8752 81.0802C40.8406 81.1671 37.6321 82.2102 34.8826 80.9231C39.9087 78.8449 45.7178 78.2005 50.7863 80.1733C53.6466 81.2865 56.1426 83.1666 58.9217 84.4695C64.9196 87.2814 72.2052 87.1793 78.1219 84.2003C71.5941 84.3541 65.0338 82.8518 59.2235 79.8724C67.5564 80.7658 76.0807 79.8273 84.0196 77.1424C77.9084 73.617 70.8545 72.0929 63.7687 71.8226L62.7621 71.8227C61.1612 71.8188 59.9381 71.7987 59.0126 71.8228L58.7135 71.8327C49.9854 72.1848 41.4063 74.0874 32.8291 75.7412C32.5413 75.7967 32.2265 75.8281 31.9059 75.8326L31.8257 75.8332C30.4332 75.8332 28.9667 75.323 29.1613 74.0679C33.523 73.9881 37.3561 71.3689 41.2945 69.4926C46.3802 67.0697 52.0131 65.8048 57.6462 65.8163L57.9535 65.8182L58.2607 65.8226C58.1783 65.7307 58.095 65.6395 58.0108 65.5491L57.8248 65.352L57.66 65.1818L57.4932 65.0136C57.2804 64.8016 57.0629 64.5945 56.8409 64.3923L56.6491 64.2198L56.4586 64.0529L56.1959 63.8295L56.0329 63.6947L55.8549 63.5506L55.6087 63.3568L55.496 63.2701L55.3243 63.1404L55.0541 62.942L54.8727 62.8126L54.5953 62.6203L54.5464 62.587C54.4094 62.4943 54.2713 62.4033 54.1321 62.3139L53.9853 62.2206L53.8053 62.1084L53.6113 61.9905L53.3965 61.8633L53.1322 61.7116L52.9067 61.5862L52.7158 61.4829L52.5294 61.3846L52.2482 61.2409L52.0365 61.1363L51.733 60.9916L51.5129 60.8905L51.237 60.7682L50.9462 60.6445L50.7163 60.5505C50.5739 60.4933 50.4309 60.4378 50.2873 60.3839L50.0714 60.3043C49.8627 60.2286 49.6528 60.1565 49.4417 60.0879C49.3484 60.0575 49.2549 60.0279 49.1613 59.999L48.9561 59.9369C48.8848 59.9157 48.8135 59.8949 48.742 59.8746L48.5313 59.8158C45.3359 58.9442 42.7041 56.2568 41.8993 53.044C44.6736 54.5926 48.0562 54.2056 51.2363 54.366ZM64.3985 97.9675L64.4616 97.9872C65.303 98.2419 66.4877 98.5262 67.9274 98.7509C66.7538 98.4785 65.5773 98.2175 64.3985 97.9675ZM33.8255 88.3537L33.8294 88.3556L34.0188 88.4238C34.1847 88.4823 34.3712 88.5447 34.5798 88.6082L34.4175 88.5321C34.2265 88.4457 34.0296 88.3715 33.8255 88.3537Z" fill="white"/>
<path fill-rule="evenodd" clip-rule="evenodd" d="M127.615 117.429C126.918 117.288 126.103 117.182 125.578 117.662C120.081 122.684 117.149 129.875 114.81 136.944C113.229 141.724 111.833 146.601 111.35 151.612C110.961 155.644 111.169 159.706 111.378 163.752C111.568 167.455 111.759 171.157 111.95 174.86C111.524 175.148 103.765 163.44 106.445 148.03C109.125 132.621 115.91 119.152 120.508 114.595C126.978 109.861 134.012 118.726 127.615 117.429Z" fill="#E7EAEE"/>
<path d="M50.5294 81.5544C53.2562 82.6531 55.5216 84.6403 58.096 86.0597C60.9001 87.6058 64.0294 88.4561 67.1517 89.1664C77.8821 91.6074 46.3407 79.8667 50.5294 81.5544Z" fill="white"/>
<path fill-rule="evenodd" clip-rule="evenodd" d="M115.036 89.3786C122.577 83.501 124.007 86.5435 125.72 85.7258C123.743 87.341 121.61 89.24 121.399 91.784C121.269 93.3559 121.918 94.8775 122.577 96.3106C123.491 98.2985 124.472 100.294 125.941 101.916C128.927 105.212 115.995 97.7294 114.909 95.2921C114.408 94.1675 113.895 92.975 114.032 91.7513C114.128 90.889 114.429 89.8516 115.036 89.3786Z" fill="#E7EAEE"/>
<path d="M117.2 75.8507C117.536 74.1955 118.88 72.9441 120.253 71.96C124.423 68.9701 129.561 67.3534 134.692 67.4167C134.343 67.2517 135.106 67.3612 135.905 68.0276C136.899 68.8572 137.416 69.4595 137.816 70.9084C136.509 70.6659 135.298 69.9328 134.477 68.8865C134.826 70.7359 136.375 72.2992 138.221 72.6652C137.182 72.9354 136.23 73.5337 135.536 74.3533C137.24 73.7272 139.338 74.4599 140.281 76.0109C137.688 75.6731 134.96 76.5798 133.085 78.4029C135.976 77.3273 139.473 78.1383 141.596 80.3765C137.381 80.0515 133.155 79.8786 128.928 79.8584C131.152 80.304 133.186 81.6381 134.48 83.5011C134.174 83.502 132.295 83.3134 128.928 82.3931C126.825 81.8183 120.869 79.8584 120.869 79.8584C120.869 79.8584 120.25 79.4859 119.972 79.3046C117.928 77.9733 117.004 76.822 117.2 75.8507Z" fill="white"/>
<ellipse cx="123.224" cy="71.0861" rx="1.02009" ry="1.19941" fill="#FFB61D"/>
<path fill-rule="evenodd" clip-rule="evenodd" d="M120.371 0.21593C120.22 0.257786 119.983 0.229316 120.007 0.0750418C120.096 0.0288931 120.197 -0.0185919 120.295 0.00735863C120.392 0.0333092 120.456 0.174691 120.377 0.238275L120.371 0.21593Z" fill="#00160A"/>
<ellipse cx="127.315" cy="77.7605" rx="1.12048" ry="1.28" fill="#FFB61D"/>
<path fill-rule="evenodd" clip-rule="evenodd" d="M205.821 158.669L205.732 158.59C204.696 157.661 203.702 156.659 202.711 155.657C199.754 152.672 196.812 149.7 192.772 148.758C191.315 148.418 189.816 148.411 188.314 148.405C187.357 148.401 186.398 148.397 185.449 148.307C183.01 148.074 180.37 147.032 179.408 144.779C177.93 141.32 181.619 137.468 185.37 137.193C188.885 136.935 192.168 138.679 195.304 140.346C195.514 140.457 195.724 140.569 195.933 140.679C200.912 143.31 206.595 145.574 212.059 144.207C216.127 143.189 219.288 140.383 222.477 137.552C224.652 135.621 226.84 133.678 229.338 132.284C226.16 130.202 221.934 132.155 218.86 134.388C218.713 134.495 218.565 134.603 218.417 134.712C215.458 136.87 212.176 139.264 208.63 138.547C208.196 138.459 207.737 138.3 207.495 137.929C206.957 137.106 207.858 136.097 208.709 135.604C210.811 134.385 213.225 133.709 215.655 133.659C212.465 132.063 208.451 132.249 205.424 134.135C208.793 130.781 212.73 127.999 217.015 125.941C213.23 126.131 209.516 127.552 206.569 129.937C202.765 133.015 197.252 133.218 192.604 131.687C187.956 130.156 183.969 127.139 180.076 124.173C185.681 126.309 192.972 125.916 198.187 122.95C199.648 122.119 200.921 122.201 202.442 122.299C202.84 122.325 203.254 122.351 203.694 122.363C204.244 122.378 207.456 122.426 207.495 122.156C207.606 121.385 202.972 119.659 201.166 119.919C198.663 120.279 196.215 120.814 193.767 121.349C191.319 121.884 188.871 122.418 186.369 122.779C187.126 122.407 187.879 122.089 188.603 121.784C190.898 120.815 192.907 119.968 193.868 117.907C192.984 118.151 192.288 118.377 191.623 118.594C190.501 118.959 189.463 119.296 187.745 119.645C187.207 119.754 186.626 119.77 186.044 119.786C185.361 119.804 184.677 119.822 184.056 119.991C189.22 115.944 196.453 112.228 201.02 111.744C202.91 111.544 200.086 116.905 197.435 117.907C199.595 118.153 201.95 117.799 203.565 116.343C205.18 114.887 205.7 112.135 204.259 110.507C203.258 109.377 201.617 109.038 200.109 109.12C197.091 109.285 194.432 110.811 191.763 112.342C189.35 113.726 186.929 115.115 184.225 115.509C180.289 116.084 176.098 114.265 173.83 110.997C180.793 114.339 190.187 110.918 193.37 103.88L184.26 105.855C181.014 106.558 177.52 107.242 174.463 105.945C171.326 104.613 169.362 101.484 167.919 98.3969C166.523 95.4138 165.405 92.2723 164.29 89.1367C162.096 82.9718 159.91 76.83 155.642 71.9606C151.984 67.7862 147.148 64.9708 142.307 62.1518C137.764 59.5069 133.216 56.8589 129.63 53.0826C123.31 46.4278 120.697 36.4589 122.94 27.5596C118.378 31.749 116.067 38.259 116.968 44.3871L113.695 39.2075C113.363 42.7838 113.034 46.4285 113.806 49.9363C114.577 53.4442 116.64 56.8576 119.909 58.345C115.24 54.06 113.002 47.286 114.199 41.0627C114.793 43.2012 116.135 45.124 117.938 46.4186C116.893 40.1714 118.456 33.5291 122.178 28.4041C119.948 38.0085 123.34 48.709 130.697 55.2741C133.862 58.0985 137.609 60.1414 141.355 62.1834C145.253 64.3079 149.148 66.4315 152.384 69.4333C158.811 75.3966 161.86 84.0631 164.629 92.3823C166.256 97.2717 168.154 102.55 172.504 105.313C178.376 109.045 186.051 106.677 192.559 104.215C189.095 111.147 179.185 113.846 172.684 109.628C174.104 113.684 178.37 116.554 182.662 116.34C185.793 116.184 188.677 114.603 191.526 113.04C194.983 111.144 198.388 109.277 202.119 110.021C202.722 110.141 203.328 110.339 203.8 110.733C205.148 111.859 204.814 114.159 203.587 115.415C202.36 116.671 200.566 117.152 198.864 117.581C200.363 116.681 201.982 115.629 202.467 113.949C202.952 112.269 202.642 111.261 201.166 111.261C195.435 111.261 189.178 115.508 184.041 118.996C183.579 119.309 183.127 119.616 182.684 119.913C186.166 120.626 189.887 120.103 193.038 118.459C190.129 120.704 186.511 122.015 182.839 122.156C186.266 124.485 190.533 123.305 194.808 122.123C199.042 120.953 203.285 119.78 206.73 122.009C203.199 120.597 199.508 121.88 195.772 123.179C192.488 124.32 189.169 125.474 185.89 124.821C185.163 124.676 184.427 124.445 183.691 124.213C181.85 123.633 180.013 123.055 178.334 123.848C182.731 127.513 187.791 130.379 193.195 132.267C196.062 133.269 199.198 133.997 202.114 133.145C204.006 132.592 205.634 131.424 207.258 130.259C209.015 128.999 210.767 127.741 212.847 127.268C208.984 129.627 205.578 132.73 202.872 136.357C206.214 133.701 210.761 132.626 214.94 133.505C214.114 133.764 213.245 133.845 212.377 133.926C211.365 134.019 210.354 134.113 209.417 134.491C207.678 135.192 206.461 137.725 207.925 138.897C208.386 139.265 208.996 139.389 209.584 139.427C212.846 139.639 215.673 137.676 218.487 135.722C221.405 133.696 224.309 131.68 227.67 132.104C224.458 135.346 221.175 138.598 217.244 140.916C213.314 143.234 208.607 144.557 204.142 143.616C201.311 143.02 198.772 141.574 196.242 140.134C195.572 139.752 194.902 139.371 194.228 139.006C191.009 137.264 187.332 135.832 183.756 136.61C180.18 137.388 177.106 141.224 178.369 144.659C179.281 147.138 181.994 148.49 184.593 148.964C185.721 149.169 186.867 149.257 188.013 149.344C189.508 149.458 191 149.572 192.448 149.948C196.669 151.045 199.824 154.118 203.009 157.221C205.395 159.545 207.799 161.886 210.68 163.425C213.443 164.902 213.976 165.563 214.655 165.79C215.302 166.007 216.082 165.828 219.065 165.585C223.861 165.194 229.371 164.932 232.721 168.387C228.984 166.357 226.571 167.279 223.831 168.326C221.715 169.134 219.405 170.016 216.141 169.673C211.5 169.185 207.804 166.063 204.128 162.96C202.76 161.805 201.395 160.652 199.986 159.639C199.083 158.99 198.249 158.348 197.453 157.735C193.666 154.82 190.754 152.579 185.546 153.507C186.901 156.32 187.281 159.591 186.609 162.641C186.262 164.217 185.514 165.871 184.044 166.538C182.142 167.402 179.964 166.269 178.242 165.085C174.869 162.767 171.726 160.114 168.874 157.179C168.618 156.916 168.364 156.65 168.109 156.383C166.457 154.655 164.786 152.906 162.651 151.862C156.2 148.709 148.285 153.44 144.783 159.708C145.947 155.349 149.34 151.651 153.581 150.116C157.823 148.581 162.797 149.253 166.48 151.858C167.3 152.438 168.115 153.12 168.936 153.806C171.589 156.025 174.296 158.29 177.386 157.296C174.131 157.479 171.584 155.349 168.983 153.173C167.392 151.841 165.78 150.493 163.974 149.648C158.905 147.275 152.716 149.219 148.334 152.701C145.616 154.86 143.207 158.533 144.807 161.613C147.286 154.979 154.89 149.796 161.495 152.35C164.236 153.409 166.352 155.556 168.431 157.666C168.737 157.976 169.042 158.285 169.347 158.59C171.765 160.999 174.37 163.219 177.133 165.223C178.746 166.393 180.579 167.536 182.567 167.394C185.328 167.196 187.364 164.472 187.745 161.729C188.126 158.987 187.756 156.784 186.897 154.152C185.719 152.891 196.398 158.521 199.725 161.003C200.285 161.421 200.98 162.028 201.792 162.738C204.269 164.904 207.843 168.03 212.059 169.673C217.918 171.957 223.473 169.683 225.771 168.742C226.221 168.558 226.546 168.425 226.724 168.387C229.259 167.848 231.832 168.474 234.614 169.276C232.323 165.995 228.012 164.746 224.01 164.673C223.416 164.662 222.665 164.748 221.812 164.846C219.849 165.07 217.343 165.357 214.94 164.673C211.397 163.665 208.056 160.671 205.821 158.669ZM185.218 122.535C185.518 122.449 185.842 122.445 186.145 122.524L186.127 122.583C185.824 122.612 185.516 122.596 185.218 122.535ZM50.5294 81.5545C52.185 82.2216 53.6706 83.2163 55.1585 84.2125L55.1586 84.2126C56.1212 84.8571 57.0847 85.5022 58.096 86.0598C60.9001 87.6059 64.0293 88.4562 67.1516 89.1665C77.8821 91.6075 88.952 92.5516 99.9408 91.9629C103.75 91.7588 107.657 91.3413 111.046 89.5907C115.268 87.4105 118.351 83.153 119.106 78.4621C117.42 78.5611 116.225 76.546 116.56 74.8908C116.896 73.2355 118.24 71.9841 119.613 71.0001C123.783 68.0102 128.921 66.3935 134.052 66.4568C133.716 66.298 133.471 66.107 133.223 65.9126C132.891 65.6535 132.551 65.3881 131.975 65.1847C133.301 64.5695 134.694 64.9466 135.819 65.8792C135.274 64.846 135.366 63.5081 136.047 62.559C137.321 65.1244 139.498 67.2297 142.105 68.4167C139.362 67.8776 136.968 65.8192 136.025 63.1875C135.795 64.8021 136.283 66.5031 137.322 67.7584C136.069 66.3804 134.328 65.4514 132.484 65.1847C135.039 66.0898 137.094 68.2958 137.816 70.9085C136.509 70.6659 135.298 69.9329 134.477 68.8865C134.826 70.736 136.375 72.2992 138.221 72.6652C137.182 72.9355 136.23 73.5337 135.536 74.3534C137.24 73.7272 139.338 74.46 140.281 76.011C137.688 75.6732 134.96 76.5798 133.085 78.403C135.976 77.3273 139.473 78.1383 141.596 80.3766C137.381 80.0515 133.155 79.8786 128.928 79.8584C131.152 80.3041 133.186 81.6382 134.48 83.5011C133.12 83.5051 131.761 83.073 130.653 82.2836C131.663 82.1407 132.72 82.3556 133.593 82.8815C131.78 81.295 129.55 80.1885 127.19 79.7038C131.636 79.2115 136.143 79.2805 140.572 79.9085C138.218 78.2699 135.029 77.9062 132.367 78.9726C133.817 76.6637 136.647 75.3019 139.356 75.6095C138.168 74.4567 136.181 74.2389 134.772 75.107C135.017 73.9184 135.983 72.9093 137.16 72.6123C136.252 72.1387 135.311 71.6356 134.718 70.8012C134.125 69.9667 134.01 68.6967 134.744 67.9827C135.181 68.8895 135.893 69.6603 136.759 70.1733C136.863 70.2634 136.986 70.3329 137.137 70.3761C137.008 70.3139 136.882 70.2462 136.759 70.1733C136.416 69.8768 136.291 69.3574 136.162 68.8198C136.036 68.2984 135.907 67.7599 135.571 67.3907C135.073 66.844 134.24 66.7995 133.501 66.828C128.104 67.036 122.797 69.1339 118.717 72.6729C117.709 73.5471 116.693 74.8529 117.197 76.0878C117.446 76.6947 118.009 77.1041 118.546 77.4809L122.249 80.081C121.398 80.0039 120.564 79.7408 119.824 79.3155C118.799 83.9824 115.561 88.1126 111.274 90.2218C108.136 91.7658 104.588 92.237 101.102 92.52C90.92 93.3465 80.6235 92.7449 70.6074 90.7381C69.8727 90.591 69.1388 90.4361 68.4047 90.2813C65.6957 89.7098 62.9846 89.138 60.226 88.9471C56.9308 88.7192 53.0227 88.9977 49.1945 89.2705H49.1944C43.3631 89.6861 37.7171 90.0885 34.7043 88.6676C34.6723 88.6525 34.6401 88.6371 34.6077 88.6215C34.2722 88.4609 33.9186 88.2915 33.5408 88.369C32.6036 88.369 33.5311 89.0451 34.4011 89.6792C34.7863 89.9599 35.1603 90.2325 35.356 90.4345C34.3982 90.2331 33.5751 90.0543 32.752 89.8755L32.7514 89.8754C31.928 89.6965 31.1046 89.5176 30.1464 89.3162C28.2303 88.9135 31.9688 90.5539 33.292 90.8043C32.9946 90.7825 32.5568 90.7353 32.0846 90.6845L32.0845 90.6845L32.0844 90.6845C30.6322 90.5281 28.8545 90.3366 29.8316 90.7381C30.4791 91.0042 31.0827 91.2201 31.6862 91.4359C32.2897 91.6518 32.8933 91.8677 33.5408 92.1338C33.2135 92.1257 32.7264 92.0905 32.2071 92.0528H32.207C30.702 91.9438 28.9265 91.8152 29.986 92.2743C31.4111 92.8918 36.6922 93.5953 40.2698 93.8448C49.378 94.48 58.4824 95.563 67.3447 97.7591C68.4287 98.0277 69.5128 98.3134 70.5981 98.5994C75.3966 99.8639 80.2185 101.135 85.1528 100.963C85.1548 101.588 84.3213 101.8 83.6955 101.791C79.8918 101.739 76.1732 100.797 72.4778 99.861L72.4777 99.8609C72.0277 99.7469 71.578 99.633 71.1286 99.5208C60.5637 96.8829 49.7759 95.1385 38.9181 94.3122C35.5266 94.0541 30.5845 93.1351 29.3053 92.3527C28.3933 91.7949 29.0548 91.6481 29.6534 91.5153C29.8944 91.4618 30.1252 91.4106 30.239 91.3357L30.2272 91.3317C29.8212 91.1928 29.2875 91.0102 29.1612 90.5716C29.148 90.4257 29.3222 90.3475 29.4964 90.2693C29.6706 90.1911 29.8449 90.1129 29.8316 89.967C29.8204 89.843 29.6386 89.6837 29.4608 89.5279C29.1062 89.2171 28.7678 88.9205 29.8316 88.9471C31.4289 88.9871 32.1656 89.1109 33.6186 89.7754C33.5762 89.7273 33.5218 89.6691 33.4606 89.6036L33.4604 89.6033C32.9731 89.0816 32.0525 88.0961 33.292 88.0271C34.6008 87.9542 35.2907 88.2856 35.9651 88.6095C36.5361 88.8838 37.0959 89.1527 38.011 89.1665C45.9248 89.2857 60.9215 88.4601 60.4103 88.2841C60.3275 88.2555 59.9984 88.0426 59.479 87.7066C56.7916 85.968 49.0094 80.9332 43.8751 81.0802C42.991 81.1055 42.0922 81.212 41.1942 81.3184C39.01 81.5771 36.831 81.8352 34.8825 80.9231C39.9087 78.8449 45.7177 78.2005 50.7862 80.1733C52.4132 80.8065 53.9223 81.6879 55.4327 82.57C56.5776 83.2387 57.7233 83.9077 58.9216 84.4695C64.9195 87.2814 72.2051 87.1793 78.1218 84.2003C71.594 84.3541 65.0337 82.8518 59.2234 79.8724C67.5563 80.7658 76.0806 79.8273 84.0195 77.1424C76.453 72.7775 67.4415 71.4805 58.7134 71.8327C51.1714 72.137 43.7405 73.599 36.326 75.0577L36.3259 75.0578C35.16 75.2871 33.9945 75.5165 32.829 75.7412C31.2702 76.0417 28.9179 75.6368 29.1612 74.068C32.5598 74.0057 35.6375 72.4018 38.6941 70.8089C39.5603 70.3575 40.4248 69.9069 41.2944 69.4926C46.5651 66.9815 52.4234 65.7143 58.2607 65.8226C55.6812 62.9455 52.2592 60.8328 48.5312 59.8158C45.3358 58.9442 42.704 56.2568 41.8992 53.044C44.0615 54.2509 46.5932 54.2821 49.1106 54.3131H49.1106C49.8853 54.3226 50.6586 54.3322 51.4194 54.3759C54.6524 54.5619 58.3859 55.9345 59.1553 59.0801C61.3904 51.0611 66.487 43.8716 73.3137 39.1076C71.2119 43.5564 70.3908 48.6015 70.9734 53.4872C72.7998 48.8438 76.1741 44.8246 80.4312 42.2217C78.5027 44.9534 77.3996 48.2598 77.3016 51.6021C77.2304 54.0325 77.7292 56.577 79.2508 58.4734C80.2335 59.6983 81.5779 60.578 82.9504 61.3412C94.3911 67.7025 109.529 66.6768 120.007 58.8303C116.411 62.9583 111.084 65.3249 105.662 66.0821C100.24 66.8392 94.7067 66.1015 89.3872 64.8085C84.7954 63.6924 79.8642 61.8035 77.7008 57.6023C75.4323 53.1972 77.0174 47.8079 79.244 43.3815C75.6066 46.4284 72.6873 50.327 70.7873 54.675C69.9219 50.2838 70.247 45.6639 71.7189 41.4372C65.5797 46.2867 61.215 53.3345 59.609 60.9915C58.2952 57.6115 54.9294 55.1283 51.3122 54.8703C50.3378 54.8007 49.3391 54.8757 48.3449 54.9503C46.4938 55.0892 44.6583 55.2269 43.0238 54.4291C43.8919 57.0333 46.6718 58.0681 49.3703 59.0726L49.3703 59.0726C50.0818 59.3375 50.7877 59.6003 51.4514 59.8892C54.912 61.3955 57.6884 64.0961 60.3819 66.7399C55.1541 65.6751 49.7087 66.8838 44.7293 68.7994C42.2452 69.755 39.8337 70.8844 37.4222 72.0139L37.4221 72.0139C34.9997 73.1485 32.5773 74.283 30.0814 75.2414C33.2433 75.3459 36.3531 74.5612 39.4259 73.7858C39.6178 73.7374 39.8094 73.689 40.001 73.6409C52.1613 70.5862 65.2789 68.52 77.0153 72.9314C78.0837 73.3331 79.1326 73.7861 80.1813 74.2389L80.1815 74.239C81.6597 74.8774 83.1374 75.5156 84.6689 76.0094C93.584 78.8842 103.268 76.6159 112.268 74.0186C104.839 78.0818 96.0099 79.5237 87.6745 78.0351C85.2279 77.5981 82.7652 78.2831 80.3489 78.9552C79.9842 79.0567 79.6205 79.1578 79.2581 79.2548C74.214 80.6043 68.9604 81.1683 63.7448 80.9202C71.1663 84.249 79.4797 83.5623 87.7913 82.8758C96.1355 82.1866 104.478 81.4975 111.914 84.8717C101.733 82.4886 91.0168 82.4274 80.81 84.6943C79.7643 84.9265 78.7117 85.1828 77.6549 85.4401C72.3695 86.7271 66.9809 88.0391 61.8532 86.4887C59.5883 85.8039 57.5426 84.5982 55.4945 83.3911C53.6788 82.321 51.8612 81.2497 49.8874 80.5394C45.7864 79.0635 41.1066 79.2727 37.1537 81.1088C41.6248 80.4744 46.3407 79.8667 50.5294 81.5545ZM137.523 67.9877C137.457 67.91 137.391 67.8335 137.322 67.7584C137.387 67.8366 137.454 67.9131 137.523 67.9877ZM130.162 69.5998L129.894 69.3327C130.234 68.8676 130.208 68.169 129.834 67.7306C129.918 67.5717 130.169 67.5796 130.3 67.7029C130.431 67.8262 130.472 68.0156 130.501 68.1934C130.581 68.6954 130.573 69.3001 130.162 69.5998ZM129.928 75.5617C130.341 74.7502 130.434 73.7804 130.181 72.9053C129.995 72.9039 129.81 72.8242 129.68 72.6893C129.875 73.6303 129.836 74.6188 129.567 75.5415C129.679 75.4812 129.824 75.4893 129.928 75.5617ZM121.514 72.9053C121.358 72.9256 121.266 73.0888 121.336 73.23C121.764 74.1028 123.142 76.7375 124.539 77.5582C124.647 77.5601 124.753 77.4967 124.803 77.401C123.421 76.5202 122.08 73.739 121.76 73.0421C121.717 72.9475 121.617 72.8918 121.514 72.9053ZM129.898 81.4646L129.33 80.9241C129.653 80.8061 130.048 80.928 130.247 81.2076C130.447 81.4872 130.435 81.8999 130.219 82.1673C130.131 82.277 130.008 82.3641 129.868 82.3867C129.762 82.4041 129.653 82.3831 129.547 82.3622C129.121 82.2784 128.688 82.1919 128.308 81.9826C127.929 81.7733 127.604 81.4176 127.544 80.9882C128.162 81.495 128.94 81.8037 129.737 81.8584L129.898 81.4646ZM127.631 82.1994C126.05 82.4947 124.491 82.9011 122.967 83.4147C124.277 83.4512 125.574 83.8667 126.661 84.5981C128.056 85.5371 129.707 86.0924 131.386 86.1876C129.595 86.636 127.595 86.1419 126.219 84.9108C125.555 84.317 124.659 84.0338 123.772 83.9613C122.884 83.8888 121.993 84.0105 121.112 84.1376C122.379 82.9284 124.144 82.4265 125.834 81.9657C126.456 81.7963 127.248 81.6808 127.631 82.1994ZM125.72 85.726C124.007 86.5437 122.514 87.8167 121.436 89.3788C120.943 90.0929 120.528 90.8892 120.432 91.7515C120.295 92.9752 120.808 94.1677 121.309 95.2923C122.395 97.7295 123.509 100.21 125.286 102.2C128.04 105.284 131.99 106.803 135.904 108.309L135.904 108.309L135.904 108.309L135.904 108.31L135.905 108.31L135.906 108.31L135.906 108.31L135.906 108.31L135.906 108.31L135.906 108.31L135.906 108.31L135.906 108.31L135.906 108.31L135.906 108.31L135.906 108.31C136.928 108.704 137.948 109.096 138.944 109.515C152.504 115.225 162.754 126.846 170.509 139.35L170.575 139.457C171.582 141.082 172.632 142.775 174.272 143.749C165.885 128.533 153.682 114.693 137.576 108.178C136.884 107.898 136.181 107.629 135.477 107.359L135.476 107.359L135.476 107.359L135.475 107.359L135.475 107.358L135.475 107.358L135.474 107.358L135.474 107.358L135.474 107.358L135.474 107.358L135.473 107.358L135.471 107.357L135.47 107.357L135.469 107.356L135.468 107.356C131.973 106.017 128.425 104.657 125.941 101.916C124.472 100.294 123.491 98.2987 122.576 96.3107C121.917 94.8777 121.269 93.3561 121.399 91.7842C121.61 89.2401 123.743 87.3412 125.72 85.726ZM81.1325 156.002C81.7092 159.093 82.4371 162.168 83.5685 165.102C84.608 167.797 85.9855 170.362 87.6586 172.717C81.5651 166.155 79.7781 156.731 79.1032 147.801C78.5641 140.668 78.5665 133.494 79.1106 126.361C77.0398 137.154 76.6196 148.372 78.9923 159.103C81.365 169.834 86.6512 180.067 94.8042 187.437C95.149 187.749 94.824 188.382 94.3694 188.479C93.9148 188.576 93.4636 188.335 93.0616 188.102C84.5365 183.154 75.9465 177.367 71.2735 168.688C71.0772 168.324 70.9672 167.738 71.3612 167.611C76.7859 175.386 83.9875 181.914 92.2566 186.552C81.6683 176.291 76.5973 161.261 76.1905 146.522C75.7837 131.784 79.6524 117.233 84.8145 103.422C85.4795 101.643 86.2141 99.8011 87.6322 98.5376C79.8391 116.482 77.5442 136.77 81.1325 156.002ZM181.055 149.404C179.988 149.666 178.832 149.551 177.836 149.085C180.012 150.621 181.99 152.436 183.708 154.471C182.483 154.192 181.347 153.535 180.494 152.613L182.266 155.906L179.267 153.261L180.247 156.076C175.143 151.938 171.039 146.709 166.946 141.495L166.945 141.495L166.945 141.495C161.946 135.126 156.963 128.778 150.194 124.464C143.004 119.881 134.457 118.039 126.114 116.278C126.661 115.921 126.98 115.244 126.908 114.595C122.31 119.152 118.625 124.626 116.134 130.6C115.095 133.091 114.263 135.662 113.433 138.23C112.352 141.572 111.267 144.931 110.711 148.399C109.932 153.262 110.212 158.225 110.493 163.142L111.11 173.922C111.14 174.436 111.524 175.148 111.95 174.861L111.378 163.752C111.169 159.707 110.961 155.644 111.35 151.612C111.833 146.601 113.229 141.724 114.81 136.944C117.149 129.875 120.081 122.684 125.578 117.662C126.103 117.182 126.918 117.288 127.615 117.429C134.012 118.726 140.357 120.496 146.215 123.375C152.073 126.254 157.449 130.291 161.291 135.568C166.852 143.207 173.106 150.342 179.95 156.857C180.509 156.658 180.887 156.042 180.81 155.454C181.201 156.079 181.942 156.467 182.678 156.433L182.742 154.928C183.239 155.332 184.016 155.342 184.523 154.951C183.527 153.125 182.062 151.557 180.308 150.439L181.553 150.36C182.037 149.808 181.348 149.016 180.731 148.618L173.483 143.941C175.67 146.177 178.244 148.034 181.055 149.404ZM32.0903 139.613C35.9422 138.931 39.9135 138.202 43.1833 136.055C44.9154 134.917 46.3691 133.434 47.8242 131.948C48.515 131.243 49.206 130.538 49.9273 129.869C54.7814 125.368 61.1359 122.514 67.7247 121.875C61.6111 127.541 58.4345 136.219 59.4463 144.492C59.61 145.831 59.8761 147.157 60.1419 148.483C60.5301 150.418 60.918 152.351 60.9864 154.32C61.0358 155.741 60.9179 157.167 60.8003 158.59C60.6322 160.623 60.4645 162.651 60.7847 164.656C61.5466 169.427 64.8239 173.126 68.1018 176.825C69.3561 178.24 70.6105 179.656 71.7241 181.132C73.3016 183.223 74.6532 185.572 75.0526 188.16C75.3554 190.123 75.0967 192.131 74.6797 194.072C73.7283 198.502 71.9461 202.751 69.4534 206.535C72.1699 205.929 73.6585 203.07 74.7448 200.508C76.7458 195.787 78.6397 190.536 77.0949 185.647C76.471 183.673 75.3321 181.933 74.1915 180.191L74.1912 180.191C73.6643 179.386 73.1371 178.581 72.6602 177.752C69.34 171.979 68.5136 164.827 70.43 158.449C69.4417 165.285 70.9204 172.451 74.534 178.337C74.8781 178.898 75.2421 179.45 75.6061 180.002C76.6459 181.578 77.6863 183.155 78.2681 184.942C78.807 186.596 78.9257 188.362 78.8617 190.101C78.6329 196.322 76.0275 202.426 71.6938 206.895C71.0144 207.596 69.9628 208.297 69.1485 207.759C68.3208 207.213 68.5779 205.947 68.9762 205.038C69.5522 203.725 70.2317 202.432 70.9111 201.139C72.6861 197.761 74.461 194.384 74.3906 190.637C74.2944 185.515 70.7573 181.176 67.2914 177.403L67.1196 177.216C63.7022 173.497 60.0546 169.528 59.344 164.54C59.0569 162.524 59.2799 160.496 59.5034 158.463C59.657 157.066 59.8108 155.667 59.7995 154.268C59.7826 152.164 59.3933 150.094 59.0036 148.022C58.7382 146.61 58.4725 145.198 58.3242 143.772C57.552 136.354 60.1491 128.65 65.255 123.214C59.8986 124.282 54.8405 126.809 50.77 130.451C49.94 131.193 49.1486 131.982 48.3576 132.771L48.3575 132.771C46.8404 134.284 45.3251 135.794 43.5431 136.972C39.6512 139.544 34.8701 140.288 30.2554 140.97C29.9435 140.568 30.3614 140.017 30.7485 139.687L42.9796 129.247C39.4422 130.892 35.5204 131.702 31.6209 131.595C32.1572 131.225 32.6981 130.858 33.2394 130.492L33.2396 130.492C36.1377 128.529 39.0496 126.557 41.3661 123.948C44.1154 120.852 45.948 116.607 45.0384 112.568C44.1289 108.528 39.7691 105.233 35.8199 106.477C34.8734 106.775 34.023 107.291 33.171 107.808C32.4962 108.218 31.8204 108.628 31.0952 108.931C32.5533 103.255 38.6773 100.003 44.4747 99.1434C47.2762 98.728 50.1153 98.7045 52.9537 98.681C55.9892 98.6559 59.0237 98.6309 62.0102 98.1263C58.93 100.016 55.2543 99.882 51.552 99.7471H51.5519H51.5519H51.5518H51.5517H51.5516H51.5516H51.5515H51.5514H51.5513H51.5513H51.5512C49.7958 99.6831 48.0345 99.6188 46.3278 99.7701C41.0771 100.235 36.0625 102.944 32.7943 107.08C35.9238 103.883 41.8785 105.042 44.4343 108.713C46.9902 112.385 46.5445 117.541 44.3498 121.439C42.1551 125.338 38.5022 128.191 34.7483 130.625C40.6049 129.834 46.1045 126.662 49.7215 121.988C45.0665 128.936 39.0396 134.961 32.0903 139.613ZM176.096 192.088C173.164 195.67 168.322 197.147 163.7 197.398C158.806 197.664 153.852 196.752 149.373 194.762C148.466 194.359 147.572 193.908 146.792 193.296C146.11 192.761 145.527 192.112 144.95 191.465C138.633 184.379 132.468 176.87 129.158 167.973C128.617 166.518 128.149 164.986 128.28 163.44C130.138 169.117 132.814 174.525 136.198 179.447C138.565 182.889 141.27 186.084 143.969 189.273C144.936 190.415 145.909 191.564 147.061 192.52C149.68 194.692 153.054 195.733 156.399 196.358C162.093 197.423 168.399 197.302 173.149 193.987C173.395 193.815 173.636 193.636 173.878 193.456C174.581 192.932 175.284 192.408 176.096 192.088ZM132.035 67.9478C132.365 68.5573 132.668 69.1813 132.943 69.8173C133.088 69.0568 132.841 68.2324 132.303 67.6762L132.035 67.9478ZM132.18 76.9628C132.568 75.9111 132.962 74.8253 132.916 73.7052C132.909 73.5337 132.933 73.3052 133.102 73.2743C133.613 74.54 133.357 76.0815 132.465 77.1147L132.18 76.9628ZM125.635 70.3978C126.908 70.3978 128.18 70.6372 129.366 71.0998C128.319 70.3107 126.983 69.9147 125.674 70.006C125.221 70.0376 124.834 70.4729 124.856 70.9273C124.878 71.3818 125.305 71.7775 125.76 71.7649C125.752 71.5656 125.613 71.4097 125.476 71.2564L125.476 71.2562L125.476 71.256C125.439 71.2148 125.403 71.1738 125.369 71.1323C125.209 70.9358 125.123 70.6021 125.332 70.4601C125.419 70.4014 125.53 70.3978 125.635 70.3978ZM204.877 192.166C203.674 191.73 202.438 191.389 201.204 191.049L196.315 189.7C188.501 187.545 180.391 185.37 172.389 186.659C171.131 186.862 169.868 187.149 168.604 187.436L168.604 187.436L168.604 187.436L168.604 187.436C165.148 188.221 161.688 189.007 158.333 188.069C158.054 187.991 157.752 187.595 158.025 187.497C161.453 188.431 165.002 187.661 168.528 186.896C169.555 186.673 170.581 186.451 171.6 186.271C175.241 185.629 178.977 185.537 182.645 185.998C186.098 186.431 189.469 187.349 192.827 188.263L202.5 190.898C203.724 191.231 204.949 191.565 206.136 192.011C208.653 192.957 210.98 194.408 212.937 196.253C212.706 196.454 212.36 196.423 212.056 196.379C201.924 194.922 191.927 192.532 182.232 189.25C176.668 187.367 170.113 188.812 165.857 192.861C169.089 193.303 172.434 192.889 175.46 191.671C174.071 192.737 172.372 193.391 170.628 193.531C169.703 193.605 168.755 193.542 167.811 193.479C166.073 193.363 164.349 193.248 162.812 193.994L165.354 192.292C168.451 190.219 171.722 188.082 175.434 187.748C178.374 187.483 181.271 188.384 184.097 189.263L184.496 189.387C193.23 192.094 202.163 194.161 211.199 195.567C209.273 194.133 207.135 192.983 204.877 192.166ZM127.035 132.698C128.278 134.867 128.999 137.334 129.118 139.832C129.204 141.619 128.987 143.397 128.77 145.177C128.616 146.445 128.461 147.714 128.416 148.988C128.194 155.171 130.548 161.174 133.552 166.583C136.861 172.543 141.273 178.256 147.483 181.07C153.692 183.885 161.982 182.949 166.051 177.48C161.74 178.64 156.981 178.039 153.094 175.842C156.517 176.191 160.141 174.976 162.416 172.394C164.691 169.812 165.413 165.862 163.904 162.769C162.394 159.677 158.591 157.797 155.29 158.768C151.988 159.739 149.789 163.663 150.951 166.903C151.475 168.365 152.645 169.629 154.135 170.068C155.625 170.506 157.399 170.004 158.286 168.729C159.804 166.548 158.07 163.321 155.601 162.339C158.154 161.74 160.869 164.061 160.917 166.683C160.965 169.305 158.609 171.65 155.995 171.855C153.381 172.061 150.811 170.317 149.763 167.913C148.715 165.509 149.099 162.612 150.48 160.383C152.127 157.725 155.141 155.987 158.263 155.819C161.385 155.652 164.538 157.031 166.591 159.39C169.499 162.733 170.039 167.518 169.822 171.943C169.531 177.86 175.04 183.398 180.957 183.138C185.997 182.917 191.089 184.054 195.555 186.399C194.479 183.173 190.973 181.486 187.708 180.536C187.226 180.395 186.736 180.261 186.245 180.125C183.414 179.347 180.519 178.551 178.473 176.499C176.385 174.405 175.65 171.508 174.908 168.582C174.471 166.862 174.032 165.132 173.314 163.549C174.048 169.076 175.202 175.301 179.878 178.338C181.647 179.487 183.712 180.017 185.769 180.546C186.326 180.689 186.882 180.832 187.432 180.987C190.012 181.714 192.684 182.88 194.064 185.178C191.175 183.234 187.586 182.998 184.056 182.765H184.056C183.293 182.715 182.533 182.665 181.783 182.597C177.565 182.22 172.802 180.732 171.201 176.812C170.498 175.092 170.543 173.204 170.588 171.326V171.326V171.326V171.325C170.601 170.777 170.614 170.23 170.609 169.688C170.545 163.413 167.005 156.601 160.888 155.203C156.632 154.23 151.858 156.34 149.713 160.142C148.214 162.798 148.02 166.239 149.532 168.887C151.045 171.534 154.348 173.14 157.297 172.367C160.247 171.594 162.383 168.285 161.575 165.345C160.767 162.405 156.895 160.68 154.304 162.288C155.555 162.751 156.78 163.428 157.568 164.505C158.355 165.583 158.607 167.128 157.903 168.262C156.634 170.306 153.164 169.589 151.936 167.521C150.436 164.993 151.612 161.357 154.194 159.951C156.775 158.545 160.266 159.361 162.183 161.589C164.1 163.817 164.448 167.177 163.305 169.886C162.201 172.502 159.78 174.522 157.009 175.14C154.237 175.758 151.187 174.957 149.076 173.058C148.586 173.753 149.344 174.643 150.051 175.116C153.791 177.623 158.259 179.028 162.761 179.112C158.144 182.695 151.315 182.271 146.225 179.399C141.135 176.528 137.498 171.652 134.505 166.632C131.72 161.963 129.305 156.852 129.15 151.418C129.094 149.45 129.337 147.494 129.58 145.537L129.58 145.537C129.766 144.037 129.952 142.536 130.004 141.028C130.124 137.552 129.367 133.769 126.753 131.476C118.826 140.19 115.575 152.925 118.354 164.372C119.79 170.286 122.691 175.738 125.865 180.93C126.089 181.297 126.316 181.665 126.542 182.032L126.543 182.033C128.474 185.164 130.423 188.325 131.394 191.861C132.478 195.813 132.126 200.425 129.388 203.474C130.591 198.442 129.471 192.905 126.409 188.735C125.33 187.267 124.039 185.978 122.747 184.688L122.747 184.688C121.632 183.575 120.517 182.462 119.538 181.233C115.998 176.79 114.442 171.132 112.971 165.646C113.504 173.403 117.228 180.893 123.09 186.001C128.593 190.796 130.664 199.144 128.04 205.955C131.108 203.219 132.877 199.084 132.736 194.975C132.559 189.825 129.671 185.377 126.812 180.973C126.022 179.757 125.235 178.544 124.507 177.321C120.417 170.443 118.018 162.471 118.263 154.472C118.509 146.473 121.504 138.482 127.035 132.698Z" fill="#00160A"/>
</svg>
