<svg width="241" height="240" viewBox="0 0 241 240" fill="none" xmlns="http://www.w3.org/2000/svg">
<rect width="240" height="240" transform="translate(0.5)" fill="white"/>
<path d="M154.704 161C165.436 162.309 174.645 168.927 182.223 169.834C190.644 170.842 203.381 165.308 216.37 171.821C219.713 173.497 222.458 175.512 221.435 178.016C219.652 182.378 215.902 184.088 207.685 185.274L206.808 185.395C200.456 186.24 193.629 186.444 176.323 186.559L170.409 186.603C149.313 186.787 137.113 187.775 121.314 189.037L119.704 189.167C90.6111 191.561 67.3889 191.178 50.0367 188.524L49.5127 188.443C35.4935 186.247 27.0648 182.615 22.9504 178.494C20.5283 176.068 19.1331 173.805 19.061 171.387C18.989 168.97 22.5614 166.312 24.5953 165.308C30.261 162.513 32.1096 161.499 43.0019 160.068C47.6917 159.451 54.7178 159.5 62.8394 159.226C91.9744 158.243 136.984 158.839 154.704 161Z" fill="white"/>
<path fill-rule="evenodd" clip-rule="evenodd" d="M163.217 166.273C146.701 203.656 86.9316 202.451 45.3435 176.937C37.401 172.064 10.099 149.096 36.9706 135.685C63.8422 122.274 55.2351 101.674 76.9214 77.1037C102.001 48.6895 148.704 34.1162 181.551 72.3461C265.035 169.513 168.779 153.685 163.217 166.273Z" fill="#FFC000"/>
<path fill-rule="evenodd" clip-rule="evenodd" d="M52.8066 67.1454C51.3176 64.7528 49.8255 63.8348 48.3577 64.6289C47.1152 65.3011 46.9085 67.0967 47.5696 69.9693L47.1734 70.183C46.629 70.4766 46.4256 71.1559 46.7192 71.7004C46.7446 71.7474 46.7733 71.7927 46.8052 71.8356L47.0175 72.1198C50.1172 76.2316 52.5733 77.9157 54.4897 76.9896C56.1003 76.2112 56.3724 72.8957 55.5437 66.8962C55.4857 66.476 55.1112 66.1774 54.6941 66.2076L54.6418 66.2132C54.5472 66.2262 54.4556 66.2561 54.3716 66.3015L52.8066 67.1454ZM48.4116 69.3253L51.8673 67.4557L51.8592 67.443C50.6708 65.5999 49.6641 65.0136 48.8145 65.4732L48.7755 65.4957C48.1482 65.8785 47.9744 67.0814 48.3739 69.1372L48.4116 69.3253ZM54.6235 67.2561L47.6291 71.0279C47.5513 71.0699 47.5222 71.1669 47.5642 71.2447C47.5678 71.2514 47.5719 71.2579 47.5764 71.264L47.7825 71.5397C50.6157 75.2978 52.7466 76.7657 54.0719 76.1252C55.0789 75.6386 55.3432 72.683 54.6426 67.3959L54.6235 67.2561ZM53.1944 73.3036C53.359 73.1313 53.46 72.8979 53.46 72.6408C53.46 72.1106 53.0302 71.6808 52.5 71.6808C51.9698 71.6808 51.54 72.1106 51.54 72.6408C51.54 73.171 51.9698 73.6008 52.5 73.6008C52.5418 73.6008 52.5829 73.5981 52.6232 73.5929L53.169 74.5947L53.1887 74.6265C53.2811 74.7574 53.4589 74.8012 53.6031 74.7227C53.7583 74.6381 53.8155 74.4438 53.731 74.2886L53.1944 73.3036Z" fill="#FFB61D"/>
<path fill-rule="evenodd" clip-rule="evenodd" d="M154.704 161C165.436 162.309 174.645 168.927 182.223 169.834C190.644 170.842 203.381 165.308 216.37 171.821C219.713 173.497 222.458 175.512 221.435 178.016C219.652 182.378 215.902 184.088 207.685 185.274L206.808 185.395C200.456 186.24 193.629 186.444 176.323 186.559L170.409 186.603C149.313 186.787 137.113 187.775 121.314 189.037L119.704 189.167C90.6111 191.561 67.3889 191.178 50.0367 188.524L49.5127 188.443C35.4935 186.247 27.0648 182.615 22.9504 178.494C20.5283 176.068 19.1331 173.805 19.061 171.387C18.989 168.97 22.5614 166.312 24.5953 165.308C30.261 162.513 32.1096 161.499 43.0019 160.068C47.6917 159.451 54.7178 159.5 62.8394 159.226C91.9744 158.243 136.984 158.839 154.704 161ZM42.7614 162.093L42.0476 162.188C31.8972 163.564 25.4086 166.068 22.3348 168.565L22.143 168.725C19.7827 170.759 19.5621 173.046 22.9547 176.426C26.6642 180.122 36.1254 184.291 49.7673 186.417C66.8461 189.078 89.8075 189.851 118.643 187.536L121.666 187.293C138.314 185.984 151.086 185.287 174.725 185.121L181.25 185.073C195.324 184.945 201.306 184.693 207.08 183.891L207.629 183.812C233.129 178.824 214.73 169.875 204.173 169.834C195.133 169.799 184.275 172.342 181.25 171.39C171.72 168.39 166.826 163.797 154.704 162.327L151.179 161.905L148.17 161.763C98.8549 159.472 63.709 159.355 42.7614 162.093Z" fill="#00160A"/>
<path d="M74.7005 46.2014C74.5254 46.1957 74.3501 46.1959 74.175 46.2019C69.8596 46.3503 66.4721 49.9343 66.5503 54.2381L66.5538 54.3687L66.6067 55.9814C66.7583 60.8253 66.8416 65.6501 66.8568 70.4558L66.8829 85.242C66.8887 90.5638 66.8854 95.367 66.8698 100.071L66.8484 105.059C66.7646 120.939 66.5383 132.085 66.1185 136.936L66.0374 137.844C65.5307 143.773 65.4257 152.289 65.7263 163.372C65.7297 163.501 65.7362 163.629 65.7456 163.756C66.0777 168.25 69.9538 171.635 74.4375 171.376L74.5735 171.367L76.0637 171.259C89.9921 170.265 103.921 169.768 117.849 169.768C131.483 169.768 145.221 170.244 159.063 171.196C159.464 171.224 159.865 171.226 160.266 171.204C165.514 170.907 169.541 166.453 169.329 161.219L169.322 161.06L169.217 159.172C168.288 142.166 167.807 125.16 167.773 108.153L167.772 106.264C167.772 93.8687 168.352 76.8691 169.513 55.2578C169.526 55.0157 169.528 54.7732 169.521 54.5308C169.375 49.8396 165.491 46.1448 160.816 46.2143L160.674 46.2176L153.597 46.4321C137.518 46.9064 125.811 47.1542 118.467 47.1755L117.208 47.1769L115.913 47.1735C108.416 47.1413 96.8103 46.8842 81.0886 46.4023L74.7005 46.2014Z" fill="white"/>
<path fill-rule="evenodd" clip-rule="evenodd" d="M160.126 45.7608C159.559 46.0714 158.812 46.2899 157.884 46.416C160.271 46.628 162.148 46.5785 163.514 46.2677L163.218 46.2312C162.256 46.1097 161.225 45.9529 160.126 45.7608Z" fill="#E7EAEE"/>
<path fill-rule="evenodd" clip-rule="evenodd" d="M70.3572 160.198L70.4237 160.201C70.8362 160.229 71.1271 160.551 71.0891 160.907C71.0457 161.314 70.6107 161.709 70.1358 161.742C69.7583 161.768 69.4961 161.477 69.538 161.026C69.5819 160.554 69.9524 160.2 70.3572 160.198Z" fill="#E7EAEE"/>
<path fill-rule="evenodd" clip-rule="evenodd" d="M77.9113 166.379L77.9777 166.381C78.3902 166.41 78.6811 166.732 78.6431 167.088C78.5997 167.495 78.1647 167.89 77.6898 167.922C77.3124 167.948 77.0502 167.658 77.092 167.207C77.136 166.734 77.5064 166.381 77.9113 166.379Z" fill="#E7EAEE"/>
<path fill-rule="evenodd" clip-rule="evenodd" d="M117.933 165.973C101.545 169.59 132.315 168.951 144.319 168.158C150.852 167.727 156.068 170.991 159.063 171.197C159.464 171.224 159.865 171.227 160.266 171.204C165.514 170.907 169.54 166.454 169.329 161.219L169.322 161.06L169.217 159.172C168.288 142.166 167.807 125.16 167.773 108.153L167.772 106.264C167.772 93.8688 168.352 76.8693 169.512 55.258C169.525 55.0158 169.528 54.7733 169.521 54.531C169.375 49.8397 160.385 156.603 117.933 165.973Z" fill="#E7EAEE"/>
<path d="M166.538 161.601L166.596 161.603C166.894 161.627 167.139 161.938 167.104 162.317C167.065 162.738 166.702 163.116 166.34 163.144C166.086 163.164 165.871 162.891 165.909 162.421C165.948 161.941 166.249 161.608 166.538 161.601Z" fill="white"/>
<path fill-rule="evenodd" clip-rule="evenodd" d="M166.435 164.342C165.368 164.427 164.619 163.473 164.712 162.324C164.802 161.209 165.651 160.323 166.672 160.404C167.676 160.483 168.396 161.399 168.3 162.428C168.209 163.417 167.394 164.267 166.435 164.342ZM166.596 161.603L166.538 161.601C166.249 161.608 165.948 161.941 165.909 162.421C165.871 162.891 166.086 163.164 166.34 163.144C166.702 163.116 167.065 162.738 167.104 162.317C167.139 161.938 166.894 161.627 166.596 161.603Z" fill="white"/>
<path d="M156.388 53.1279C160.18 53.1279 163.255 56.2025 163.255 59.9952C163.255 60.1372 163.251 60.2791 163.242 60.4208L163.141 62.1031C162.956 65.2962 162.772 69.0873 162.589 73.4764L162.561 74.1791C162.112 85.986 162.098 113.918 162.518 157.977C162.554 161.769 159.509 164.873 155.717 164.909C155.624 164.91 155.532 164.909 155.44 164.906L80.0979 162.582C76.6093 162.474 73.7564 159.767 73.4661 156.289L73.4022 155.503C72.4099 142.997 72.3509 127.027 73.225 107.594L73.3532 104.807C73.7996 94.5814 73.8346 79.688 73.4583 60.1273C73.3861 56.3748 76.3377 53.2675 80.074 53.1325L80.2583 53.1282L156.388 53.1279Z" fill="white"/>
<path fill-rule="evenodd" clip-rule="evenodd" d="M105.733 134.113C109.061 134.253 112.48 133.663 115.444 132.215C119.156 130.401 121.95 127.357 123.496 122.994C125.533 117.246 124.785 111.031 121.857 105.561C119.251 100.692 115.154 96.9866 111.377 96.0703C111.377 96.0703 121.857 110.812 120.355 118.871C118.06 131.193 105.733 134.113 105.733 134.113Z" fill="#E7EAEE"/>
<path fill-rule="evenodd" clip-rule="evenodd" d="M108.153 116.801C109.773 117.473 110.268 118.721 109.637 120.546L109.601 120.648C105.499 131.912 100.662 132.014 104.801 120.648C105.302 119.271 105.178 118.215 104.428 117.48C105.754 117.21 106.995 116.984 108.153 116.801Z" fill="#E7EAEE"/>
<path fill-rule="evenodd" clip-rule="evenodd" d="M82.4615 103.635C83.5229 100.482 85.0727 98.1112 87.9692 96.2369L88.3371 96.0036C88.9621 95.6113 89.7325 95.1671 90.359 95.4706C91.1551 95.8561 92.3078 97.2611 91.6065 97.8127C91.1309 98.1867 89.1732 98.5845 87.6974 99.8773C85.9552 101.404 84.7012 103.863 84.7012 104.465C84.7012 106.43 81.8348 105.497 82.4615 103.635Z" fill="#E7EAEE"/>
<path fill-rule="evenodd" clip-rule="evenodd" d="M79.1794 58.6891C75.536 68.6931 75.5608 70.678 75.3422 68.9537C74.6351 63.3772 74.1018 59.7126 74.9419 57.4866C76.0055 54.6684 78.6718 54.114 79.3586 54.4411C80.8106 55.1327 79.1794 58.6891 79.1794 58.6891Z" fill="#E7EAEE"/>
<path fill-rule="evenodd" clip-rule="evenodd" d="M139.123 110.102L137.911 110.065C136.473 110.029 135.436 110.037 134.567 110.105C133.868 110.16 133.347 110.255 133.052 110.348L132.994 110.368L132.988 110.395C132.955 110.559 132.932 110.777 132.922 111.041L132.918 111.142C132.899 111.934 132.995 112.992 133.185 114.173C133.341 115.142 133.554 116.149 133.776 116.997L133.832 117.206C133.918 117.522 134.001 117.797 134.074 118.012L134.1 118.088L134.132 118.1C134.579 118.259 135.467 118.278 137.179 118.151L138.341 118.061C139.125 118.003 139.695 117.978 140.259 117.985L145.723 118.1C146.488 118.114 147.179 118.125 147.855 118.134L149.083 118.148C152.148 118.326 155.518 118.192 155.937 117.43C157.215 115.102 157.818 110.309 157.215 110.277C156.131 110.219 154.818 110.151 154.194 110.159L152.754 110.186L151.449 110.196C150.853 110.199 150.231 110.201 149.563 110.202L142.074 110.185C141.587 110.181 141.11 110.169 140.251 110.141L139.123 110.102Z" fill="#E7EAEE"/>
<path fill-rule="evenodd" clip-rule="evenodd" d="M81.6977 44.7033L74.7558 44.4854C74.5426 44.4786 74.3292 44.4788 74.116 44.4861C68.8094 44.6686 64.6554 49.1185 64.8379 54.4251L64.8907 56.0351C64.9529 58.0233 65.0476 60.0083 65.1421 61.99L65.1421 61.99C65.3025 65.3551 65.4625 68.7107 65.4625 72.057L65.4848 84.1935C65.5062 101.119 65.4549 128.993 64.7032 137.066L64.6466 137.7C64.158 143.421 63.719 151.469 63.9697 161.845L64.0101 163.419C64.0143 163.574 64.0221 163.729 64.0335 163.883C64.4388 169.367 69.2134 173.485 74.6979 173.08L76.1859 172.972L76.4324 172.954C76.4821 173.037 76.5325 173.12 76.5822 173.202C76.8232 173.6 77.0484 173.972 77.1008 174.154C77.2327 174.614 77.2466 175.136 77.1704 176.315L77.0932 177.42L77.0722 177.779C76.9597 179.982 77.2142 181.293 78.2891 182.28C79.6715 183.55 81.136 183.415 84.1368 183.139L84.2717 183.127L85.0442 183.052C85.9369 182.966 86.9408 183.036 87.6249 183.083H87.6251C87.8221 183.097 87.9926 183.109 88.1263 183.114L88.3789 183.127C90.1007 183.196 90.3741 182.629 90.5248 181.228C90.6079 180.456 90.4997 179.848 90.0461 178.281L89.7066 177.126L89.594 176.724C89.0641 174.766 89.1125 173.789 89.8028 173.316C89.9703 173.201 90.6699 172.993 91.4768 172.753C92.3068 172.507 93.2504 172.226 93.8448 171.978C101.846 171.65 109.848 171.485 117.849 171.485C126.257 171.485 134.704 171.667 143.192 172.03C143.136 172.122 143.125 172.254 143.185 172.439C143.252 172.647 143.508 172.792 143.834 172.976C144.699 173.466 146.063 174.237 145.746 177.232L145.747 177.355C145.795 179.715 147.226 181.1 149.528 181.57C151.067 181.884 152.817 181.789 154.724 181.459C155.668 181.295 156.276 180.705 156.567 179.805C156.727 179.308 156.784 178.862 156.822 177.974C156.822 177.974 156.402 173.357 158.737 172.895C158.806 172.9 158.876 172.904 158.945 172.909C159.216 172.928 159.486 172.937 159.757 172.936C159.794 172.944 159.831 172.954 159.868 172.964C159.98 172.994 160.087 172.977 160.183 172.927C160.243 172.924 160.303 172.921 160.363 172.918C166.611 172.564 171.389 167.213 171.036 160.965L170.931 159.079C169.969 141.474 169.488 123.869 169.488 106.264C169.488 94.2752 170.034 77.9473 171.124 57.28L171.227 55.3499C171.242 55.0594 171.246 54.7683 171.237 54.4775C171.06 48.7912 166.307 44.3248 160.621 44.5016L157.017 44.6123C139.157 45.1537 126.307 45.4359 118.465 45.4587L117.209 45.4601C109.888 45.4544 98.0508 45.2022 81.6977 44.7033ZM156.393 172.739C152.425 172.483 148.465 172.266 144.515 172.088C146.406 173.006 147.081 174.721 147.118 177.092L147.119 177.232C147.119 178.766 148.313 179.768 149.918 180.095C150.086 180.13 150.259 180.167 150.435 180.205C151.544 180.446 152.812 180.721 154.218 180.49L154.431 180.454C155.403 180.095 155.403 176.602 155.403 176.602C155.414 176.318 155.424 176.132 155.44 175.907L155.462 175.653C155.583 174.382 155.849 173.432 156.393 172.739ZM78.751 173.681C78.6577 173.356 78.5246 173.068 78.3527 172.821C81.7213 172.593 85.0899 172.394 88.4585 172.225C87.9321 172.811 87.8828 173.603 87.8633 174.55C87.8466 175.365 88.0114 176.232 88.3581 177.454L88.3789 177.527L88.696 178.606C89.0842 179.94 89.201 180.498 89.1682 180.965L89.1612 181.044C89.1145 181.478 88.5576 181.967 87.6165 181.912L87.4481 181.904C87.0448 181.843 83.0697 181.912 83.0697 181.912C81.2343 182.098 80.3506 181.843 79.4502 181.016C78.8457 180.461 78.6836 179.475 78.8028 177.588L78.877 176.529C78.9703 175.144 78.9625 174.496 78.7881 173.817L78.751 173.681ZM74.175 46.202C74.3501 46.1959 74.5254 46.1958 74.7005 46.2014L81.0887 46.4023C96.8103 46.8843 108.416 47.1414 115.913 47.1736L117.208 47.1769L118.467 47.1755C125.811 47.1542 137.518 46.9064 153.597 46.4322L160.674 46.2176L160.816 46.2143C165.491 46.1448 169.375 49.8397 169.521 54.5309C169.528 54.7732 169.526 55.0158 169.513 55.2579C168.352 76.8692 167.772 93.8687 167.772 106.264L167.773 108.153C167.807 125.16 168.288 142.166 169.217 159.172L169.322 161.06L169.329 161.219C169.541 166.454 165.514 170.907 160.266 171.204C159.865 171.226 159.464 171.224 159.063 171.196C145.221 170.244 131.483 169.768 117.849 169.768C103.921 169.768 89.9921 170.265 76.0637 171.259L74.5736 171.367L74.4375 171.376C69.9538 171.635 66.0777 168.25 65.7456 163.756C65.7362 163.629 65.7297 163.501 65.7263 163.372C65.4257 152.289 65.5307 143.773 66.0374 137.844L66.1185 136.936C66.5383 132.085 66.7646 120.94 66.8485 105.059L66.8698 100.071C66.8854 95.367 66.8887 90.5639 66.8829 85.242L66.8568 70.4558C66.8416 65.6502 66.7583 60.8254 66.6067 55.9814L66.5538 54.3688L66.5503 54.2381C66.4721 49.9343 69.8596 46.3504 74.175 46.202ZM163.255 59.9949C163.255 56.2022 160.18 53.1276 156.388 53.1276L80.2583 53.1279L80.074 53.1321C76.3378 53.2672 73.3861 56.3745 73.4583 60.127C73.8347 79.6877 73.7997 94.5811 73.3533 104.807L73.2251 107.594C72.3509 127.026 72.41 142.996 73.4023 155.503L73.4662 156.288C73.7564 159.767 76.6094 162.474 80.0979 162.581L155.44 164.906C155.532 164.909 155.624 164.91 155.717 164.909C159.509 164.873 162.555 161.769 162.518 157.976C162.098 113.918 162.112 85.9856 162.561 74.1787L162.589 73.476C162.772 69.0869 162.957 65.2958 163.141 62.1028L163.242 60.4204C163.251 60.2788 163.255 60.1368 163.255 59.9949ZM80.3244 54.8444H156.388C159.232 54.8444 161.538 57.1504 161.538 59.9949C161.538 60.1013 161.535 60.2078 161.528 60.314C161.349 63.21 161.169 66.6671 160.991 70.6861L160.874 73.4043C160.42 84.251 160.376 110.226 160.741 151.37L160.802 157.993C160.829 160.837 158.545 163.165 155.7 163.192C155.631 163.193 155.562 163.192 155.493 163.19L80.1509 160.865L80.0374 160.861C77.4728 160.726 75.3916 158.716 75.1771 156.146C74.1198 143.477 74.0491 127.11 74.9681 107.056L75.0543 105.201C75.4877 95.5512 75.5493 81.7133 75.2401 63.6765L75.1748 60.094C75.1201 57.25 77.3813 54.9001 80.2253 54.8454C80.2583 54.8447 80.2913 54.8444 80.3244 54.8444ZM77.693 49.5791C77.8014 50.7463 76.9556 51.6829 75.816 51.6045C74.7738 51.5328 73.8571 50.7006 73.7502 49.6984L73.7439 49.6251C73.6777 48.628 74.4416 47.7803 75.4665 47.6716L75.5439 47.6648C76.6368 47.5896 77.5884 48.4535 77.693 49.5791ZM75.6771 48.8622L75.6107 48.8647C75.1982 48.8933 74.9073 49.2154 74.9452 49.5709C74.9887 49.978 75.4237 50.3729 75.8985 50.4056C76.276 50.4315 76.5382 50.1412 76.4964 49.6903C76.4524 49.2175 76.0819 48.8639 75.6771 48.8622ZM69.6011 58.6824C68.4131 58.7878 67.6125 57.6448 67.7113 56.274C67.8081 54.9304 68.7308 53.8506 69.8733 53.952L69.947 53.96C70.9964 54.0965 71.7213 55.1288 71.6618 56.2858L71.6564 56.3667C71.5585 57.5494 70.6716 58.5874 69.6011 58.6824ZM69.7851 55.1504L69.7267 55.1475C69.3623 55.152 68.9616 55.6444 68.91 56.3604C68.8584 57.0756 69.1658 57.5145 69.4949 57.4853C69.9415 57.4457 70.4062 56.9017 70.4587 56.2676C70.5084 55.6673 70.1705 55.1848 69.7851 55.1504ZM158.561 49.5791C158.452 50.7463 159.298 51.6829 160.438 51.6045C161.48 51.5328 162.396 50.7006 162.503 49.6984L162.51 49.6251C162.576 48.628 161.812 47.7803 160.787 47.6716L160.71 47.6648C159.617 47.5896 158.665 48.4535 158.561 49.5791ZM160.576 48.8622L160.643 48.8647C161.055 48.8933 161.346 49.2154 161.308 49.5709C161.265 49.978 160.83 50.3729 160.355 50.4056C159.978 50.4315 159.715 50.1412 159.757 49.6903C159.801 49.2175 160.172 48.8639 160.576 48.8622ZM164.96 56.718C164.322 55.7703 164.71 54.5695 165.775 54.0798C166.802 53.6075 168.026 53.9997 168.508 54.9839L168.54 55.0542C168.959 55.9962 168.607 57.0816 167.71 57.5228L167.643 57.554C166.722 57.9625 165.543 57.5847 164.96 56.718ZM167.435 55.5259L167.404 55.4671C167.2 55.1174 166.709 54.9733 166.277 55.1717C165.866 55.3609 165.745 55.7331 165.957 56.0471C166.222 56.442 166.782 56.6213 167.156 56.4553C167.483 56.3104 167.617 55.8974 167.435 55.5259ZM68.7525 159.575C67.9192 160.399 67.965 161.661 68.8884 162.333C69.7329 162.948 70.97 162.9 71.6961 162.201L71.7481 162.149C72.4398 161.427 72.3994 160.287 71.6842 159.545L71.6293 159.49C70.8403 158.73 69.5561 158.78 68.7525 159.575ZM70.7576 160.322L70.8068 160.366C71.1044 160.653 71.1202 161.087 70.8626 161.335C70.5677 161.619 69.9807 161.642 69.5959 161.362C69.29 161.139 69.2758 160.748 69.5977 160.429C69.9352 160.095 70.4463 160.063 70.7576 160.322ZM76.4424 168.514C75.519 167.841 75.4732 166.58 76.3065 165.756C77.1102 164.961 78.3944 164.91 79.1833 165.671L79.2382 165.726C79.9535 166.468 79.9938 167.608 79.3021 168.329L79.2501 168.381C78.5241 169.08 77.2869 169.129 76.4424 168.514ZM78.3609 166.547L78.3116 166.502C78.0004 166.243 77.4893 166.276 77.1517 166.61C76.8298 166.928 76.844 167.319 77.1499 167.542C77.5347 167.822 78.1217 167.8 78.4166 167.516C78.6742 167.268 78.6585 166.834 78.3609 166.547ZM160.984 166.155C160.028 167.12 160.002 168.539 161.021 169.269C161.955 169.937 163.352 169.805 164.188 168.983C165.055 168.13 165.08 166.757 164.227 165.922C163.364 165.078 161.917 165.214 160.984 166.155ZM163.348 166.747L163.397 166.792C163.751 167.138 163.74 167.738 163.345 168.126C162.92 168.545 162.173 168.615 161.721 168.292C161.355 168.03 161.366 167.477 161.838 167.001C162.317 166.517 162.984 166.439 163.348 166.747ZM166.435 164.343C165.368 164.427 164.619 163.473 164.712 162.325C164.802 161.209 165.651 160.323 166.672 160.404C167.676 160.483 168.396 161.399 168.3 162.429C168.209 163.418 167.394 164.267 166.435 164.343ZM166.596 161.603L166.538 161.601C166.249 161.608 165.948 161.941 165.909 162.422C165.871 162.891 166.086 163.165 166.34 163.145C166.702 163.116 167.065 162.738 167.104 162.318C167.139 161.938 166.895 161.627 166.596 161.603Z" fill="#00160A"/>
<path fill-rule="evenodd" clip-rule="evenodd" d="M76.3065 165.755C75.4732 166.58 75.519 167.841 76.4424 168.513C77.2869 169.128 78.524 169.08 79.2501 168.381L79.3021 168.329C79.9938 167.608 79.9535 166.467 79.2382 165.725L79.1833 165.67C78.3944 164.91 77.1101 164.96 76.3065 165.755ZM78.3116 166.502L78.3609 166.546C78.6585 166.833 78.6742 167.267 78.4166 167.515C78.1217 167.799 77.5347 167.822 77.1499 167.542C76.844 167.319 76.8298 166.928 77.1517 166.61C77.4892 166.276 78.0004 166.243 78.3116 166.502Z" fill="#00160A"/>
<path d="M163.348 166.747L163.397 166.792C163.751 167.138 163.74 167.738 163.345 168.126C162.92 168.545 162.172 168.615 161.721 168.292C161.355 168.03 161.365 167.478 161.838 167.001C162.317 166.518 162.984 166.44 163.348 166.747Z" fill="white"/>
<path fill-rule="evenodd" clip-rule="evenodd" d="M87.5662 93.0546C87.1699 93.1923 86.8124 93.379 86.3705 93.6511L86.0313 93.8638L85.8631 93.971C83.3026 95.6238 81.5931 97.6791 80.377 100.463L80.3119 100.613L80.2631 100.599C79.9403 100.504 79.6477 100.458 79.3349 100.484C78.6681 100.539 78.0465 100.938 77.8244 101.683C77.4776 102.847 77.6208 104.177 78.071 105.539L78.1555 105.788C78.5948 107.051 79.0809 107.907 79.8893 108.157C80.9638 108.49 84.6764 107.018 85.971 105.683C86.8944 104.73 86.5246 103.565 85.6457 102.893L85.565 102.833L85.4801 102.774L85.3837 102.712L85.4481 102.597C85.4931 102.517 85.5402 102.437 85.5891 102.356C86.1141 101.485 86.7705 100.662 87.4356 100.08C87.6916 99.8553 87.9878 99.6496 88.3253 99.4578C88.8477 99.1609 90.931 98.3431 91.2817 98.0673C92.4082 97.1813 92.2778 95.8982 91.5654 94.786C91.1223 94.0942 90.4257 93.446 89.7525 93.1199C89.0452 92.7774 88.3051 92.798 87.5662 93.0546ZM89.079 94.5106C89.8751 94.8961 91.0278 96.3011 90.3265 96.8528C89.8509 97.2268 87.8932 97.6245 86.4174 98.9174C84.6752 100.444 83.4212 102.903 83.4212 103.505L83.6199 103.58C84.7063 103.998 85.1202 104.34 84.8616 104.607C83.7094 105.796 80.5779 106.753 80.346 106.681C80.1178 106.611 78.7667 103.931 79.3051 102.125C79.3771 101.883 80.0026 102.067 81.1815 102.675C82.2428 99.5218 83.7927 97.1512 86.6891 95.277L87.0571 95.0437C87.6821 94.6514 88.4524 94.2072 89.079 94.5106Z" fill="#00160A"/>
<path fill-rule="evenodd" clip-rule="evenodd" d="M89.9104 128.611C83.55 121.66 83.1819 109.803 90.0531 102.167C94.3221 97.4226 104.356 94.3669 111.377 96.0704C115.154 96.9866 119.251 100.692 121.857 105.561C124.785 111.031 125.533 117.246 123.496 122.994C121.95 127.358 119.156 130.401 115.444 132.215C112.48 133.663 109.061 134.253 105.733 134.113C99.7263 133.861 92.2572 131.176 89.9104 128.611ZM120.343 106.371C117.95 101.9 114.22 98.5269 110.972 97.7388L110.779 97.6935C104.374 96.2408 95.1357 99.085 91.3294 103.315C85.063 110.279 85.4002 121.139 91.177 127.452C93.1706 129.631 100.214 132.163 105.805 132.398C108.866 132.527 112.003 131.985 114.69 130.672C118.006 129.052 120.485 126.352 121.878 122.42C123.743 117.156 123.055 111.437 120.343 106.371ZM117.036 122.82C120.835 116.151 115.685 101.749 108.491 100.547C101.73 99.4177 99.1665 101.058 96.2504 103.587L95.6865 104.081C89.9792 109.127 89.9792 119.967 95.555 124.996C96.9561 126.26 103.121 129.503 107.851 128.511C110.988 127.853 115.353 125.774 117.036 122.82ZM101.16 102.429C101.518 102.3 101.895 102.195 102.298 102.112C102.243 102.237 102.197 102.37 102.159 102.51C101.946 103.294 101.968 103.965 102.198 105.598L102.355 106.679C102.368 106.775 102.38 106.862 102.392 106.952L102.427 107.227C102.671 109.294 102.449 110.372 101.525 110.967C100.679 111.511 99.8474 111.717 97.9476 111.938L97.236 112.018C96.3596 112.119 95.8992 112.189 95.3456 112.314L95.0949 112.365C94.3278 112.526 93.6909 112.726 93.1965 112.979C93.5225 110.026 94.7316 107.217 96.8236 105.367C98.7968 103.623 99.7922 102.919 101.16 102.429ZM108.209 102.241C107.931 102.194 107.66 102.153 107.397 102.116C107.452 102.256 107.499 102.404 107.538 102.561C107.698 103.216 107.726 103.797 107.687 105.122L107.668 105.693C107.648 106.243 107.639 106.57 107.636 106.885L107.636 107.261C107.652 108.937 107.914 110.051 108.559 110.805L108.631 110.886L108.659 110.898C108.699 110.914 108.749 110.932 108.809 110.952L108.873 110.973C109.021 111.02 109.206 111.072 109.443 111.134L109.839 111.236L111.531 111.65C111.863 111.733 112.159 111.808 112.442 111.883L112.908 112.008C114.307 112.393 115.379 112.769 116.159 113.188C114.994 107.973 111.787 102.839 108.209 102.241ZM116.346 117.023C116.443 116.962 116.534 116.899 116.621 116.836C116.662 118.781 116.336 120.58 115.544 121.97C114.407 123.967 111.247 125.869 108.162 126.674C108.24 126.477 108.303 126.263 108.352 126.034C108.502 125.33 108.526 124.524 108.467 123.381L108.43 122.767L108.374 121.958C108.268 120.343 108.294 119.668 108.434 119.506C109.068 118.778 109.945 118.499 112.178 118.179L112.696 118.105C114.563 117.832 115.438 117.602 116.346 117.023ZM103.224 125.838C103.248 126.128 103.344 126.423 103.5 126.702C102.708 126.535 101.884 126.294 101.045 125.987C99.1669 125.3 97.3462 124.3 96.7048 123.722C94.6685 121.885 93.4964 119.112 93.1885 116.193C93.716 116.436 94.4136 116.642 95.2797 116.847L95.413 116.878C95.7626 116.959 96.1202 117.035 96.5422 117.118L97.7479 117.352C100.447 117.907 101.841 118.549 102.477 119.408L102.541 119.498C102.963 120.113 103.08 120.809 103.114 122.617L103.133 123.904C103.148 124.675 103.172 125.187 103.224 125.838ZM105.254 102.185L105.332 102.192C106.061 102.279 106.215 102.955 106.129 105.504L106.099 106.387C106.092 106.654 106.09 106.868 106.09 107.104C106.091 108.702 106.282 109.943 106.796 110.938C106.7 110.887 106.59 110.858 106.474 110.858L106.357 110.859L106.328 110.86L106.315 110.855C106.118 110.782 105.902 110.805 105.728 110.907L105.711 110.918L105.65 110.928C104.153 111.178 102.664 112.072 101.866 113.257C101.01 114.528 101.053 115.915 102.029 117.104C101.1 116.613 99.8668 116.22 98.2396 115.876L97.7146 115.771C97.4057 115.711 97.0206 115.637 97.0202 115.637L96.7098 115.576C96.41 115.516 96.1444 115.46 95.8892 115.402L95.7624 115.373C94.9874 115.193 94.3756 115.008 93.9478 114.816L93.8797 114.784C93.7481 114.721 93.6436 114.661 93.5692 114.608L93.5595 114.6L93.5783 114.58C93.6312 114.528 93.7112 114.468 93.8207 114.405C94.196 114.188 94.814 113.99 95.662 113.826L95.8764 113.78C96.2537 113.703 96.6235 113.647 97.2007 113.578L98.1374 113.471C100.268 113.223 101.255 112.978 102.361 112.266C103.975 111.228 104.283 109.604 103.943 106.896L103.905 106.61C103.886 106.469 103.865 106.324 103.838 106.137L103.731 105.405C103.54 104.044 103.513 103.46 103.638 102.961L103.65 102.915C103.803 102.352 104.194 102.119 105.254 102.185ZM103.658 118.409C103.679 118.435 103.699 118.461 103.718 118.488C104.448 119.472 104.616 120.342 104.658 122.562L104.675 123.735C104.688 124.469 104.707 124.952 104.749 125.512L104.764 125.713C104.796 126.11 105.474 126.741 106.222 126.598C106.805 126.487 107.03 125.532 106.921 123.407L106.905 123.141L106.82 121.893C106.686 119.851 106.728 119.173 107.194 118.581C106.077 119.002 104.777 118.982 103.658 118.409ZM108.997 117.292C109.69 117.029 110.572 116.852 111.797 116.673L112.461 116.578C114.012 116.351 114.762 116.166 115.398 115.792L115.516 115.72C116.235 115.262 116.304 115.171 115.984 114.913L115.881 114.832C115.315 114.407 114.223 113.981 112.651 113.54L112.318 113.449C111.96 113.352 111.591 113.257 111.157 113.149L109.35 112.706C109.008 112.62 108.735 112.548 108.513 112.482C109.91 113.959 110.141 115.621 109.181 117.041L109.127 117.12C109.085 117.178 109.042 117.236 108.997 117.292ZM105.925 112.275L106.023 112.261L106.092 112.302C108.338 113.668 108.838 115.156 108.008 116.323C107.181 117.485 105.367 117.886 104.065 117.061C102.556 116.104 102.305 115.064 103.005 114.024C103.597 113.146 104.78 112.451 105.925 112.275Z" fill="#00160A"/>
<path d="M130.266 109.649C130.266 109.645 130.266 109.641 130.266 109.637C130.303 109.631 130.341 109.626 130.382 109.62C130.992 109.533 131.791 109.495 132.747 109.493C133.692 109.491 134.706 109.524 135.739 109.56C135.802 109.562 135.866 109.564 135.929 109.567C136.88 109.6 137.855 109.634 138.724 109.635C139.7 109.636 140.697 109.639 141.703 109.642C144.175 109.651 146.705 109.66 149.147 109.634C149.27 109.633 149.438 109.63 149.644 109.625C150.429 109.609 151.751 109.581 153.12 109.626C153.98 109.653 154.775 109.708 155.392 109.797C155.483 109.81 155.564 109.823 155.638 109.836C155.661 109.939 155.684 110.061 155.704 110.203C155.812 110.945 155.82 111.936 155.701 112.946C155.581 113.973 155.353 114.832 155.106 115.367C155.095 115.391 155.085 115.412 155.075 115.433C150.873 115.812 144.163 115.665 138.642 115.545C138.004 115.531 137.382 115.517 136.781 115.505C135.964 115.488 135.134 115.543 134.403 115.6C134.212 115.614 134.029 115.629 133.853 115.643C133.315 115.687 132.839 115.726 132.372 115.745C131.882 115.766 131.51 115.759 131.229 115.731C131.203 115.64 131.175 115.541 131.146 115.435C130.93 114.642 130.695 113.584 130.521 112.503C130.343 111.403 130.248 110.39 130.266 109.649ZM156.112 109.949C156.112 109.949 156.106 109.947 156.094 109.942C156.107 109.947 156.113 109.949 156.112 109.949ZM155.523 109.452C155.516 109.44 155.513 109.434 155.513 109.433C155.513 109.433 155.517 109.439 155.523 109.452ZM154.903 115.718C154.903 115.716 154.916 115.697 154.943 115.669C154.918 115.707 154.904 115.721 154.903 115.718ZM130.326 109.028C130.327 109.026 130.327 109.024 130.328 109.022C130.336 108.993 130.337 108.998 130.326 109.028Z" stroke="#421EB7" stroke-width="5.36509"/>
<path fill-rule="evenodd" clip-rule="evenodd" d="M138.708 107.118C139.698 107.119 140.702 107.123 141.713 107.126C143.791 107.133 145.895 107.14 147.956 107.127L149.1 107.118C149.198 107.117 149.344 107.114 149.527 107.11C151.247 107.074 156.322 106.967 157.439 107.814C159.265 109.2 158.538 117.925 155.927 118.208C151.594 118.679 144.314 118.519 138.582 118.393C137.935 118.379 137.308 118.365 136.707 118.353C135.873 118.336 134.974 118.408 134.088 118.48C132.099 118.642 130.167 118.798 129.139 117.925C128.609 117.474 126.567 108.899 128.157 107.721C129.373 106.821 132.858 106.942 135.989 107.051C136.766 107.078 137.522 107.104 138.215 107.114L138.217 107.113L138.217 107.114C138.385 107.117 138.548 107.118 138.708 107.118ZM136.614 108.79C136.783 108.796 136.937 108.801 137.079 108.805C137.195 109.516 137.208 110.765 137.125 112.606L137.064 113.936C137.01 115.179 136.99 116.026 137.026 116.643L136.622 116.634C136.059 116.627 135.488 116.652 134.704 116.71L133.542 116.801C131.83 116.927 130.942 116.908 130.495 116.749L130.463 116.737L130.437 116.661C130.364 116.447 130.281 116.171 130.195 115.855L130.139 115.646C129.917 114.798 129.704 113.792 129.548 112.823C129.358 111.641 129.262 110.583 129.282 109.791L129.285 109.69C129.295 109.426 129.318 109.208 129.351 109.045L129.357 109.017L129.415 108.998C129.71 108.904 130.232 108.809 130.93 108.755C131.799 108.687 132.836 108.678 134.274 108.715L135.486 108.752L136.614 108.79ZM142.086 116.749L138.768 116.679C138.75 116.485 138.737 116.246 138.732 115.969L138.731 115.909C138.726 115.474 138.735 115.059 138.765 114.329L138.862 112.183C138.92 110.709 138.922 109.639 138.824 108.835L145.926 108.851C146.307 108.851 146.672 108.85 147.026 108.849C146.918 110.985 147.091 114.721 147.313 116.808C146.714 116.807 146.092 116.803 145.446 116.797L144.218 116.783C143.542 116.774 142.851 116.763 142.086 116.749ZM149.057 116.802C151.695 116.78 153.813 116.694 155.455 116.531L155.609 116.515L155.629 116.494C155.717 116.395 155.819 116.235 155.924 116.021L155.963 115.939C156.271 115.272 156.515 114.3 156.641 113.225C156.766 112.16 156.765 111.082 156.641 110.23C156.584 109.837 156.503 109.514 156.413 109.288L156.387 109.228L156.368 109.187L156.299 109.166C156.115 109.112 155.863 109.06 155.555 109.014C154.946 108.923 154.163 108.862 153.246 108.83C152.394 108.8 151.528 108.796 150.557 108.809L149.118 108.835L148.708 108.838C148.695 109.07 148.685 109.346 148.681 109.656L148.68 109.756C148.673 110.593 148.703 111.647 148.763 112.815L148.775 113.05C148.824 113.965 148.89 114.912 148.959 115.744L149.001 116.228C149.02 116.435 149.039 116.628 149.057 116.802ZM141.496 111.735L141.653 111.959C141.831 112.211 142 112.434 142.161 112.631C141.945 113.101 141.832 113.629 141.796 114.31C141.783 114.557 141.973 114.768 142.221 114.781C142.468 114.794 142.679 114.604 142.692 114.356C142.712 113.964 142.76 113.641 142.846 113.355C143.342 113.789 143.777 113.95 144.233 113.958L144.322 113.959C144.569 113.959 144.77 113.758 144.77 113.51C144.77 113.278 144.594 113.087 144.367 113.064L144.322 113.062L144.246 113.062C143.954 113.055 143.659 112.932 143.257 112.526C143.388 112.344 143.546 112.162 143.734 111.968L144.215 111.493C144.391 111.318 144.392 111.034 144.218 110.858C144.043 110.683 143.76 110.681 143.584 110.856L143.181 111.252C142.985 111.448 142.814 111.636 142.664 111.825L142.5 111.603C142.416 111.487 142.328 111.362 142.235 111.227C142.095 111.023 141.816 110.971 141.612 111.111C141.408 111.251 141.356 111.53 141.496 111.735ZM153.741 111.308L153.745 111.034C153.747 110.786 153.548 110.584 153.301 110.582C153.053 110.58 152.851 110.779 152.849 111.027C152.846 111.299 152.839 111.543 152.828 111.761C152.598 111.689 152.35 111.629 152.079 111.576L151.523 111.473C151.28 111.426 151.045 111.586 150.999 111.83C150.953 112.073 151.113 112.308 151.356 112.354L152.021 112.479C152.285 112.534 152.518 112.597 152.728 112.675C152.622 113.236 152.446 113.503 152.207 113.672L152.145 113.714L152.108 113.742C151.934 113.887 151.894 114.144 152.024 114.337C152.163 114.542 152.441 114.596 152.647 114.458L152.72 114.408C153.094 114.146 153.364 113.769 153.532 113.132C153.764 113.322 153.984 113.563 154.22 113.876C154.369 114.074 154.65 114.114 154.848 113.964C155.046 113.815 155.085 113.534 154.936 113.337C154.527 112.793 154.137 112.418 153.695 112.149C153.719 111.896 153.734 111.616 153.741 111.308Z" fill="#00160A"/>
<path fill-rule="evenodd" clip-rule="evenodd" d="M134.177 111.27L134.106 111.534C134.024 111.832 133.942 112.099 133.858 112.339C134.222 112.707 134.509 113.165 134.775 113.792C134.872 114.02 134.765 114.283 134.538 114.38C134.31 114.477 134.046 114.37 133.95 114.142C133.796 113.781 133.641 113.494 133.462 113.253C133.145 113.831 132.791 114.131 132.365 114.296L132.282 114.326C132.049 114.41 131.792 114.29 131.707 114.058C131.628 113.84 131.728 113.6 131.933 113.501L131.975 113.483L132.046 113.457C132.319 113.351 132.554 113.134 132.793 112.616C132.607 112.489 132.397 112.372 132.154 112.255L131.539 111.972C131.314 111.868 131.216 111.602 131.319 111.377C131.423 111.152 131.689 111.054 131.914 111.158L132.428 111.393C132.679 111.509 132.905 111.628 133.11 111.753C133.174 111.544 133.24 111.309 133.308 111.045C133.37 110.806 133.615 110.661 133.854 110.723C134.094 110.785 134.238 111.03 134.177 111.27Z" fill="#FFC000"/>
</svg>
