<svg width="25" height="25" viewBox="0 0 25 25" fill="none" xmlns="http://www.w3.org/2000/svg">
<path fill-rule="evenodd" clip-rule="evenodd" d="M20.5848 17.4326C21.0298 13.1559 21.0298 8.84456 20.5848 4.56786C20.4261 3.04282 18.6678 2.2703 17.4372 3.18502L13.3336 6.23543C12.0831 7.16494 10.5665 7.66689 9.0084 7.66689H5.1792C4.48884 7.66689 3.9292 8.22653 3.9292 8.91689V13.0836C3.9292 13.7739 4.48884 14.3336 5.1792 14.3336H5.80348L4.95812 17.4885C4.86392 17.84 5.03573 18.2085 5.36559 18.3623L9.04674 20.0789C9.24766 20.1726 9.47974 20.1726 9.68067 20.0789C9.8816 19.9852 10.0308 19.8074 10.0882 19.5933L11.3508 14.8809C11.3643 14.8308 11.3723 14.7806 11.3753 14.7308C12.0727 14.9717 12.7338 15.3192 13.3336 15.765L17.4372 18.8154C18.6677 19.7302 20.4261 18.9576 20.5848 17.4326ZM19.0928 4.7231C19.5271 8.89658 19.5271 13.1039 19.0928 17.2774C19.0545 17.646 18.6295 17.8327 18.3321 17.6116L14.2284 14.5612C12.7193 13.4394 10.8888 12.8336 9.00839 12.8336L5.4292 12.8336L5.4292 9.16689H9.0084C10.8888 9.16689 12.7193 8.56109 14.2284 7.43927L18.3321 4.38886C18.6295 4.16777 19.0545 4.35448 19.0928 4.7231ZM9.93615 14.3932C9.62975 14.3536 9.3199 14.3336 9.00839 14.3336H7.35639L6.56989 17.2688L8.8706 18.3417L9.90196 14.4926C9.91118 14.4582 9.92264 14.425 9.93615 14.3932Z" fill="#5C5E61"/>
</svg>
