<svg width="40" height="40" viewBox="0 0 40 40" fill="none" xmlns="http://www.w3.org/2000/svg">
<g filter="url(#filter0_ii_155_3775)">
<path fill-rule="evenodd" clip-rule="evenodd" d="M18.4933 8.18308C19.0838 8.6866 19.6023 9.28334 20.0001 9.95196C20.398 9.28334 20.9165 8.6866 21.507 8.18308C22.8669 7.02338 24.6755 6.29639 26.4816 6.29639C27.7452 6.29639 29.0981 6.65261 30.2667 7.25725C31.429 7.85867 32.4876 8.74774 33.0688 9.87721C33.083 9.90483 33.0957 9.93323 33.1068 9.96227L36.6567 19.2961C37.4562 20.6075 37.9168 22.1481 37.9168 23.7964C37.9168 28.5777 34.0408 32.4538 29.2594 32.4538C24.7592 32.4538 21.0609 29.0201 20.6416 24.6297H19.3587C18.9394 29.0201 15.2411 32.4538 10.7409 32.4538C5.95955 32.4538 2.0835 28.5777 2.0835 23.7964C2.0835 22.1482 2.54404 20.6077 3.34345 19.2964L6.89353 9.96227C6.90458 9.93323 6.91724 9.90483 6.93145 9.87721C7.51267 8.74774 8.57125 7.85867 9.73361 7.25725C10.9022 6.65261 12.2551 6.29639 13.5187 6.29639C15.3248 6.29639 17.1334 7.02338 18.4933 8.18308ZM4.5835 23.7964C4.5835 20.3957 7.34026 17.639 10.7409 17.639C14.1415 17.639 16.8983 20.3957 16.8983 23.7964C16.8983 27.197 14.1415 29.9538 10.7409 29.9538C7.34026 29.9538 4.5835 27.197 4.5835 23.7964ZM23.102 23.7964C23.102 20.3957 25.8588 17.639 29.2594 17.639C32.6601 17.639 35.4168 20.3957 35.4168 23.7964C35.4168 27.197 32.6601 29.9538 29.2594 29.9538C25.8588 29.9538 23.102 27.197 23.102 23.7964Z" fill="#FFC000"/>
</g>
<path fill-rule="evenodd" clip-rule="evenodd" d="M18.4933 8.18308C19.0838 8.6866 19.6023 9.28334 20.0001 9.95196C20.398 9.28334 20.9165 8.6866 21.507 8.18308C22.8669 7.02338 24.6755 6.29639 26.4816 6.29639C27.7452 6.29639 29.0981 6.65261 30.2667 7.25725C31.429 7.85867 32.4876 8.74774 33.0688 9.87721C33.083 9.90483 33.0957 9.93323 33.1068 9.96227L36.6567 19.2961C37.4562 20.6075 37.9168 22.1481 37.9168 23.7964C37.9168 28.5777 34.0408 32.4538 29.2594 32.4538C24.7592 32.4538 21.0609 29.0201 20.6416 24.6297H19.3587C18.9394 29.0201 15.2411 32.4538 10.7409 32.4538C5.95955 32.4538 2.0835 28.5777 2.0835 23.7964C2.0835 22.1482 2.54404 20.6077 3.34345 19.2964L6.89353 9.96227C6.90458 9.93323 6.91724 9.90483 6.93145 9.87721C7.51267 8.74774 8.57125 7.85867 9.73361 7.25725C10.9022 6.65261 12.2551 6.29639 13.5187 6.29639C15.3248 6.29639 17.1334 7.02338 18.4933 8.18308ZM4.5835 23.7964C4.5835 20.3957 7.34026 17.639 10.7409 17.639C14.1415 17.639 16.8983 20.3957 16.8983 23.7964C16.8983 27.197 14.1415 29.9538 10.7409 29.9538C7.34026 29.9538 4.5835 27.197 4.5835 23.7964ZM23.102 23.7964C23.102 20.3957 25.8588 17.639 29.2594 17.639C32.6601 17.639 35.4168 20.3957 35.4168 23.7964C35.4168 27.197 32.6601 29.9538 29.2594 29.9538C25.8588 29.9538 23.102 27.197 23.102 23.7964Z" stroke="black" stroke-linecap="round" stroke-linejoin="round"/>
<defs>
<filter id="filter0_ii_155_3775" x="1.5835" y="5.79639" width="36.8335" height="27.1575" filterUnits="userSpaceOnUse" color-interpolation-filters="sRGB">
<feFlood flood-opacity="0" result="BackgroundImageFix"/>
<feBlend mode="normal" in="SourceGraphic" in2="BackgroundImageFix" result="shape"/>
<feColorMatrix in="SourceAlpha" type="matrix" values="0 0 0 0 0 0 0 0 0 0 0 0 0 0 0 0 0 0 127 0" result="hardAlpha"/>
<feOffset dx="2" dy="2"/>
<feComposite in2="hardAlpha" operator="arithmetic" k2="-1" k3="1"/>
<feColorMatrix type="matrix" values="0 0 0 0 1 0 0 0 0 1 0 0 0 0 1 0 0 0 1 0"/>
<feBlend mode="normal" in2="shape" result="effect1_innerShadow_155_3775"/>
<feColorMatrix in="SourceAlpha" type="matrix" values="0 0 0 0 0 0 0 0 0 0 0 0 0 0 0 0 0 0 127 0" result="hardAlpha"/>
<feOffset dx="-2" dy="-2"/>
<feComposite in2="hardAlpha" operator="arithmetic" k2="-1" k3="1"/>
<feColorMatrix type="matrix" values="0 0 0 0 0 0 0 0 0 0 0 0 0 0 0 0 0 0 1 0"/>
<feBlend mode="normal" in2="effect1_innerShadow_155_3775" result="effect2_innerShadow_155_3775"/>
</filter>
</defs>
</svg>
