<svg width="25" height="26" viewBox="0 0 25 26" fill="none" xmlns="http://www.w3.org/2000/svg">
<g filter="url(#filter0_d_92_1295)">
<path d="M1.25 2C0.835786 2 0.5 2.33579 0.5 2.75C0.5 3.16421 0.835786 3.5 1.25 3.5H2.91442L3.51697 5.9102L5.76285 17.8882C5.82936 18.2429 6.13909 18.5 6.5 18.5H8C6.34315 18.5 5 19.8431 5 21.5C5 23.1569 6.34315 24.5 8 24.5C9.65685 24.5 11 23.1569 11 21.5C11 19.8431 9.65685 18.5 8 18.5H18.5C16.8431 18.5 15.5 19.8431 15.5 21.5C15.5 23.1569 16.8431 24.5 18.5 24.5C20.1569 24.5 21.5 23.1569 21.5 21.5C21.5 19.8431 20.1569 18.5 18.5 18.5H20C20.3609 18.5 20.6706 18.2429 20.7372 17.8882L22.9872 5.88822C23.0283 5.66892 22.9696 5.44271 22.8271 5.27102C22.6846 5.09934 22.4731 5 22.25 5H4.83558L4.22761 2.5681C4.14414 2.23422 3.84415 2 3.5 2H1.25ZM9.5 21.5C9.5 22.3284 8.82843 23 8 23C7.17157 23 6.5 22.3284 6.5 21.5C6.5 20.6716 7.17157 20 8 20C8.82843 20 9.5 20.6716 9.5 21.5ZM20 21.5C20 22.3284 19.3284 23 18.5 23C17.6716 23 17 22.3284 17 21.5C17 20.6716 17.6716 20 18.5 20C19.3284 20 20 20.6716 20 21.5ZM14 8.75V11H16.25C16.6642 11 17 11.3358 17 11.75C17 12.1642 16.6642 12.5 16.25 12.5H14V14.75C14 15.1642 13.6642 15.5 13.25 15.5C12.8358 15.5 12.5 15.1642 12.5 14.75V12.5H10.25C9.83579 12.5 9.5 12.1642 9.5 11.75C9.5 11.3358 9.83579 11 10.25 11H12.5V8.75C12.5 8.33579 12.8358 8 13.25 8C13.6642 8 14 8.33579 14 8.75Z" fill="white"/>
<path d="M8 18.5H6.5C6.13909 18.5 5.82936 18.2429 5.76285 17.8882L3.51697 5.9102L2.91442 3.5H1.25C0.835786 3.5 0.5 3.16421 0.5 2.75C0.5 2.33579 0.835786 2 1.25 2H3.5C3.84415 2 4.14414 2.23422 4.22761 2.5681L4.83558 5H22.25C22.4731 5 22.6846 5.09934 22.8271 5.27102C22.9696 5.44271 23.0283 5.66892 22.9872 5.88822L20.7372 17.8882C20.6706 18.2429 20.3609 18.5 20 18.5H18.5M8 18.5C6.34315 18.5 5 19.8431 5 21.5C5 23.1569 6.34315 24.5 8 24.5C9.65685 24.5 11 23.1569 11 21.5C11 19.8431 9.65685 18.5 8 18.5ZM8 18.5H18.5M18.5 18.5C16.8431 18.5 15.5 19.8431 15.5 21.5C15.5 23.1569 16.8431 24.5 18.5 24.5C20.1569 24.5 21.5 23.1569 21.5 21.5C21.5 19.8431 20.1569 18.5 18.5 18.5ZM8 20C8.82843 20 9.5 20.6716 9.5 21.5C9.5 22.3284 8.82843 23 8 23C7.17157 23 6.5 22.3284 6.5 21.5C6.5 20.6716 7.17157 20 8 20ZM18.5 20C19.3284 20 20 20.6716 20 21.5C20 22.3284 19.3284 23 18.5 23C17.6716 23 17 22.3284 17 21.5C17 20.6716 17.6716 20 18.5 20ZM13.25 8C13.6642 8 14 8.33579 14 8.75V11H16.25C16.6642 11 17 11.3358 17 11.75C17 12.1642 16.6642 12.5 16.25 12.5H14V14.75C14 15.1642 13.6642 15.5 13.25 15.5C12.8358 15.5 12.5 15.1642 12.5 14.75V12.5H10.25C9.83579 12.5 9.5 12.1642 9.5 11.75C9.5 11.3358 9.83579 11 10.25 11H12.5V8.75C12.5 8.33579 12.8358 8 13.25 8Z" stroke="black" stroke-linejoin="round"/>
</g>
<defs>
<filter id="filter0_d_92_1295" x="0" y="1.5" width="24.5" height="24.5" filterUnits="userSpaceOnUse" color-interpolation-filters="sRGB">
<feFlood flood-opacity="0" result="BackgroundImageFix"/>
<feColorMatrix in="SourceAlpha" type="matrix" values="0 0 0 0 0 0 0 0 0 0 0 0 0 0 0 0 0 0 127 0" result="hardAlpha"/>
<feOffset dx="1" dy="1"/>
<feComposite in2="hardAlpha" operator="out"/>
<feColorMatrix type="matrix" values="0 0 0 0 0 0 0 0 0 0 0 0 0 0 0 0 0 0 1 0"/>
<feBlend mode="normal" in2="BackgroundImageFix" result="effect1_dropShadow_92_1295"/>
<feBlend mode="normal" in="SourceGraphic" in2="effect1_dropShadow_92_1295" result="shape"/>
</filter>
</defs>
</svg>
