<svg width="40" height="40" viewBox="0 0 40 40" fill="none" xmlns="http://www.w3.org/2000/svg">
<g filter="url(#filter0_ii_156_3781)">
<path fill-rule="evenodd" clip-rule="evenodd" d="M19.9999 6.24951L32.1226 6.59227C34.2646 6.65283 36.0363 8.27892 36.2799 10.4079C36.8191 15.1206 36.8191 19.8794 36.2799 24.5921C36.0363 26.7211 34.2646 28.3472 32.1226 28.4078L22.0832 28.6916V32.0834H28.3332C29.0236 32.0834 29.5832 32.643 29.5832 33.3334C29.5832 34.0237 29.0236 34.5834 28.3332 34.5834H11.6666C10.9762 34.5834 10.4166 34.0237 10.4166 33.3334C10.4166 32.643 10.9762 32.0834 11.6666 32.0834H17.9166V28.6916L7.87716 28.4078C5.73513 28.3472 3.96343 26.7211 3.71984 24.5921C3.18063 19.8794 3.18063 15.1206 3.71984 10.4079C3.96343 8.27892 5.73513 6.65283 7.87716 6.59227L19.9999 6.24951ZM8.33323 22.9167C7.64288 22.9167 7.08323 23.4763 7.08323 24.1667C7.08323 24.857 7.64288 25.4167 8.33323 25.4167H31.6666C32.3569 25.4167 32.9166 24.857 32.9166 24.1667C32.9166 23.4763 32.3569 22.9167 31.6666 22.9167H8.33323Z" fill="#FFC000"/>
</g>
<path fill-rule="evenodd" clip-rule="evenodd" d="M19.9999 6.24951L32.1226 6.59227C34.2646 6.65283 36.0363 8.27892 36.2799 10.4079C36.8191 15.1206 36.8191 19.8794 36.2799 24.5921C36.0363 26.7211 34.2646 28.3472 32.1226 28.4078L22.0832 28.6916V32.0834H28.3332C29.0236 32.0834 29.5832 32.643 29.5832 33.3334C29.5832 34.0237 29.0236 34.5834 28.3332 34.5834H11.6666C10.9762 34.5834 10.4166 34.0237 10.4166 33.3334C10.4166 32.643 10.9762 32.0834 11.6666 32.0834H17.9166V28.6916L7.87716 28.4078C5.73513 28.3472 3.96343 26.7211 3.71984 24.5921C3.18063 19.8794 3.18063 15.1206 3.71984 10.4079C3.96343 8.27892 5.73513 6.65283 7.87716 6.59227L19.9999 6.24951ZM8.33323 22.9167C7.64288 22.9167 7.08323 23.4763 7.08323 24.1667C7.08323 24.857 7.64288 25.4167 8.33323 25.4167H31.6666C32.3569 25.4167 32.9166 24.857 32.9166 24.1667C32.9166 23.4763 32.3569 22.9167 31.6666 22.9167H8.33323Z" stroke="black" stroke-width="1.5" stroke-linecap="round"/>
<defs>
<filter id="filter0_ii_156_3781" x="2.56543" y="5.49927" width="34.8687" height="29.834" filterUnits="userSpaceOnUse" color-interpolation-filters="sRGB">
<feFlood flood-opacity="0" result="BackgroundImageFix"/>
<feBlend mode="normal" in="SourceGraphic" in2="BackgroundImageFix" result="shape"/>
<feColorMatrix in="SourceAlpha" type="matrix" values="0 0 0 0 0 0 0 0 0 0 0 0 0 0 0 0 0 0 127 0" result="hardAlpha"/>
<feOffset dx="2" dy="2"/>
<feComposite in2="hardAlpha" operator="arithmetic" k2="-1" k3="1"/>
<feColorMatrix type="matrix" values="0 0 0 0 1 0 0 0 0 1 0 0 0 0 1 0 0 0 1 0"/>
<feBlend mode="normal" in2="shape" result="effect1_innerShadow_156_3781"/>
<feColorMatrix in="SourceAlpha" type="matrix" values="0 0 0 0 0 0 0 0 0 0 0 0 0 0 0 0 0 0 127 0" result="hardAlpha"/>
<feOffset dx="-2" dy="-2"/>
<feComposite in2="hardAlpha" operator="arithmetic" k2="-1" k3="1"/>
<feColorMatrix type="matrix" values="0 0 0 0 0 0 0 0 0 0 0 0 0 0 0 0 0 0 1 0"/>
<feBlend mode="normal" in2="effect1_innerShadow_156_3781" result="effect2_innerShadow_156_3781"/>
</filter>
</defs>
</svg>
