<svg width="40" height="40" viewBox="0 0 40 40" fill="none" xmlns="http://www.w3.org/2000/svg">
<g filter="url(#filter0_ii_156_3791)">
<path fill-rule="evenodd" clip-rule="evenodd" d="M19.9999 3.75C20.6903 3.75 21.2499 4.30964 21.2499 5V7.89483C23.6356 7.92758 26.0203 8.05411 28.3985 8.2744L28.9512 8.3256C32.7257 8.67524 35.6323 11.8097 35.6965 15.5998L35.7166 16.7889C35.795 21.4137 35.4222 26.035 34.6036 30.5874C34.231 32.6591 32.4282 34.1667 30.3232 34.1667H29.9547C28.0606 34.1667 26.3444 33.0504 25.5764 31.3189L23.8088 27.3334C22.3437 24.0303 17.6561 24.0303 16.1911 27.3334L14.4234 31.3189C13.6554 33.0504 11.9392 34.1667 10.0451 34.1667H9.67665C7.57164 34.1667 5.7688 32.6591 5.39623 30.5874C4.57757 26.035 4.20478 21.4137 4.28317 16.7889L4.30332 15.5998C4.36756 11.8097 7.27407 8.67524 11.0486 8.3256L11.6013 8.2744C13.9795 8.05411 16.3642 7.92758 18.7499 7.89483V5C18.7499 4.30964 19.3095 3.75 19.9999 3.75ZM28.3332 13.3333C28.3332 12.4129 27.587 11.6667 26.6666 11.6667C25.7461 11.6667 24.9999 12.4129 24.9999 13.3333V13.75C24.9999 14.6705 25.7461 15.4167 26.6666 15.4167C27.587 15.4167 28.3332 14.6705 28.3332 13.75V13.3333ZM13.3332 12.0833C14.0236 12.0833 14.5832 12.643 14.5832 13.3333V15.4167H16.6666C17.3569 15.4167 17.9166 15.9763 17.9166 16.6667C17.9166 17.357 17.3569 17.9167 16.6666 17.9167H14.5832V20C14.5832 20.6904 14.0236 21.25 13.3332 21.25C12.6429 21.25 12.0832 20.6904 12.0832 20V17.9167H9.9999C9.30955 17.9167 8.7499 17.357 8.7499 16.6667C8.7499 15.9763 9.30955 15.4167 9.9999 15.4167L12.0832 15.4167V13.3333C12.0832 12.643 12.6429 12.0833 13.3332 12.0833ZM26.6666 17.9167C27.587 17.9167 28.3332 18.6629 28.3332 19.5833V20C28.3332 20.9205 27.587 21.6667 26.6666 21.6667C25.7461 21.6667 24.9999 20.9205 24.9999 20V19.5833C24.9999 18.6629 25.7461 17.9167 26.6666 17.9167ZM29.9999 18.3333C30.9204 18.3333 31.6666 17.5871 31.6666 16.6667C31.6666 15.7462 30.9204 15 29.9999 15H29.5832C28.6628 15 27.9166 15.7462 27.9166 16.6667C27.9166 17.5871 28.6628 18.3333 29.5832 18.3333H29.9999ZM25.4166 16.6667C25.4166 17.5871 24.6704 18.3333 23.7499 18.3333H23.3332C22.4128 18.3333 21.6666 17.5871 21.6666 16.6667C21.6666 15.7462 22.4128 15 23.3332 15H23.7499C24.6704 15 25.4166 15.7462 25.4166 16.6667Z" fill="white"/>
</g>
<path fill-rule="evenodd" clip-rule="evenodd" d="M19.9999 3.75C20.6903 3.75 21.2499 4.30964 21.2499 5V7.89483C23.6356 7.92758 26.0203 8.05411 28.3985 8.2744L28.9512 8.3256C32.7257 8.67524 35.6323 11.8097 35.6965 15.5998L35.7166 16.7889C35.795 21.4137 35.4222 26.035 34.6036 30.5874C34.231 32.6591 32.4282 34.1667 30.3232 34.1667H29.9547C28.0606 34.1667 26.3444 33.0504 25.5764 31.3189L23.8088 27.3334C22.3437 24.0303 17.6561 24.0303 16.1911 27.3334L14.4234 31.3189C13.6554 33.0504 11.9392 34.1667 10.0451 34.1667H9.67665C7.57164 34.1667 5.7688 32.6591 5.39623 30.5874C4.57757 26.035 4.20478 21.4137 4.28317 16.7889L4.30332 15.5998C4.36756 11.8097 7.27407 8.67524 11.0486 8.3256L11.6013 8.2744C13.9795 8.05411 16.3642 7.92758 18.7499 7.89483V5C18.7499 4.30964 19.3095 3.75 19.9999 3.75ZM28.3332 13.3333C28.3332 12.4129 27.587 11.6667 26.6666 11.6667C25.7461 11.6667 24.9999 12.4129 24.9999 13.3333V13.75C24.9999 14.6705 25.7461 15.4167 26.6666 15.4167C27.587 15.4167 28.3332 14.6705 28.3332 13.75V13.3333ZM13.3332 12.0833C14.0236 12.0833 14.5832 12.643 14.5832 13.3333V15.4167H16.6666C17.3569 15.4167 17.9166 15.9763 17.9166 16.6667C17.9166 17.357 17.3569 17.9167 16.6666 17.9167H14.5832V20C14.5832 20.6904 14.0236 21.25 13.3332 21.25C12.6429 21.25 12.0832 20.6904 12.0832 20V17.9167H9.9999C9.30955 17.9167 8.7499 17.357 8.7499 16.6667C8.7499 15.9763 9.30955 15.4167 9.9999 15.4167L12.0832 15.4167V13.3333C12.0832 12.643 12.6429 12.0833 13.3332 12.0833ZM26.6666 17.9167C27.587 17.9167 28.3332 18.6629 28.3332 19.5833V20C28.3332 20.9205 27.587 21.6667 26.6666 21.6667C25.7461 21.6667 24.9999 20.9205 24.9999 20V19.5833C24.9999 18.6629 25.7461 17.9167 26.6666 17.9167ZM29.9999 18.3333C30.9204 18.3333 31.6666 17.5871 31.6666 16.6667C31.6666 15.7462 30.9204 15 29.9999 15H29.5832C28.6628 15 27.9166 15.7462 27.9166 16.6667C27.9166 17.5871 28.6628 18.3333 29.5832 18.3333H29.9999ZM25.4166 16.6667C25.4166 17.5871 24.6704 18.3333 23.7499 18.3333H23.3332C22.4128 18.3333 21.6666 17.5871 21.6666 16.6667C21.6666 15.7462 22.4128 15 23.3332 15H23.7499C24.6704 15 25.4166 15.7462 25.4166 16.6667Z" stroke="black" stroke-width="1.5" stroke-linecap="round"/>
<defs>
<filter id="filter0_ii_156_3791" x="3.52295" y="3" width="32.9541" height="31.9167" filterUnits="userSpaceOnUse" color-interpolation-filters="sRGB">
<feFlood flood-opacity="0" result="BackgroundImageFix"/>
<feBlend mode="normal" in="SourceGraphic" in2="BackgroundImageFix" result="shape"/>
<feColorMatrix in="SourceAlpha" type="matrix" values="0 0 0 0 0 0 0 0 0 0 0 0 0 0 0 0 0 0 127 0" result="hardAlpha"/>
<feOffset dx="2" dy="2"/>
<feComposite in2="hardAlpha" operator="arithmetic" k2="-1" k3="1"/>
<feColorMatrix type="matrix" values="0 0 0 0 1 0 0 0 0 0.752941 0 0 0 0 0 0 0 0 1 0"/>
<feBlend mode="normal" in2="shape" result="effect1_innerShadow_156_3791"/>
<feColorMatrix in="SourceAlpha" type="matrix" values="0 0 0 0 0 0 0 0 0 0 0 0 0 0 0 0 0 0 127 0" result="hardAlpha"/>
<feOffset dx="-2" dy="-2"/>
<feComposite in2="hardAlpha" operator="arithmetic" k2="-1" k3="1"/>
<feColorMatrix type="matrix" values="0 0 0 0 0 0 0 0 0 0 0 0 0 0 0 0 0 0 1 0"/>
<feBlend mode="normal" in2="effect1_innerShadow_156_3791" result="effect2_innerShadow_156_3791"/>
</filter>
</defs>
</svg>
