<svg width="20" height="20" viewBox="0 0 20 20" fill="none" xmlns="http://www.w3.org/2000/svg">
<path d="M3.61244 3.61244C3.98437 3.24051 4.58738 3.24051 4.95931 3.61244L10.0002 8.65329L15.041 3.61244C15.4129 3.24051 16.016 3.24051 16.3879 3.61244C16.7598 3.98437 16.7598 4.58738 16.3879 4.95931L11.347 10.0002L16.3879 15.041C16.7598 15.4129 16.7598 16.016 16.3879 16.3879C16.016 16.7598 15.4129 16.7598 15.041 16.3879L10.0002 11.347L4.95931 16.3879C4.58738 16.7598 3.98437 16.7598 3.61244 16.3879C3.24051 16.016 3.24051 15.4129 3.61244 15.041L8.65329 10.0002L3.61244 4.95931C3.24051 4.58738 3.24051 3.98437 3.61244 3.61244Z" fill="#5C5E61"/>
</svg>
