<svg width="25" height="24" viewBox="0 0 25 24" fill="none" xmlns="http://www.w3.org/2000/svg">
<g filter="url(#filter0_d_118_1539)">
<path d="M2.06198 6.9443C2.31466 5.83105 3.31028 5 4.5 5H19.5C20.6897 5 21.6853 5.83105 21.938 6.9443L12 13.0175L2.06198 6.9443ZM2 8.37136V17.2507L9.25399 12.8044L2 8.37136ZM10.4517 13.5363L2.23984 18.5699C2.64076 19.4153 3.5021 20 4.5 20H19.5C20.4979 20 21.3592 19.4153 21.7602 18.5699L13.5483 13.5363L12 14.4825L10.4517 13.5363ZM14.746 12.8044L22 17.2507V8.37136L14.746 12.8044Z" fill="white"/>
<path d="M1.57438 6.83363L1.49492 7.18373L1.80126 7.37094L11.7393 13.4442L12 13.6035L12.2607 13.4442L22.1987 7.37094L22.5051 7.18373L22.4256 6.83363C22.1224 5.49765 20.9283 4.5 19.5 4.5H4.5C3.0717 4.5 1.87762 5.49765 1.57438 6.83363ZM2.26073 7.94471L1.5 7.47983V8.37136V17.2507V18.1437L2.2613 17.677L9.51529 13.2306L10.2118 12.8037L9.51472 12.3777L2.26073 7.94471ZM10.7125 13.1097L10.4514 12.9501L10.1905 13.11L1.97854 18.1436L1.59563 18.3783L1.78806 18.7841C2.26861 19.7975 3.30177 20.5 4.5 20.5H19.5C20.6982 20.5 21.7314 19.7975 22.2119 18.7841L22.4044 18.3783L22.0215 18.1436L13.8095 13.11L13.5486 12.9501L13.2875 13.1097L12 13.8965L10.7125 13.1097ZM14.4853 12.3777L13.7882 12.8037L14.4847 13.2306L21.7387 17.677L22.5 18.1437V17.2507V8.37136V7.47983L21.7393 7.94471L14.4853 12.3777Z" stroke="black"/>
</g>
<defs>
<filter id="filter0_d_118_1539" x="0.927734" y="4" width="23.1445" height="18" filterUnits="userSpaceOnUse" color-interpolation-filters="sRGB">
<feFlood flood-opacity="0" result="BackgroundImageFix"/>
<feColorMatrix in="SourceAlpha" type="matrix" values="0 0 0 0 0 0 0 0 0 0 0 0 0 0 0 0 0 0 127 0" result="hardAlpha"/>
<feOffset dx="1" dy="1"/>
<feComposite in2="hardAlpha" operator="out"/>
<feColorMatrix type="matrix" values="0 0 0 0 0 0 0 0 0 0 0 0 0 0 0 0 0 0 1 0"/>
<feBlend mode="normal" in2="BackgroundImageFix" result="effect1_dropShadow_118_1539"/>
<feBlend mode="normal" in="SourceGraphic" in2="effect1_dropShadow_118_1539" result="shape"/>
</filter>
</defs>
</svg>
