<svg width="40" height="40" viewBox="0 0 40 40" fill="none" xmlns="http://www.w3.org/2000/svg">
<g filter="url(#filter0_ii_156_3779)">
<path fill-rule="evenodd" clip-rule="evenodd" d="M20.3836 4.17125C11.6417 3.95933 4.38316 10.8743 4.17125 19.6162C3.95933 28.3582 10.8743 35.6167 19.6162 35.8286C20.179 35.8423 20.688 35.6844 21.1132 35.3627C21.5258 35.0507 21.8117 34.6213 22.0116 34.162C22.4035 33.2615 22.5356 32.0805 22.5422 30.8626C22.5662 26.4598 26.4286 22.6361 30.7876 22.8012C31.9867 22.8466 33.1435 22.7824 34.035 22.4884C34.4861 22.3396 34.925 22.1142 35.2612 21.7625C35.6143 21.3932 35.8155 20.9234 35.8286 20.3836C36.0405 11.6417 29.1256 4.38316 20.3836 4.17125ZM14.8167 25.6711C13.903 25.7828 13.2529 26.6141 13.3646 27.5278C13.4764 28.4414 14.3076 29.0915 15.2213 28.9798C16.135 28.8681 16.7851 28.0368 16.6733 27.1231C16.5616 26.2095 15.7303 25.5594 14.8167 25.6711ZM9.2467 21.3151C9.13496 20.4014 9.78506 19.5701 10.6987 19.4584C11.6124 19.3467 12.4436 19.9967 12.5554 20.9104C12.6671 21.8241 12.017 22.6553 11.1034 22.7671C10.1897 22.8788 9.35844 22.2287 9.2467 21.3151ZM13.1981 12.4364C12.2844 12.5481 11.6344 13.3794 11.7461 14.2931C11.8578 15.2067 12.6891 15.8568 13.6028 15.7451C14.5164 15.6333 15.1665 14.8021 15.0548 13.8884C14.943 12.9748 14.1118 12.3247 13.1981 12.4364ZM26.162 15.4684C26.0503 14.5548 26.7004 13.7235 27.6141 13.6118C28.5277 13.5 29.359 14.1501 29.4707 15.0638C29.5825 15.9775 28.9324 16.8087 28.0187 16.9205C27.105 17.0322 26.2738 16.3821 26.162 15.4684ZM19.9876 18.131C19.0739 18.2427 18.4238 19.074 18.5355 19.9876C18.6473 20.9013 19.4785 21.5514 20.3922 21.4397C21.3059 21.3279 21.956 20.4967 21.8442 19.583C21.7325 18.6693 20.9012 18.0192 19.9876 18.131ZM18.9883 11.7283C18.8766 10.8146 19.5267 9.98334 20.4403 9.8716C21.354 9.75986 22.1853 10.41 22.297 11.3236C22.4087 12.2373 21.7586 13.0685 20.845 13.1803C19.9313 13.292 19.1001 12.6419 18.9883 11.7283Z" fill="#FFC000"/>
</g>
<path fill-rule="evenodd" clip-rule="evenodd" d="M20.3836 4.17125C11.6417 3.95933 4.38316 10.8743 4.17125 19.6162C3.95933 28.3582 10.8743 35.6167 19.6162 35.8286C20.179 35.8423 20.688 35.6844 21.1132 35.3627C21.5258 35.0507 21.8117 34.6213 22.0116 34.162C22.4035 33.2615 22.5356 32.0805 22.5422 30.8626C22.5662 26.4598 26.4286 22.6361 30.7876 22.8012C31.9867 22.8466 33.1435 22.7824 34.035 22.4884C34.4861 22.3396 34.925 22.1142 35.2612 21.7625C35.6143 21.3932 35.8155 20.9234 35.8286 20.3836C36.0405 11.6417 29.1256 4.38316 20.3836 4.17125ZM14.8167 25.6711C13.903 25.7828 13.2529 26.6141 13.3646 27.5278C13.4764 28.4414 14.3076 29.0915 15.2213 28.9798C16.135 28.8681 16.7851 28.0368 16.6733 27.1231C16.5616 26.2095 15.7303 25.5594 14.8167 25.6711ZM9.2467 21.3151C9.13496 20.4014 9.78506 19.5701 10.6987 19.4584C11.6124 19.3467 12.4436 19.9967 12.5554 20.9104C12.6671 21.8241 12.017 22.6553 11.1034 22.7671C10.1897 22.8788 9.35844 22.2287 9.2467 21.3151ZM13.1981 12.4364C12.2844 12.5481 11.6344 13.3794 11.7461 14.2931C11.8578 15.2067 12.6891 15.8568 13.6028 15.7451C14.5164 15.6333 15.1665 14.8021 15.0548 13.8884C14.943 12.9748 14.1118 12.3247 13.1981 12.4364ZM26.162 15.4684C26.0503 14.5548 26.7004 13.7235 27.6141 13.6118C28.5277 13.5 29.359 14.1501 29.4707 15.0638C29.5825 15.9775 28.9324 16.8087 28.0187 16.9205C27.105 17.0322 26.2738 16.3821 26.162 15.4684ZM19.9876 18.131C19.0739 18.2427 18.4238 19.074 18.5355 19.9876C18.6473 20.9013 19.4785 21.5514 20.3922 21.4397C21.3059 21.3279 21.956 20.4967 21.8442 19.583C21.7325 18.6693 20.9012 18.0192 19.9876 18.131ZM18.9883 11.7283C18.8766 10.8146 19.5267 9.98334 20.4403 9.8716C21.354 9.75986 22.1853 10.41 22.297 11.3236C22.4087 12.2373 21.7586 13.0685 20.845 13.1803C19.9313 13.292 19.1001 12.6419 18.9883 11.7283Z" stroke="black"/>
<defs>
<filter id="filter0_ii_156_3779" x="3.6665" y="3.6665" width="32.667" height="32.6628" filterUnits="userSpaceOnUse" color-interpolation-filters="sRGB">
<feFlood flood-opacity="0" result="BackgroundImageFix"/>
<feBlend mode="normal" in="SourceGraphic" in2="BackgroundImageFix" result="shape"/>
<feColorMatrix in="SourceAlpha" type="matrix" values="0 0 0 0 0 0 0 0 0 0 0 0 0 0 0 0 0 0 127 0" result="hardAlpha"/>
<feOffset dx="2" dy="2"/>
<feComposite in2="hardAlpha" operator="arithmetic" k2="-1" k3="1"/>
<feColorMatrix type="matrix" values="0 0 0 0 1 0 0 0 0 1 0 0 0 0 1 0 0 0 1 0"/>
<feBlend mode="normal" in2="shape" result="effect1_innerShadow_156_3779"/>
<feColorMatrix in="SourceAlpha" type="matrix" values="0 0 0 0 0 0 0 0 0 0 0 0 0 0 0 0 0 0 127 0" result="hardAlpha"/>
<feOffset dx="-2" dy="-2"/>
<feComposite in2="hardAlpha" operator="arithmetic" k2="-1" k3="1"/>
<feColorMatrix type="matrix" values="0 0 0 0 0 0 0 0 0 0 0 0 0 0 0 0 0 0 1 0"/>
<feBlend mode="normal" in2="effect1_innerShadow_156_3779" result="effect2_innerShadow_156_3779"/>
</filter>
</defs>
</svg>
