<svg width="20" height="20" viewBox="0 0 20 20" fill="none" xmlns="http://www.w3.org/2000/svg">
<g filter="url(#filter0_d_92_1206)">
<path d="M10 18.125C10 18.125 16.25 11.9056 16.25 7.1875C16.25 3.56313 13.4518 0.625 10 0.625C6.54822 0.625 3.75 3.56313 3.75 7.1875C3.75 11.9056 10 18.125 10 18.125ZM10 10.4688C8.27411 10.4688 6.875 8.99968 6.875 7.1875C6.875 5.37532 8.27411 3.90625 10 3.90625C11.7259 3.90625 13.125 5.37532 13.125 7.1875C13.125 8.99968 11.7259 10.4688 10 10.4688Z" fill="white"/>
<path d="M10 18.125C10 18.125 16.25 11.9056 16.25 7.1875C16.25 3.56313 13.4518 0.625 10 0.625C6.54822 0.625 3.75 3.56313 3.75 7.1875C3.75 11.9056 10 18.125 10 18.125ZM10 10.4688C8.27411 10.4688 6.875 8.99968 6.875 7.1875C6.875 5.37532 8.27411 3.90625 10 3.90625C11.7259 3.90625 13.125 5.37532 13.125 7.1875C13.125 8.99968 11.7259 10.4688 10 10.4688Z" stroke="black"/>
</g>
<defs>
<filter id="filter0_d_92_1206" x="3.25" y="0.125" width="14.5" height="19.7053" filterUnits="userSpaceOnUse" color-interpolation-filters="sRGB">
<feFlood flood-opacity="0" result="BackgroundImageFix"/>
<feColorMatrix in="SourceAlpha" type="matrix" values="0 0 0 0 0 0 0 0 0 0 0 0 0 0 0 0 0 0 127 0" result="hardAlpha"/>
<feOffset dx="1" dy="1"/>
<feComposite in2="hardAlpha" operator="out"/>
<feColorMatrix type="matrix" values="0 0 0 0 0 0 0 0 0 0 0 0 0 0 0 0 0 0 1 0"/>
<feBlend mode="normal" in2="BackgroundImageFix" result="effect1_dropShadow_92_1206"/>
<feBlend mode="normal" in="SourceGraphic" in2="effect1_dropShadow_92_1206" result="shape"/>
</filter>
</defs>
</svg>
