<svg width="24" height="24" viewBox="0 0 24 24" fill="none" xmlns="http://www.w3.org/2000/svg">
<g filter="url(#filter0_ii_152_3735)">
<path d="M8.90386 16.5H15.0959C14.4759 19.773 13.2349 22 11.9999 22C10.8029 22 9.59986 19.906 8.96186 16.796L8.90386 16.502V16.5ZM3.06586 16.501H7.37186C7.73586 18.583 8.35486 20.355 9.16386 21.594C6.62139 20.8394 4.48131 19.1085 3.21186 16.78L3.06586 16.501ZM16.6289 16.501H20.9339C20.3181 17.7204 19.4596 18.8012 18.4112 19.677C17.3628 20.5528 16.1464 21.2051 14.8369 21.594C15.5919 20.436 16.1809 18.816 16.5519 16.913L16.6289 16.501ZM16.9309 10.001H21.8009C22.1385 11.6626 22.0501 13.3827 21.5439 15.001H16.8399C16.993 13.5583 17.0365 12.1062 16.9699 10.657L16.9299 9.99995L16.9309 10.001ZM2.19986 9.99995H7.06986C6.96525 11.4719 6.97628 12.9498 7.10286 14.42L7.15986 15H2.45586C1.94932 13.3818 1.86056 11.6617 2.19786 9.99995H2.19986ZM8.57686 9.99995H15.4259C15.5401 11.4733 15.5277 12.9537 15.3889 14.425L15.3269 15H8.67386C8.49908 13.5026 8.45491 11.9929 8.54186 10.488L8.57686 9.99995H15.4259H8.57486H8.57686ZM14.9449 2.57595L14.8369 2.40595C16.3231 2.84734 17.6868 3.62738 18.8207 4.68477C19.9546 5.74216 20.8279 7.04809 21.3719 8.49995H16.7819C16.4659 6.08395 15.8249 4.00795 14.9439 2.57695L14.9449 2.57595ZM9.04286 2.44295L9.16486 2.40595C8.28286 3.75695 7.62786 5.73595 7.27986 8.05995L7.21786 8.49995H2.62986C3.16635 7.06828 4.02309 5.77823 5.13459 4.72843C6.24609 3.67864 7.58291 2.89689 9.04286 2.44295ZM11.9999 2.00195C13.3189 2.00195 14.6459 4.54395 15.2139 8.18495L15.2609 8.49995H8.73886C9.27986 4.69095 10.6439 2.00195 11.9999 2.00195Z" fill="#FFC000"/>
</g>
<path d="M8.90386 16.502L8.96186 16.796C9.59986 19.906 10.8029 22 11.9999 22C13.2349 22 14.4759 19.773 15.0959 16.5H8.90386V16.502ZM8.90386 16.502H15.0959M16.9299 9.99995L16.9699 10.657C17.0365 12.1062 16.993 13.5583 16.8399 15.001H21.5439C22.0501 13.3827 22.1385 11.6626 21.8009 10.001H16.9309L16.9299 9.99995ZM16.9299 9.99995H21.7999M8.57686 9.99995H15.4259M8.57686 9.99995L8.54186 10.488C8.45491 11.9929 8.49908 13.5026 8.67386 15H15.3269L15.3889 14.425C15.5277 12.9537 15.5401 11.4733 15.4259 9.99995M8.57686 9.99995H8.57486H15.4259M14.9439 2.57695C15.8249 4.00795 16.4659 6.08395 16.7819 8.49995H21.3719C20.8279 7.04809 19.9546 5.74216 18.8207 4.68477C17.6868 3.62738 16.3231 2.84734 14.8369 2.40595L14.9449 2.57595L14.9439 2.57695ZM14.9439 2.57695L14.8359 2.40695M3.06586 16.501H7.37186C7.73586 18.583 8.35486 20.355 9.16386 21.594C6.62139 20.8394 4.48131 19.1085 3.21186 16.78L3.06586 16.501ZM16.6289 16.501H20.9339C20.3181 17.7204 19.4596 18.8012 18.4112 19.677C17.3628 20.5528 16.1464 21.2051 14.8369 21.594C15.5919 20.436 16.1809 18.816 16.5519 16.913L16.6289 16.501ZM2.19986 9.99995H7.06986C6.96525 11.4719 6.97628 12.9498 7.10286 14.42L7.15986 15H2.45586C1.94932 13.3818 1.86056 11.6617 2.19786 9.99995H2.19986ZM9.04286 2.44295L9.16486 2.40595C8.28286 3.75695 7.62786 5.73595 7.27986 8.05995L7.21786 8.49995H2.62986C3.16635 7.06828 4.02309 5.77823 5.13459 4.72843C6.24609 3.67864 7.58291 2.89689 9.04286 2.44295ZM11.9999 2.00195C13.3189 2.00195 14.6459 4.54395 15.2139 8.18495L15.2609 8.49995H8.73886C9.27986 4.69095 10.6439 2.00195 11.9999 2.00195Z" stroke="black" stroke-width="0.5"/>
<defs>
<filter id="filter0_ii_152_3735" x="1.74707" y="1.75195" width="20.5049" height="20.498" filterUnits="userSpaceOnUse" color-interpolation-filters="sRGB">
<feFlood flood-opacity="0" result="BackgroundImageFix"/>
<feBlend mode="normal" in="SourceGraphic" in2="BackgroundImageFix" result="shape"/>
<feColorMatrix in="SourceAlpha" type="matrix" values="0 0 0 0 0 0 0 0 0 0 0 0 0 0 0 0 0 0 127 0" result="hardAlpha"/>
<feOffset dx="1" dy="1"/>
<feComposite in2="hardAlpha" operator="arithmetic" k2="-1" k3="1"/>
<feColorMatrix type="matrix" values="0 0 0 0 1 0 0 0 0 1 0 0 0 0 1 0 0 0 1 0"/>
<feBlend mode="normal" in2="shape" result="effect1_innerShadow_152_3735"/>
<feColorMatrix in="SourceAlpha" type="matrix" values="0 0 0 0 0 0 0 0 0 0 0 0 0 0 0 0 0 0 127 0" result="hardAlpha"/>
<feOffset dx="-1" dy="-1"/>
<feComposite in2="hardAlpha" operator="arithmetic" k2="-1" k3="1"/>
<feColorMatrix type="matrix" values="0 0 0 0 0 0 0 0 0 0 0 0 0 0 0 0 0 0 1 0"/>
<feBlend mode="normal" in2="effect1_innerShadow_152_3735" result="effect2_innerShadow_152_3735"/>
</filter>
</defs>
</svg>
