<svg width="16" height="17" viewBox="0 0 16 17" fill="none" xmlns="http://www.w3.org/2000/svg">
<path fill-rule="evenodd" clip-rule="evenodd" d="M0 0.5H1V15.5H16V16.5H0V0.5ZM10 12C10 12.2762 10.2239 12.5 10.5 12.5H14.5C14.7761 12.5 15 12.2762 15 12V8.00004C15 7.72389 14.7761 7.50004 14.5 7.50004C14.2239 7.50004 14 7.72389 14 8.00004V10.5993L10.387 6.18342C10.2975 6.07408 10.166 6.00769 10.0249 6.00066C9.88382 5.99362 9.74634 6.04659 9.64645 6.14648L7.0602 8.73272L3.40437 3.70595C3.24195 3.48262 2.92924 3.43325 2.70591 3.59567C2.48259 3.75809 2.43321 4.07079 2.59563 4.29412L6.59563 9.79412C6.68164 9.91238 6.81511 9.98706 6.96089 9.9985C7.10667 10.0099 7.25015 9.95699 7.35355 9.85359L9.96288 7.24426L13.4449 11.5H10.5C10.2239 11.5 10 11.7239 10 12Z" fill="#FF0000"/>
</svg>
