<svg width="25" height="25" viewBox="0 0 25 25" fill="none" xmlns="http://www.w3.org/2000/svg">
<g clip-path="url(#clip0_40_12)">
<path d="M18.2427 18.8614C16.5333 20.1644 14.4518 20.8863 12.3027 20.9214C5.30273 20.9214 1.30273 12.9214 1.30273 12.9214C2.54662 10.6033 4.27187 8.57802 6.36273 6.98141M10.2027 5.16141C10.8911 5.00029 11.5958 4.91975 12.3027 4.92141C19.3027 4.92141 23.3027 12.9214 23.3027 12.9214C22.6957 14.057 21.9718 15.1261 21.1427 16.1114M14.4227 15.0414C14.1481 15.3362 13.8169 15.5726 13.4489 15.7365C13.0809 15.9005 12.6836 15.9887 12.2808 15.9958C11.878 16.0029 11.4779 15.9288 11.1043 15.7779C10.7308 15.627 10.3915 15.4024 10.1066 15.1176C9.82171 14.8327 9.59713 14.4934 9.44624 14.1198C9.29536 13.7462 9.22126 13.3461 9.22837 12.9433C9.23547 12.5405 9.32364 12.1433 9.48761 11.7753C9.65158 11.4073 9.88799 11.0761 10.1827 10.8014" stroke="#7B6F72" stroke-width="2" stroke-linecap="round" stroke-linejoin="round"/>
<path d="M1.30273 1.92139L23.3027 23.9214" stroke="#7B6F72" stroke-width="2" stroke-linecap="round" stroke-linejoin="round"/>
</g>
<defs>
<clipPath id="clip0_40_12">
<rect width="24" height="24" fill="white" transform="translate(0.302734 0.921387)"/>
</clipPath>
</defs>
</svg>
