<svg width="30" height="18" viewBox="0 0 30 18" fill="none" xmlns="http://www.w3.org/2000/svg">
<path d="M23.25 9C23.25 9.26586 23.2374 9.52879 23.2128 9.78821C22.7878 9.3631 22.2903 9.01052 21.7404 8.75065C21.6092 5.14108 18.6416 2.25512 15 2.25512C11.2749 2.25512 8.25512 5.27491 8.25512 9C8.25512 12.6416 11.1411 15.6092 14.7507 15.7404C15.0105 16.2903 15.3631 16.7878 15.7882 17.2128C15.5288 17.2374 15.2659 17.25 15 17.25C10.4437 17.25 6.75 13.5563 6.75 9C6.75 4.44365 10.4437 0.75 15 0.75C19.5563 0.75 23.25 4.44365 23.25 9Z" fill="#A7A7A7"/>
<path d="M15.75 8.91091L16.382 9.27578C15.9635 9.58516 15.5927 9.95524 15.2824 10.373L14.638 10.001C14.5078 9.92576 14.4086 9.81738 14.3451 9.69266C14.25 9.54554 14.25 9.35 14.25 9.35V4.5C14.25 4.08579 14.5858 3.75 15 3.75C15.4142 3.75 15.75 4.08579 15.75 4.5V8.91091Z" fill="#A7A7A7"/>
<path d="M17.4697 13.2803C17.7626 12.9874 18.2374 12.9874 18.5303 13.2803L19.0112 13.7612L20.4355 12.3369C20.7284 12.044 21.2033 12.044 21.4962 12.3369C21.7891 12.6298 21.7891 13.1046 21.4962 13.3975L19.591 15.3027C19.5262 15.3675 19.4525 15.4179 19.3738 15.4541C19.0866 15.622 18.7116 15.5829 18.4652 15.3366L17.4697 14.341C17.1768 14.0481 17.1768 13.5732 17.4697 13.2803Z" fill="#A7A7A7"/>
<path fill-rule="evenodd" clip-rule="evenodd" d="M19.5 18C21.9853 18 24 15.9853 24 13.5C24 11.0147 21.9853 9 19.5 9C17.0147 9 15 11.0147 15 13.5C15 15.9853 17.0147 18 19.5 18ZM19.5 16.5136C17.8357 16.5136 16.4864 15.1643 16.4864 13.5C16.4864 11.8357 17.8357 10.4864 19.5 10.4864C21.1643 10.4864 22.5136 11.8357 22.5136 13.5C22.5136 15.1643 21.1643 16.5136 19.5 16.5136Z" fill="#A7A7A7"/>
</svg>
