<svg width="25" height="25" viewBox="0 0 25 25" fill="none" xmlns="http://www.w3.org/2000/svg">
<path d="M13.4461 2.21967C13.1307 1.92678 12.6193 1.92678 12.3039 2.21967L2.61157 11.2197C2.4601 11.3603 2.375 11.5511 2.375 11.75V22.25C2.375 22.6642 2.73662 23 3.18269 23H10.4519C10.898 23 11.2596 22.6642 11.2596 22.25V16.25H14.4904V22.25C14.4904 22.6642 14.852 23 15.2981 23H22.5673C23.0134 23 23.375 22.6642 23.375 22.25V11.75C23.375 11.5511 23.2899 11.3603 23.1384 11.2197L20.9519 9.18934V4.25C20.9519 3.83579 20.5903 3.5 20.1442 3.5H18.5288C18.0828 3.5 17.7212 3.83579 17.7212 4.25V6.18934L13.4461 2.21967ZM3.99038 21.5V12.0607L12.875 3.81066L21.7596 12.0607V21.5H16.1058V15.5C16.1058 15.0858 15.7442 14.75 15.2981 14.75H10.4519C10.0058 14.75 9.64423 15.0858 9.64423 15.5V21.5H3.99038Z" fill="#5C5E61"/>
</svg>
