<svg width="25" height="25" viewBox="0 0 25 25" fill="none" xmlns="http://www.w3.org/2000/svg">
<g filter="url(#filter0_d_85_858)">
<path d="M10.4519 22.25V16.992C10.4519 16.625 10.8558 16.25 11.2596 16.25H14.4904C14.8942 16.25 15.2981 16.625 15.2981 17V22.25C15.2981 22.6642 15.6597 23 16.1058 23H22.5673C23.0134 23 23.375 22.6642 23.375 22.25V11.75C23.375 11.5511 23.2899 11.3603 23.1384 11.2197L20.9519 9.18934V4.25C20.9519 3.83579 20.5903 3.5 20.1442 3.5H18.5288C18.0828 3.5 17.7212 3.83579 17.7212 4.25V6.18934L13.4461 2.21967C13.1307 1.92678 12.6193 1.92678 12.3039 2.21967L2.61157 11.2197C2.4601 11.3603 2.375 11.5511 2.375 11.75V22.25C2.375 22.6642 2.73662 23 3.18269 23H9.64423C10.0903 23 10.4519 22.6642 10.4519 22.25Z" fill="#FFCF01"/>
<path d="M10.4519 22.25V16.992C10.4519 16.625 10.8558 16.25 11.2596 16.25H14.4904C14.8942 16.25 15.2981 16.625 15.2981 17V22.25C15.2981 22.6642 15.6597 23 16.1058 23H22.5673C23.0134 23 23.375 22.6642 23.375 22.25V11.75C23.375 11.5511 23.2899 11.3603 23.1384 11.2197L20.9519 9.18934V4.25C20.9519 3.83579 20.5903 3.5 20.1442 3.5H18.5288C18.0828 3.5 17.7212 3.83579 17.7212 4.25V6.18934L13.4461 2.21967C13.1307 1.92678 12.6193 1.92678 12.3039 2.21967L2.61157 11.2197C2.4601 11.3603 2.375 11.5511 2.375 11.75V22.25C2.375 22.6642 2.73662 23 3.18269 23H9.64423C10.0903 23 10.4519 22.6642 10.4519 22.25Z" stroke="black"/>
</g>
<defs>
<filter id="filter0_d_85_858" x="1.875" y="1.5" width="23" height="23" filterUnits="userSpaceOnUse" color-interpolation-filters="sRGB">
<feFlood flood-opacity="0" result="BackgroundImageFix"/>
<feColorMatrix in="SourceAlpha" type="matrix" values="0 0 0 0 0 0 0 0 0 0 0 0 0 0 0 0 0 0 127 0" result="hardAlpha"/>
<feOffset dx="1" dy="1"/>
<feComposite in2="hardAlpha" operator="out"/>
<feColorMatrix type="matrix" values="0 0 0 0 0 0 0 0 0 0 0 0 0 0 0 0 0 0 1 0"/>
<feBlend mode="normal" in2="BackgroundImageFix" result="effect1_dropShadow_85_858"/>
<feBlend mode="normal" in="SourceGraphic" in2="effect1_dropShadow_85_858" result="shape"/>
</filter>
</defs>
</svg>
