<svg width="24" height="24" viewBox="0 0 24 24" fill="none" xmlns="http://www.w3.org/2000/svg">
<g filter="url(#filter0_d_82_654)">
<path d="M11.2508 2.25C8.80657 2.25 8.49982 2.26069 7.53981 2.30438C6.58167 2.34825 5.92766 2.49994 5.35541 2.7225C4.76346 2.95238 4.26133 3.25988 3.76108 3.76031C3.26045 4.26056 2.95294 4.76269 2.72232 5.35444C2.49919 5.92687 2.34731 6.58106 2.30419 7.53881C2.26125 8.49881 2.25 8.80575 2.25 11.25C2.25 13.6943 2.26088 14.0001 2.30438 14.9601C2.34844 15.9182 2.50013 16.5722 2.72251 17.1444C2.95257 17.7364 3.26007 18.2385 3.76052 18.7388C4.26058 19.2394 4.76271 19.5476 5.35428 19.7775C5.92691 20.0001 6.58111 20.1518 7.53905 20.1956C8.49906 20.2393 8.80563 20.25 11.2497 20.25C13.6942 20.25 14 20.2393 14.96 20.1956C15.9181 20.1518 16.5729 20.0001 17.1455 19.7775C17.7373 19.5476 18.2387 19.2394 18.7387 18.7388C19.2394 18.2385 19.5469 17.7364 19.7775 17.1446C19.9987 16.5722 20.1506 15.918 20.1956 14.9603C20.2388 14.0003 20.25 13.6943 20.25 11.25C20.25 8.80575 20.2388 8.499 20.1956 7.539C20.1506 6.58087 19.9987 5.92687 19.7775 5.35462C19.5469 4.76269 19.2394 4.26056 18.7387 3.76031C18.2381 3.25969 17.7375 2.95219 17.145 2.7225C16.5712 2.49994 15.9168 2.34825 14.9587 2.30438C13.9987 2.26069 13.6931 2.25 11.248 2.25H11.2508ZM10.4435 3.87187C10.6831 3.8715 10.9505 3.87187 11.2508 3.87187C13.6539 3.87187 13.9387 3.8805 14.8876 3.92363C15.7651 3.96375 16.2414 4.11038 16.5586 4.23356C16.9787 4.39669 17.2781 4.59169 17.5929 4.90669C17.9079 5.22169 18.1029 5.52169 18.2664 5.94169C18.3896 6.25856 18.5364 6.73481 18.5764 7.61231C18.6195 8.56106 18.6289 8.84606 18.6289 11.2479C18.6289 13.6498 18.6195 13.9348 18.5764 14.8836C18.5362 15.7611 18.3896 16.2373 18.2664 16.5542C18.1033 16.9742 17.9079 17.2733 17.5929 17.5881C17.2779 17.9031 16.9788 18.0981 16.5586 18.2612C16.2418 18.3849 15.7651 18.5312 14.8876 18.5713C13.9389 18.6144 13.6539 18.6238 11.2508 18.6238C8.84763 18.6238 8.56282 18.6144 7.61406 18.5713C6.73655 18.5308 6.26029 18.3842 5.94285 18.261C5.52285 18.0979 5.22284 17.9029 4.90784 17.5879C4.59284 17.2729 4.39783 16.9736 4.23433 16.5534C4.11114 16.2366 3.96433 15.7603 3.92439 14.8828C3.88127 13.9341 3.87264 13.6491 3.87264 11.2457C3.87264 8.84231 3.88127 8.55881 3.92439 7.61006C3.96452 6.73256 4.11114 6.25631 4.23433 5.93906C4.39746 5.51906 4.59284 5.21906 4.90784 4.90406C5.22284 4.58906 5.52285 4.39406 5.94285 4.23056C6.2601 4.10681 6.73655 3.96056 7.61406 3.92025C8.44431 3.88275 8.76607 3.8715 10.4435 3.86963V3.87187ZM16.055 5.36625C15.4588 5.36625 14.975 5.84944 14.975 6.44587C14.975 7.04212 15.4588 7.52588 16.055 7.52588C16.6513 7.52588 17.135 7.04212 17.135 6.44587C17.135 5.84962 16.6513 5.36588 16.055 5.36588V5.36625ZM11.2508 6.62812C8.69838 6.62812 6.62892 8.69756 6.62892 11.25C6.62892 13.8024 8.69838 15.8709 11.2508 15.8709C13.8033 15.8709 15.872 13.8024 15.872 11.25C15.872 8.69756 13.8031 6.62812 11.2507 6.62812H11.2508ZM11.2508 8.25C12.9076 8.25 14.2509 9.59306 14.2509 11.25C14.2509 12.9067 12.9076 14.25 11.2508 14.25C9.59389 14.25 8.25081 12.9067 8.25081 11.25C8.25081 9.59306 9.59389 8.25 11.2508 8.25Z" fill="#FFCF01"/>
<path d="M7.51693 1.8049L7.51708 1.80489C8.48802 1.76071 8.80374 1.75001 11.248 1.75L7.51693 1.8049ZM7.51693 1.8049C6.51178 1.85093 5.80346 2.01179 5.17441 2.25641L7.51693 1.8049ZM1.80469 7.51647L1.80469 7.51632C1.84996 6.51114 2.01109 5.80234 2.25645 5.17287L1.80469 7.51647ZM1.80469 7.51647C1.76126 8.48741 1.75 8.80289 1.75 11.25C1.75 13.6969 1.76088 14.0115 1.80489 14.9827L1.8049 14.983M1.80469 7.51647L1.8049 14.983M1.8049 14.983C1.85113 15.9883 2.01202 16.6965 2.25646 17.3255L2.25647 17.3256M1.8049 14.983L2.25647 17.3256M2.25647 17.3256C2.50978 17.9773 2.85393 18.5395 3.40703 19.0924M2.25647 17.3256L3.40703 19.0924M5.35428 19.7775C5.92691 20.0001 6.58111 20.1518 7.53905 20.1956M5.35428 19.7775C4.76271 19.5476 4.26058 19.2394 3.76052 18.7388C3.26007 18.2385 2.95257 17.7364 2.72251 17.1444L7.53905 20.1956M5.35428 19.7775L5.17318 20.2436M5.35428 19.7775L5.17315 20.2435C5.17316 20.2435 5.17317 20.2435 5.17318 20.2436M7.53905 20.1956C8.49906 20.2393 8.80563 20.25 11.2497 20.25C13.6942 20.25 14 20.2393 14.96 20.1956H7.53905ZM3.40703 19.0924C3.95946 19.6453 4.52153 19.9903 5.17318 20.2436M3.40703 19.0924L17.3266 20.2436M5.17318 20.2436C5.80259 20.4882 6.5111 20.6491 7.51618 20.6951L7.51632 20.6951C8.48764 20.7393 8.80304 20.75 11.2497 20.75C13.6968 20.75 14.0114 20.7393 14.9827 20.6951L14.9829 20.6951C15.9881 20.6491 16.6971 20.4882 17.3266 20.2436M17.3266 20.2436L17.1455 19.7775L17.3267 20.2435L17.3266 20.2436ZM9.94346 4.37266V4.37059C8.69725 4.37424 8.36812 4.3867 7.637 4.41972C6.81427 4.45752 6.39142 4.59228 6.12455 4.69638L6.12423 4.6965C5.7678 4.83526 5.52667 4.99234 5.26139 5.25762C4.99593 5.52308 4.83865 5.76417 4.70041 6.12009C4.5965 6.3877 4.46149 6.81056 4.42388 7.63277L9.94346 4.37266ZM9.94346 4.37266L10.4442 4.37187M9.94346 4.37266L10.4442 4.37187M10.4442 4.37187C10.6005 4.37163 10.7683 4.37171 10.95 4.37179M10.4442 4.37187L10.95 4.37179M17.2394 5.26024L17.2393 5.26014C16.9741 4.99478 16.7336 4.8379 16.3777 4.69966L17.2394 5.26024ZM17.2394 5.26024C17.5046 5.52546 17.6617 5.76655 17.8004 6.12286L17.2394 5.26024ZM17.8003 16.3732L17.8004 16.373C17.9042 16.1059 18.0393 15.6831 18.0769 14.8607C18.1195 13.9236 18.1289 13.6475 18.1289 11.2479C18.1289 8.84831 18.1195 8.57229 18.0769 7.63505C18.0395 6.81305 17.9043 6.39026 17.8005 6.12307L17.8003 16.3732ZM17.8003 16.3732C17.6623 16.7287 17.5051 16.9689 17.2395 17.2344L17.2394 17.2345M17.8003 16.3732L17.2394 17.2345M17.2394 17.2345C16.9738 17.5001 16.7336 17.6569 16.3777 17.7951L16.3768 17.7954M17.2394 17.2345L16.3768 17.7954M16.3768 17.7954C16.1105 17.8994 15.6875 18.0342 14.8648 18.0718C13.9276 18.1144 13.6515 18.1238 11.2508 18.1238C8.84987 18.1238 8.57404 18.1144 7.63676 18.0718C6.81456 18.0338 6.39163 17.8988 6.12374 17.7949C5.76764 17.6565 5.52663 17.4996 5.26139 17.2343C4.99592 16.9688 4.83897 16.7284 4.70036 16.3723M16.3768 17.7954L4.70036 16.3723M10.95 4.37179C11.0462 4.37183 11.1464 4.37187 11.2508 4.37187M10.95 4.37179L11.2508 4.37187M11.2508 4.37187C13.6518 4.37187 13.9276 4.38051 14.8648 4.4231L11.2508 4.37187ZM4.70036 16.3723C4.59649 16.1051 4.4613 15.6823 4.42388 14.8601C4.38128 13.923 4.37264 13.6472 4.37264 11.2457C4.37264 8.84434 4.38128 8.56989 4.42387 7.6329L4.70036 16.3723ZM6.12892 11.25C6.12892 8.42148 8.42214 6.12822 11.2507 6.12812L6.12892 11.25ZM6.12892 11.25C6.12892 14.0787 8.42237 16.3709 11.2508 16.3709M6.12892 11.25L11.2508 16.3709M11.2508 16.3709C14.0794 16.3709 16.372 14.0786 16.372 11.25M11.2508 16.3709L16.372 11.25M16.372 11.25C16.372 8.42156 14.0794 6.12823 11.2508 6.12812L16.372 11.25ZM19.0922 3.40663C18.5393 2.85378 17.9787 2.50944 17.3257 2.2563C16.6954 2.01182 15.9868 1.85093 14.9816 1.8049L14.9814 1.80489C14.0105 1.76071 13.6959 1.75001 11.2508 1.75L19.0922 3.40663ZM15.555 4.86588V4.947C14.9277 5.15609 14.475 5.74787 14.475 6.44587C14.475 7.31827 15.1826 8.02588 16.055 8.02588C16.9274 8.02588 17.635 7.31827 17.635 6.44587C17.635 5.57348 16.9274 4.86588 16.055 4.86588H15.555ZM5.17417 2.2565C4.52242 2.50963 3.96028 2.8538 3.40746 3.40682C2.85426 3.95966 2.51024 4.5217 2.25646 5.17285L5.17417 2.2565ZM14.8649 4.42311C15.6871 4.46072 16.11 4.59573 16.3776 4.69964L14.8649 4.42311ZM11.2508 8.75C12.6315 8.75 13.7509 9.86923 13.7509 11.25C13.7509 12.6306 12.6315 13.75 11.2508 13.75C9.87005 13.75 8.75081 12.6306 8.75081 11.25C8.75081 9.86921 9.87003 8.75 11.2508 8.75Z" stroke="black"/>
</g>
<defs>
<filter id="filter0_d_82_654" x="1.25" y="1.25" width="21" height="21" filterUnits="userSpaceOnUse" color-interpolation-filters="sRGB">
<feFlood flood-opacity="0" result="BackgroundImageFix"/>
<feColorMatrix in="SourceAlpha" type="matrix" values="0 0 0 0 0 0 0 0 0 0 0 0 0 0 0 0 0 0 127 0" result="hardAlpha"/>
<feOffset dx="1" dy="1"/>
<feComposite in2="hardAlpha" operator="out"/>
<feColorMatrix type="matrix" values="0 0 0 0 0 0 0 0 0 0 0 0 0 0 0 0 0 0 1 0"/>
<feBlend mode="normal" in2="BackgroundImageFix" result="effect1_dropShadow_82_654"/>
<feBlend mode="normal" in="SourceGraphic" in2="effect1_dropShadow_82_654" result="shape"/>
</filter>
</defs>
</svg>
