<svg width="25" height="25" viewBox="0 0 25 25" fill="none" xmlns="http://www.w3.org/2000/svg">
<g filter="url(#filter0_d_133_4118)">
<path d="M16.9116 15.0764C17.9495 13.6633 18.5625 11.9189 18.5625 10.0312C18.5625 5.31957 14.7429 1.5 10.0312 1.5C5.31957 1.5 1.5 5.31957 1.5 10.0312C1.5 14.7429 5.31957 18.5625 10.0312 18.5625C11.9194 18.5625 13.6643 17.9491 15.0775 16.9107L15.0764 16.9116C15.1151 16.9641 15.1582 17.0143 15.2057 17.0618L20.2594 22.1156C20.772 22.6281 21.603 22.6281 22.1156 22.1156C22.6281 21.603 22.6281 20.772 22.1156 20.2594L17.0618 15.2057C17.0143 15.1582 16.9641 15.1151 16.9116 15.0764ZM17.25 10.0312C17.25 14.0181 14.0181 17.25 10.0312 17.25C6.04444 17.25 2.8125 14.0181 2.8125 10.0312C2.8125 6.04444 6.04444 2.8125 10.0312 2.8125C14.0181 2.8125 17.25 6.04444 17.25 10.0312Z" fill="#FFCF01"/>
<path d="M10.0312 19.0625C11.869 19.0625 13.5797 18.5131 15.0064 17.5697L19.9059 22.4691C20.6137 23.177 21.7613 23.177 22.4691 22.4691C23.177 21.7613 23.177 20.6137 22.4691 19.9059L17.5697 15.0064C18.5131 13.5797 19.0625 11.869 19.0625 10.0312C19.0625 5.04343 15.0191 1 10.0312 1C5.04343 1 1 5.04343 1 10.0312C1 15.0191 5.04343 19.0625 10.0312 19.0625ZM16.75 10.0312C16.75 13.7419 13.7419 16.75 10.0312 16.75C6.32059 16.75 3.3125 13.7419 3.3125 10.0312C3.3125 6.32059 6.32059 3.3125 10.0312 3.3125C13.7419 3.3125 16.75 6.32059 16.75 10.0312Z" stroke="black"/>
</g>
<defs>
<filter id="filter0_d_133_4118" x="0.5" y="0.5" width="24" height="24" filterUnits="userSpaceOnUse" color-interpolation-filters="sRGB">
<feFlood flood-opacity="0" result="BackgroundImageFix"/>
<feColorMatrix in="SourceAlpha" type="matrix" values="0 0 0 0 0 0 0 0 0 0 0 0 0 0 0 0 0 0 127 0" result="hardAlpha"/>
<feOffset dx="1" dy="1"/>
<feComposite in2="hardAlpha" operator="out"/>
<feColorMatrix type="matrix" values="0 0 0 0 0 0 0 0 0 0 0 0 0 0 0 0 0 0 1 0"/>
<feBlend mode="normal" in2="BackgroundImageFix" result="effect1_dropShadow_133_4118"/>
<feBlend mode="normal" in="SourceGraphic" in2="effect1_dropShadow_133_4118" result="shape"/>
</filter>
</defs>
</svg>
