<svg width="24" height="24" viewBox="0 0 24 24" fill="none" xmlns="http://www.w3.org/2000/svg">
<g filter="url(#filter0_d_82_650)">
<path d="M2.25 3.53941C2.25 2.82748 2.84176 2.25 3.57178 2.25H18.9282C19.6582 2.25 20.25 2.82748 20.25 3.53941V18.9606C20.25 19.6728 19.6582 20.25 18.9282 20.25L3.57178 20.25C2.84176 20.25 2.25 19.6728 2.25 18.9606V3.53941ZM7.8113 17.3179V9.18986H5.1097V17.3179H7.8113ZM6.46049 8.08011C7.40259 8.08011 7.98897 7.45597 7.98897 6.67598C7.97142 5.87843 7.40259 5.27161 6.47836 5.27161C5.55423 5.27161 4.95 5.87843 4.95 6.67598C4.95 7.45597 5.53626 8.08011 6.44288 8.08011H6.46049ZM11.9828 17.3179V12.7788C11.9828 12.5359 12.0004 12.2932 12.0717 12.1196C12.267 11.6342 12.7115 11.1315 13.4579 11.1315C14.4354 11.1315 14.8265 11.8769 14.8265 12.9696V17.3179H17.5279V12.6574C17.5279 10.1608 16.195 8.99913 14.4176 8.99913C12.9845 8.99913 12.3419 9.78679 11.9829 10.3406V10.3686H11.9649C11.9708 10.3594 11.9768 10.35 11.9829 10.3406V9.18986H9.28132C9.31678 9.95253 9.28132 17.3179 9.28132 17.3179H11.9828Z" fill="#FFCF01"/>
<path d="M12.4829 10.8686V10.4926C12.6346 10.2747 12.8232 10.0524 13.082 9.87336C13.3811 9.66639 13.8003 9.49913 14.4176 9.49913C15.1949 9.49913 15.8285 9.75021 16.2716 10.2309C16.7185 10.7157 17.0279 11.4952 17.0279 12.6574V16.8179H15.3265V12.9696C15.3265 12.3778 15.2231 11.8013 14.922 11.3593C14.5993 10.8855 14.0941 10.6315 13.4579 10.6315C12.4414 10.6315 11.8519 11.3279 11.6085 11.9313C11.497 12.204 11.4828 12.5341 11.4828 12.7788V16.8179H9.78354L9.7863 16.1571C9.78908 15.4545 9.7924 14.5097 9.79462 13.541C9.798 12.063 9.79892 10.5113 9.79082 9.68986H11.4829V10.1927V10.194L11.0507 10.8686H11.9649H11.9829H12.4829ZM3.57178 1.75C2.57733 1.75 1.75 2.53977 1.75 3.53941V18.9606C1.75 19.9605 2.57739 20.75 3.57178 20.75L18.9282 20.75C19.9226 20.75 20.75 19.9605 20.75 18.9606V3.53941C20.75 2.53977 19.9226 1.75 18.9282 1.75H3.57178ZM5.6097 9.68986H7.3113V16.8179H5.6097V9.68986ZM7.22606 6.03411C7.38106 6.18402 7.48158 6.40349 7.48896 6.68142C7.48763 6.94035 7.39151 7.15663 7.23193 7.30968C7.07156 7.46348 6.81848 7.58011 6.46049 7.58011H6.44288C5.80065 7.58011 5.45 7.16823 5.45 6.67598C5.45 6.40808 5.54912 6.19082 5.71068 6.03846C5.87319 5.8852 6.12745 5.77161 6.47836 5.77161C6.82788 5.77161 7.071 5.88414 7.22606 6.03411Z" stroke="black"/>
</g>
<defs>
<filter id="filter0_d_82_650" x="1.25" y="1.25" width="21" height="21" filterUnits="userSpaceOnUse" color-interpolation-filters="sRGB">
<feFlood flood-opacity="0" result="BackgroundImageFix"/>
<feColorMatrix in="SourceAlpha" type="matrix" values="0 0 0 0 0 0 0 0 0 0 0 0 0 0 0 0 0 0 127 0" result="hardAlpha"/>
<feOffset dx="1" dy="1"/>
<feComposite in2="hardAlpha" operator="out"/>
<feColorMatrix type="matrix" values="0 0 0 0 0 0 0 0 0 0 0 0 0 0 0 0 0 0 1 0"/>
<feBlend mode="normal" in2="BackgroundImageFix" result="effect1_dropShadow_82_650"/>
<feBlend mode="normal" in="SourceGraphic" in2="effect1_dropShadow_82_650" result="shape"/>
</filter>
</defs>
</svg>
