<svg width="24" height="24" viewBox="0 0 24 24" fill="none" xmlns="http://www.w3.org/2000/svg">
<g filter="url(#filter0_d_82_652)">
<path d="M20.25 11.305C20.25 6.30406 16.2206 2.25 11.25 2.25C6.27943 2.25 2.25 6.30406 2.25 11.305C2.25 15.8246 5.54117 19.5707 9.84375 20.25V13.9225H7.55859V11.305H9.84375V9.31007C9.84375 7.04066 11.1874 5.78711 13.2432 5.78711C14.2279 5.78711 15.2578 5.96397 15.2578 5.96397V8.19234H14.1229C13.0049 8.19234 12.6563 8.89034 12.6563 9.60643V11.305H15.1523L14.7533 13.9225H12.6563V20.25C16.9588 19.5707 20.25 15.8246 20.25 11.305Z" fill="#FFCF01"/>
<path d="M9.76578 20.7439L10.3438 20.8351V20.25V13.9225V13.4225H9.84375H8.05859V11.805H9.84375H10.3438V11.305V9.31007C10.3438 8.27429 10.6484 7.53216 11.1273 7.04987C11.6064 6.56746 12.3172 6.28711 13.2432 6.28711C13.7087 6.28711 14.1914 6.32913 14.5621 6.3722C14.6319 6.38031 14.6975 6.38843 14.7578 6.39624V7.69234H14.1229C13.4543 7.69234 12.9343 7.90567 12.5911 8.30494C12.26 8.69017 12.1563 9.17637 12.1563 9.60643V11.305V11.805H12.6563H14.5703L14.3238 13.4225H12.6563H12.1563V13.9225V20.25V20.8351L12.7342 20.7439C17.2782 20.0265 20.75 16.0723 20.75 11.305C20.75 6.03079 16.4996 1.75 11.25 1.75C6.00042 1.75 1.75 6.03079 1.75 11.305C1.75 16.0723 5.22176 20.0265 9.76578 20.7439Z" stroke="black"/>
</g>
<defs>
<filter id="filter0_d_82_652" x="1.25" y="1.25" width="21" height="21.1703" filterUnits="userSpaceOnUse" color-interpolation-filters="sRGB">
<feFlood flood-opacity="0" result="BackgroundImageFix"/>
<feColorMatrix in="SourceAlpha" type="matrix" values="0 0 0 0 0 0 0 0 0 0 0 0 0 0 0 0 0 0 127 0" result="hardAlpha"/>
<feOffset dx="1" dy="1"/>
<feComposite in2="hardAlpha" operator="out"/>
<feColorMatrix type="matrix" values="0 0 0 0 0 0 0 0 0 0 0 0 0 0 0 0 0 0 1 0"/>
<feBlend mode="normal" in2="BackgroundImageFix" result="effect1_dropShadow_82_652"/>
<feBlend mode="normal" in="SourceGraphic" in2="effect1_dropShadow_82_652" result="shape"/>
</filter>
</defs>
</svg>
