<svg width="23" height="22" viewBox="0 0 23 22" fill="none" xmlns="http://www.w3.org/2000/svg">
<g filter="url(#filter0_d_129_3080)">
<path d="M1.5 1.875C1.5 1.52982 1.77982 1.25 2.125 1.25H4C4.28679 1.25 4.53678 1.44519 4.60634 1.72342L5.11299 3.75H19.625C19.8122 3.75 19.9896 3.83395 20.1083 3.97876C20.2271 4.12356 20.2746 4.31396 20.2379 4.49757L18.9879 10.7476C18.9317 11.0282 18.6922 11.2349 18.4063 11.2492L6.66027 11.8384L7.0187 13.75H17.75C18.0952 13.75 18.375 14.0298 18.375 14.375C18.375 14.7202 18.0952 15 17.75 15H16.5H7.75H6.5C6.19924 15 5.94113 14.7858 5.8857 14.4902L4.01414 4.5085L3.51201 2.5H2.125C1.77982 2.5 1.5 2.22018 1.5 1.875ZM5.37808 5L6.42779 10.5984L17.8576 10.0252L18.8626 5H5.37808ZM7.75 15C6.36929 15 5.25 16.1193 5.25 17.5C5.25 18.8807 6.36929 20 7.75 20C9.13071 20 10.25 18.8807 10.25 17.5C10.25 16.1193 9.13071 15 7.75 15ZM16.5 15C15.1193 15 14 16.1193 14 17.5C14 18.8807 15.1193 20 16.5 20C17.8807 20 19 18.8807 19 17.5C19 16.1193 17.8807 15 16.5 15ZM7.75 16.25C8.44036 16.25 9 16.8096 9 17.5C9 18.1904 8.44036 18.75 7.75 18.75C7.05964 18.75 6.5 18.1904 6.5 17.5C6.5 16.8096 7.05964 16.25 7.75 16.25ZM16.5 16.25C17.1904 16.25 17.75 16.8096 17.75 17.5C17.75 18.1904 17.1904 18.75 16.5 18.75C15.8096 18.75 15.25 18.1904 15.25 17.5C15.25 16.8096 15.8096 16.25 16.5 16.25Z" fill="#FFCF01"/>
<path d="M20.7282 4.59563L20.2379 4.49757L20.7282 4.59563C20.7943 4.26513 20.7087 3.92241 20.495 3.66176C20.2813 3.40111 19.962 3.25 19.625 3.25H5.50337L5.09141 1.60215C4.96621 1.10133 4.51623 0.75 4 0.75H2.125C1.50368 0.75 1 1.25368 1 1.875C1 2.49632 1.50368 3 2.125 3H3.12163L3.52545 4.6153L5.39427 14.5823C5.44392 14.8471 5.58394 15.0757 5.77882 15.2384C5.14836 15.7884 4.75 16.5977 4.75 17.5C4.75 19.1569 6.09315 20.5 7.75 20.5C9.40685 20.5 10.75 19.1569 10.75 17.5C10.75 16.7316 10.4611 16.0308 9.98611 15.5H14.2639C13.7889 16.0308 13.5 16.7316 13.5 17.5C13.5 19.1569 14.8431 20.5 16.5 20.5C18.1569 20.5 19.5 19.1569 19.5 17.5C19.5 16.5977 19.1016 15.7884 18.4712 15.2385C18.718 15.0321 18.875 14.7219 18.875 14.375C18.875 13.7537 18.3713 13.25 17.75 13.25H7.43367L7.25724 12.309L18.4314 11.7486C18.9459 11.7228 19.3771 11.3508 19.4782 10.8456L20.7282 4.59563ZM6.83877 10.0772L5.98054 5.5H18.2527L17.4437 9.5453L6.83877 10.0772ZM7.75 16.75C8.16421 16.75 8.5 17.0858 8.5 17.5C8.5 17.9142 8.16421 18.25 7.75 18.25C7.33579 18.25 7 17.9142 7 17.5C7 17.0858 7.33579 16.75 7.75 16.75ZM16.5 16.75C16.9142 16.75 17.25 17.0858 17.25 17.5C17.25 17.9142 16.9142 18.25 16.5 18.25C16.0858 18.25 15.75 17.9142 15.75 17.5C15.75 17.0858 16.0858 16.75 16.5 16.75Z" stroke="black" stroke-linejoin="round"/>
</g>
<defs>
<filter id="filter0_d_129_3080" x="0.5" y="0.25" width="21.75" height="21.75" filterUnits="userSpaceOnUse" color-interpolation-filters="sRGB">
<feFlood flood-opacity="0" result="BackgroundImageFix"/>
<feColorMatrix in="SourceAlpha" type="matrix" values="0 0 0 0 0 0 0 0 0 0 0 0 0 0 0 0 0 0 127 0" result="hardAlpha"/>
<feOffset dx="1" dy="1"/>
<feComposite in2="hardAlpha" operator="out"/>
<feColorMatrix type="matrix" values="0 0 0 0 0 0 0 0 0 0 0 0 0 0 0 0 0 0 1 0"/>
<feBlend mode="normal" in2="BackgroundImageFix" result="effect1_dropShadow_129_3080"/>
<feBlend mode="normal" in="SourceGraphic" in2="effect1_dropShadow_129_3080" result="shape"/>
</filter>
</defs>
</svg>
