<svg width="20" height="20" viewBox="0 0 20 20" fill="none" xmlns="http://www.w3.org/2000/svg">
<path fill-rule="evenodd" clip-rule="evenodd" d="M19.1666 3.33331C19.1666 1.9526 18.0473 0.833313 16.6666 0.833313H3.33325C1.95254 0.833313 0.833252 1.9526 0.833252 3.33331V16.6666C0.833252 18.0474 1.95254 19.1666 3.33325 19.1666H16.6666C18.0473 19.1666 19.1666 18.0474 19.1666 16.6666V3.33331ZM17.4999 3.33331C17.4999 2.87308 17.1268 2.49998 16.6666 2.49998H3.33325C2.87301 2.49998 2.49992 2.87308 2.49992 3.33331V16.6666C2.49992 17.1269 2.87301 17.5 3.33325 17.5H16.6666C17.1268 17.5 17.4999 17.1269 17.4999 16.6666V3.33331Z" fill="#5C5E61"/>
<path d="M4.00546 14.6009L7.60167 8.00787C7.91752 7.42882 8.74898 7.42882 9.06483 8.00787L11.7053 12.8488L12.6097 11.2662C12.9296 10.7063 13.7369 10.7063 14.0568 11.2662L15.9541 14.5865C16.2716 15.1421 15.8705 15.8333 15.2306 15.8333H4.73704C4.10449 15.8333 3.70256 15.1562 4.00546 14.6009Z" fill="#5C5E61"/>
<path d="M14.9999 6.66665C14.9999 7.58712 14.2537 8.33331 13.3333 8.33331C12.4128 8.33331 11.6666 7.58712 11.6666 6.66665C11.6666 5.74617 12.4128 4.99998 13.3333 4.99998C14.2537 4.99998 14.9999 5.74617 14.9999 6.66665Z" fill="#5C5E61"/>
</svg>
