<svg width="24" height="24" viewBox="0 0 24 24" fill="none" xmlns="http://www.w3.org/2000/svg">
<g filter="url(#filter0_ii_170_3980)">
<path d="M20.25 3.75H3.75C3.35218 3.75 2.97064 3.90804 2.68934 4.18934C2.40804 4.47064 2.25 4.85218 2.25 5.25V18.75C2.25 19.1478 2.40804 19.5294 2.68934 19.8107C2.97064 20.092 3.35218 20.25 3.75 20.25H20.25C20.6478 20.25 21.0294 20.092 21.3107 19.8107C21.592 19.5294 21.75 19.1478 21.75 18.75V5.25C21.75 4.85218 21.592 4.47064 21.3107 4.18934C21.0294 3.90804 20.6478 3.75 20.25 3.75ZM14.625 8.25C14.8475 8.25 15.065 8.31598 15.25 8.4396C15.435 8.56321 15.5792 8.73891 15.6644 8.94448C15.7495 9.15005 15.7718 9.37625 15.7284 9.59448C15.685 9.81271 15.5778 10.0132 15.4205 10.1705C15.2632 10.3278 15.0627 10.435 14.8445 10.4784C14.6262 10.5218 14.4 10.4995 14.1945 10.4144C13.9889 10.3292 13.8132 10.185 13.6896 10C13.566 9.81501 13.5 9.5975 13.5 9.375C13.5 9.07663 13.6185 8.79048 13.8295 8.5795C14.0405 8.36853 14.3266 8.25 14.625 8.25ZM3.75 18.75V16.125L8.625 11.25L16.125 18.75H3.75ZM20.25 18.75H18.2466L14.8716 15.375L16.7466 13.5L20.25 17.0044V18.75Z" fill="#FFC000"/>
</g>
<path d="M3.25 18.75V19.25H3.75H16.125H17.3321L16.4786 18.3964L8.97855 10.8964L8.625 10.5429L8.27145 10.8964L3.39645 15.7714L3.25 15.9179V16.125V18.75ZM20.25 19.25H20.75V18.75V17.0044V16.7973L20.6036 16.6509L17.1002 13.1465L16.7466 12.7928L16.393 13.1464L14.518 15.0214L14.1645 15.375L14.518 15.7286L17.893 19.1036L18.0395 19.25H18.2466H20.25ZM3.75 4.25H20.25C20.5152 4.25 20.7696 4.35536 20.9571 4.54289C21.1446 4.73043 21.25 4.98478 21.25 5.25V18.75C21.25 19.0152 21.1446 19.2696 20.9571 19.4571C20.7696 19.6446 20.5152 19.75 20.25 19.75H3.75C3.48478 19.75 3.23043 19.6446 3.04289 19.4571C2.85536 19.2696 2.75 19.0152 2.75 18.75V5.25C2.75 4.98478 2.85536 4.73043 3.04289 4.54289C3.23043 4.35536 3.48478 4.25 3.75 4.25ZM15.5278 8.02386C15.2606 7.8453 14.9464 7.75 14.625 7.75C14.194 7.75 13.7807 7.9212 13.476 8.22595C13.1712 8.5307 13 8.94402 13 9.375C13 9.6964 13.0953 10.0106 13.2739 10.2778C13.4524 10.545 13.7062 10.7533 14.0031 10.8763C14.3001 10.9993 14.6268 11.0315 14.942 10.9688C15.2572 10.9061 15.5468 10.7513 15.774 10.524C16.0013 10.2968 16.1561 10.0072 16.2188 9.69202C16.2815 9.3768 16.2493 9.05007 16.1263 8.75314C16.0033 8.45621 15.795 8.20242 15.5278 8.02386Z" stroke="black"/>
<defs>
<filter id="filter0_ii_170_3980" x="2.25" y="3.75" width="19.5" height="16.5" filterUnits="userSpaceOnUse" color-interpolation-filters="sRGB">
<feFlood flood-opacity="0" result="BackgroundImageFix"/>
<feBlend mode="normal" in="SourceGraphic" in2="BackgroundImageFix" result="shape"/>
<feColorMatrix in="SourceAlpha" type="matrix" values="0 0 0 0 0 0 0 0 0 0 0 0 0 0 0 0 0 0 127 0" result="hardAlpha"/>
<feOffset dx="2" dy="2"/>
<feComposite in2="hardAlpha" operator="arithmetic" k2="-1" k3="1"/>
<feColorMatrix type="matrix" values="0 0 0 0 1 0 0 0 0 1 0 0 0 0 1 0 0 0 1 0"/>
<feBlend mode="normal" in2="shape" result="effect1_innerShadow_170_3980"/>
<feColorMatrix in="SourceAlpha" type="matrix" values="0 0 0 0 0 0 0 0 0 0 0 0 0 0 0 0 0 0 127 0" result="hardAlpha"/>
<feOffset dx="-2" dy="-2"/>
<feComposite in2="hardAlpha" operator="arithmetic" k2="-1" k3="1"/>
<feColorMatrix type="matrix" values="0 0 0 0 0 0 0 0 0 0 0 0 0 0 0 0 0 0 1 0"/>
<feBlend mode="normal" in2="effect1_innerShadow_170_3980" result="effect2_innerShadow_170_3980"/>
</filter>
</defs>
</svg>
