<svg width="30" height="31" viewBox="0 0 30 31" fill="none" xmlns="http://www.w3.org/2000/svg">
<g filter="url(#filter0_ii_1_5099)">
<path d="M15 11.7423C12.7563 11.7423 10.9375 13.5612 10.9375 15.8049C10.9375 18.0486 12.7563 19.8674 15 19.8674C17.2437 19.8674 19.0625 18.0486 19.0625 15.8049C19.0625 13.5612 17.2437 11.7423 15 11.7423Z" fill="#FFC000"/>
<path fill-rule="evenodd" clip-rule="evenodd" d="M8.46184 4.65658C12.772 4.17486 17.228 4.17486 21.5382 4.65658C23.9112 4.9218 25.8252 6.79155 26.1037 9.17289C26.6191 13.5792 26.6191 18.0306 26.1037 22.4369C25.8252 24.8182 23.9112 26.688 21.5382 26.9532C17.228 27.4349 12.772 27.4349 8.46184 26.9532C6.08882 26.688 4.1748 24.8182 3.89628 22.4369C3.38093 18.0306 3.38093 13.5792 3.89628 9.17289C4.1748 6.79155 6.08882 4.9218 8.46184 4.65658ZM21.2501 8.30479C20.5597 8.30479 20.0001 8.86444 20.0001 9.55481C20.0001 10.2452 20.5597 10.8048 21.2501 10.8048C21.9404 10.8048 22.5001 10.2452 22.5001 9.55481C22.5001 8.86444 21.9404 8.30479 21.2501 8.30479ZM9.06243 15.8049C9.06243 12.5257 11.7208 9.86731 15 9.86731C18.2792 9.86731 20.9376 12.5257 20.9376 15.8049C20.9376 19.0841 18.2792 21.7424 15 21.7424C11.7208 21.7424 9.06243 19.0841 9.06243 15.8049Z" fill="#FFC000"/>
</g>
<path d="M15 11.7423C12.7563 11.7423 10.9375 13.5612 10.9375 15.8049C10.9375 18.0486 12.7563 19.8674 15 19.8674C17.2437 19.8674 19.0625 18.0486 19.0625 15.8049C19.0625 13.5612 17.2437 11.7423 15 11.7423Z" stroke="black" stroke-width="0.697683"/>
<path fill-rule="evenodd" clip-rule="evenodd" d="M8.46184 4.65658C12.772 4.17486 17.228 4.17486 21.5382 4.65658C23.9112 4.9218 25.8252 6.79155 26.1037 9.17289C26.6191 13.5792 26.6191 18.0306 26.1037 22.4369C25.8252 24.8182 23.9112 26.688 21.5382 26.9532C17.228 27.4349 12.772 27.4349 8.46184 26.9532C6.08882 26.688 4.1748 24.8182 3.89628 22.4369C3.38093 18.0306 3.38093 13.5792 3.89628 9.17289C4.1748 6.79155 6.08882 4.9218 8.46184 4.65658ZM21.2501 8.30479C20.5597 8.30479 20.0001 8.86444 20.0001 9.55481C20.0001 10.2452 20.5597 10.8048 21.2501 10.8048C21.9404 10.8048 22.5001 10.2452 22.5001 9.55481C22.5001 8.86444 21.9404 8.30479 21.2501 8.30479ZM9.06243 15.8049C9.06243 12.5257 11.7208 9.86731 15 9.86731C18.2792 9.86731 20.9376 12.5257 20.9376 15.8049C20.9376 19.0841 18.2792 21.7424 15 21.7424C11.7208 21.7424 9.06243 19.0841 9.06243 15.8049Z" stroke="black" stroke-width="0.697683"/>
<defs>
<filter id="filter0_ii_1_5099" x="3.16113" y="3.94641" width="23.6777" height="23.7169" filterUnits="userSpaceOnUse" color-interpolation-filters="sRGB">
<feFlood flood-opacity="0" result="BackgroundImageFix"/>
<feBlend mode="normal" in="SourceGraphic" in2="BackgroundImageFix" result="shape"/>
<feColorMatrix in="SourceAlpha" type="matrix" values="0 0 0 0 0 0 0 0 0 0 0 0 0 0 0 0 0 0 127 0" result="hardAlpha"/>
<feOffset dx="2" dy="2"/>
<feComposite in2="hardAlpha" operator="arithmetic" k2="-1" k3="1"/>
<feColorMatrix type="matrix" values="0 0 0 0 1 0 0 0 0 1 0 0 0 0 1 0 0 0 1 0"/>
<feBlend mode="normal" in2="shape" result="effect1_innerShadow_1_5099"/>
<feColorMatrix in="SourceAlpha" type="matrix" values="0 0 0 0 0 0 0 0 0 0 0 0 0 0 0 0 0 0 127 0" result="hardAlpha"/>
<feOffset dx="-2" dy="-2"/>
<feComposite in2="hardAlpha" operator="arithmetic" k2="-1" k3="1"/>
<feColorMatrix type="matrix" values="0 0 0 0 0 0 0 0 0 0 0 0 0 0 0 0 0 0 1 0"/>
<feBlend mode="normal" in2="effect1_innerShadow_1_5099" result="effect2_innerShadow_1_5099"/>
</filter>
</defs>
</svg>
