<svg width="40" height="40" viewBox="0 0 40 40" fill="none" xmlns="http://www.w3.org/2000/svg">
<g filter="url(#filter0_ii_156_3777)">
<path d="M15.6256 33.9998C15.8729 34.2206 16.2477 33.98 16.1549 33.6618L11.9558 19.2648C11.8776 18.9967 11.6405 18.806 11.362 18.7855C10.6825 18.7356 10.0032 18.6798 9.32437 18.6181L3.70699 18.1074C3.44474 18.0836 3.26014 18.3586 3.3843 18.5908C6.42274 24.2739 10.7981 29.6889 15.6256 33.9998Z" fill="#FFC000"/>
<path d="M19.7453 37.0432C19.7792 37.1594 19.8791 37.2468 20.0001 37.2468C20.1211 37.2468 20.2209 37.1594 20.2548 37.0432L25.3946 19.421C25.4587 19.2014 25.2875 18.9839 25.059 18.9937C21.6879 19.1385 18.3122 19.1385 14.9411 18.9938C14.7126 18.9839 14.5414 19.2014 14.6055 19.421L19.7453 37.0432Z" fill="#FFC000"/>
<path d="M23.8452 33.6618C23.7524 33.98 24.1272 34.2206 24.3745 33.9998C29.202 29.6889 33.5774 24.2738 36.6158 18.5908C36.74 18.3586 36.5554 18.0835 36.2931 18.1074L30.6757 18.6181C29.9969 18.6798 29.3176 18.7356 28.6381 18.7855C28.3596 18.806 28.1225 18.9967 28.0444 19.2648L23.8452 33.6618Z" fill="#FFC000"/>
<path d="M36.335 15.5933C36.589 15.5702 36.724 15.282 36.5792 15.0721L31.1829 7.24742C30.7163 6.57078 29.9468 6.16675 29.1249 6.16675H24.9755C24.7386 6.16675 24.5773 6.40688 24.6669 6.62616L28.4282 15.8318C28.5375 16.0994 28.8068 16.2662 29.095 16.2434C29.5466 16.2077 29.9981 16.1694 30.4494 16.1283L36.335 15.5933Z" fill="#FFC000"/>
<path d="M21.9418 6.577C21.8383 6.32857 21.5956 6.16675 21.3264 6.16675H18.6737C18.4045 6.16675 18.1618 6.32857 18.0583 6.577L14.129 16.0072C14.0404 16.2199 14.1892 16.4562 14.4193 16.4673C18.1376 16.6473 21.8625 16.6473 25.5808 16.4673C25.8109 16.4562 25.9597 16.2199 25.8711 16.0072L21.9418 6.577Z" fill="#FFC000"/>
<path d="M15.3332 6.62616C15.4228 6.40688 15.2615 6.16675 15.0246 6.16675H10.8752C10.0533 6.16675 9.28382 6.57078 8.81718 7.24742L3.42087 15.0721C3.27607 15.282 3.4111 15.5702 3.66509 15.5933L9.5507 16.1283C10.002 16.1694 10.4535 16.2077 10.9051 16.2434C11.1933 16.2662 11.4626 16.0994 11.572 15.8318L15.3332 6.62616Z" fill="#FFC000"/>
</g>
<path d="M15.6256 33.9998C15.8729 34.2206 16.2477 33.98 16.1549 33.6618L11.9558 19.2648C11.8776 18.9967 11.6405 18.806 11.362 18.7855C10.6825 18.7356 10.0032 18.6798 9.32437 18.6181L3.70699 18.1074C3.44474 18.0836 3.26014 18.3586 3.3843 18.5908C6.42274 24.2739 10.7981 29.6889 15.6256 33.9998Z" stroke="black"/>
<path d="M19.7453 37.0432C19.7792 37.1594 19.8791 37.2468 20.0001 37.2468C20.1211 37.2468 20.2209 37.1594 20.2548 37.0432L25.3946 19.421C25.4587 19.2014 25.2875 18.9839 25.059 18.9937C21.6879 19.1385 18.3122 19.1385 14.9411 18.9938C14.7126 18.9839 14.5414 19.2014 14.6055 19.421L19.7453 37.0432Z" stroke="black"/>
<path d="M23.8452 33.6618C23.7524 33.98 24.1272 34.2206 24.3745 33.9998C29.202 29.6889 33.5774 24.2738 36.6158 18.5908C36.74 18.3586 36.5554 18.0835 36.2931 18.1074L30.6757 18.6181C29.9969 18.6798 29.3176 18.7356 28.6381 18.7855C28.3596 18.806 28.1225 18.9967 28.0444 19.2648L23.8452 33.6618Z" stroke="black"/>
<path d="M36.335 15.5933C36.589 15.5702 36.724 15.282 36.5792 15.0721L31.1829 7.24742C30.7163 6.57078 29.9468 6.16675 29.1249 6.16675H24.9755C24.7386 6.16675 24.5773 6.40688 24.6669 6.62616L28.4282 15.8318C28.5375 16.0994 28.8068 16.2662 29.095 16.2434C29.5466 16.2077 29.9981 16.1694 30.4494 16.1283L36.335 15.5933Z" stroke="black"/>
<path d="M21.9418 6.577C21.8383 6.32857 21.5956 6.16675 21.3264 6.16675H18.6737C18.4045 6.16675 18.1618 6.32857 18.0583 6.577L14.129 16.0072C14.0404 16.2199 14.1892 16.4562 14.4193 16.4673C18.1376 16.6473 21.8625 16.6473 25.5808 16.4673C25.8109 16.4562 25.9597 16.2199 25.8711 16.0072L21.9418 6.577Z" stroke="black"/>
<path d="M15.3332 6.62616C15.4228 6.40688 15.2615 6.16675 15.0246 6.16675H10.8752C10.0533 6.16675 9.28382 6.57078 8.81718 7.24742L3.42087 15.0721C3.27607 15.282 3.4111 15.5702 3.66509 15.5933L9.5507 16.1283C10.002 16.1694 10.4535 16.2077 10.9051 16.2434C11.1933 16.2662 11.4626 16.0994 11.572 15.8318L15.3332 6.62616Z" stroke="black"/>
<defs>
<filter id="filter0_ii_156_3777" x="2.84326" y="5.66675" width="34.3135" height="32.0801" filterUnits="userSpaceOnUse" color-interpolation-filters="sRGB">
<feFlood flood-opacity="0" result="BackgroundImageFix"/>
<feBlend mode="normal" in="SourceGraphic" in2="BackgroundImageFix" result="shape"/>
<feColorMatrix in="SourceAlpha" type="matrix" values="0 0 0 0 0 0 0 0 0 0 0 0 0 0 0 0 0 0 127 0" result="hardAlpha"/>
<feOffset dx="2" dy="2"/>
<feComposite in2="hardAlpha" operator="arithmetic" k2="-1" k3="1"/>
<feColorMatrix type="matrix" values="0 0 0 0 1 0 0 0 0 1 0 0 0 0 1 0 0 0 1 0"/>
<feBlend mode="normal" in2="shape" result="effect1_innerShadow_156_3777"/>
<feColorMatrix in="SourceAlpha" type="matrix" values="0 0 0 0 0 0 0 0 0 0 0 0 0 0 0 0 0 0 127 0" result="hardAlpha"/>
<feOffset dx="-2" dy="-2"/>
<feComposite in2="hardAlpha" operator="arithmetic" k2="-1" k3="1"/>
<feColorMatrix type="matrix" values="0 0 0 0 0 0 0 0 0 0 0 0 0 0 0 0 0 0 1 0"/>
<feBlend mode="normal" in2="effect1_innerShadow_156_3777" result="effect2_innerShadow_156_3777"/>
</filter>
</defs>
</svg>
