<svg width="13" height="17" viewBox="0 0 13 17" fill="none" xmlns="http://www.w3.org/2000/svg">
<g filter="url(#filter0_di_3_1220)">
<path d="M11.8553 7.83235L4.21802 15.8314C4.13709 15.9158 4.03026 15.9722 3.91365 15.9921C3.79705 16.0119 3.67699 15.9942 3.5716 15.9415C3.46622 15.8889 3.38121 15.8041 3.32943 15.7001C3.27764 15.596 3.26187 15.4783 3.28451 15.3648L4.28417 10.4767L0.354396 9.03421C0.269999 9.00335 0.194736 8.95253 0.135332 8.8863C0.0759273 8.82006 0.0342318 8.74048 0.01397 8.65465C-0.00629169 8.56882 -0.00448845 8.47942 0.0192185 8.39444C0.0429255 8.30946 0.0877977 8.23154 0.149827 8.16765L7.78707 0.168641C7.86801 0.0842083 7.97484 0.0277992 8.09144 0.00792545C8.20805 -0.0119483 8.32811 0.00579185 8.4335 0.0584688C8.53888 0.111146 8.62388 0.195901 8.67567 0.299946C8.72746 0.40399 8.74323 0.521678 8.72059 0.635249L7.7182 5.52864L11.648 6.96913C11.7318 7.0002 11.8064 7.05096 11.8654 7.11693C11.9243 7.1829 11.9657 7.26204 11.9859 7.34737C12.0061 7.4327 12.0046 7.52159 11.9813 7.60617C11.958 7.69076 11.9138 7.76844 11.8525 7.83235H11.8553Z" fill="#FFCF01"/>
<path d="M10.6806 8.33235H10.6866L3.85707 15.4854C3.85702 15.4854 3.85698 15.4855 3.85693 15.4855C3.85107 15.4916 3.84178 15.4971 3.82965 15.4992C3.81736 15.5013 3.80507 15.4992 3.79515 15.4943C3.78539 15.4894 3.77976 15.4827 3.77704 15.4773C3.7745 15.4721 3.77399 15.4673 3.77478 15.4629C3.77481 15.4628 3.77484 15.4626 3.77486 15.4625L4.77403 10.5769L4.8602 10.1555L4.45646 10.0073L0.526689 8.56483L0.526105 8.56461C0.517852 8.5616 0.511681 8.55706 0.507552 8.55245C0.503479 8.54791 0.50146 8.54344 0.500594 8.53977C0.499739 8.53615 0.499798 8.53249 0.50083 8.52879C0.501875 8.52504 0.504156 8.52048 0.508573 8.51593L0.508585 8.51594L0.511463 8.51293L8.14803 0.514636C8.14808 0.514576 8.14814 0.514516 8.1482 0.514456C8.15406 0.508424 8.16335 0.502881 8.17545 0.500818C8.18774 0.498723 8.20003 0.500753 8.20995 0.505711C8.21971 0.510591 8.22534 0.517281 8.22806 0.522749C8.23059 0.527844 8.2311 0.532667 8.23032 0.537064C8.2303 0.537215 8.23027 0.537366 8.23024 0.537516L7.22837 5.4283L7.142 5.84996L7.54612 5.9981L11.4741 7.43793C11.4743 7.43798 11.4744 7.43803 11.4745 7.43808C11.4825 7.44111 11.4885 7.44556 11.4925 7.45006C11.4965 7.45458 11.4985 7.45902 11.4994 7.46267C11.5003 7.46628 11.5002 7.46991 11.4992 7.47359C11.4982 7.4773 11.4959 7.48183 11.4916 7.48635L10.6806 8.33235Z" stroke="black"/>
</g>
<defs>
<filter id="filter0_di_3_1220" x="0" y="0" width="13" height="17" filterUnits="userSpaceOnUse" color-interpolation-filters="sRGB">
<feFlood flood-opacity="0" result="BackgroundImageFix"/>
<feColorMatrix in="SourceAlpha" type="matrix" values="0 0 0 0 0 0 0 0 0 0 0 0 0 0 0 0 0 0 127 0" result="hardAlpha"/>
<feOffset dx="1" dy="1"/>
<feComposite in2="hardAlpha" operator="out"/>
<feColorMatrix type="matrix" values="0 0 0 0 0 0 0 0 0 0 0 0 0 0 0 0 0 0 1 0"/>
<feBlend mode="normal" in2="BackgroundImageFix" result="effect1_dropShadow_3_1220"/>
<feBlend mode="normal" in="SourceGraphic" in2="effect1_dropShadow_3_1220" result="shape"/>
<feColorMatrix in="SourceAlpha" type="matrix" values="0 0 0 0 0 0 0 0 0 0 0 0 0 0 0 0 0 0 127 0" result="hardAlpha"/>
<feOffset dx="-2" dy="2"/>
<feComposite in2="hardAlpha" operator="arithmetic" k2="-1" k3="1"/>
<feColorMatrix type="matrix" values="0 0 0 0 1 0 0 0 0 1 0 0 0 0 1 0 0 0 1 0"/>
<feBlend mode="normal" in2="shape" result="effect2_innerShadow_3_1220"/>
</filter>
</defs>
</svg>
