<svg width="24" height="24" viewBox="0 0 24 24" fill="none" xmlns="http://www.w3.org/2000/svg">
<g filter="url(#filter0_ii_1_888)">
<path d="M11.3574 3C10.8318 3.00001 10.3396 3.24743 10.0392 3.66248L5.18345 10.3734C4.27161 11.6336 3.8652 13.1691 4.03949 14.6956L4.41289 17.9658C4.57246 19.3633 5.71239 20.4703 7.16298 20.6363L9.59215 20.9144C11.4472 21.1268 13.328 20.9427 15.1006 20.3753C16.3413 19.9781 17.3352 19.0718 17.814 17.9008L19.7745 13.1058C19.8693 12.8739 19.9348 12.6318 19.9697 12.3849C20.2729 10.2346 18.2541 8.45325 16.0545 8.93025L11.582 9.90017L12.9128 4.9318C13.1749 3.95339 12.4072 2.99998 11.3574 3Z" fill="#FFC000"/>
</g>
<path d="M11.3574 3C10.8318 3.00001 10.3396 3.24743 10.0392 3.66248L5.18345 10.3734C4.27161 11.6336 3.8652 13.1691 4.03949 14.6956L4.41289 17.9658C4.57246 19.3633 5.71239 20.4703 7.16298 20.6363L9.59215 20.9144C11.4472 21.1268 13.328 20.9427 15.1006 20.3753C16.3413 19.9781 17.3352 19.0718 17.814 17.9008L19.7745 13.1058C19.8693 12.8739 19.9348 12.6318 19.9697 12.3849C20.2729 10.2346 18.2541 8.45325 16.0545 8.93025L11.582 9.90017L12.9128 4.9318C13.1749 3.95339 12.4072 2.99998 11.3574 3Z" stroke="black" stroke-width="1.2" stroke-linejoin="round"/>
<defs>
<filter id="filter0_ii_1_888" x="3.3999" y="2.3999" width="17.2007" height="19.2002" filterUnits="userSpaceOnUse" color-interpolation-filters="sRGB">
<feFlood flood-opacity="0" result="BackgroundImageFix"/>
<feBlend mode="normal" in="SourceGraphic" in2="BackgroundImageFix" result="shape"/>
<feColorMatrix in="SourceAlpha" type="matrix" values="0 0 0 0 0 0 0 0 0 0 0 0 0 0 0 0 0 0 127 0" result="hardAlpha"/>
<feOffset dx="2" dy="2"/>
<feComposite in2="hardAlpha" operator="arithmetic" k2="-1" k3="1"/>
<feColorMatrix type="matrix" values="0 0 0 0 1 0 0 0 0 1 0 0 0 0 1 0 0 0 1 0"/>
<feBlend mode="normal" in2="shape" result="effect1_innerShadow_1_888"/>
<feColorMatrix in="SourceAlpha" type="matrix" values="0 0 0 0 0 0 0 0 0 0 0 0 0 0 0 0 0 0 127 0" result="hardAlpha"/>
<feOffset dx="-2" dy="-2"/>
<feComposite in2="hardAlpha" operator="arithmetic" k2="-1" k3="1"/>
<feColorMatrix type="matrix" values="0 0 0 0 0 0 0 0 0 0 0 0 0 0 0 0 0 0 1 0"/>
<feBlend mode="normal" in2="effect1_innerShadow_1_888" result="effect2_innerShadow_1_888"/>
</filter>
</defs>
</svg>
