<svg width="43" height="43" viewBox="0 0 43 43" fill="none" xmlns="http://www.w3.org/2000/svg">
<g filter="url(#filter0_ii_1_4974)">
<path d="M22.9059 31.4991C23.0938 31.6864 23.2429 31.9089 23.3447 32.1539C23.4464 32.3989 23.4988 32.6616 23.4988 32.9268C23.4988 33.1921 23.4464 33.4548 23.3447 33.6998C23.2429 33.9448 23.0938 34.1673 22.9059 34.3546L21.9082 35.3523C20.0176 37.2429 17.4533 38.3051 14.7796 38.3051C12.1059 38.3051 9.54162 37.2429 7.651 35.3523C5.76038 33.4617 4.69824 30.8975 4.69824 28.2237C4.69824 25.55 5.76038 22.9858 7.651 21.0951L11.7024 17.0454C13.519 15.2244 15.9631 14.1668 18.5341 14.0894C21.1051 14.0119 23.6084 14.9204 25.5313 16.6288C25.7298 16.8053 25.8916 17.0191 26.0075 17.2581C26.1234 17.4971 26.191 17.7566 26.2066 18.0218C26.2222 18.2869 26.1855 18.5526 26.0984 18.8035C26.0113 19.0545 25.8757 19.2858 25.6992 19.4843C25.5228 19.6828 25.3089 19.8447 25.0699 19.9605C24.8309 20.0764 24.5715 20.1441 24.3063 20.1597C24.0411 20.1753 23.7755 20.1385 23.5246 20.0514C23.2736 19.9644 23.0423 19.8287 22.8438 19.6523C21.6907 18.6282 20.1899 18.0834 18.6484 18.1293C17.107 18.1752 15.6413 18.8083 14.5512 19.8992L10.5031 23.9439C9.36892 25.0781 8.73173 26.6164 8.73173 28.2204C8.73173 29.8244 9.36892 31.3627 10.5031 32.4968C11.6373 33.631 13.1756 34.2682 14.7796 34.2682C16.3836 34.2682 17.9219 33.631 19.0561 32.4968L20.0538 31.4991C20.241 31.3117 20.4633 31.163 20.708 31.0616C20.9527 30.9602 21.215 30.908 21.4799 30.908C21.7448 30.908 22.007 30.9602 22.2517 31.0616C22.4964 31.163 22.7187 31.3117 22.9059 31.4991ZM35.349 7.64755C33.4569 5.75984 30.8932 4.69971 28.2205 4.69971C25.5477 4.69971 22.984 5.75984 21.0919 7.64755L20.0941 8.64529C19.7155 9.02395 19.5027 9.53752 19.5027 10.073C19.5027 10.6085 19.7155 11.1221 20.0941 11.5008C20.4728 11.8794 20.9864 12.0921 21.5219 12.0921C22.0574 12.0921 22.5709 11.8794 22.9496 11.5008L23.9473 10.503C25.0815 9.36883 26.6198 8.73164 28.2238 8.73164C29.8278 8.73164 31.3661 9.36883 32.5003 10.503C33.6345 11.6372 34.2717 13.1755 34.2717 14.7795C34.2717 16.3835 33.6345 17.9218 32.5003 19.056L28.4506 23.1074C27.3595 24.1978 25.893 24.83 24.3511 24.8747C22.8093 24.9193 21.3086 24.373 20.1563 23.3476C19.9578 23.1711 19.7264 23.0355 19.4755 22.9484C19.2245 22.8614 18.9589 22.8246 18.6938 22.8402C18.4286 22.8558 18.1691 22.9235 17.9301 23.0393C17.6911 23.1552 17.4773 23.317 17.3008 23.5156C17.1243 23.7141 16.9887 23.9454 16.9017 24.1964C16.8146 24.4473 16.7778 24.7129 16.7934 24.9781C16.809 25.2432 16.8767 25.5027 16.9926 25.7417C17.1084 25.9807 17.2703 26.1946 17.4688 26.371C19.3903 28.0791 21.8919 28.9881 24.4617 28.9123C27.0315 28.8364 29.4752 27.7813 31.2926 25.9629L35.344 21.9131C37.2339 20.0214 38.2959 17.4571 38.2969 14.7831C38.2978 12.1091 37.2376 9.54395 35.349 7.65091V7.64755Z" fill="#FFC000"/>
</g>
<path d="M22.553 31.8533L22.5522 31.8525C22.4114 31.7116 22.2443 31.5998 22.0603 31.5235C21.8763 31.4472 21.679 31.408 21.4799 31.408C21.2807 31.408 21.0835 31.4472 20.8995 31.5235C20.7155 31.5998 20.5483 31.7116 20.4076 31.8525L20.4074 31.8527L19.4096 32.8504C18.1817 34.0784 16.5162 34.7682 14.7796 34.7682C13.043 34.7682 11.3775 34.0784 10.1496 32.8504C8.9216 31.6224 8.23173 29.957 8.23173 28.2204C8.23173 26.4838 8.9216 24.8183 10.1496 23.5903L10.1497 23.5902L14.1975 19.5458C14.1975 19.5457 14.1976 19.5457 14.1976 19.5456L14.1978 19.5455L14.5512 19.8992L22.553 31.8533ZM22.553 31.8533C22.6943 31.9941 22.8064 32.1614 22.8829 32.3456C22.9594 32.5299 22.9988 32.7274 22.9988 32.9268C22.9988 33.1263 22.9594 33.3238 22.8829 33.5081C22.8064 33.6923 22.6943 33.8596 22.553 34.0004L22.5524 34.001M22.553 31.8533L22.5524 34.001M22.5524 34.001L21.5546 34.9988C19.7578 36.7956 17.3207 37.8051 14.7796 37.8051C12.2385 37.8051 9.80141 36.7956 8.00456 34.9988C6.2077 33.2019 5.19824 30.7649 5.19824 28.2237C5.19824 25.6826 6.2077 23.2455 8.00456 21.4487L12.0559 17.399L12.0564 17.3985M22.5524 34.001L12.0564 17.3985M12.0564 17.3985C13.7828 15.6678 16.1057 14.6627 18.5491 14.5891M12.0564 17.3985L18.5491 14.5891M18.5491 14.5891C20.9925 14.5155 23.3716 15.379 25.1991 17.0025L18.5491 14.5891ZM28.804 23.4611L28.8042 23.4609L32.8539 19.4095C34.0818 18.1816 34.7717 16.5161 34.7717 14.7795C34.7717 13.0429 34.0818 11.3774 32.8539 10.1495C31.6259 8.92151 29.9604 8.23164 28.2238 8.23164C26.4872 8.23164 24.8217 8.92151 23.5938 10.1495L22.596 11.1472C22.3112 11.4321 21.9248 11.5921 21.5219 11.5921C21.119 11.5921 20.7326 11.4321 20.4477 11.1472C20.1628 10.8623 20.0027 10.4759 20.0027 10.073C20.0027 9.67013 20.1628 9.28373 20.4477 8.99884L21.445 8.00152C23.2434 6.20732 25.6801 5.19971 28.2205 5.19971C30.6967 5.19971 33.0744 6.15711 34.8586 7.86721L34.9951 8.00405C36.7901 9.80331 37.7978 12.2413 37.7969 14.7829C37.796 17.3244 36.7866 19.7618 34.9903 21.5598L30.9391 25.6092L30.939 25.6094C29.2117 27.3376 26.8893 28.3404 24.447 28.4125C22.0047 28.4846 19.6272 27.6206 17.801 25.9973C17.6515 25.8645 17.5297 25.7035 17.4425 25.5236C17.3552 25.3437 17.3043 25.1483 17.2925 24.9487C17.2808 24.7491 17.3085 24.5492 17.374 24.3602C17.4396 24.1713 17.5417 23.9972 17.6745 23.8477C17.8074 23.6983 17.9683 23.5765 18.1482 23.4892C18.3282 23.402 18.5235 23.3511 18.7231 23.3393C18.9227 23.3276 19.1227 23.3553 19.3116 23.4208C19.5004 23.4863 19.6745 23.5884 19.8239 23.7211C21.0715 24.8313 22.6962 25.4228 24.3656 25.3744C26.035 25.3261 27.6227 24.6416 28.804 23.4611Z" stroke="black"/>
<defs>
<filter id="filter0_ii_1_4974" x="4.69824" y="4.69971" width="33.5986" height="33.6055" filterUnits="userSpaceOnUse" color-interpolation-filters="sRGB">
<feFlood flood-opacity="0" result="BackgroundImageFix"/>
<feBlend mode="normal" in="SourceGraphic" in2="BackgroundImageFix" result="shape"/>
<feColorMatrix in="SourceAlpha" type="matrix" values="0 0 0 0 0 0 0 0 0 0 0 0 0 0 0 0 0 0 127 0" result="hardAlpha"/>
<feOffset dx="2" dy="2"/>
<feComposite in2="hardAlpha" operator="arithmetic" k2="-1" k3="1"/>
<feColorMatrix type="matrix" values="0 0 0 0 1 0 0 0 0 1 0 0 0 0 1 0 0 0 1 0"/>
<feBlend mode="normal" in2="shape" result="effect1_innerShadow_1_4974"/>
<feColorMatrix in="SourceAlpha" type="matrix" values="0 0 0 0 0 0 0 0 0 0 0 0 0 0 0 0 0 0 127 0" result="hardAlpha"/>
<feOffset dx="-2" dy="-2"/>
<feComposite in2="hardAlpha" operator="arithmetic" k2="-1" k3="1"/>
<feColorMatrix type="matrix" values="0 0 0 0 0 0 0 0 0 0 0 0 0 0 0 0 0 0 1 0"/>
<feBlend mode="normal" in2="effect1_innerShadow_1_4974" result="effect2_innerShadow_1_4974"/>
</filter>
</defs>
</svg>
