<svg width="31" height="31" viewBox="0 0 31 31" fill="none" xmlns="http://www.w3.org/2000/svg">
<g filter="url(#filter0_ii_1_5101)">
<path d="M6.4375 3.14844C4.97049 3.14844 3.78125 4.33768 3.78125 5.80469C3.78125 7.27169 4.97049 8.46094 6.4375 8.46094C7.90451 8.46094 9.09375 7.27169 9.09375 5.80469C9.09375 4.33768 7.90451 3.14844 6.4375 3.14844Z" fill="#FFC000"/>
<path d="M3.9375 10.6484C3.85121 10.6484 3.78125 10.7184 3.78125 10.8047V27.0547C3.78125 27.141 3.85121 27.2109 3.9375 27.2109H8.9375C9.02379 27.2109 9.09375 27.141 9.09375 27.0547V10.8047C9.09375 10.7184 9.02379 10.6484 8.9375 10.6484H3.9375Z" fill="#FFC000"/>
<path d="M12.0625 10.6484C11.9762 10.6484 11.9062 10.7184 11.9062 10.8047V27.0547C11.9062 27.141 11.9762 27.2109 12.0625 27.2109H17.0625C17.1488 27.2109 17.2188 27.141 17.2188 27.0547V18.3047C17.2188 17.6831 17.4657 17.0869 17.9052 16.6474C18.3448 16.2079 18.9409 15.9609 19.5625 15.9609C20.1841 15.9609 20.7802 16.2079 21.2198 16.6474C21.6593 17.0869 21.9062 17.6831 21.9062 18.3047V27.0547C21.9062 27.141 21.9762 27.2109 22.0625 27.2109H27.0625C27.1488 27.2109 27.2188 27.141 27.2188 27.0547V16.28C27.2188 13.2466 24.5805 10.8734 21.5623 11.1478C20.6315 11.2324 19.7112 11.4638 18.8518 11.8321L17.2188 12.532V10.8047C17.2188 10.7184 17.1488 10.6484 17.0625 10.6484H12.0625Z" fill="#FFC000"/>
</g>
<path d="M6.4375 3.14844C4.97049 3.14844 3.78125 4.33768 3.78125 5.80469C3.78125 7.27169 4.97049 8.46094 6.4375 8.46094C7.90451 8.46094 9.09375 7.27169 9.09375 5.80469C9.09375 4.33768 7.90451 3.14844 6.4375 3.14844Z" stroke="black" stroke-width="0.7" stroke-linecap="round" stroke-linejoin="round"/>
<path d="M3.9375 10.6484C3.85121 10.6484 3.78125 10.7184 3.78125 10.8047V27.0547C3.78125 27.141 3.85121 27.2109 3.9375 27.2109H8.9375C9.02379 27.2109 9.09375 27.141 9.09375 27.0547V10.8047C9.09375 10.7184 9.02379 10.6484 8.9375 10.6484H3.9375Z" stroke="black" stroke-width="0.7" stroke-linecap="round" stroke-linejoin="round"/>
<path d="M12.0625 10.6484C11.9762 10.6484 11.9062 10.7184 11.9062 10.8047V27.0547C11.9062 27.141 11.9762 27.2109 12.0625 27.2109H17.0625C17.1488 27.2109 17.2188 27.141 17.2188 27.0547V18.3047C17.2188 17.6831 17.4657 17.0869 17.9052 16.6474C18.3448 16.2079 18.9409 15.9609 19.5625 15.9609C20.1841 15.9609 20.7802 16.2079 21.2198 16.6474C21.6593 17.0869 21.9062 17.6831 21.9062 18.3047V27.0547C21.9062 27.141 21.9762 27.2109 22.0625 27.2109H27.0625C27.1488 27.2109 27.2188 27.141 27.2188 27.0547V16.28C27.2188 13.2466 24.5805 10.8734 21.5623 11.1478C20.6315 11.2324 19.7112 11.4638 18.8518 11.8321L17.2188 12.532V10.8047C17.2188 10.7184 17.1488 10.6484 17.0625 10.6484H12.0625Z" stroke="black" stroke-width="0.7" stroke-linecap="round" stroke-linejoin="round"/>
<defs>
<filter id="filter0_ii_1_5101" x="3.43115" y="2.79846" width="24.1377" height="24.7625" filterUnits="userSpaceOnUse" color-interpolation-filters="sRGB">
<feFlood flood-opacity="0" result="BackgroundImageFix"/>
<feBlend mode="normal" in="SourceGraphic" in2="BackgroundImageFix" result="shape"/>
<feColorMatrix in="SourceAlpha" type="matrix" values="0 0 0 0 0 0 0 0 0 0 0 0 0 0 0 0 0 0 127 0" result="hardAlpha"/>
<feOffset dx="2" dy="2"/>
<feComposite in2="hardAlpha" operator="arithmetic" k2="-1" k3="1"/>
<feColorMatrix type="matrix" values="0 0 0 0 1 0 0 0 0 1 0 0 0 0 1 0 0 0 1 0"/>
<feBlend mode="normal" in2="shape" result="effect1_innerShadow_1_5101"/>
<feColorMatrix in="SourceAlpha" type="matrix" values="0 0 0 0 0 0 0 0 0 0 0 0 0 0 0 0 0 0 127 0" result="hardAlpha"/>
<feOffset dx="-2" dy="-2"/>
<feComposite in2="hardAlpha" operator="arithmetic" k2="-1" k3="1"/>
<feColorMatrix type="matrix" values="0 0 0 0 0 0 0 0 0 0 0 0 0 0 0 0 0 0 1 0"/>
<feBlend mode="normal" in2="effect1_innerShadow_1_5101" result="effect2_innerShadow_1_5101"/>
</filter>
</defs>
</svg>
