<svg width="24" height="25" viewBox="0 0 24 25" fill="none" xmlns="http://www.w3.org/2000/svg">
<g filter="url(#filter0_d_118_1478)">
<path d="M11.5 2.375C13.3778 2.375 14.9 3.60622 14.9 5.125V10.625H8.1V5.125C8.1 3.60622 9.62223 2.375 11.5 2.375ZM16.6 10.625V5.125C16.6 2.84683 14.3167 1 11.5 1C8.68335 1 6.4 2.84683 6.4 5.125V10.625C4.52223 10.625 3 11.8562 3 13.375V20.25C3 21.7688 4.52223 23 6.4 23H16.6C18.4778 23 20 21.7688 20 20.25V13.375C20 11.8562 18.4778 10.625 16.6 10.625Z" fill="white"/>
<path d="M11.5 2.375C13.3778 2.375 14.9 3.60622 14.9 5.125V10.625H8.1V5.125C8.1 3.60622 9.62223 2.375 11.5 2.375ZM16.6 10.625V5.125C16.6 2.84683 14.3167 1 11.5 1C8.68335 1 6.4 2.84683 6.4 5.125V10.625C4.52223 10.625 3 11.8562 3 13.375V20.25C3 21.7688 4.52223 23 6.4 23H16.6C18.4778 23 20 21.7688 20 20.25V13.375C20 11.8562 18.4778 10.625 16.6 10.625Z" stroke="black"/>
</g>
<defs>
<filter id="filter0_d_118_1478" x="2.5" y="0.5" width="19" height="24" filterUnits="userSpaceOnUse" color-interpolation-filters="sRGB">
<feFlood flood-opacity="0" result="BackgroundImageFix"/>
<feColorMatrix in="SourceAlpha" type="matrix" values="0 0 0 0 0 0 0 0 0 0 0 0 0 0 0 0 0 0 127 0" result="hardAlpha"/>
<feOffset dx="1" dy="1"/>
<feComposite in2="hardAlpha" operator="out"/>
<feColorMatrix type="matrix" values="0 0 0 0 0 0 0 0 0 0 0 0 0 0 0 0 0 0 1 0"/>
<feBlend mode="normal" in2="BackgroundImageFix" result="effect1_dropShadow_118_1478"/>
<feBlend mode="normal" in="SourceGraphic" in2="effect1_dropShadow_118_1478" result="shape"/>
</filter>
</defs>
</svg>
