<svg width="16" height="16" viewBox="0 0 16 16" fill="none" xmlns="http://www.w3.org/2000/svg">
<g filter="url(#filter0_d_1_2471)">
<path d="M7.99984 12.1667C7.7237 12.1667 7.49984 12.3905 7.49984 12.6667C7.49984 12.9428 7.7237 13.1667 7.99984 13.1667H11.9998C12.6442 13.1667 13.1665 12.6443 13.1665 12V4.00001C13.1665 3.35568 12.6442 2.83334 11.9998 2.83334H7.99984C7.72369 2.83334 7.49984 3.0572 7.49984 3.33334C7.49984 3.60949 7.72369 3.83334 7.99984 3.83334L11.9998 3.83334C12.0919 3.83334 12.1665 3.90796 12.1665 4.00001L12.1665 12C12.1665 12.0921 12.0919 12.1667 11.9998 12.1667H7.99984Z" fill="#242424"/>
<path fill-rule="evenodd" clip-rule="evenodd" d="M9.66856 9.57682C10.1288 9.57682 10.5019 9.20373 10.5019 8.74349V7.24981C10.5019 6.78958 10.1288 6.41648 9.66856 6.41648L6.59349 6.41648C6.58914 6.36753 6.58459 6.31859 6.57983 6.26967L6.54382 5.89908C6.48886 5.33367 5.88846 4.99506 5.37618 5.24057C4.28669 5.7627 3.3004 6.4772 2.46474 7.3497L2.39861 7.41875C2.08914 7.74187 2.08914 8.25143 2.39861 8.57454L2.46474 8.64359C3.3004 9.51609 4.2867 10.2306 5.37618 10.7527C5.88846 10.9982 6.48886 10.6596 6.54382 10.0942L6.57983 9.72363C6.58459 9.67471 6.58914 9.62577 6.59349 9.57682H9.66856ZM6.12991 8.57682C5.95233 8.57682 5.79534 8.66968 5.70656 8.81066C5.66332 8.87932 5.63626 8.95939 5.63088 9.0457C5.61878 9.23961 5.60333 9.43337 5.58452 9.62689L5.57407 9.73445C4.88337 9.3785 4.24195 8.93523 3.66542 8.41595C3.51585 8.28123 3.37065 8.1414 3.23009 7.99665C3.91245 7.29394 4.70418 6.70714 5.57407 6.25884L5.58452 6.3664C5.60333 6.55992 5.61878 6.75368 5.63088 6.9476C5.64732 7.21115 5.86585 7.41648 6.12991 7.41648H9.50189V8.57682H6.12991Z" fill="#242424"/>
</g>
<defs>
<filter id="filter0_d_1_2471" x="2.1665" y="2.83334" width="11.5" height="11.3333" filterUnits="userSpaceOnUse" color-interpolation-filters="sRGB">
<feFlood flood-opacity="0" result="BackgroundImageFix"/>
<feColorMatrix in="SourceAlpha" type="matrix" values="0 0 0 0 0 0 0 0 0 0 0 0 0 0 0 0 0 0 127 0" result="hardAlpha"/>
<feOffset dx="0.5" dy="1"/>
<feComposite in2="hardAlpha" operator="out"/>
<feColorMatrix type="matrix" values="0 0 0 0 1 0 0 0 0 0.752941 0 0 0 0 0 0 0 0 1 0"/>
<feBlend mode="normal" in2="BackgroundImageFix" result="effect1_dropShadow_1_2471"/>
<feBlend mode="normal" in="SourceGraphic" in2="effect1_dropShadow_1_2471" result="shape"/>
</filter>
</defs>
</svg>
