<svg width="20" height="20" viewBox="0 0 20 20" fill="none" xmlns="http://www.w3.org/2000/svg">
<g filter="url(#filter0_ii_1_1198)">
<path d="M4.42308 6.57135C4.42308 4.783 5.88676 3.33325 7.69231 3.33325C9.49785 3.33325 10.9615 4.783 10.9615 6.57135C10.9615 8.3597 9.49785 9.80944 7.69231 9.80944C5.88676 9.80944 4.42308 8.3597 4.42308 6.57135Z" fill="#FFC000"/>
<path d="M5.62603 11.2717L5.76302 11.25C7.04113 11.048 8.34349 11.048 9.62159 11.25L9.75859 11.2717C11.5595 11.5564 12.8846 13.095 12.8846 14.9013C12.8846 15.8762 12.0867 16.6666 11.1023 16.6666H4.28228C3.29796 16.6666 2.5 15.8762 2.5 14.9013C2.5 13.095 3.82513 11.5564 5.62603 11.2717Z" fill="#FFC000"/>
<path d="M12.3077 3.33325C11.9891 3.33325 11.7308 3.58909 11.7308 3.90468C11.7308 4.22027 11.9891 4.47611 12.3077 4.47611C13.476 4.47611 14.4231 5.41418 14.4231 6.57135C14.4231 7.72851 13.476 8.66658 12.3077 8.66658C11.9891 8.66658 11.7308 8.92242 11.7308 9.23801C11.7308 9.5536 11.9891 9.80944 12.3077 9.80944C14.1132 9.80944 15.5769 8.3597 15.5769 6.57135C15.5769 4.783 14.1132 3.33325 12.3077 3.33325Z" fill="#FFC000"/>
<path d="M13.2624 11.2429C12.9438 11.2429 12.6855 11.4987 12.6855 11.8143C12.6855 12.1299 12.9438 12.3858 13.2624 12.3858H14.0072C14.0691 12.3858 14.1311 12.3906 14.1921 12.4003C15.4331 12.5964 16.3462 13.6566 16.3462 14.9013C16.3462 15.245 16.0648 15.5237 15.7177 15.5237H14.1461C13.8274 15.5237 13.5691 15.7796 13.5691 16.0952C13.5691 16.4107 13.8274 16.6666 14.1461 16.6666H15.7177C16.702 16.6666 17.5 15.8762 17.5 14.9013C17.5 13.095 16.1749 11.5564 14.374 11.2717C14.2527 11.2525 14.1299 11.2429 14.0072 11.2429H13.2624Z" fill="#FFC000"/>
</g>
<path d="M4.42308 6.57135C4.42308 4.783 5.88676 3.33325 7.69231 3.33325C9.49785 3.33325 10.9615 4.783 10.9615 6.57135C10.9615 8.3597 9.49785 9.80944 7.69231 9.80944C5.88676 9.80944 4.42308 8.3597 4.42308 6.57135Z" stroke="black" stroke-linecap="round"/>
<path d="M5.62603 11.2717L5.76302 11.25C7.04113 11.048 8.34349 11.048 9.62159 11.25L9.75859 11.2717C11.5595 11.5564 12.8846 13.095 12.8846 14.9013C12.8846 15.8762 12.0867 16.6666 11.1023 16.6666H4.28228C3.29796 16.6666 2.5 15.8762 2.5 14.9013C2.5 13.095 3.82513 11.5564 5.62603 11.2717Z" stroke="black" stroke-linecap="round"/>
<path d="M12.3077 3.33325C11.9891 3.33325 11.7308 3.58909 11.7308 3.90468C11.7308 4.22027 11.9891 4.47611 12.3077 4.47611C13.476 4.47611 14.4231 5.41418 14.4231 6.57135C14.4231 7.72851 13.476 8.66658 12.3077 8.66658C11.9891 8.66658 11.7308 8.92242 11.7308 9.23801C11.7308 9.5536 11.9891 9.80944 12.3077 9.80944C14.1132 9.80944 15.5769 8.3597 15.5769 6.57135C15.5769 4.783 14.1132 3.33325 12.3077 3.33325Z" stroke="black" stroke-linecap="round"/>
<path d="M13.2624 11.2429C12.9438 11.2429 12.6855 11.4987 12.6855 11.8143C12.6855 12.1299 12.9438 12.3858 13.2624 12.3858H14.0072C14.0691 12.3858 14.1311 12.3906 14.1921 12.4003C15.4331 12.5964 16.3462 13.6566 16.3462 14.9013C16.3462 15.245 16.0648 15.5237 15.7177 15.5237H14.1461C13.8274 15.5237 13.5691 15.7796 13.5691 16.0952C13.5691 16.4107 13.8274 16.6666 14.1461 16.6666H15.7177C16.702 16.6666 17.5 15.8762 17.5 14.9013C17.5 13.095 16.1749 11.5564 14.374 11.2717C14.2527 11.2525 14.1299 11.2429 14.0072 11.2429H13.2624Z" stroke="black" stroke-linecap="round"/>
<defs>
<filter id="filter0_ii_1_1198" x="2" y="2.83325" width="16" height="14.3333" filterUnits="userSpaceOnUse" color-interpolation-filters="sRGB">
<feFlood flood-opacity="0" result="BackgroundImageFix"/>
<feBlend mode="normal" in="SourceGraphic" in2="BackgroundImageFix" result="shape"/>
<feColorMatrix in="SourceAlpha" type="matrix" values="0 0 0 0 0 0 0 0 0 0 0 0 0 0 0 0 0 0 127 0" result="hardAlpha"/>
<feOffset dx="2" dy="2"/>
<feComposite in2="hardAlpha" operator="arithmetic" k2="-1" k3="1"/>
<feColorMatrix type="matrix" values="0 0 0 0 1 0 0 0 0 1 0 0 0 0 1 0 0 0 1 0"/>
<feBlend mode="normal" in2="shape" result="effect1_innerShadow_1_1198"/>
<feColorMatrix in="SourceAlpha" type="matrix" values="0 0 0 0 0 0 0 0 0 0 0 0 0 0 0 0 0 0 127 0" result="hardAlpha"/>
<feOffset dx="-2" dy="-2"/>
<feComposite in2="hardAlpha" operator="arithmetic" k2="-1" k3="1"/>
<feColorMatrix type="matrix" values="0 0 0 0 0 0 0 0 0 0 0 0 0 0 0 0 0 0 1 0"/>
<feBlend mode="normal" in2="effect1_innerShadow_1_1198" result="effect2_innerShadow_1_1198"/>
</filter>
</defs>
</svg>
