<svg width="16" height="16" viewBox="0 0 16 16" fill="none" xmlns="http://www.w3.org/2000/svg">
<path d="M3.53846 5.25698C3.53846 3.8263 4.70941 2.6665 6.15385 2.6665C7.59828 2.6665 8.76923 3.8263 8.76923 5.25698C8.76923 6.68766 7.59828 7.84746 6.15385 7.84746C4.70941 7.84746 3.53846 6.68766 3.53846 5.25698Z" fill="#5C5E61"/>
<path d="M4.50082 9.01726L4.61042 8.99993C5.6329 8.8383 6.67479 8.8383 7.69727 8.99993L7.80687 9.01726C9.24759 9.245 10.3077 10.4759 10.3077 11.9209C10.3077 12.7009 9.66933 13.3332 8.88187 13.3332H3.42583C2.63836 13.3332 2 12.7009 2 11.9209C2 10.4759 3.06011 9.245 4.50082 9.01726Z" fill="#5C5E61"/>
<path d="M9.84615 2.6665C9.59125 2.6665 9.38462 2.87117 9.38462 3.12365C9.38462 3.37612 9.59125 3.58079 9.84615 3.58079C10.7808 3.58079 11.5385 4.33125 11.5385 5.25698C11.5385 6.18271 10.7808 6.93317 9.84615 6.93317C9.59125 6.93317 9.38462 7.13784 9.38462 7.39031C9.38462 7.64279 9.59125 7.84746 9.84615 7.84746C11.2906 7.84746 12.4615 6.68766 12.4615 5.25698C12.4615 3.8263 11.2906 2.6665 9.84615 2.6665Z" fill="#5C5E61"/>
<path d="M10.6099 8.99422C10.355 8.99422 10.1484 9.19889 10.1484 9.45136C10.1484 9.70383 10.355 9.9085 10.6099 9.9085H11.2057C11.2553 9.9085 11.3048 9.91239 11.3537 9.92012C12.3464 10.077 13.0769 10.9252 13.0769 11.9209C13.0769 12.1959 12.8518 12.4189 12.5742 12.4189H11.3168C11.0619 12.4189 10.8553 12.6236 10.8553 12.876C10.8553 13.1285 11.0619 13.3332 11.3168 13.3332H12.5742C13.3616 13.3332 14 12.7009 14 11.9209C14 10.4759 12.9399 9.245 11.4992 9.01726C11.4021 9.00192 11.3039 8.99422 11.2057 8.99422H10.6099Z" fill="#5C5E61"/>
</svg>
