<svg width="25" height="25" viewBox="0 0 25 25" fill="none" xmlns="http://www.w3.org/2000/svg">
<path fill-rule="evenodd" clip-rule="evenodd" d="M13.5002 3.5C13.5002 2.94772 13.0525 2.5 12.5002 2.5C11.9479 2.5 11.5002 2.94772 11.5002 3.5V4.25H10.9428C8.71769 4.25 6.8761 5.98001 6.7372 8.20074L6.5162 11.7342C6.43194 13.0814 5.97965 14.3797 5.20859 15.4876C4.51191 16.4886 5.13213 17.8712 6.34306 18.0165L9.75018 18.4254V19.5C9.75018 21.0188 10.9814 22.25 12.5002 22.25C14.019 22.25 15.2502 21.0188 15.2502 19.5V18.4254L18.6573 18.0165C19.8682 17.8712 20.4885 16.4886 19.7918 15.4876C19.0207 14.3797 18.5684 13.0814 18.4842 11.7342L18.2632 8.20074C18.1243 5.98001 16.2827 4.25 14.0576 4.25H13.5002V3.5ZM10.9428 5.75C9.50976 5.75 8.32373 6.86417 8.23427 8.29438L8.01327 11.8278C7.91188 13.449 7.36762 15.0112 6.43977 16.3444C6.38942 16.4168 6.43425 16.5167 6.52177 16.5272L10.2594 16.9757C11.7479 17.1543 13.2524 17.1543 14.7409 16.9757L18.4786 16.5272C18.5661 16.5167 18.6109 16.4168 18.5606 16.3444C17.6327 15.0112 17.0885 13.449 16.9871 11.8278L16.7661 8.29438C16.6766 6.86417 15.4906 5.75 14.0576 5.75H10.9428ZM12.5002 20.75C11.8098 20.75 11.2502 20.1904 11.2502 19.5V18.75H13.7502V19.5C13.7502 20.1904 13.1905 20.75 12.5002 20.75Z" fill="#5C5E61"/>
</svg>
