<svg width="16" height="16" viewBox="0 0 16 16" fill="none" xmlns="http://www.w3.org/2000/svg">
<g filter="url(#filter0_d_100_1488)">
<path d="M11.102 9.18166C12.4835 9.6003 14 10.0598 14 7.5C14 3.91015 11.0899 1 7.5 1C3.91015 1 1 3.91015 1 7.5C1 11.0899 3.91015 14 7.5 14C9.12153 14 8.98395 12.7777 8.8398 11.497C8.73913 10.6026 8.63527 9.67986 9.125 9.125C9.50274 8.69702 10.2784 8.93207 11.102 9.18166ZM7.5 5.0625C6.8269 5.0625 6.28125 4.51685 6.28125 3.84375C6.28125 3.17065 6.8269 2.625 7.5 2.625C8.1731 2.625 8.71875 3.17065 8.71875 3.84375C8.71875 4.51685 8.1731 5.0625 7.5 5.0625ZM11.1562 7.5C10.4832 7.5 9.9375 6.95435 9.9375 6.28125C9.9375 5.60815 10.4832 5.0625 11.1562 5.0625C11.8293 5.0625 12.375 5.60815 12.375 6.28125C12.375 6.95435 11.8293 7.5 11.1562 7.5ZM5.0625 6.28125C5.0625 6.95435 4.51685 7.5 3.84375 7.5C3.17065 7.5 2.625 6.95435 2.625 6.28125C2.625 5.60815 3.17065 5.0625 3.84375 5.0625C4.51685 5.0625 5.0625 5.60815 5.0625 6.28125ZM5.46875 11.5625C4.79565 11.5625 4.25 11.0168 4.25 10.3438C4.25 9.67065 4.79565 9.125 5.46875 9.125C6.14185 9.125 6.6875 9.67065 6.6875 10.3438C6.6875 11.0168 6.14185 11.5625 5.46875 11.5625Z" fill="#FFCF01"/>
<path d="M11.102 9.18166C12.4835 9.6003 14 10.0598 14 7.5C14 3.91015 11.0899 1 7.5 1C3.91015 1 1 3.91015 1 7.5C1 11.0899 3.91015 14 7.5 14C9.12153 14 8.98395 12.7777 8.8398 11.497C8.73913 10.6026 8.63527 9.67986 9.125 9.125C9.50274 8.69702 10.2784 8.93207 11.102 9.18166ZM7.5 5.0625C6.8269 5.0625 6.28125 4.51685 6.28125 3.84375C6.28125 3.17065 6.8269 2.625 7.5 2.625C8.1731 2.625 8.71875 3.17065 8.71875 3.84375C8.71875 4.51685 8.1731 5.0625 7.5 5.0625ZM11.1562 7.5C10.4832 7.5 9.9375 6.95435 9.9375 6.28125C9.9375 5.60815 10.4832 5.0625 11.1562 5.0625C11.8293 5.0625 12.375 5.60815 12.375 6.28125C12.375 6.95435 11.8293 7.5 11.1562 7.5ZM5.0625 6.28125C5.0625 6.95435 4.51685 7.5 3.84375 7.5C3.17065 7.5 2.625 6.95435 2.625 6.28125C2.625 5.60815 3.17065 5.0625 3.84375 5.0625C4.51685 5.0625 5.0625 5.60815 5.0625 6.28125ZM5.46875 11.5625C4.79565 11.5625 4.25 11.0168 4.25 10.3438C4.25 9.67065 4.79565 9.125 5.46875 9.125C6.14185 9.125 6.6875 9.67065 6.6875 10.3438C6.6875 11.0168 6.14185 11.5625 5.46875 11.5625Z" stroke="black" stroke-width="0.8"/>
</g>
<defs>
<filter id="filter0_d_100_1488" x="0.599609" y="0.599976" width="14.8008" height="14.8" filterUnits="userSpaceOnUse" color-interpolation-filters="sRGB">
<feFlood flood-opacity="0" result="BackgroundImageFix"/>
<feColorMatrix in="SourceAlpha" type="matrix" values="0 0 0 0 0 0 0 0 0 0 0 0 0 0 0 0 0 0 127 0" result="hardAlpha"/>
<feOffset dx="1" dy="1"/>
<feComposite in2="hardAlpha" operator="out"/>
<feColorMatrix type="matrix" values="0 0 0 0 0 0 0 0 0 0 0 0 0 0 0 0 0 0 1 0"/>
<feBlend mode="normal" in2="BackgroundImageFix" result="effect1_dropShadow_100_1488"/>
<feBlend mode="normal" in="SourceGraphic" in2="effect1_dropShadow_100_1488" result="shape"/>
</filter>
</defs>
</svg>
