<svg width="24" height="24" viewBox="0 0 24 24" fill="none" xmlns="http://www.w3.org/2000/svg">
<g filter="url(#filter0_d_118_1503)">
<path d="M2 6.66667C2 5.19391 3.11929 4 4.5 4H19.5C20.8807 4 22 5.19391 22 6.66667V17.3333C22 18.8061 20.8807 20 19.5 20H4.5C3.11929 20 2 18.8061 2 17.3333V6.66667ZM13.25 8.66667C13.25 9.03486 13.5298 9.33333 13.875 9.33333H18.875C19.2202 9.33333 19.5 9.03486 19.5 8.66667C19.5 8.29848 19.2202 8 18.875 8H13.875C13.5298 8 13.25 8.29848 13.25 8.66667ZM13.25 12C13.25 12.3682 13.5298 12.6667 13.875 12.6667H18.875C19.2202 12.6667 19.5 12.3682 19.5 12C19.5 11.6318 19.2202 11.3333 18.875 11.3333H13.875C13.5298 11.3333 13.25 11.6318 13.25 12ZM14.5 15.3333C14.5 15.7015 14.7798 16 15.125 16H18.875C19.2202 16 19.5 15.7015 19.5 15.3333C19.5 14.9651 19.2202 14.6667 18.875 14.6667H15.125C14.7798 14.6667 14.5 14.9651 14.5 15.3333ZM13.25 18C13.25 15.4227 11.0114 13.3333 8.24998 13.3333C5.64209 13.3333 3.50052 15.1968 3.27045 17.5749C3.377 18.196 3.88696 18.6667 4.49998 18.6667H13.1993C13.2327 18.4489 13.25 18.2263 13.25 18ZM10.75 9.33333C10.75 7.86057 9.63069 6.66667 8.24998 6.66667C6.86927 6.66667 5.74998 7.86057 5.74998 9.33333C5.74998 10.8061 6.86927 12 8.24998 12C9.63069 12 10.75 10.8061 10.75 9.33333Z" fill="white"/>
<path d="M4.5 3.5C2.81324 3.5 1.5 4.94865 1.5 6.66667V17.3333C1.5 19.0513 2.81324 20.5 4.5 20.5H19.5C21.1868 20.5 22.5 19.0513 22.5 17.3333V6.66667C22.5 4.94865 21.1868 3.5 19.5 3.5H4.5ZM13.75 8.66667C13.75 8.54373 13.8359 8.5 13.875 8.5H18.875C18.9141 8.5 19 8.54373 19 8.66667C19 8.7896 18.9141 8.83333 18.875 8.83333H13.875C13.8359 8.83333 13.75 8.7896 13.75 8.66667ZM13.75 12C13.75 11.8771 13.8359 11.8333 13.875 11.8333H18.875C18.9141 11.8333 19 11.8771 19 12C19 12.1229 18.9141 12.1667 18.875 12.1667H13.875C13.8359 12.1667 13.75 12.1229 13.75 12ZM15 15.3333C15 15.2104 15.0859 15.1667 15.125 15.1667H18.875C18.9141 15.1667 19 15.2104 19 15.3333C19 15.4563 18.9141 15.5 18.875 15.5H15.125C15.0859 15.5 15 15.4563 15 15.3333ZM12.75 18C12.75 18.0558 12.7488 18.1114 12.7465 18.1667H4.49998C4.17463 18.1667 3.86609 17.9252 3.77577 17.5511C4.01466 15.4877 5.90081 13.8333 8.24998 13.8333C10.7683 13.8333 12.75 15.7307 12.75 18ZM10.25 9.33333C10.25 10.5608 9.32464 11.5 8.24998 11.5C7.17532 11.5 6.24998 10.5608 6.24998 9.33333C6.24998 8.10583 7.17532 7.16667 8.24998 7.16667C9.32464 7.16667 10.25 8.10583 10.25 9.33333Z" stroke="black"/>
</g>
<defs>
<filter id="filter0_d_118_1503" x="1" y="3" width="23" height="19" filterUnits="userSpaceOnUse" color-interpolation-filters="sRGB">
<feFlood flood-opacity="0" result="BackgroundImageFix"/>
<feColorMatrix in="SourceAlpha" type="matrix" values="0 0 0 0 0 0 0 0 0 0 0 0 0 0 0 0 0 0 127 0" result="hardAlpha"/>
<feOffset dx="1" dy="1"/>
<feComposite in2="hardAlpha" operator="out"/>
<feColorMatrix type="matrix" values="0 0 0 0 0 0 0 0 0 0 0 0 0 0 0 0 0 0 1 0"/>
<feBlend mode="normal" in2="BackgroundImageFix" result="effect1_dropShadow_118_1503"/>
<feBlend mode="normal" in="SourceGraphic" in2="effect1_dropShadow_118_1503" result="shape"/>
</filter>
</defs>
</svg>
