<svg width="24" height="24" viewBox="0 0 24 24" fill="none" xmlns="http://www.w3.org/2000/svg">
<g filter="url(#filter0_d_118_1546)">
<path fill-rule="evenodd" clip-rule="evenodd" d="M5.12037 3.57496C5.95525 2.74008 7.33293 2.82585 8.05781 3.75784L10.0757 6.3523C10.446 6.82842 10.5769 7.44834 10.4306 8.0335L9.81493 10.4962C9.74993 10.7562 9.82611 11.0312 10.0156 11.2207L12.7793 13.9844C12.9688 14.1739 13.2438 14.2501 13.5038 14.1851L15.9665 13.5694C16.5517 13.4231 17.1716 13.554 17.6477 13.9243L20.2422 15.9422C21.1741 16.6671 21.2599 18.0448 20.425 18.8796L19.2619 20.0428C18.4297 20.875 17.185 21.2404 16.025 20.8326C13.1447 19.8199 10.4412 18.1621 8.13955 15.8604C5.83792 13.5588 4.18007 10.8553 3.16744 7.97503C2.75961 6.81501 3.12502 5.57031 3.95721 4.73812L5.12037 3.57496Z" fill="white"/>
<path fill-rule="evenodd" clip-rule="evenodd" d="M5.12037 3.57496C5.95525 2.74008 7.33293 2.82585 8.05781 3.75784L10.0757 6.3523C10.446 6.82842 10.5769 7.44834 10.4306 8.0335L9.81493 10.4962C9.74993 10.7562 9.82611 11.0312 10.0156 11.2207L12.7793 13.9844C12.9688 14.1739 13.2438 14.2501 13.5038 14.1851L15.9665 13.5694C16.5517 13.4231 17.1716 13.554 17.6477 13.9243L20.2422 15.9422C21.1741 16.6671 21.2599 18.0448 20.425 18.8796L19.2619 20.0428C18.4297 20.875 17.185 21.2404 16.025 20.8326C13.1447 19.8199 10.4412 18.1621 8.13955 15.8604C5.83792 13.5588 4.18007 10.8553 3.16744 7.97503C2.75961 6.81501 3.12502 5.57031 3.95721 4.73812L5.12037 3.57496Z" stroke="black"/>
</g>
<defs>
<filter id="filter0_d_118_1546" x="2.49951" y="2.5" width="20.0005" height="20.0003" filterUnits="userSpaceOnUse" color-interpolation-filters="sRGB">
<feFlood flood-opacity="0" result="BackgroundImageFix"/>
<feColorMatrix in="SourceAlpha" type="matrix" values="0 0 0 0 0 0 0 0 0 0 0 0 0 0 0 0 0 0 127 0" result="hardAlpha"/>
<feOffset dx="1" dy="1"/>
<feComposite in2="hardAlpha" operator="out"/>
<feColorMatrix type="matrix" values="0 0 0 0 0 0 0 0 0 0 0 0 0 0 0 0 0 0 1 0"/>
<feBlend mode="normal" in2="BackgroundImageFix" result="effect1_dropShadow_118_1546"/>
<feBlend mode="normal" in="SourceGraphic" in2="effect1_dropShadow_118_1546" result="shape"/>
</filter>
</defs>
</svg>
