<svg width="40" height="40" viewBox="0 0 40 40" fill="none" xmlns="http://www.w3.org/2000/svg">
<g filter="url(#filter0_ii_156_3794)">
<path d="M16.2498 21.6667C16.2498 19.5956 17.9287 17.9167 19.9998 17.9167C22.0708 17.9167 23.7498 19.5956 23.7498 21.6667C23.7498 23.7377 22.0708 25.4167 19.9998 25.4167C17.9287 25.4167 16.2498 23.7377 16.2498 21.6667Z" fill="white"/>
<path fill-rule="evenodd" clip-rule="evenodd" d="M12.4559 12.7374C12.4559 9.84487 14.8007 7.5 17.6933 7.5H22.3062C25.1987 7.5 27.5436 9.84487 27.5436 12.7374C27.5436 12.7621 27.5626 12.7827 27.5872 12.7847L31.3032 13.0865C32.9678 13.2217 34.3367 14.4526 34.6474 16.0935C35.4402 20.2807 35.4993 24.5738 34.8221 28.7812L34.66 29.7882C34.3545 31.6864 32.7922 33.1305 30.8759 33.2861L27.6387 33.549C22.5544 33.9619 17.445 33.9619 12.3608 33.549L9.12355 33.2861C7.20724 33.1305 5.64496 31.6864 5.33944 29.7882L5.17735 28.7812C4.50014 24.5738 4.55925 20.2807 5.35206 16.0935C5.66275 14.4526 7.03169 13.2217 8.69624 13.0865L12.4122 12.7847C12.4369 12.7827 12.4559 12.7621 12.4559 12.7374ZM19.9998 15.4167C16.548 15.4167 13.7498 18.2149 13.7498 21.6667C13.7498 25.1184 16.548 27.9167 19.9998 27.9167C23.4516 27.9167 26.2498 25.1184 26.2498 21.6667C26.2498 18.2149 23.4516 15.4167 19.9998 15.4167Z" fill="white"/>
</g>
<path d="M16.2498 21.6667C16.2498 19.5956 17.9287 17.9167 19.9998 17.9167C22.0708 17.9167 23.7498 19.5956 23.7498 21.6667C23.7498 23.7377 22.0708 25.4167 19.9998 25.4167C17.9287 25.4167 16.2498 23.7377 16.2498 21.6667Z" stroke="black"/>
<path fill-rule="evenodd" clip-rule="evenodd" d="M12.4559 12.7374C12.4559 9.84487 14.8007 7.5 17.6933 7.5H22.3062C25.1987 7.5 27.5436 9.84487 27.5436 12.7374C27.5436 12.7621 27.5626 12.7827 27.5872 12.7847L31.3032 13.0865C32.9678 13.2217 34.3367 14.4526 34.6474 16.0935C35.4402 20.2807 35.4993 24.5738 34.8221 28.7812L34.66 29.7882C34.3545 31.6864 32.7922 33.1305 30.8759 33.2861L27.6387 33.549C22.5544 33.9619 17.445 33.9619 12.3608 33.549L9.12355 33.2861C7.20724 33.1305 5.64496 31.6864 5.33944 29.7882L5.17735 28.7812C4.50014 24.5738 4.55925 20.2807 5.35206 16.0935C5.66275 14.4526 7.03169 13.2217 8.69624 13.0865L12.4122 12.7847C12.4369 12.7827 12.4559 12.7621 12.4559 12.7374ZM19.9998 15.4167C16.548 15.4167 13.7498 18.2149 13.7498 21.6667C13.7498 25.1184 16.548 27.9167 19.9998 27.9167C23.4516 27.9167 26.2498 25.1184 26.2498 21.6667C26.2498 18.2149 23.4516 15.4167 19.9998 15.4167Z" stroke="black"/>
<defs>
<filter id="filter0_ii_156_3794" x="4.20996" y="7" width="31.5796" height="27.3586" filterUnits="userSpaceOnUse" color-interpolation-filters="sRGB">
<feFlood flood-opacity="0" result="BackgroundImageFix"/>
<feBlend mode="normal" in="SourceGraphic" in2="BackgroundImageFix" result="shape"/>
<feColorMatrix in="SourceAlpha" type="matrix" values="0 0 0 0 0 0 0 0 0 0 0 0 0 0 0 0 0 0 127 0" result="hardAlpha"/>
<feOffset dx="2" dy="2"/>
<feComposite in2="hardAlpha" operator="arithmetic" k2="-1" k3="1"/>
<feColorMatrix type="matrix" values="0 0 0 0 1 0 0 0 0 0.752941 0 0 0 0 0 0 0 0 1 0"/>
<feBlend mode="normal" in2="shape" result="effect1_innerShadow_156_3794"/>
<feColorMatrix in="SourceAlpha" type="matrix" values="0 0 0 0 0 0 0 0 0 0 0 0 0 0 0 0 0 0 127 0" result="hardAlpha"/>
<feOffset dx="-2" dy="-2"/>
<feComposite in2="hardAlpha" operator="arithmetic" k2="-1" k3="1"/>
<feColorMatrix type="matrix" values="0 0 0 0 0 0 0 0 0 0 0 0 0 0 0 0 0 0 1 0"/>
<feBlend mode="normal" in2="effect1_innerShadow_156_3794" result="effect2_innerShadow_156_3794"/>
</filter>
</defs>
</svg>
