<svg width="33" height="32" viewBox="0 0 33 32" fill="none" xmlns="http://www.w3.org/2000/svg">
<g filter="url(#filter0_d_97_1786)">
<mask id="path-1-outside-1_97_1786" maskUnits="userSpaceOnUse" x="-0.5" y="3" width="32" height="25" fill="black">
<rect fill="white" x="-0.5" y="3" width="32" height="25"/>
<path d="M15.8594 5C10.8049 5 6.40166 7.8622 5.12993 11.93H4.19795C3.14416 11.93 2.345 12.8703 2.52556 13.8979L2.95677 16.3518C3.16888 17.5588 4.22744 18.44 5.46537 18.44H5.91135C6.41952 19.3018 7.07908 20.083 7.85593 20.7615L6.61839 24.9228C6.54286 25.1768 6.59274 25.4512 6.75299 25.6632C6.91323 25.8752 7.16509 26 7.43261 26H10.8276C11.1865 26 11.5066 25.7766 11.6271 25.4421L12.445 23.1715C13.5223 23.4631 14.6701 23.62 15.8594 23.62C17.0587 23.62 18.2157 23.4605 19.3008 23.1642L20.2235 25.4694C20.3517 25.7897 20.6645 26 21.0126 26H24.4076C24.6765 26 24.9294 25.8739 25.0895 25.6602C25.2496 25.4465 25.2979 25.1703 25.2197 24.9157L23.9266 20.7053C25.7824 19.057 26.9538 16.8127 26.9538 14.31C26.9538 14.0657 26.9428 13.8241 26.9213 13.5854C27.3635 13.4007 27.7819 13.139 28.1166 12.8396C28.6512 13.3541 29.5 13.3541 29.5 12.1401C29.5 12.5141 28.6512 12.5141 28.7171 12.0953C28.7878 11.9586 28.8409 11.8152 28.8692 11.6671C28.9429 11.2826 28.8425 10.8954 28.5269 10.5831C28.159 10.219 27.6816 10.2283 27.3274 10.4195C26.9939 10.5996 26.732 10.9535 26.6906 11.3633C26.6494 11.771 26.8304 12.1703 27.234 12.4615C27.0965 12.5559 26.9484 12.6428 26.7949 12.7187C25.8883 8.24337 21.2202 5 15.8594 5ZM28.0354 11.5106C28.0163 11.6102 27.9628 11.7308 27.8684 11.8642C27.8416 11.8504 27.8166 11.8363 27.7936 11.8222C27.5469 11.6713 27.527 11.5278 27.5351 11.4469C27.5468 11.3317 27.6297 11.2131 27.7338 11.1569C27.8173 11.1119 27.8703 11.1212 27.9268 11.1771C28.0356 11.2847 28.0589 11.3876 28.0354 11.5106ZM12.7595 10.42C12.3089 10.5482 11.8388 10.2906 11.7093 9.84469C11.5799 9.39881 11.8401 8.93349 12.2907 8.80537C13.4124 8.48637 14.613 8.31406 15.8594 8.31406C17.1541 8.31406 18.3995 8.50001 19.5584 8.84319C20.0074 8.97618 20.2626 9.44428 20.1282 9.88873C19.9938 10.3332 19.5208 10.5857 19.0718 10.4527C18.0714 10.1564 16.9899 9.99406 15.8594 9.99406C14.7711 9.99406 13.7283 10.1445 12.7595 10.42ZM10.8275 12.9341C10.8275 13.6299 10.2575 14.1941 9.55441 14.1941C8.85128 14.1941 8.28129 13.6299 8.28129 12.9341C8.28129 12.2382 8.85128 11.6741 9.55441 11.6741C10.2575 11.6741 10.8275 12.2382 10.8275 12.9341Z"/>
</mask>
<path d="M15.8594 5C10.8049 5 6.40166 7.8622 5.12993 11.93H4.19795C3.14416 11.93 2.345 12.8703 2.52556 13.8979L2.95677 16.3518C3.16888 17.5588 4.22744 18.44 5.46537 18.44H5.91135C6.41952 19.3018 7.07908 20.083 7.85593 20.7615L6.61839 24.9228C6.54286 25.1768 6.59274 25.4512 6.75299 25.6632C6.91323 25.8752 7.16509 26 7.43261 26H10.8276C11.1865 26 11.5066 25.7766 11.6271 25.4421L12.445 23.1715C13.5223 23.4631 14.6701 23.62 15.8594 23.62C17.0587 23.62 18.2157 23.4605 19.3008 23.1642L20.2235 25.4694C20.3517 25.7897 20.6645 26 21.0126 26H24.4076C24.6765 26 24.9294 25.8739 25.0895 25.6602C25.2496 25.4465 25.2979 25.1703 25.2197 24.9157L23.9266 20.7053C25.7824 19.057 26.9538 16.8127 26.9538 14.31C26.9538 14.0657 26.9428 13.8241 26.9213 13.5854C27.3635 13.4007 27.7819 13.139 28.1166 12.8396C28.6512 13.3541 29.5 13.3541 29.5 12.1401C29.5 12.5141 28.6512 12.5141 28.7171 12.0953C28.7878 11.9586 28.8409 11.8152 28.8692 11.6671C28.9429 11.2826 28.8425 10.8954 28.5269 10.5831C28.159 10.219 27.6816 10.2283 27.3274 10.4195C26.9939 10.5996 26.732 10.9535 26.6906 11.3633C26.6494 11.771 26.8304 12.1703 27.234 12.4615C27.0965 12.5559 26.9484 12.6428 26.7949 12.7187C25.8883 8.24337 21.2202 5 15.8594 5ZM28.0354 11.5106C28.0163 11.6102 27.9628 11.7308 27.8684 11.8642C27.8416 11.8504 27.8166 11.8363 27.7936 11.8222C27.5469 11.6713 27.527 11.5278 27.5351 11.4469C27.5468 11.3317 27.6297 11.2131 27.7338 11.1569C27.8173 11.1119 27.8703 11.1212 27.9268 11.1771C28.0356 11.2847 28.0589 11.3876 28.0354 11.5106ZM12.7595 10.42C12.3089 10.5482 11.8388 10.2906 11.7093 9.84469C11.5799 9.39881 11.8401 8.93349 12.2907 8.80537C13.4124 8.48637 14.613 8.31406 15.8594 8.31406C17.1541 8.31406 18.3995 8.50001 19.5584 8.84319C20.0074 8.97618 20.2626 9.44428 20.1282 9.88873C19.9938 10.3332 19.5208 10.5857 19.0718 10.4527C18.0714 10.1564 16.9899 9.99406 15.8594 9.99406C14.7711 9.99406 13.7283 10.1445 12.7595 10.42ZM10.8275 12.9341C10.8275 13.6299 10.2575 14.1941 9.55441 14.1941C8.85128 14.1941 8.28129 13.6299 8.28129 12.9341C8.28129 12.2382 8.85128 11.6741 9.55441 11.6741C10.2575 11.6741 10.8275 12.2382 10.8275 12.9341Z" fill="#FFCF01"/>
<path d="M5.12993 11.93V13.93H6.60013L7.03882 12.5268L5.12993 11.93ZM2.52556 13.8979L4.49537 13.5517V13.5517L2.52556 13.8979ZM2.95677 16.3518L0.986953 16.6979L0.986953 16.6979L2.95677 16.3518ZM5.91135 18.44L7.63417 17.4242L7.05386 16.44H5.91135V18.44ZM7.85593 20.7615L9.77295 21.3316L10.1392 20.1002L9.17154 19.2551L7.85593 20.7615ZM6.61839 24.9228L4.70137 24.3527L4.70137 24.3527L6.61839 24.9228ZM6.75299 25.6632L5.1575 26.8692L5.15751 26.8692L6.75299 25.6632ZM11.6271 25.4421L9.74544 24.7642L9.74544 24.7643L11.6271 25.4421ZM12.445 23.1715L12.9675 21.241L11.1882 20.7594L10.5634 22.4937L12.445 23.1715ZM19.3008 23.1642L21.1575 22.4209L20.4947 20.765L18.774 21.2348L19.3008 23.1642ZM20.2235 25.4694L18.3668 26.2126L18.3668 26.2127L20.2235 25.4694ZM25.0895 25.6602L23.4887 24.4613L23.4887 24.4613L25.0895 25.6602ZM25.2197 24.9157L23.3078 25.5029L23.3078 25.5029L25.2197 24.9157ZM23.9266 20.7053L22.5985 19.21L21.6374 20.0637L22.0148 21.2925L23.9266 20.7053ZM26.9213 13.5854L26.1506 11.7398L24.7978 12.3047L24.9294 13.7649L26.9213 13.5854ZM28.1166 12.8396L29.5033 11.3984L28.1661 10.1118L26.7831 11.349L28.1166 12.8396ZM28.7171 12.0953L26.9407 11.1764L26.7917 11.4643L26.7414 11.7846L28.7171 12.0953ZM28.8692 11.6671L30.8335 12.0435V12.0435L28.8692 11.6671ZM28.5269 10.5831L29.9338 9.1616L29.9338 9.16155L28.5269 10.5831ZM27.3274 10.4195L28.2775 12.1794L28.2775 12.1794L27.3274 10.4195ZM26.6906 11.3633L28.6805 11.5644V11.5644L26.6906 11.3633ZM27.234 12.4615L28.3662 14.1102L30.7081 12.502L28.4044 10.8397L27.234 12.4615ZM26.7949 12.7187L24.8347 13.1158L25.3509 15.6637L27.6813 14.5115L26.7949 12.7187ZM27.8684 11.8642L26.951 13.6414L28.497 14.4395L29.5014 13.0189L27.8684 11.8642ZM28.0354 11.5106L29.9996 11.887L29.9996 11.887L28.0354 11.5106ZM27.7936 11.8222L26.7498 13.5283L26.7498 13.5283L27.7936 11.8222ZM27.5351 11.4469L29.525 11.648L29.525 11.6479L27.5351 11.4469ZM27.7338 11.1569L26.7837 9.39701L26.7837 9.39701L27.7338 11.1569ZM27.9268 11.1771L29.3337 9.75559L29.3336 9.75546L27.9268 11.1771ZM12.7595 10.42L12.2124 8.49631L12.2124 8.49631L12.7595 10.42ZM19.0718 10.4527L18.5039 12.3704V12.3704L19.0718 10.4527ZM20.1282 9.88873L22.0426 10.4675V10.4675L20.1282 9.88873ZM19.5584 8.84319L20.1263 6.92551L20.1262 6.92551L19.5584 8.84319ZM12.2907 8.80537L11.7436 6.88165L11.7436 6.88165L12.2907 8.80537ZM7.03882 12.5268C7.99314 9.47427 11.4746 7 15.8594 7V3C10.1353 3 4.81018 6.25014 3.22104 11.3332L7.03882 12.5268ZM4.19795 13.93H5.12993V9.93H4.19795V13.93ZM4.49537 13.5517C4.53423 13.7729 4.36227 13.93 4.19795 13.93V9.93C1.92604 9.93 0.155759 11.9678 0.555738 14.244L4.49537 13.5517ZM4.92659 16.0056L4.49537 13.5517L0.555738 14.244L0.986953 16.6979L4.92659 16.0056ZM5.46537 16.44C5.18373 16.44 4.9681 16.2419 4.92659 16.0056L0.986953 16.6979C1.36966 18.8758 3.27114 20.44 5.46537 20.44V16.44ZM5.91135 16.44H5.46537V20.44H5.91135V16.44ZM9.17154 19.2551C8.54454 18.7075 8.02637 18.0893 7.63417 17.4242L4.18854 19.4558C4.81267 20.5143 5.61363 21.4585 6.54032 22.2678L9.17154 19.2551ZM8.53542 25.4929L9.77295 21.3316L5.9389 20.1914L4.70137 24.3527L8.53542 25.4929ZM8.34847 24.4572C8.57032 24.7507 8.64176 25.1353 8.53542 25.4929L4.70137 24.3527C4.44395 25.2183 4.61516 26.1517 5.1575 26.8692L8.34847 24.4572ZM7.43261 24C7.78705 24 8.12776 24.1652 8.34847 24.4572L5.15751 26.8692C5.69871 27.5852 6.54314 28 7.43261 28V24ZM10.8276 24H7.43261V28H10.8276V24ZM9.74544 24.7643C9.91427 24.2956 10.3538 24 10.8276 24V28C12.0191 28 13.0989 27.2576 13.5087 26.1199L9.74544 24.7643ZM10.5634 22.4937L9.74544 24.7642L13.5087 26.1199L14.3267 23.8493L10.5634 22.4937ZM15.8594 21.62C14.846 21.62 13.8739 21.4863 12.9675 21.241L11.9225 25.102C13.1708 25.4399 14.4943 25.62 15.8594 25.62V21.62ZM18.774 21.2348C17.8612 21.484 16.8814 21.62 15.8594 21.62V25.62C17.236 25.62 18.5702 25.4369 19.8276 25.0936L18.774 21.2348ZM22.0803 24.7261L21.1575 22.4209L17.444 23.9075L18.3668 26.2126L22.0803 24.7261ZM21.0126 24C21.4724 24 21.901 24.2783 22.0803 24.7261L18.3668 26.2127C18.8024 27.301 19.8567 28 21.0126 28V24ZM24.4076 24H21.0126V28H24.4076V24ZM23.4887 24.4613C23.7092 24.1668 24.0514 24 24.4076 24V28C25.3015 28 26.1496 27.5811 26.6903 26.8591L23.4887 24.4613ZM23.3078 25.5029C23.1978 25.1445 23.267 24.7573 23.4887 24.4613L26.6903 26.8591C27.2322 26.1356 27.398 25.196 27.1316 24.3286L23.3078 25.5029ZM22.0148 21.2925L23.3078 25.5029L27.1316 24.3286L25.8385 20.1182L22.0148 21.2925ZM24.9538 14.31C24.9538 16.1562 24.0949 17.8809 22.5985 19.21L25.2548 22.2006C27.4699 20.2332 28.9538 17.4693 28.9538 14.31H24.9538ZM24.9294 13.7649C24.9455 13.9439 24.9538 14.1256 24.9538 14.31H28.9538C28.9538 14.0058 28.9401 13.7043 28.9132 13.4058L24.9294 13.7649ZM26.7831 11.349C26.624 11.4914 26.3983 11.6364 26.1506 11.7398L27.692 15.4309C28.3288 15.165 28.9399 14.7866 29.45 14.3302L26.7831 11.349ZM27.5 12.1401C27.5 12.2309 27.4812 12.1019 27.5996 11.8829C27.7388 11.6254 28.0134 11.354 28.4107 11.2295C28.7693 11.1172 29.0606 11.1757 29.2104 11.2274C29.3631 11.28 29.4542 11.3512 29.5033 11.3984L26.7298 14.2808C27.2796 14.8097 28.358 15.4379 29.6069 15.0465C31.1137 14.5743 31.5 13.1231 31.5 12.1401H27.5ZM26.7414 11.7846C26.6 12.6836 27.0018 13.4714 27.607 13.9281C28.1067 14.3051 28.6524 14.4039 29.0289 14.4142C29.4154 14.4248 29.9091 14.3511 30.3799 14.0751C30.8945 13.7734 31.5 13.1263 31.5 12.1401H27.5C27.5 11.3408 27.9994 10.834 28.3569 10.6244C28.6707 10.4404 28.9563 10.4107 29.1388 10.4157C29.3113 10.4205 29.6572 10.4641 30.0163 10.735C30.2132 10.8836 30.4282 11.1146 30.5694 11.4433C30.7142 11.7802 30.7379 12.1194 30.6928 12.406L26.7414 11.7846ZM26.905 11.2907C26.9183 11.221 26.9376 11.1823 26.9407 11.1764L30.4935 13.0141C30.638 12.7348 30.7634 12.4094 30.8335 12.0435L26.905 11.2907ZM27.12 12.0046C27.0537 11.9389 26.975 11.8275 26.9289 11.6744C26.8837 11.5243 26.8862 11.3887 26.905 11.2907L30.8335 12.0435C31.0279 11.0291 30.7409 9.96041 29.9338 9.1616L27.12 12.0046ZM28.2775 12.1794C28.1454 12.2507 27.962 12.3052 27.7388 12.2846C27.4911 12.2619 27.2687 12.1517 27.1201 12.0046L29.9338 9.16155C28.8244 8.06363 27.3524 8.1332 26.3773 8.65958L28.2775 12.1794ZM28.6805 11.5644C28.6644 11.7232 28.608 11.851 28.5437 11.9439C28.4813 12.034 28.3947 12.1161 28.2775 12.1794L26.3773 8.65958C25.5072 9.12933 24.814 10.0412 24.7007 11.1623L28.6805 11.5644ZM28.4044 10.8397C28.4408 10.866 28.5263 10.9412 28.5959 11.085C28.6672 11.2325 28.6969 11.4021 28.6805 11.5644L24.7007 11.1623C24.5793 12.3643 25.153 13.4261 26.0637 14.0833L28.4044 10.8397ZM27.6813 14.5115C27.919 14.394 28.1493 14.2592 28.3662 14.1102L26.1019 10.8128C26.0438 10.8527 25.9779 10.8915 25.9085 10.9258L27.6813 14.5115ZM15.8594 7C20.5313 7 24.1647 9.80837 24.8347 13.1158L28.7551 12.3216C27.6119 6.67836 21.9091 3 15.8594 3V7ZM29.5014 13.0189C29.705 12.731 29.9113 12.3477 29.9996 11.887L26.0711 11.1342C26.0977 10.9954 26.1377 10.8935 26.1665 10.8317C26.1961 10.768 26.2226 10.7277 26.2354 10.7096L29.5014 13.0189ZM26.7498 13.5283C26.8162 13.5689 26.8833 13.6065 26.951 13.6414L28.7858 10.0871C28.7998 10.0943 28.8171 10.1038 28.8373 10.1161L26.7498 13.5283ZM25.5453 11.2458C25.5097 11.5979 25.5467 12.0698 25.8065 12.554C26.0519 13.0114 26.4117 13.3214 26.7498 13.5283L28.8373 10.1162C28.9288 10.1722 29.1553 10.335 29.3311 10.6627C29.5213 11.0171 29.5524 11.3768 29.525 11.648L25.5453 11.2458ZM26.7837 9.39701C26.1374 9.74595 25.6282 10.4253 25.5453 11.2458L29.525 11.6479C29.4914 11.9809 29.3683 12.2382 29.2464 12.415C29.1233 12.5935 28.9413 12.7779 28.6839 12.9169L26.7837 9.39701ZM29.3336 9.75546C29.1301 9.5541 28.7136 9.21947 28.0784 9.14336C27.471 9.07059 27.0058 9.27712 26.7837 9.39701L28.6839 12.9169C28.5453 12.9917 28.1484 13.1804 27.6025 13.115C27.0288 13.0462 26.667 12.7442 26.52 12.5987L29.3336 9.75546ZM29.9996 11.887C30.0547 11.5997 30.0791 11.2021 29.9451 10.7591C29.8111 10.3162 29.5669 9.98644 29.3337 9.75559L26.5199 12.5985C26.3954 12.4754 26.2173 12.2509 26.1163 11.917C26.0153 11.5831 26.0396 11.2984 26.0711 11.1342L29.9996 11.887ZM15.8594 7.99406C14.5868 7.99406 13.3599 8.16999 12.2124 8.49631L13.3065 12.3438C14.0967 12.1191 14.9553 11.9941 15.8594 11.9941V7.99406ZM19.6396 8.535C18.4541 8.18391 17.1813 7.99406 15.8594 7.99406V11.9941C16.7985 11.9941 17.6887 12.129 18.5039 12.3704L19.6396 8.535ZM18.2138 9.30994C18.4024 8.68587 19.0494 8.36022 19.6396 8.535L18.5039 12.3704C19.9922 12.8111 21.5852 11.9805 22.0426 10.4675L18.2138 9.30994ZM18.9905 10.7609C18.392 10.5836 18.0224 9.94278 18.2138 9.30994L22.0426 10.4675C22.5027 8.94578 21.6229 7.36871 20.1263 6.92551L18.9905 10.7609ZM15.8594 10.3141C16.9627 10.3141 18.0168 10.4725 18.9905 10.7609L20.1262 6.92551C18.7822 6.52749 17.3455 6.31406 15.8594 6.31406V10.3141ZM12.8377 10.7291C13.7808 10.4609 14.7973 10.3141 15.8594 10.3141V6.31406C14.4288 6.31406 13.044 6.51184 11.7436 6.88165L12.8377 10.7291ZM13.63 9.28704C13.8144 9.92205 13.4377 10.5585 12.8377 10.7291L11.7436 6.88165C10.2426 7.30851 9.34535 8.87556 9.78862 10.4023L13.63 9.28704ZM12.2124 8.49631C12.8043 8.32797 13.4481 8.66053 13.63 9.28704L9.78862 10.4023C10.2294 11.9206 11.8135 12.7683 13.3065 12.3438L12.2124 8.49631ZM9.55441 16.1941C11.3425 16.1941 12.8275 14.754 12.8275 12.9341H8.82754C8.82754 12.5059 9.17256 12.1941 9.55441 12.1941V16.1941ZM6.28129 12.9341C6.28129 14.754 7.76631 16.1941 9.55441 16.1941V12.1941C9.93626 12.1941 10.2813 12.5059 10.2813 12.9341H6.28129ZM9.55441 9.67406C7.76631 9.67406 6.28129 11.1141 6.28129 12.9341H10.2813C10.2813 13.3622 9.93626 13.6741 9.55441 13.6741V9.67406ZM12.8275 12.9341C12.8275 11.1141 11.3425 9.67406 9.55441 9.67406V13.6741C9.17256 13.6741 8.82754 13.3622 8.82754 12.9341H12.8275Z" fill="white" mask="url(#path-1-outside-1_97_1786)"/>
</g>
<g filter="url(#filter1_d_97_1786)">
<path d="M15.8594 5C10.8049 5 6.40166 7.8622 5.12993 11.93H4.19795C3.14416 11.93 2.345 12.8703 2.52556 13.8979L2.95677 16.3518C3.16888 17.5588 4.22744 18.44 5.46537 18.44H5.91135C6.41952 19.3018 7.07908 20.083 7.85593 20.7615L6.61839 24.9228C6.54286 25.1768 6.59274 25.4512 6.75299 25.6632C6.91323 25.8752 7.16509 26 7.43261 26H10.8276C11.1865 26 11.5066 25.7766 11.6271 25.4421L12.445 23.1715C13.5223 23.4631 14.6701 23.62 15.8594 23.62C17.0587 23.62 18.2157 23.4605 19.3008 23.1642L20.2235 25.4694C20.3517 25.7897 20.6645 26 21.0126 26H24.4076C24.6765 26 24.9294 25.8739 25.0895 25.6602C25.2496 25.4465 25.2979 25.1703 25.2197 24.9157L23.9266 20.7053C25.7824 19.057 26.9538 16.8127 26.9538 14.31C26.9538 14.0657 26.9428 13.8241 26.9213 13.5854C27.3635 13.4007 27.7819 13.139 28.1166 12.8396C28.6512 13.3541 29.5 13.3541 29.5 12.1401C29.5 12.5141 28.6512 12.5141 28.7171 12.0953C28.7878 11.9586 28.8409 11.8152 28.8692 11.6671C28.9429 11.2826 28.8425 10.8954 28.5269 10.5831C28.159 10.219 27.6816 10.2283 27.3274 10.4195C26.9939 10.5996 26.732 10.9535 26.6906 11.3633C26.6494 11.771 26.8304 12.1703 27.234 12.4615C27.0965 12.5559 26.9484 12.6428 26.7949 12.7187C25.8883 8.24337 21.2202 5 15.8594 5ZM28.0354 11.5106C28.0163 11.6102 27.9628 11.7308 27.8684 11.8642C27.8416 11.8504 27.8166 11.8363 27.7936 11.8222C27.5469 11.6713 27.527 11.5278 27.5351 11.4469C27.5468 11.3317 27.6297 11.2131 27.7338 11.1569C27.8173 11.1119 27.8703 11.1212 27.9268 11.1771C28.0356 11.2847 28.0589 11.3876 28.0354 11.5106ZM12.7595 10.42C12.3089 10.5482 11.8388 10.2906 11.7093 9.84469C11.5799 9.39881 11.8401 8.93349 12.2907 8.80537C13.4124 8.48637 14.613 8.31406 15.8594 8.31406C17.1541 8.31406 18.3995 8.50001 19.5584 8.84319C20.0074 8.97618 20.2626 9.44428 20.1282 9.88873C19.9938 10.3332 19.5208 10.5857 19.0718 10.4527C18.0714 10.1564 16.9899 9.99406 15.8594 9.99406C14.7711 9.99406 13.7283 10.1445 12.7595 10.42ZM10.8275 12.9341C10.8275 13.6299 10.2575 14.1941 9.55441 14.1941C8.85128 14.1941 8.28129 13.6299 8.28129 12.9341C8.28129 12.2382 8.85128 11.6741 9.55441 11.6741C10.2575 11.6741 10.8275 12.2382 10.8275 12.9341Z" fill="#FFCF01"/>
<path d="M15.8594 5C10.8049 5 6.40166 7.8622 5.12993 11.93H4.19795C3.14416 11.93 2.345 12.8703 2.52556 13.8979L2.95677 16.3518C3.16888 17.5588 4.22744 18.44 5.46537 18.44H5.91135C6.41952 19.3018 7.07908 20.083 7.85593 20.7615L6.61839 24.9228C6.54286 25.1768 6.59274 25.4512 6.75299 25.6632C6.91323 25.8752 7.16509 26 7.43261 26H10.8276C11.1865 26 11.5066 25.7766 11.6271 25.4421L12.445 23.1715C13.5223 23.4631 14.6701 23.62 15.8594 23.62C17.0587 23.62 18.2157 23.4605 19.3008 23.1642L20.2235 25.4694C20.3517 25.7897 20.6645 26 21.0126 26H24.4076C24.6765 26 24.9294 25.8739 25.0895 25.6602C25.2496 25.4465 25.2979 25.1703 25.2197 24.9157L23.9266 20.7053C25.7824 19.057 26.9538 16.8127 26.9538 14.31C26.9538 14.0657 26.9428 13.8241 26.9213 13.5854C27.3635 13.4007 27.7819 13.139 28.1166 12.8396C28.6512 13.3541 29.5 13.3541 29.5 12.1401C29.5 12.5141 28.6512 12.5141 28.7171 12.0953C28.7878 11.9586 28.8409 11.8152 28.8692 11.6671C28.9429 11.2826 28.8425 10.8954 28.5269 10.5831C28.159 10.219 27.6816 10.2283 27.3274 10.4195C26.9939 10.5996 26.732 10.9535 26.6906 11.3633C26.6494 11.771 26.8304 12.1703 27.234 12.4615C27.0965 12.5559 26.9484 12.6428 26.7949 12.7187C25.8883 8.24337 21.2202 5 15.8594 5ZM28.0354 11.5106C28.0163 11.6102 27.9628 11.7308 27.8684 11.8642C27.8416 11.8504 27.8166 11.8363 27.7936 11.8222C27.5469 11.6713 27.527 11.5278 27.5351 11.4469C27.5468 11.3317 27.6297 11.2131 27.7338 11.1569C27.8173 11.1119 27.8703 11.1212 27.9268 11.1771C28.0356 11.2847 28.0589 11.3876 28.0354 11.5106ZM12.7595 10.42C12.3089 10.5482 11.8388 10.2906 11.7093 9.84469C11.5799 9.39881 11.8401 8.93349 12.2907 8.80537C13.4124 8.48637 14.613 8.31406 15.8594 8.31406C17.1541 8.31406 18.3995 8.50001 19.5584 8.84319C20.0074 8.97618 20.2626 9.44428 20.1282 9.88873C19.9938 10.3332 19.5208 10.5857 19.0718 10.4527C18.0714 10.1564 16.9899 9.99406 15.8594 9.99406C14.7711 9.99406 13.7283 10.1445 12.7595 10.42ZM10.8275 12.9341C10.8275 13.6299 10.2575 14.1941 9.55441 14.1941C8.85128 14.1941 8.28129 13.6299 8.28129 12.9341C8.28129 12.2382 8.85128 11.6741 9.55441 11.6741C10.2575 11.6741 10.8275 12.2382 10.8275 12.9341Z" stroke="black"/>
</g>
<defs>
<filter id="filter0_d_97_1786" x="0.499023" y="3" width="32.001" height="26" filterUnits="userSpaceOnUse" color-interpolation-filters="sRGB">
<feFlood flood-opacity="0" result="BackgroundImageFix"/>
<feColorMatrix in="SourceAlpha" type="matrix" values="0 0 0 0 0 0 0 0 0 0 0 0 0 0 0 0 0 0 127 0" result="hardAlpha"/>
<feOffset dx="1" dy="1"/>
<feComposite in2="hardAlpha" operator="out"/>
<feColorMatrix type="matrix" values="0 0 0 0 1 0 0 0 0 1 0 0 0 0 1 0 0 0 1 0"/>
<feBlend mode="normal" in2="BackgroundImageFix" result="effect1_dropShadow_97_1786"/>
<feBlend mode="normal" in="SourceGraphic" in2="effect1_dropShadow_97_1786" result="shape"/>
</filter>
<filter id="filter1_d_97_1786" x="2" y="4.5" width="29" height="23" filterUnits="userSpaceOnUse" color-interpolation-filters="sRGB">
<feFlood flood-opacity="0" result="BackgroundImageFix"/>
<feColorMatrix in="SourceAlpha" type="matrix" values="0 0 0 0 0 0 0 0 0 0 0 0 0 0 0 0 0 0 127 0" result="hardAlpha"/>
<feOffset dx="1" dy="1"/>
<feComposite in2="hardAlpha" operator="out"/>
<feColorMatrix type="matrix" values="0 0 0 0 0 0 0 0 0 0 0 0 0 0 0 0 0 0 1 0"/>
<feBlend mode="normal" in2="BackgroundImageFix" result="effect1_dropShadow_97_1786"/>
<feBlend mode="normal" in="SourceGraphic" in2="effect1_dropShadow_97_1786" result="shape"/>
</filter>
</defs>
</svg>
