<svg width="30" height="30" viewBox="0 0 30 30" fill="none" xmlns="http://www.w3.org/2000/svg">
<g filter="url(#filter0_ii_1_3738)">
<path fill-rule="evenodd" clip-rule="evenodd" d="M9.1329 9.6976L9.56173 13.5571L8.69394 13.6263C7.48383 13.7229 6.4957 14.6326 6.29953 15.8306C5.84742 18.5917 5.84742 21.408 6.29953 24.1691C6.4957 25.3672 7.48383 26.2768 8.69394 26.3734L10.5641 26.5227C13.5168 26.7584 16.4836 26.7584 19.4362 26.5227L21.3064 26.3734C22.5165 26.2768 23.5046 25.3672 23.7008 24.1691C24.1529 21.408 24.1529 18.5917 23.7008 15.8306C23.5046 14.6326 22.5165 13.7229 21.3064 13.6263L20.4385 13.557L20.8673 9.6976C20.9179 9.24263 20.9179 8.78346 20.8673 8.32849L20.8389 8.07237C20.537 5.35563 18.4012 3.20605 15.6865 2.88667C15.2305 2.83302 14.7697 2.83302 14.3137 2.88667C11.599 3.20605 9.46322 5.35563 9.16136 8.07236L9.1329 8.32849C9.08235 8.78346 9.08235 9.24263 9.1329 9.6976ZM15.4674 4.74883C15.157 4.7123 14.8433 4.7123 14.5328 4.74883C12.6845 4.96628 11.2304 6.42978 11.0249 8.27942L10.9964 8.53554C10.9612 8.8529 10.9612 9.17319 10.9964 9.49054L11.4324 13.4145C13.8084 13.2622 16.1918 13.2621 18.5678 13.4145L19.0038 9.49054C19.039 9.17319 19.039 8.8529 19.0038 8.53555L18.9753 8.27942C18.7698 6.42978 17.3157 4.96628 15.4674 4.74883ZM15.0001 18.1249C13.9646 18.1249 13.1251 18.9643 13.1251 19.9999C13.1251 21.0354 13.9646 21.8749 15.0001 21.8749C16.0357 21.8749 16.8751 21.0354 16.8751 19.9999C16.8751 18.9643 16.0357 18.1249 15.0001 18.1249Z" fill="#FFC000"/>
</g>
<path fill-rule="evenodd" clip-rule="evenodd" d="M9.1329 9.6976L9.56173 13.5571L8.69394 13.6263C7.48383 13.7229 6.4957 14.6326 6.29953 15.8306C5.84742 18.5917 5.84742 21.408 6.29953 24.1691C6.4957 25.3672 7.48383 26.2768 8.69394 26.3734L10.5641 26.5227C13.5168 26.7584 16.4836 26.7584 19.4362 26.5227L21.3064 26.3734C22.5165 26.2768 23.5046 25.3672 23.7008 24.1691C24.1529 21.408 24.1529 18.5917 23.7008 15.8306C23.5046 14.6326 22.5165 13.7229 21.3064 13.6263L20.4385 13.557L20.8673 9.6976C20.9179 9.24263 20.9179 8.78346 20.8673 8.32849L20.8389 8.07237C20.537 5.35563 18.4012 3.20605 15.6865 2.88667C15.2305 2.83302 14.7697 2.83302 14.3137 2.88667C11.599 3.20605 9.46322 5.35563 9.16136 8.07236L9.1329 8.32849C9.08235 8.78346 9.08235 9.24263 9.1329 9.6976ZM15.4674 4.74883C15.157 4.7123 14.8433 4.7123 14.5328 4.74883C12.6845 4.96628 11.2304 6.42978 11.0249 8.27942L10.9964 8.53554C10.9612 8.8529 10.9612 9.17319 10.9964 9.49054L11.4324 13.4145C13.8084 13.2622 16.1918 13.2621 18.5678 13.4145L19.0038 9.49054C19.039 9.17319 19.039 8.8529 19.0038 8.53555L18.9753 8.27942C18.7698 6.42978 17.3157 4.96628 15.4674 4.74883ZM15.0001 18.1249C13.9646 18.1249 13.1251 18.9643 13.1251 19.9999C13.1251 21.0354 13.9646 21.8749 15.0001 21.8749C16.0357 21.8749 16.8751 21.0354 16.8751 19.9999C16.8751 18.9643 16.0357 18.1249 15.0001 18.1249Z" stroke="black"/>
<defs>
<filter id="filter0_ii_1_3738" x="5.46045" y="2.34644" width="19.0796" height="24.853" filterUnits="userSpaceOnUse" color-interpolation-filters="sRGB">
<feFlood flood-opacity="0" result="BackgroundImageFix"/>
<feBlend mode="normal" in="SourceGraphic" in2="BackgroundImageFix" result="shape"/>
<feColorMatrix in="SourceAlpha" type="matrix" values="0 0 0 0 0 0 0 0 0 0 0 0 0 0 0 0 0 0 127 0" result="hardAlpha"/>
<feOffset dx="2" dy="2"/>
<feComposite in2="hardAlpha" operator="arithmetic" k2="-1" k3="1"/>
<feColorMatrix type="matrix" values="0 0 0 0 1 0 0 0 0 1 0 0 0 0 1 0 0 0 1 0"/>
<feBlend mode="normal" in2="shape" result="effect1_innerShadow_1_3738"/>
<feColorMatrix in="SourceAlpha" type="matrix" values="0 0 0 0 0 0 0 0 0 0 0 0 0 0 0 0 0 0 127 0" result="hardAlpha"/>
<feOffset dx="-2" dy="-2"/>
<feComposite in2="hardAlpha" operator="arithmetic" k2="-1" k3="1"/>
<feColorMatrix type="matrix" values="0 0 0 0 0 0 0 0 0 0 0 0 0 0 0 0 0 0 1 0"/>
<feBlend mode="normal" in2="effect1_innerShadow_1_3738" result="effect2_innerShadow_1_3738"/>
</filter>
</defs>
</svg>
