<svg width="25" height="25" viewBox="0 0 25 25" fill="none" xmlns="http://www.w3.org/2000/svg">
<path d="M12.125 12.5C15.0245 12.5 17.375 10.1495 17.375 7.25C17.375 4.3505 15.0245 2 12.125 2C9.22551 2 6.875 4.3505 6.875 7.25C6.875 10.1495 9.22551 12.5 12.125 12.5ZM15.625 7.25C15.625 9.183 14.058 10.75 12.125 10.75C10.192 10.75 8.625 9.183 8.625 7.25C8.625 5.317 10.192 3.75 12.125 3.75C14.058 3.75 15.625 5.317 15.625 7.25Z" fill="#5C5E61"/>
<path d="M22.625 21.25C22.625 23 20.875 23 20.875 23H3.375C3.375 23 1.625 23 1.625 21.25C1.625 19.5 3.375 14.25 12.125 14.25C20.875 14.25 22.625 19.5 22.625 21.25ZM20.875 21.2439C20.8725 20.812 20.6059 19.5183 19.4188 18.3312C18.2773 17.1897 16.1309 16 12.125 16C8.11904 16 5.97262 17.1897 4.83117 18.3312C3.64407 19.5183 3.37749 20.812 3.375 21.2439H20.875Z" fill="#5C5E61"/>
</svg>
