<svg width="25" height="25" viewBox="0 0 25 25" fill="none" xmlns="http://www.w3.org/2000/svg">
<g filter="url(#filter0_d_85_968)">
<path d="M6.29167 19.5C6.29167 19.5 5.125 19.5 5.125 18.3333C5.125 17.1667 6.29167 13.6667 12.125 13.6667C17.9583 13.6667 19.125 17.1667 19.125 18.3333C19.125 19.5 17.9583 19.5 17.9583 19.5H6.29167Z" fill="#FFCF01"/>
<path d="M12.125 12.5C14.058 12.5 15.625 10.933 15.625 9C15.625 7.067 14.058 5.5 12.125 5.5C10.192 5.5 8.625 7.067 8.625 9C8.625 10.933 10.192 12.5 12.125 12.5Z" fill="#FFCF01"/>
<path d="M6.29167 19.5C6.29167 19.5 5.125 19.5 5.125 18.3333C5.125 17.1667 6.29167 13.6667 12.125 13.6667C17.9583 13.6667 19.125 17.1667 19.125 18.3333C19.125 19.5 17.9583 19.5 17.9583 19.5H6.29167Z" stroke="black"/>
<path d="M12.125 12.5C14.058 12.5 15.625 10.933 15.625 9C15.625 7.067 14.058 5.5 12.125 5.5C10.192 5.5 8.625 7.067 8.625 9C8.625 10.933 10.192 12.5 12.125 12.5Z" stroke="black"/>
</g>
<defs>
<filter id="filter0_d_85_968" x="4.625" y="5" width="16" height="16" filterUnits="userSpaceOnUse" color-interpolation-filters="sRGB">
<feFlood flood-opacity="0" result="BackgroundImageFix"/>
<feColorMatrix in="SourceAlpha" type="matrix" values="0 0 0 0 0 0 0 0 0 0 0 0 0 0 0 0 0 0 127 0" result="hardAlpha"/>
<feOffset dx="1" dy="1"/>
<feComposite in2="hardAlpha" operator="out"/>
<feColorMatrix type="matrix" values="0 0 0 0 0 0 0 0 0 0 0 0 0 0 0 0 0 0 1 0"/>
<feBlend mode="normal" in2="BackgroundImageFix" result="effect1_dropShadow_85_968"/>
<feBlend mode="normal" in="SourceGraphic" in2="effect1_dropShadow_85_968" result="shape"/>
</filter>
</defs>
</svg>
