<svg width="30" height="30" viewBox="0 0 30 30" fill="none" xmlns="http://www.w3.org/2000/svg">
<g filter="url(#filter0_ii_1_3733)">
<path d="M15 26.25C13.4437 26.25 11.9812 25.9545 10.6125 25.3635C9.24375 24.7725 8.05312 23.9711 7.04062 22.9594C6.02813 21.9469 5.22675 20.7562 4.6365 19.3875C4.04625 18.0187 3.75075 16.5562 3.75 15C3.75 13.4437 4.0455 11.9812 4.6365 10.6125C5.2275 9.24375 6.02887 8.05312 7.04062 7.04062C8.05312 6.02813 9.24375 5.22675 10.6125 4.6365C11.9812 4.04625 13.4437 3.75075 15 3.75C16.5562 3.75 18.0187 4.0455 19.3875 4.6365C20.7562 5.2275 21.9469 6.02887 22.9594 7.04062C23.9719 8.05312 24.7736 9.24375 25.3646 10.6125C25.9556 11.9812 26.2507 13.4437 26.25 15C26.25 16.5562 25.9545 18.0187 25.3635 19.3875C24.7725 20.7562 23.9711 21.9469 22.9594 22.9594C21.9469 23.9719 20.7562 24.7736 19.3875 25.3646C18.0187 25.9556 16.5562 26.2507 15 26.25ZM13.875 23.9437V21.75C13.2562 21.75 12.7264 21.5295 12.2854 21.0885C11.8444 20.6475 11.6242 20.118 11.625 19.5V18.375L6.225 12.975C6.16875 13.3125 6.117 13.65 6.06975 13.9875C6.0225 14.325 5.99925 14.6625 6 15C6 17.2687 6.7455 19.2562 8.2365 20.9625C9.7275 22.6687 11.607 23.6625 13.875 23.9437ZM21.6375 21.075C22.0125 20.6625 22.35 20.217 22.65 19.7385C22.95 19.26 23.1982 18.7631 23.3947 18.2479C23.592 17.7326 23.742 17.2031 23.8447 16.6594C23.9475 16.1156 23.9992 15.5625 24 15C24 13.1625 23.4889 11.4844 22.4666 9.96562C21.4444 8.44687 20.0805 7.35 18.375 6.675V7.125C18.375 7.74375 18.1545 8.27362 17.7135 8.71462C17.2725 9.15562 16.743 9.37575 16.125 9.375H13.875V11.625C13.875 11.9437 13.767 12.2111 13.551 12.4271C13.335 12.6431 13.068 12.7507 12.75 12.75H10.5V15H17.25C17.5687 15 17.8361 15.108 18.0521 15.324C18.2681 15.54 18.3757 15.807 18.375 16.125V19.5H19.5C19.9875 19.5 20.4281 19.6455 20.8219 19.9365C21.2156 20.2275 21.4875 20.607 21.6375 21.075Z" fill="#FFC000"/>
</g>
<path d="M15 26.25C13.4437 26.25 11.9812 25.9545 10.6125 25.3635C9.24375 24.7725 8.05312 23.9711 7.04062 22.9594C6.02813 21.9469 5.22675 20.7562 4.6365 19.3875C4.04625 18.0187 3.75075 16.5562 3.75 15C3.75 13.4437 4.0455 11.9812 4.6365 10.6125C5.2275 9.24375 6.02887 8.05312 7.04062 7.04062C8.05312 6.02813 9.24375 5.22675 10.6125 4.6365C11.9812 4.04625 13.4437 3.75075 15 3.75C16.5562 3.75 18.0187 4.0455 19.3875 4.6365C20.7562 5.2275 21.9469 6.02887 22.9594 7.04062C23.9719 8.05312 24.7736 9.24375 25.3646 10.6125C25.9556 11.9812 26.2507 13.4437 26.25 15C26.25 16.5562 25.9545 18.0187 25.3635 19.3875C24.7725 20.7562 23.9711 21.9469 22.9594 22.9594C21.9469 23.9719 20.7562 24.7736 19.3875 25.3646C18.0187 25.9556 16.5562 26.2507 15 26.25ZM13.875 23.9437V21.75C13.2562 21.75 12.7264 21.5295 12.2854 21.0885C11.8444 20.6475 11.6242 20.118 11.625 19.5V18.375L6.225 12.975C6.16875 13.3125 6.117 13.65 6.06975 13.9875C6.0225 14.325 5.99925 14.6625 6 15C6 17.2687 6.7455 19.2562 8.2365 20.9625C9.7275 22.6687 11.607 23.6625 13.875 23.9437ZM21.6375 21.075C22.0125 20.6625 22.35 20.217 22.65 19.7385C22.95 19.26 23.1982 18.7631 23.3947 18.2479C23.592 17.7326 23.742 17.2031 23.8447 16.6594C23.9475 16.1156 23.9992 15.5625 24 15C24 13.1625 23.4889 11.4844 22.4666 9.96562C21.4444 8.44687 20.0805 7.35 18.375 6.675V7.125C18.375 7.74375 18.1545 8.27362 17.7135 8.71462C17.2725 9.15562 16.743 9.37575 16.125 9.375H13.875V11.625C13.875 11.9437 13.767 12.2111 13.551 12.4271C13.335 12.6431 13.068 12.7507 12.75 12.75H10.5V15H17.25C17.5687 15 17.8361 15.108 18.0521 15.324C18.2681 15.54 18.3757 15.807 18.375 16.125V19.5H19.5C19.9875 19.5 20.4281 19.6455 20.8219 19.9365C21.2156 20.2275 21.4875 20.607 21.6375 21.075Z" stroke="black"/>
<defs>
<filter id="filter0_ii_1_3733" x="3.25" y="3.25" width="23.5" height="23.5" filterUnits="userSpaceOnUse" color-interpolation-filters="sRGB">
<feFlood flood-opacity="0" result="BackgroundImageFix"/>
<feBlend mode="normal" in="SourceGraphic" in2="BackgroundImageFix" result="shape"/>
<feColorMatrix in="SourceAlpha" type="matrix" values="0 0 0 0 0 0 0 0 0 0 0 0 0 0 0 0 0 0 127 0" result="hardAlpha"/>
<feOffset dx="2" dy="2"/>
<feComposite in2="hardAlpha" operator="arithmetic" k2="-1" k3="1"/>
<feColorMatrix type="matrix" values="0 0 0 0 1 0 0 0 0 1 0 0 0 0 1 0 0 0 1 0"/>
<feBlend mode="normal" in2="shape" result="effect1_innerShadow_1_3733"/>
<feColorMatrix in="SourceAlpha" type="matrix" values="0 0 0 0 0 0 0 0 0 0 0 0 0 0 0 0 0 0 127 0" result="hardAlpha"/>
<feOffset dx="-2" dy="-2"/>
<feComposite in2="hardAlpha" operator="arithmetic" k2="-1" k3="1"/>
<feColorMatrix type="matrix" values="0 0 0 0 0 0 0 0 0 0 0 0 0 0 0 0 0 0 1 0"/>
<feBlend mode="normal" in2="effect1_innerShadow_1_3733" result="effect2_innerShadow_1_3733"/>
</filter>
</defs>
</svg>
