<svg width="24" height="25" viewBox="0 0 24 25" fill="none" xmlns="http://www.w3.org/2000/svg">
<g filter="url(#filter0_d_92_1746)">
<path d="M14.1716 17.4305L21.9024 11.8521C22.6992 11.3804 22.6992 10.2196 21.9024 9.74789L14.1716 4.16947C13.3716 3.69585 12.3462 4.26869 12.3462 5.22158V7.4C9.80769 7.4 2.19231 7.4 0.5 21C4.73077 13.35 12.3462 14.2 12.3462 14.2V16.3784C12.3462 17.3313 13.3716 17.9041 14.1716 17.4305Z" fill="#FFCF01"/>
<path d="M14.1716 17.4305L21.9024 11.8521C22.6992 11.3804 22.6992 10.2196 21.9024 9.74789L14.1716 4.16947C13.3716 3.69585 12.3462 4.26869 12.3462 5.22158V7.4C9.80769 7.4 2.19231 7.4 0.5 21C4.73077 13.35 12.3462 14.2 12.3462 14.2V16.3784C12.3462 17.3313 13.3716 17.9041 14.1716 17.4305Z" stroke="black" stroke-linecap="round"/>
</g>
<defs>
<filter id="filter0_d_92_1746" x="0.00390625" y="3.49927" width="23.9961" height="18.7427" filterUnits="userSpaceOnUse" color-interpolation-filters="sRGB">
<feFlood flood-opacity="0" result="BackgroundImageFix"/>
<feColorMatrix in="SourceAlpha" type="matrix" values="0 0 0 0 0 0 0 0 0 0 0 0 0 0 0 0 0 0 127 0" result="hardAlpha"/>
<feOffset dx="1" dy="1"/>
<feComposite in2="hardAlpha" operator="out"/>
<feColorMatrix type="matrix" values="0 0 0 0 0 0 0 0 0 0 0 0 0 0 0 0 0 0 1 0"/>
<feBlend mode="normal" in2="BackgroundImageFix" result="effect1_dropShadow_92_1746"/>
<feBlend mode="normal" in="SourceGraphic" in2="effect1_dropShadow_92_1746" result="shape"/>
</filter>
</defs>
</svg>
