<svg width="17" height="17" viewBox="0 0 17 17" fill="none" xmlns="http://www.w3.org/2000/svg">
<g filter="url(#filter0_d_3061_4307)">
<path d="M11.2744 10.0509C11.9663 9.10889 12.375 7.94592 12.375 6.6875C12.375 3.54638 9.82862 1 6.6875 1C3.54638 1 1 3.54638 1 6.6875C1 9.82862 3.54638 12.375 6.6875 12.375C7.94626 12.375 9.10951 11.9661 10.0517 11.2738L10.0509 11.2744C10.0767 11.3094 10.1054 11.3429 10.1371 11.3746L13.5063 14.7437C13.848 15.0854 14.402 15.0854 14.7437 14.7437C15.0854 14.402 15.0854 13.848 14.7437 13.5063L11.3746 10.1371C11.3429 10.1054 11.3094 10.0767 11.2744 10.0509ZM11.5 6.6875C11.5 9.34537 9.34537 11.5 6.6875 11.5C4.02963 11.5 1.875 9.34537 1.875 6.6875C1.875 4.02963 4.02963 1.875 6.6875 1.875C9.34537 1.875 11.5 4.02963 11.5 6.6875Z" fill="#FFCF01"/>
<path d="M6.6875 12.875C7.89759 12.875 9.02758 12.5272 9.98159 11.9261L13.1527 15.0973C13.6897 15.6342 14.5603 15.6342 15.0973 15.0973C15.6342 14.5603 15.6342 13.6897 15.0973 13.1527L11.9261 9.98159C12.5272 9.02758 12.875 7.89758 12.875 6.6875C12.875 3.27024 10.1048 0.5 6.6875 0.5C3.27024 0.5 0.5 3.27024 0.5 6.6875C0.5 10.1048 3.27024 12.875 6.6875 12.875ZM11 6.6875C11 9.06923 9.06923 11 6.6875 11C4.30577 11 2.375 9.06923 2.375 6.6875C2.375 4.30577 4.30577 2.375 6.6875 2.375C9.06923 2.375 11 4.30577 11 6.6875Z" stroke="black"/>
</g>
<defs>
<filter id="filter0_d_3061_4307" x="0" y="0" width="17" height="17" filterUnits="userSpaceOnUse" color-interpolation-filters="sRGB">
<feFlood flood-opacity="0" result="BackgroundImageFix"/>
<feColorMatrix in="SourceAlpha" type="matrix" values="0 0 0 0 0 0 0 0 0 0 0 0 0 0 0 0 0 0 127 0" result="hardAlpha"/>
<feOffset dx="1" dy="1"/>
<feComposite in2="hardAlpha" operator="out"/>
<feColorMatrix type="matrix" values="0 0 0 0 0 0 0 0 0 0 0 0 0 0 0 0 0 0 1 0"/>
<feBlend mode="normal" in2="BackgroundImageFix" result="effect1_dropShadow_3061_4307"/>
<feBlend mode="normal" in="SourceGraphic" in2="effect1_dropShadow_3061_4307" result="shape"/>
</filter>
</defs>
</svg>
