<svg width="25" height="25" viewBox="0 0 25 25" fill="none" xmlns="http://www.w3.org/2000/svg">
<path fill-rule="evenodd" clip-rule="evenodd" d="M14.8849 15.9456C12.2346 18.0682 8.3552 17.9011 5.89842 15.4444C3.26238 12.8083 3.26238 8.53445 5.89842 5.89842C8.53445 3.26238 12.8083 3.26238 15.4444 5.89842C17.9011 8.3552 18.0682 12.2346 15.9456 14.8849L21.1012 20.0405C21.3941 20.3334 21.3941 20.8083 21.1012 21.1012C20.8083 21.3941 20.3334 21.3941 20.0405 21.1012L14.8849 15.9456ZM6.95908 14.3837C4.90882 12.3334 4.90882 9.00933 6.95908 6.95908C9.00933 4.90882 12.3334 4.90882 14.3837 6.95908C16.4324 9.00782 16.4339 12.3286 14.3882 14.3792C14.3867 14.3807 14.3852 14.3822 14.3837 14.3837C14.3822 14.3852 14.3807 14.3867 14.3792 14.3882C12.3286 16.4339 9.00783 16.4324 6.95908 14.3837Z" fill="#5C5E61"/>
</svg>
