<svg width="24" height="24" viewBox="0 0 24 24" fill="none" xmlns="http://www.w3.org/2000/svg">
<path fill-rule="evenodd" clip-rule="evenodd" d="M2.24017 17.2813C1.98693 17.0268 1.92766 16.6449 2.09247 16.3295L2.89418 14.7952C4.79163 11.164 8.635 8.87518 12.8352 8.87518H13.2294C13.2581 8.27007 13.2953 7.66524 13.3407 7.06085L13.4183 6.03018C13.4813 5.19201 14.4457 4.72347 15.1765 5.17597C17.5738 6.6604 19.6579 8.57314 21.3177 10.8122L21.839 11.5154C22.0537 11.805 22.0537 12.195 21.839 12.4846L21.3177 13.1878C19.6579 15.4269 17.5738 17.3396 15.1765 18.824C14.4457 19.2765 13.4813 18.808 13.4182 17.9698L13.3407 16.9391C13.2864 16.2174 13.244 15.495 13.2136 14.7722C10.7566 14.7035 8.30269 15.184 6.04742 16.1927L3.21635 17.4589C2.88511 17.6071 2.4934 17.5358 2.24017 17.2813ZM4.7753 14.932L5.32904 14.6844C8.08463 13.4519 11.1081 12.9316 14.1082 13.1549C14.5451 13.1874 14.8864 13.5341 14.8994 13.9586C14.9285 14.9125 14.9788 15.866 15.0505 16.8184L15.0567 16.9008C16.9349 15.6143 18.5809 14.0324 19.9254 12.2186L20.0875 12L19.9254 11.7814C18.5809 9.96762 16.9349 8.3857 15.0567 7.09917L15.0505 7.18163C14.9865 8.03175 14.9395 8.88276 14.9095 9.7342C14.8937 10.1816 14.5148 10.5364 14.0528 10.5364L12.8352 10.5364C9.52402 10.5364 6.47491 12.2175 4.7753 14.932Z" fill="#5C5E61"/>
</svg>
