<svg width="40" height="40" viewBox="0 0 40 40" fill="none" xmlns="http://www.w3.org/2000/svg">
<g filter="url(#filter0_ii_156_3785)">
<path d="M16.0827 7.29171C16.4279 6.69385 16.223 5.92936 15.6252 5.58418C15.0273 5.239 14.2628 5.44385 13.9176 6.04171L11.1512 10.8334H9.16683C7.32588 10.8334 5.8335 12.3258 5.8335 14.1667C5.8335 15.36 6.46055 16.4069 7.40314 16.9958C7.49913 17.0557 7.61121 17.0834 7.7244 17.0834H32.2759C32.3891 17.0834 32.5012 17.0557 32.5972 16.9958C33.5398 16.4069 34.1668 15.36 34.1668 14.1667C34.1668 12.3258 32.6744 10.8334 30.8335 10.8334H28.8492L26.0827 6.04171C25.7375 5.44385 24.973 5.239 24.3752 5.58418C23.7773 5.92936 23.5725 6.69385 23.9176 7.29171L25.9624 10.8334H14.0379L16.0827 7.29171Z" fill="#FFC000"/>
<path fill-rule="evenodd" clip-rule="evenodd" d="M32.2248 19.9744C32.2606 19.7703 32.1036 19.5834 31.8965 19.5834H8.10385C7.8967 19.5834 7.73972 19.7703 7.77554 19.9744L9.44306 29.4719C9.78996 31.4477 11.3717 32.9742 13.3585 33.2506C17.7651 33.8638 22.2353 33.8638 26.6418 33.2506C28.6287 32.9742 30.2104 31.4477 30.5573 29.4719L32.2248 19.9744ZM17.9168 23.3334C17.9168 22.643 17.3572 22.0834 16.6668 22.0834C15.9765 22.0834 15.4168 22.643 15.4168 23.3334V26.6667C15.4168 27.3571 15.9765 27.9167 16.6668 27.9167C17.3572 27.9167 17.9168 27.3571 17.9168 26.6667V23.3334ZM23.3335 22.0834C24.0239 22.0834 24.5835 22.643 24.5835 23.3334V26.6667C24.5835 27.3571 24.0239 27.9167 23.3335 27.9167C22.6431 27.9167 22.0835 27.3571 22.0835 26.6667V23.3334C22.0835 22.643 22.6431 22.0834 23.3335 22.0834Z" fill="#FFC000"/>
</g>
<path d="M16.0827 7.29171C16.4279 6.69385 16.223 5.92936 15.6252 5.58418C15.0273 5.239 14.2628 5.44385 13.9176 6.04171L11.1512 10.8334H9.16683C7.32588 10.8334 5.8335 12.3258 5.8335 14.1667C5.8335 15.36 6.46055 16.4069 7.40314 16.9958C7.49913 17.0557 7.61121 17.0834 7.7244 17.0834H32.2759C32.3891 17.0834 32.5012 17.0557 32.5972 16.9958C33.5398 16.4069 34.1668 15.36 34.1668 14.1667C34.1668 12.3258 32.6744 10.8334 30.8335 10.8334H28.8492L26.0827 6.04171C25.7375 5.44385 24.973 5.239 24.3752 5.58418C23.7773 5.92936 23.5725 6.69385 23.9176 7.29171L25.9624 10.8334H14.0379L16.0827 7.29171Z" stroke="black" stroke-width="1.5" stroke-linecap="round"/>
<path fill-rule="evenodd" clip-rule="evenodd" d="M32.2248 19.9744C32.2606 19.7703 32.1036 19.5834 31.8965 19.5834H8.10385C7.8967 19.5834 7.73972 19.7703 7.77554 19.9744L9.44306 29.4719C9.78996 31.4477 11.3717 32.9742 13.3585 33.2506C17.7651 33.8638 22.2353 33.8638 26.6418 33.2506C28.6287 32.9742 30.2104 31.4477 30.5573 29.4719L32.2248 19.9744ZM17.9168 23.3334C17.9168 22.643 17.3572 22.0834 16.6668 22.0834C15.9765 22.0834 15.4168 22.643 15.4168 23.3334V26.6667C15.4168 27.3571 15.9765 27.9167 16.6668 27.9167C17.3572 27.9167 17.9168 27.3571 17.9168 26.6667V23.3334ZM23.3335 22.0834C24.0239 22.0834 24.5835 22.643 24.5835 23.3334V26.6667C24.5835 27.3571 24.0239 27.9167 23.3335 27.9167C22.6431 27.9167 22.0835 27.3571 22.0835 26.6667V23.3334C22.0835 22.643 22.6431 22.0834 23.3335 22.0834Z" stroke="black" stroke-width="1.5" stroke-linecap="round"/>
<defs>
<filter id="filter0_ii_156_3785" x="5.0835" y="4.66626" width="29.8335" height="29.7942" filterUnits="userSpaceOnUse" color-interpolation-filters="sRGB">
<feFlood flood-opacity="0" result="BackgroundImageFix"/>
<feBlend mode="normal" in="SourceGraphic" in2="BackgroundImageFix" result="shape"/>
<feColorMatrix in="SourceAlpha" type="matrix" values="0 0 0 0 0 0 0 0 0 0 0 0 0 0 0 0 0 0 127 0" result="hardAlpha"/>
<feOffset dx="2" dy="2"/>
<feComposite in2="hardAlpha" operator="arithmetic" k2="-1" k3="1"/>
<feColorMatrix type="matrix" values="0 0 0 0 1 0 0 0 0 1 0 0 0 0 1 0 0 0 1 0"/>
<feBlend mode="normal" in2="shape" result="effect1_innerShadow_156_3785"/>
<feColorMatrix in="SourceAlpha" type="matrix" values="0 0 0 0 0 0 0 0 0 0 0 0 0 0 0 0 0 0 127 0" result="hardAlpha"/>
<feOffset dx="-2" dy="-2"/>
<feComposite in2="hardAlpha" operator="arithmetic" k2="-1" k3="1"/>
<feColorMatrix type="matrix" values="0 0 0 0 0 0 0 0 0 0 0 0 0 0 0 0 0 0 1 0"/>
<feBlend mode="normal" in2="effect1_innerShadow_156_3785" result="effect2_innerShadow_156_3785"/>
</filter>
</defs>
</svg>
