<svg width="25" height="25" viewBox="0 0 25 25" fill="none" xmlns="http://www.w3.org/2000/svg">
<path d="M20.5 7.90625V13.8125H19.1875V7.90625H16.5625C15.4752 7.90625 14.5938 7.02481 14.5938 5.9375V3.3125H7.375C6.65013 3.3125 6.0625 3.90013 6.0625 4.625V13.8125H4.75V4.625C4.75 3.17525 5.92525 2 7.375 2H14.5938L20.5 7.90625Z" fill="#5C5E61"/>
<path d="M19.1875 17.75H20.5V20.375C20.5 21.8247 19.3247 23 17.875 23H7.375C5.92525 23 4.75 21.8247 4.75 20.375V17.75H6.0625V20.375C6.0625 21.0999 6.65013 21.6875 7.375 21.6875H17.875C18.5999 21.6875 19.1875 21.0999 19.1875 20.375V17.75Z" fill="#5C5E61"/>
<path d="M2.78125 15.125C2.41881 15.125 2.125 15.4188 2.125 15.7812C2.125 16.1437 2.41881 16.4375 2.78125 16.4375H22.4688C22.8312 16.4375 23.125 16.1437 23.125 15.7812C23.125 15.4188 22.8312 15.125 22.4688 15.125H2.78125Z" fill="#5C5E61"/>
</svg>
