<svg width="18" height="17" viewBox="0 0 18 17" fill="none" xmlns="http://www.w3.org/2000/svg">
<g filter="url(#filter0_d_97_1699)">
<path d="M2.75039 3.69995C2.00481 3.69995 1.40039 4.34466 1.40039 5.13995V6.57995C1.40039 6.84505 1.60186 7.05995 1.85039 7.05995C2.59598 7.05995 3.20039 7.70466 3.20039 8.49995C3.20039 9.29524 2.59597 9.93995 1.85039 9.93995C1.60186 9.93995 1.40039 10.1549 1.40039 10.42V11.86C1.40039 12.6552 2.00481 13.3 2.75039 13.3H14.4504C15.196 13.3 15.8004 12.6552 15.8004 11.86V10.42C15.8004 10.1549 15.5989 9.93995 15.3504 9.93995C14.6048 9.93995 14.0004 9.29524 14.0004 8.49995C14.0004 7.70466 14.6048 7.05995 15.3504 7.05995C15.5989 7.05995 15.8004 6.84505 15.8004 6.57995V5.13995C15.8004 4.34466 15.196 3.69995 14.4504 3.69995H2.75039Z" fill="#FFCF01"/>
<path d="M2.75039 3.69995C2.00481 3.69995 1.40039 4.34466 1.40039 5.13995V6.57995C1.40039 6.84505 1.60186 7.05995 1.85039 7.05995C2.59598 7.05995 3.20039 7.70466 3.20039 8.49995C3.20039 9.29524 2.59597 9.93995 1.85039 9.93995C1.60186 9.93995 1.40039 10.1549 1.40039 10.42V11.86C1.40039 12.6552 2.00481 13.3 2.75039 13.3H14.4504C15.196 13.3 15.8004 12.6552 15.8004 11.86V10.42C15.8004 10.1549 15.5989 9.93995 15.3504 9.93995C14.6048 9.93995 14.0004 9.29524 14.0004 8.49995C14.0004 7.70466 14.6048 7.05995 15.3504 7.05995C15.5989 7.05995 15.8004 6.84505 15.8004 6.57995V5.13995C15.8004 4.34466 15.196 3.69995 14.4504 3.69995H2.75039Z" stroke="black"/>
</g>
<defs>
<filter id="filter0_d_97_1699" x="0.900391" y="3.19995" width="16.4004" height="11.6001" filterUnits="userSpaceOnUse" color-interpolation-filters="sRGB">
<feFlood flood-opacity="0" result="BackgroundImageFix"/>
<feColorMatrix in="SourceAlpha" type="matrix" values="0 0 0 0 0 0 0 0 0 0 0 0 0 0 0 0 0 0 127 0" result="hardAlpha"/>
<feOffset dx="1" dy="1"/>
<feComposite in2="hardAlpha" operator="out"/>
<feColorMatrix type="matrix" values="0 0 0 0 0 0 0 0 0 0 0 0 0 0 0 0 0 0 1 0"/>
<feBlend mode="normal" in2="BackgroundImageFix" result="effect1_dropShadow_97_1699"/>
<feBlend mode="normal" in="SourceGraphic" in2="effect1_dropShadow_97_1699" result="shape"/>
</filter>
</defs>
</svg>
