<svg width="25" height="26" viewBox="0 0 25 26" fill="none" xmlns="http://www.w3.org/2000/svg">
<g filter="url(#filter0_d_89_689)">
<mask id="path-1-outside-1_89_689" maskUnits="userSpaceOnUse" x="0.875" y="0.25" width="23" height="25" fill="black">
<rect fill="white" x="0.875" y="0.25" width="23" height="25"/>
<path d="M3.25486 1.25969C3.49283 1.22108 3.73486 1.29921 3.90533 1.46968L4.875 2.43935L5.84467 1.46968C6.13756 1.17679 6.61244 1.17679 6.90533 1.46968L7.875 2.43935L8.84467 1.46968C9.13756 1.17679 9.61244 1.17679 9.90533 1.46968L10.875 2.43935L11.8447 1.46968C12.1376 1.17679 12.6124 1.17679 12.9053 1.46968L13.875 2.43935L14.8447 1.46968C15.1376 1.17679 15.6124 1.17679 15.9053 1.46968L16.875 2.43935L17.8447 1.46968C18.1376 1.17679 18.6124 1.17679 18.9053 1.46968L19.875 2.43935L20.8447 1.46968C21.0151 1.29921 21.2572 1.22108 21.4951 1.25969C21.7331 1.29831 21.938 1.44897 22.0458 1.6646L22.7958 3.1646C22.8479 3.26874 22.875 3.38358 22.875 3.50001V21.5C22.875 21.6164 22.8479 21.7313 22.7958 21.8354L22.0458 23.3354C21.938 23.5511 21.7331 23.7017 21.4951 23.7403C21.2572 23.7789 21.0151 23.7008 20.8447 23.5303L19.875 22.5607L18.9053 23.5303C18.6124 23.8232 18.1376 23.8232 17.8447 23.5303L16.875 22.5607L15.9053 23.5303C15.6124 23.8232 15.1376 23.8232 14.8447 23.5303L13.875 22.5607L12.9053 23.5303C12.6124 23.8232 12.1376 23.8232 11.8447 23.5303L10.875 22.5607L9.90533 23.5303C9.61244 23.8232 9.13756 23.8232 8.84467 23.5303L7.875 22.5607L6.90533 23.5303C6.61244 23.8232 6.13756 23.8232 5.84467 23.5303L4.875 22.5607L3.90533 23.5303C3.73486 23.7008 3.49283 23.7789 3.25486 23.7403C3.01689 23.7017 2.812 23.5511 2.70418 23.3354L1.95418 21.8354C1.90211 21.7313 1.875 21.6164 1.875 21.5V3.50001C1.875 3.38358 1.90211 3.26874 1.95418 3.1646L2.70418 1.6646C2.812 1.44897 3.01689 1.29831 3.25486 1.25969ZM3.58046 3.26613L3.375 3.67706V21.323L3.58046 21.7339L4.34467 20.9697C4.63756 20.6768 5.11244 20.6768 5.40533 20.9697L6.375 21.9393L7.34467 20.9697C7.63756 20.6768 8.11244 20.6768 8.40533 20.9697L9.375 21.9393L10.3447 20.9697C10.6376 20.6768 11.1124 20.6768 11.4053 20.9697L12.375 21.9393L13.3447 20.9697C13.6376 20.6768 14.1124 20.6768 14.4053 20.9697L15.375 21.9393L16.3447 20.9697C16.6376 20.6768 17.1124 20.6768 17.4053 20.9697L18.375 21.9393L19.3447 20.9697C19.6376 20.6768 20.1124 20.6768 20.4053 20.9697L21.1695 21.7339L21.375 21.323V3.67706L21.1695 3.26613L20.4053 4.03034C20.1124 4.32323 19.6376 4.32323 19.3447 4.03034L18.375 3.06067L17.4053 4.03034C17.1124 4.32323 16.6376 4.32323 16.3447 4.03034L15.375 3.06067L14.4053 4.03034C14.1124 4.32323 13.6376 4.32323 13.3447 4.03034L12.375 3.06067L11.4053 4.03034C11.1124 4.32323 10.6376 4.32323 10.3447 4.03034L9.375 3.06067L8.40533 4.03034C8.11244 4.32323 7.63756 4.32323 7.34467 4.03034L6.375 3.06067L5.40533 4.03034C5.11244 4.32323 4.63756 4.32323 4.34467 4.03034L3.58046 3.26613Z"/>
<path d="M4.875 7.25001C4.875 6.8358 5.21079 6.50001 5.625 6.50001H14.625C15.0392 6.50001 15.375 6.8358 15.375 7.25001C15.375 7.66422 15.0392 8.00001 14.625 8.00001H5.625C5.21079 8.00001 4.875 7.66422 4.875 7.25001ZM4.875 10.25C4.875 9.8358 5.21079 9.50001 5.625 9.50001H14.625C15.0392 9.50001 15.375 9.8358 15.375 10.25C15.375 10.6642 15.0392 11 14.625 11H5.625C5.21079 11 4.875 10.6642 4.875 10.25ZM4.875 13.25C4.875 12.8358 5.21079 12.5 5.625 12.5H14.625C15.0392 12.5 15.375 12.8358 15.375 13.25C15.375 13.6642 15.0392 14 14.625 14H5.625C5.21079 14 4.875 13.6642 4.875 13.25ZM4.875 16.25C4.875 15.8358 5.21079 15.5 5.625 15.5H14.625C15.0392 15.5 15.375 15.8358 15.375 16.25C15.375 16.6642 15.0392 17 14.625 17H5.625C5.21079 17 4.875 16.6642 4.875 16.25Z"/>
<path d="M16.875 7.25001C16.875 6.8358 17.2108 6.50001 17.625 6.50001H19.125C19.5392 6.50001 19.875 6.8358 19.875 7.25001C19.875 7.66422 19.5392 8.00001 19.125 8.00001H17.625C17.2108 8.00001 16.875 7.66422 16.875 7.25001ZM16.875 10.25C16.875 9.8358 17.2108 9.50001 17.625 9.50001H19.125C19.5392 9.50001 19.875 9.8358 19.875 10.25C19.875 10.6642 19.5392 11 19.125 11H17.625C17.2108 11 16.875 10.6642 16.875 10.25ZM16.875 13.25C16.875 12.8358 17.2108 12.5 17.625 12.5H19.125C19.5392 12.5 19.875 12.8358 19.875 13.25C19.875 13.6642 19.5392 14 19.125 14H17.625C17.2108 14 16.875 13.6642 16.875 13.25ZM16.875 16.25C16.875 15.8358 17.2108 15.5 17.625 15.5H19.125C19.5392 15.5 19.875 15.8358 19.875 16.25C19.875 16.6642 19.5392 17 19.125 17H17.625C17.2108 17 16.875 16.6642 16.875 16.25Z"/>
</mask>
<path d="M3.25486 1.25969C3.49283 1.22108 3.73486 1.29921 3.90533 1.46968L4.875 2.43935L5.84467 1.46968C6.13756 1.17679 6.61244 1.17679 6.90533 1.46968L7.875 2.43935L8.84467 1.46968C9.13756 1.17679 9.61244 1.17679 9.90533 1.46968L10.875 2.43935L11.8447 1.46968C12.1376 1.17679 12.6124 1.17679 12.9053 1.46968L13.875 2.43935L14.8447 1.46968C15.1376 1.17679 15.6124 1.17679 15.9053 1.46968L16.875 2.43935L17.8447 1.46968C18.1376 1.17679 18.6124 1.17679 18.9053 1.46968L19.875 2.43935L20.8447 1.46968C21.0151 1.29921 21.2572 1.22108 21.4951 1.25969C21.7331 1.29831 21.938 1.44897 22.0458 1.6646L22.7958 3.1646C22.8479 3.26874 22.875 3.38358 22.875 3.50001V21.5C22.875 21.6164 22.8479 21.7313 22.7958 21.8354L22.0458 23.3354C21.938 23.5511 21.7331 23.7017 21.4951 23.7403C21.2572 23.7789 21.0151 23.7008 20.8447 23.5303L19.875 22.5607L18.9053 23.5303C18.6124 23.8232 18.1376 23.8232 17.8447 23.5303L16.875 22.5607L15.9053 23.5303C15.6124 23.8232 15.1376 23.8232 14.8447 23.5303L13.875 22.5607L12.9053 23.5303C12.6124 23.8232 12.1376 23.8232 11.8447 23.5303L10.875 22.5607L9.90533 23.5303C9.61244 23.8232 9.13756 23.8232 8.84467 23.5303L7.875 22.5607L6.90533 23.5303C6.61244 23.8232 6.13756 23.8232 5.84467 23.5303L4.875 22.5607L3.90533 23.5303C3.73486 23.7008 3.49283 23.7789 3.25486 23.7403C3.01689 23.7017 2.812 23.5511 2.70418 23.3354L1.95418 21.8354C1.90211 21.7313 1.875 21.6164 1.875 21.5V3.50001C1.875 3.38358 1.90211 3.26874 1.95418 3.1646L2.70418 1.6646C2.812 1.44897 3.01689 1.29831 3.25486 1.25969ZM3.58046 3.26613L3.375 3.67706V21.323L3.58046 21.7339L4.34467 20.9697C4.63756 20.6768 5.11244 20.6768 5.40533 20.9697L6.375 21.9393L7.34467 20.9697C7.63756 20.6768 8.11244 20.6768 8.40533 20.9697L9.375 21.9393L10.3447 20.9697C10.6376 20.6768 11.1124 20.6768 11.4053 20.9697L12.375 21.9393L13.3447 20.9697C13.6376 20.6768 14.1124 20.6768 14.4053 20.9697L15.375 21.9393L16.3447 20.9697C16.6376 20.6768 17.1124 20.6768 17.4053 20.9697L18.375 21.9393L19.3447 20.9697C19.6376 20.6768 20.1124 20.6768 20.4053 20.9697L21.1695 21.7339L21.375 21.323V3.67706L21.1695 3.26613L20.4053 4.03034C20.1124 4.32323 19.6376 4.32323 19.3447 4.03034L18.375 3.06067L17.4053 4.03034C17.1124 4.32323 16.6376 4.32323 16.3447 4.03034L15.375 3.06067L14.4053 4.03034C14.1124 4.32323 13.6376 4.32323 13.3447 4.03034L12.375 3.06067L11.4053 4.03034C11.1124 4.32323 10.6376 4.32323 10.3447 4.03034L9.375 3.06067L8.40533 4.03034C8.11244 4.32323 7.63756 4.32323 7.34467 4.03034L6.375 3.06067L5.40533 4.03034C5.11244 4.32323 4.63756 4.32323 4.34467 4.03034L3.58046 3.26613Z" fill="#FFCF01"/>
<path d="M4.875 7.25001C4.875 6.8358 5.21079 6.50001 5.625 6.50001H14.625C15.0392 6.50001 15.375 6.8358 15.375 7.25001C15.375 7.66422 15.0392 8.00001 14.625 8.00001H5.625C5.21079 8.00001 4.875 7.66422 4.875 7.25001ZM4.875 10.25C4.875 9.8358 5.21079 9.50001 5.625 9.50001H14.625C15.0392 9.50001 15.375 9.8358 15.375 10.25C15.375 10.6642 15.0392 11 14.625 11H5.625C5.21079 11 4.875 10.6642 4.875 10.25ZM4.875 13.25C4.875 12.8358 5.21079 12.5 5.625 12.5H14.625C15.0392 12.5 15.375 12.8358 15.375 13.25C15.375 13.6642 15.0392 14 14.625 14H5.625C5.21079 14 4.875 13.6642 4.875 13.25ZM4.875 16.25C4.875 15.8358 5.21079 15.5 5.625 15.5H14.625C15.0392 15.5 15.375 15.8358 15.375 16.25C15.375 16.6642 15.0392 17 14.625 17H5.625C5.21079 17 4.875 16.6642 4.875 16.25Z" fill="#FFCF01"/>
<path d="M16.875 7.25001C16.875 6.8358 17.2108 6.50001 17.625 6.50001H19.125C19.5392 6.50001 19.875 6.8358 19.875 7.25001C19.875 7.66422 19.5392 8.00001 19.125 8.00001H17.625C17.2108 8.00001 16.875 7.66422 16.875 7.25001ZM16.875 10.25C16.875 9.8358 17.2108 9.50001 17.625 9.50001H19.125C19.5392 9.50001 19.875 9.8358 19.875 10.25C19.875 10.6642 19.5392 11 19.125 11H17.625C17.2108 11 16.875 10.6642 16.875 10.25ZM16.875 13.25C16.875 12.8358 17.2108 12.5 17.625 12.5H19.125C19.5392 12.5 19.875 12.8358 19.875 13.25C19.875 13.6642 19.5392 14 19.125 14H17.625C17.2108 14 16.875 13.6642 16.875 13.25ZM16.875 16.25C16.875 15.8358 17.2108 15.5 17.625 15.5H19.125C19.5392 15.5 19.875 15.8358 19.875 16.25C19.875 16.6642 19.5392 17 19.125 17H17.625C17.2108 17 16.875 16.6642 16.875 16.25Z" fill="#FFCF01"/>
<path d="M3.90533 1.46968L4.61244 0.762572L4.61244 0.762572L3.90533 1.46968ZM4.875 2.43935L4.16789 3.14646C4.55842 3.53698 5.19158 3.53698 5.58211 3.14646L4.875 2.43935ZM5.84467 1.46968L6.55178 2.17679L6.55178 2.17679L5.84467 1.46968ZM6.90533 1.46968L6.19822 2.17679L6.19822 2.17679L6.90533 1.46968ZM7.875 2.43935L7.16789 3.14646C7.55842 3.53698 8.19158 3.53698 8.58211 3.14646L7.875 2.43935ZM8.84467 1.46968L9.55178 2.17679L9.55178 2.17679L8.84467 1.46968ZM9.90533 1.46968L9.19822 2.17679L9.19822 2.17679L9.90533 1.46968ZM10.875 2.43935L10.1679 3.14646C10.5584 3.53698 11.1916 3.53698 11.5821 3.14646L10.875 2.43935ZM11.8447 1.46968L12.5518 2.17679V2.17679L11.8447 1.46968ZM12.9053 1.46968L12.1982 2.17679V2.17679L12.9053 1.46968ZM13.875 2.43935L13.1679 3.14646C13.3554 3.33399 13.6098 3.43935 13.875 3.43935C14.1402 3.43935 14.3946 3.33399 14.5821 3.14646L13.875 2.43935ZM14.8447 1.46968L14.1376 0.762571L14.1376 0.762572L14.8447 1.46968ZM15.9053 1.46968L16.6124 0.762572L16.6124 0.762571L15.9053 1.46968ZM16.875 2.43935L16.1679 3.14646C16.5584 3.53698 17.1916 3.53698 17.5821 3.14646L16.875 2.43935ZM17.8447 1.46968L17.1376 0.762571L17.1376 0.762572L17.8447 1.46968ZM18.9053 1.46968L19.6124 0.762572L19.6124 0.762571L18.9053 1.46968ZM19.875 2.43935L19.1679 3.14646C19.5584 3.53698 20.1916 3.53698 20.5821 3.14646L19.875 2.43935ZM20.8447 1.46968L20.1376 0.762572V0.762572L20.8447 1.46968ZM21.4951 1.25969L21.6553 0.272606L21.6553 0.272606L21.4951 1.25969ZM22.0458 1.6646L21.1514 2.11181V2.11181L22.0458 1.6646ZM22.7958 3.1646L21.9014 3.61181L21.9014 3.61182L22.7958 3.1646ZM22.7958 21.8354L21.9014 21.3882L21.9014 21.3882L22.7958 21.8354ZM22.0458 23.3354L21.1514 22.8882V22.8882L22.0458 23.3354ZM21.4951 23.7403L21.6553 24.7274L21.4951 23.7403ZM19.875 22.5607L20.5821 21.8536C20.1916 21.463 19.5584 21.463 19.1679 21.8536L19.875 22.5607ZM18.9053 23.5303L19.6124 24.2374L19.6124 24.2374L18.9053 23.5303ZM17.8447 23.5303L17.1376 24.2374L17.1376 24.2374L17.8447 23.5303ZM16.875 22.5607L17.5821 21.8536C17.1916 21.463 16.5584 21.463 16.1679 21.8536L16.875 22.5607ZM15.9053 23.5303L16.6124 24.2374L16.6124 24.2374L15.9053 23.5303ZM14.8447 23.5303L14.1376 24.2374L14.1376 24.2374L14.8447 23.5303ZM13.875 22.5607L14.5821 21.8536C14.1916 21.463 13.5584 21.463 13.1679 21.8536L13.875 22.5607ZM12.9053 23.5303L12.1982 22.8232L12.9053 23.5303ZM11.8447 23.5303L12.5518 22.8232L11.8447 23.5303ZM10.875 22.5607L11.5821 21.8536C11.1916 21.463 10.5584 21.463 10.1679 21.8536L10.875 22.5607ZM9.90533 23.5303L9.19822 22.8232H9.19822L9.90533 23.5303ZM8.84467 23.5303L9.55178 22.8232H9.55178L8.84467 23.5303ZM7.875 22.5607L8.58211 21.8536C8.19158 21.463 7.55842 21.463 7.16789 21.8536L7.875 22.5607ZM6.90533 23.5303L6.19822 22.8232H6.19822L6.90533 23.5303ZM5.84467 23.5303L6.55178 22.8232H6.55178L5.84467 23.5303ZM4.875 22.5607L5.58211 21.8536C5.19158 21.463 4.55842 21.463 4.16789 21.8536L4.875 22.5607ZM3.90533 23.5303L3.19822 22.8232H3.19822L3.90533 23.5303ZM2.70418 23.3354L3.59861 22.8882H3.59861L2.70418 23.3354ZM1.95418 21.8354L1.05975 22.2826L1.05975 22.2826L1.95418 21.8354ZM3.375 3.67706L2.48057 3.22985C2.41115 3.3687 2.375 3.52182 2.375 3.67706H3.375ZM3.58046 3.26613L4.28757 2.55903C4.06028 2.33173 3.73757 2.22756 3.42028 2.27905C3.10299 2.33053 2.82979 2.53141 2.68604 2.81892L3.58046 3.26613ZM3.375 21.323H2.375C2.375 21.4782 2.41115 21.6313 2.48057 21.7702L3.375 21.323ZM3.58046 21.7339L2.68604 22.1811C2.82979 22.4686 3.10299 22.6695 3.42028 22.721C3.73757 22.7725 4.06028 22.6683 4.28757 22.441L3.58046 21.7339ZM4.34467 20.9697L3.63756 20.2626H3.63756L4.34467 20.9697ZM5.40533 20.9697L6.11244 20.2626L5.40533 20.9697ZM6.375 21.9393L5.66789 22.6465C6.05842 23.037 6.69158 23.037 7.08211 22.6465L6.375 21.9393ZM7.34467 20.9697L8.05178 21.6768H8.05178L7.34467 20.9697ZM8.40533 20.9697L7.69822 21.6768H7.69822L8.40533 20.9697ZM9.375 21.9393L8.66789 22.6465C9.05842 23.037 9.69158 23.037 10.0821 22.6465L9.375 21.9393ZM10.3447 20.9697L11.0518 21.6768L10.3447 20.9697ZM11.4053 20.9697L10.6982 21.6768L11.4053 20.9697ZM12.375 21.9393L11.6679 22.6465C12.0584 23.037 12.6916 23.037 13.0821 22.6465L12.375 21.9393ZM13.3447 20.9697L14.0518 21.6768L13.3447 20.9697ZM15.375 21.9393L14.6679 22.6465C15.0584 23.037 15.6916 23.037 16.0821 22.6465L15.375 21.9393ZM16.3447 20.9697L15.6376 20.2626L15.6376 20.2626L16.3447 20.9697ZM17.4053 20.9697L18.1124 20.2626L18.1124 20.2626L17.4053 20.9697ZM18.375 21.9393L17.6679 22.6465C18.0584 23.037 18.6916 23.037 19.0821 22.6465L18.375 21.9393ZM19.3447 20.9697L18.6376 20.2626L18.6376 20.2626L19.3447 20.9697ZM20.4053 20.9697L21.1124 20.2626L21.1124 20.2626L20.4053 20.9697ZM21.1695 21.7339L20.4624 22.441C20.6897 22.6683 21.0124 22.7725 21.3297 22.721C21.647 22.6695 21.9202 22.4686 22.064 22.1811L21.1695 21.7339ZM21.375 21.323L22.2694 21.7702C22.3389 21.6313 22.375 21.4782 22.375 21.323H21.375ZM21.375 3.67706H22.375C22.375 3.52181 22.3389 3.3687 22.2694 3.22985L21.375 3.67706ZM21.1695 3.26613L22.064 2.81892C21.9202 2.53141 21.647 2.33053 21.3297 2.27905C21.0124 2.22756 20.6897 2.33173 20.4624 2.55903L21.1695 3.26613ZM20.4053 4.03034L21.1124 4.73745L21.1124 4.73745L20.4053 4.03034ZM19.3447 4.03034L18.6376 4.73745L18.6376 4.73745L19.3447 4.03034ZM18.375 3.06067L19.0821 2.35356C18.6916 1.96304 18.0584 1.96304 17.6679 2.35356L18.375 3.06067ZM17.4053 4.03034L18.1124 4.73745L18.1124 4.73745L17.4053 4.03034ZM16.3447 4.03034L15.6376 4.73745L15.6376 4.73745L16.3447 4.03034ZM15.375 3.06067L16.0821 2.35356C15.8946 2.16603 15.6402 2.06067 15.375 2.06067C15.1098 2.06067 14.8554 2.16603 14.6679 2.35356L15.375 3.06067ZM14.4053 4.03034L13.6982 3.32323V3.32323L14.4053 4.03034ZM13.3447 4.03034L14.0518 3.32323V3.32323L13.3447 4.03034ZM12.375 3.06067L13.0821 2.35356C12.6916 1.96304 12.0584 1.96304 11.6679 2.35356L12.375 3.06067ZM11.4053 4.03034L10.6982 3.32323V3.32323L11.4053 4.03034ZM10.3447 4.03034L11.0518 3.32323V3.32323L10.3447 4.03034ZM9.375 3.06067L10.0821 2.35356C9.69158 1.96304 9.05842 1.96304 8.66789 2.35356L9.375 3.06067ZM8.40533 4.03034L7.69822 3.32323V3.32323L8.40533 4.03034ZM7.34467 4.03034L8.05178 3.32323V3.32323L7.34467 4.03034ZM6.375 3.06067L7.08211 2.35356C6.69158 1.96304 6.05842 1.96304 5.66789 2.35356L6.375 3.06067ZM5.40533 4.03034L6.11244 4.73745L6.11244 4.73745L5.40533 4.03034ZM4.34467 4.03034L3.63756 4.73745L3.63756 4.73745L4.34467 4.03034ZM4.61244 0.762572C4.21467 0.364806 3.64994 0.182499 3.09468 0.272606L3.41505 2.24678C3.33572 2.25965 3.25505 2.23361 3.19822 2.17679L4.61244 0.762572ZM5.58211 1.73224L4.61244 0.762572L3.19822 2.17679L4.16789 3.14646L5.58211 1.73224ZM5.13756 0.762572L4.16789 1.73224L5.58211 3.14646L6.55178 2.17679L5.13756 0.762572ZM7.61244 0.762573C6.92902 0.0791545 5.82098 0.0791545 5.13756 0.762573L6.55178 2.17679C6.45415 2.27442 6.29585 2.27442 6.19822 2.17679L7.61244 0.762573ZM8.58211 1.73224L7.61244 0.762572L6.19822 2.17679L7.16789 3.14646L8.58211 1.73224ZM8.13756 0.762572L7.16789 1.73224L8.58211 3.14646L9.55178 2.17679L8.13756 0.762572ZM10.6124 0.762573C9.92902 0.0791545 8.82098 0.0791545 8.13756 0.762573L9.55178 2.17679C9.45415 2.27442 9.29585 2.27442 9.19822 2.17679L10.6124 0.762573ZM11.5821 1.73224L10.6124 0.762572L9.19822 2.17679L10.1679 3.14646L11.5821 1.73224ZM11.1376 0.762572L10.1679 1.73224L11.5821 3.14646L12.5518 2.17679L11.1376 0.762572ZM13.6124 0.762573C12.929 0.0791545 11.821 0.0791545 11.1376 0.762573L12.5518 2.17679C12.4541 2.27442 12.2959 2.27442 12.1982 2.17679L13.6124 0.762573ZM14.5821 1.73224L13.6124 0.762572L12.1982 2.17679L13.1679 3.14646L14.5821 1.73224ZM14.1376 0.762572L13.1679 1.73224L14.5821 3.14646L15.5518 2.17679L14.1376 0.762572ZM16.6124 0.762571C15.929 0.0791551 14.821 0.0791551 14.1376 0.762571L15.5518 2.17679C15.4541 2.27442 15.2959 2.27442 15.1982 2.17679L16.6124 0.762571ZM17.5821 1.73224L16.6124 0.762572L15.1982 2.17679L16.1679 3.14646L17.5821 1.73224ZM17.1376 0.762572L16.1679 1.73224L17.5821 3.14646L18.5518 2.17679L17.1376 0.762572ZM19.6124 0.762571C18.929 0.0791551 17.821 0.0791551 17.1376 0.762571L18.5518 2.17679C18.4541 2.27442 18.2959 2.27442 18.1982 2.17679L19.6124 0.762571ZM20.5821 1.73224L19.6124 0.762572L18.1982 2.17679L19.1679 3.14646L20.5821 1.73224ZM20.1376 0.762572L19.1679 1.73224L20.5821 3.14646L21.5518 2.17679L20.1376 0.762572ZM21.6553 0.272606C21.1001 0.1825 20.5353 0.364806 20.1376 0.762572L21.5518 2.17679C21.495 2.23361 21.4143 2.25965 21.335 2.24678L21.6553 0.272606ZM22.9402 1.21739C22.6887 0.714246 22.2106 0.362713 21.6553 0.272606L21.335 2.24678C21.2556 2.23391 21.1873 2.18369 21.1514 2.11181L22.9402 1.21739ZM23.6902 2.71739L22.9402 1.21739L21.1514 2.11181L21.9014 3.61181L23.6902 2.71739ZM23.875 3.50001C23.875 3.22833 23.8117 2.96038 23.6902 2.71738L21.9014 3.61182C21.884 3.5771 21.875 3.53882 21.875 3.50001H23.875ZM23.875 21.5V3.50001H21.875V21.5H23.875ZM23.6902 22.2826C23.8117 22.0396 23.875 21.7717 23.875 21.5H21.875C21.875 21.4612 21.884 21.4229 21.9014 21.3882L23.6902 22.2826ZM22.9402 23.7826L23.6902 22.2826L21.9014 21.3882L21.1514 22.8882L22.9402 23.7826ZM21.6553 24.7274C22.2106 24.6373 22.6887 24.2858 22.9402 23.7826L21.1514 22.8882C21.1873 22.8163 21.2556 22.7661 21.335 22.7532L21.6553 24.7274ZM20.1376 24.2374C20.5353 24.6352 21.1001 24.8175 21.6553 24.7274L21.335 22.7532C21.4143 22.7404 21.4949 22.7664 21.5518 22.8232L20.1376 24.2374ZM19.1679 23.2678L20.1376 24.2374L21.5518 22.8232L20.5821 21.8536L19.1679 23.2678ZM19.6124 24.2374L20.5821 23.2678L19.1679 21.8536L18.1982 22.8232L19.6124 24.2374ZM17.1376 24.2374C17.821 24.9209 18.929 24.9209 19.6124 24.2374L18.1982 22.8232C18.2959 22.7256 18.4541 22.7256 18.5518 22.8232L17.1376 24.2374ZM16.1679 23.2678L17.1376 24.2374L18.5518 22.8232L17.5821 21.8536L16.1679 23.2678ZM16.6124 24.2374L17.5821 23.2678L16.1679 21.8536L15.1982 22.8232L16.6124 24.2374ZM14.1376 24.2374C14.821 24.9209 15.929 24.9209 16.6124 24.2374L15.1982 22.8232C15.2959 22.7256 15.4541 22.7256 15.5518 22.8232L14.1376 24.2374ZM13.1679 23.2678L14.1376 24.2374L15.5518 22.8232L14.5821 21.8536L13.1679 23.2678ZM13.6124 24.2374L14.5821 23.2678L13.1679 21.8536L12.1982 22.8232L13.6124 24.2374ZM11.1376 24.2374C11.821 24.9209 12.929 24.9209 13.6124 24.2374L12.1982 22.8232C12.2959 22.7256 12.4541 22.7256 12.5518 22.8232L11.1376 24.2374ZM10.1679 23.2678L11.1376 24.2374L12.5518 22.8232L11.5821 21.8536L10.1679 23.2678ZM10.6124 24.2374L11.5821 23.2678L10.1679 21.8536L9.19822 22.8232L10.6124 24.2374ZM8.13756 24.2374C8.82098 24.9209 9.92902 24.9209 10.6124 24.2374L9.19822 22.8232C9.29585 22.7256 9.45415 22.7256 9.55178 22.8232L8.13756 24.2374ZM7.16789 23.2678L8.13756 24.2374L9.55178 22.8232L8.58211 21.8536L7.16789 23.2678ZM7.61244 24.2374L8.58211 23.2678L7.16789 21.8536L6.19822 22.8232L7.61244 24.2374ZM5.13756 24.2374C5.82098 24.9209 6.92902 24.9209 7.61244 24.2374L6.19822 22.8232C6.29585 22.7256 6.45415 22.7256 6.55178 22.8232L5.13756 24.2374ZM4.16789 23.2678L5.13756 24.2374L6.55178 22.8232L5.58211 21.8536L4.16789 23.2678ZM4.61244 24.2374L5.58211 23.2678L4.16789 21.8536L3.19822 22.8232L4.61244 24.2374ZM3.09468 24.7274C3.64994 24.8175 4.21467 24.6352 4.61244 24.2374L3.19822 22.8232C3.25505 22.7664 3.33573 22.7404 3.41504 22.7532L3.09468 24.7274ZM1.80975 23.7826C2.06132 24.2858 2.53942 24.6373 3.09468 24.7274L3.41504 22.7532C3.49437 22.7661 3.56267 22.8163 3.59861 22.8882L1.80975 23.7826ZM1.05975 22.2826L1.80975 23.7826L3.59861 22.8882L2.84861 21.3882L1.05975 22.2826ZM0.875 21.5C0.875 21.7717 0.938255 22.0396 1.05975 22.2826L2.84861 21.3882C2.86596 21.4229 2.875 21.4612 2.875 21.5H0.875ZM0.875 3.50001V21.5H2.875V3.50001H0.875ZM1.05975 2.71739C0.938254 2.96038 0.875 3.22833 0.875 3.50001H2.875C2.875 3.53882 2.86596 3.5771 2.84861 3.61181L1.05975 2.71739ZM1.80975 1.21739L1.05975 2.71739L2.84861 3.61181L3.59861 2.11181L1.80975 1.21739ZM3.09468 0.272606C2.53942 0.362713 2.06132 0.714247 1.80975 1.21739L3.59861 2.11181C3.56267 2.18369 3.49437 2.23391 3.41505 2.24678L3.09468 0.272606ZM4.26943 4.12427L4.47489 3.71335L2.68604 2.81892L2.48057 3.22985L4.26943 4.12427ZM4.375 21.323V3.67706H2.375V21.323H4.375ZM4.47489 21.2867L4.26943 20.8757L2.48057 21.7702L2.68604 22.1811L4.47489 21.2867ZM3.63756 20.2626L2.87336 21.0268L4.28757 22.441L5.05178 21.6768L3.63756 20.2626ZM6.11244 20.2626C5.42902 19.5792 4.32098 19.5792 3.63756 20.2626L5.05178 21.6768C4.95415 21.7744 4.79585 21.7744 4.69822 21.6768L6.11244 20.2626ZM7.08211 21.2322L6.11244 20.2626L4.69822 21.6768L5.66789 22.6465L7.08211 21.2322ZM6.63756 20.2626L5.66789 21.2322L7.08211 22.6465L8.05178 21.6768L6.63756 20.2626ZM9.11244 20.2626C8.42902 19.5792 7.32098 19.5792 6.63756 20.2626L8.05178 21.6768C7.95415 21.7744 7.79585 21.7744 7.69822 21.6768L9.11244 20.2626ZM10.0821 21.2322L9.11244 20.2626L7.69822 21.6768L8.66789 22.6465L10.0821 21.2322ZM9.63756 20.2626L8.66789 21.2322L10.0821 22.6465L11.0518 21.6768L9.63756 20.2626ZM12.1124 20.2626C11.429 19.5792 10.321 19.5792 9.63756 20.2626L11.0518 21.6768C10.9541 21.7744 10.7959 21.7744 10.6982 21.6768L12.1124 20.2626ZM13.0821 21.2322L12.1124 20.2626L10.6982 21.6768L11.6679 22.6465L13.0821 21.2322ZM12.6376 20.2626L11.6679 21.2322L13.0821 22.6465L14.0518 21.6768L12.6376 20.2626ZM15.1124 20.2626C14.429 19.5792 13.321 19.5792 12.6376 20.2626L14.0518 21.6768C13.9541 21.7744 13.7959 21.7744 13.6982 21.6768L15.1124 20.2626ZM16.0821 21.2322L15.1124 20.2626L13.6982 21.6768L14.6679 22.6465L16.0821 21.2322ZM15.6376 20.2626L14.6679 21.2322L16.0821 22.6465L17.0518 21.6768L15.6376 20.2626ZM18.1124 20.2626C17.429 19.5792 16.321 19.5792 15.6376 20.2626L17.0518 21.6768C16.9541 21.7744 16.7959 21.7744 16.6982 21.6768L18.1124 20.2626ZM19.0821 21.2322L18.1124 20.2626L16.6982 21.6768L17.6679 22.6465L19.0821 21.2322ZM18.6376 20.2626L17.6679 21.2322L19.0821 22.6465L20.0518 21.6768L18.6376 20.2626ZM21.1124 20.2626C20.429 19.5792 19.321 19.5792 18.6376 20.2626L20.0518 21.6768C19.9541 21.7744 19.7959 21.7744 19.6982 21.6768L21.1124 20.2626ZM21.8766 21.0268L21.1124 20.2626L19.6982 21.6768L20.4624 22.441L21.8766 21.0268ZM20.4806 20.8757L20.2751 21.2867L22.064 22.1811L22.2694 21.7702L20.4806 20.8757ZM20.375 3.67706V21.323H22.375V3.67706H20.375ZM20.2751 3.71335L20.4806 4.12427L22.2694 3.22985L22.064 2.81892L20.2751 3.71335ZM21.1124 4.73745L21.8766 3.97324L20.4624 2.55903L19.6982 3.32323L21.1124 4.73745ZM18.6376 4.73745C19.321 5.42086 20.429 5.42086 21.1124 4.73745L19.6982 3.32323C19.7959 3.2256 19.9541 3.2256 20.0518 3.32323L18.6376 4.73745ZM17.6679 3.76778L18.6376 4.73745L20.0518 3.32323L19.0821 2.35356L17.6679 3.76778ZM18.1124 4.73745L19.0821 3.76778L17.6679 2.35356L16.6982 3.32323L18.1124 4.73745ZM15.6376 4.73745C16.321 5.42086 17.429 5.42086 18.1124 4.73745L16.6982 3.32323C16.7959 3.2256 16.9541 3.2256 17.0518 3.32323L15.6376 4.73745ZM14.6679 3.76778L15.6376 4.73745L17.0518 3.32323L16.0821 2.35356L14.6679 3.76778ZM15.1124 4.73745L16.0821 3.76778L14.6679 2.35356L13.6982 3.32323L15.1124 4.73745ZM12.6376 4.73745C13.321 5.42086 14.429 5.42086 15.1124 4.73745L13.6982 3.32323C13.7959 3.2256 13.9541 3.2256 14.0518 3.32323L12.6376 4.73745ZM11.6679 3.76778L12.6376 4.73745L14.0518 3.32323L13.0821 2.35356L11.6679 3.76778ZM12.1124 4.73745L13.0821 3.76778L11.6679 2.35356L10.6982 3.32323L12.1124 4.73745ZM9.63756 4.73745C10.321 5.42086 11.429 5.42086 12.1124 4.73745L10.6982 3.32323C10.7959 3.2256 10.9541 3.2256 11.0518 3.32323L9.63756 4.73745ZM8.66789 3.76778L9.63756 4.73745L11.0518 3.32323L10.0821 2.35356L8.66789 3.76778ZM9.11244 4.73745L10.0821 3.76778L8.66789 2.35356L7.69822 3.32323L9.11244 4.73745ZM6.63756 4.73745C7.32098 5.42086 8.42902 5.42086 9.11244 4.73745L7.69822 3.32323C7.79585 3.2256 7.95415 3.2256 8.05178 3.32323L6.63756 4.73745ZM5.66789 3.76778L6.63756 4.73745L8.05178 3.32323L7.08211 2.35356L5.66789 3.76778ZM6.11244 4.73745L7.08211 3.76778L5.66789 2.35356L4.69822 3.32323L6.11244 4.73745ZM3.63756 4.73745C4.32098 5.42086 5.42902 5.42086 6.11244 4.73745L4.69822 3.32323C4.79585 3.2256 4.95415 3.2256 5.05178 3.32323L3.63756 4.73745ZM2.87336 3.97324L3.63756 4.73745L5.05178 3.32323L4.28757 2.55903L2.87336 3.97324ZM5.625 5.50001C4.6585 5.50001 3.875 6.28351 3.875 7.25001H5.875C5.875 7.38808 5.76307 7.50001 5.625 7.50001V5.50001ZM14.625 5.50001H5.625V7.50001H14.625V5.50001ZM16.375 7.25001C16.375 6.28351 15.5915 5.50001 14.625 5.50001V7.50001C14.4869 7.50001 14.375 7.38808 14.375 7.25001H16.375ZM14.625 9.00001C15.5915 9.00001 16.375 8.21651 16.375 7.25001H14.375C14.375 7.11194 14.4869 7.00001 14.625 7.00001V9.00001ZM5.625 9.00001H14.625V7.00001H5.625V9.00001ZM3.875 7.25001C3.875 8.21651 4.6585 9.00001 5.625 9.00001V7.00001C5.76307 7.00001 5.875 7.11194 5.875 7.25001H3.875ZM5.625 8.50001C4.6585 8.50001 3.875 9.28351 3.875 10.25H5.875C5.875 10.3881 5.76307 10.5 5.625 10.5V8.50001ZM14.625 8.50001H5.625V10.5H14.625V8.50001ZM16.375 10.25C16.375 9.28351 15.5915 8.50001 14.625 8.50001V10.5C14.4869 10.5 14.375 10.3881 14.375 10.25H16.375ZM14.625 12C15.5915 12 16.375 11.2165 16.375 10.25H14.375C14.375 10.1119 14.4869 10 14.625 10V12ZM5.625 12H14.625V10H5.625V12ZM3.875 10.25C3.875 11.2165 4.6585 12 5.625 12V10C5.76307 10 5.875 10.1119 5.875 10.25H3.875ZM5.625 11.5C4.6585 11.5 3.875 12.2835 3.875 13.25H5.875C5.875 13.3881 5.76307 13.5 5.625 13.5V11.5ZM14.625 11.5H5.625V13.5H14.625V11.5ZM16.375 13.25C16.375 12.2835 15.5915 11.5 14.625 11.5V13.5C14.4869 13.5 14.375 13.3881 14.375 13.25H16.375ZM14.625 15C15.5915 15 16.375 14.2165 16.375 13.25H14.375C14.375 13.1119 14.4869 13 14.625 13V15ZM5.625 15H14.625V13H5.625V15ZM3.875 13.25C3.875 14.2165 4.6585 15 5.625 15V13C5.76307 13 5.875 13.1119 5.875 13.25H3.875ZM5.625 14.5C4.6585 14.5 3.875 15.2835 3.875 16.25H5.875C5.875 16.3881 5.76307 16.5 5.625 16.5V14.5ZM14.625 14.5H5.625V16.5H14.625V14.5ZM16.375 16.25C16.375 15.2835 15.5915 14.5 14.625 14.5V16.5C14.4869 16.5 14.375 16.3881 14.375 16.25H16.375ZM14.625 18C15.5915 18 16.375 17.2165 16.375 16.25H14.375C14.375 16.1119 14.4869 16 14.625 16V18ZM5.625 18H14.625V16H5.625V18ZM3.875 16.25C3.875 17.2165 4.6585 18 5.625 18V16C5.76307 16 5.875 16.1119 5.875 16.25H3.875ZM17.625 5.50001C16.6585 5.50001 15.875 6.28351 15.875 7.25001H17.875C17.875 7.38808 17.7631 7.50001 17.625 7.50001V5.50001ZM19.125 5.50001H17.625V7.50001H19.125V5.50001ZM20.875 7.25001C20.875 6.28351 20.0915 5.50001 19.125 5.50001V7.50001C18.9869 7.50001 18.875 7.38808 18.875 7.25001H20.875ZM19.125 9.00001C20.0915 9.00001 20.875 8.21651 20.875 7.25001H18.875C18.875 7.11194 18.9869 7.00001 19.125 7.00001V9.00001ZM17.625 9.00001H19.125V7.00001H17.625V9.00001ZM15.875 7.25001C15.875 8.21651 16.6585 9.00001 17.625 9.00001V7.00001C17.7631 7.00001 17.875 7.11194 17.875 7.25001H15.875ZM17.625 8.50001C16.6585 8.50001 15.875 9.28351 15.875 10.25H17.875C17.875 10.3881 17.7631 10.5 17.625 10.5V8.50001ZM19.125 8.50001H17.625V10.5H19.125V8.50001ZM20.875 10.25C20.875 9.28351 20.0915 8.50001 19.125 8.50001V10.5C18.9869 10.5 18.875 10.3881 18.875 10.25H20.875ZM19.125 12C20.0915 12 20.875 11.2165 20.875 10.25H18.875C18.875 10.1119 18.9869 10 19.125 10V12ZM17.625 12H19.125V10H17.625V12ZM15.875 10.25C15.875 11.2165 16.6585 12 17.625 12V10C17.7631 10 17.875 10.1119 17.875 10.25H15.875ZM17.625 11.5C16.6585 11.5 15.875 12.2835 15.875 13.25H17.875C17.875 13.3881 17.7631 13.5 17.625 13.5V11.5ZM19.125 11.5H17.625V13.5H19.125V11.5ZM20.875 13.25C20.875 12.2835 20.0915 11.5 19.125 11.5V13.5C18.9869 13.5 18.875 13.3881 18.875 13.25H20.875ZM19.125 15C20.0915 15 20.875 14.2165 20.875 13.25H18.875C18.875 13.1119 18.9869 13 19.125 13V15ZM17.625 15H19.125V13H17.625V15ZM15.875 13.25C15.875 14.2165 16.6585 15 17.625 15V13C17.7631 13 17.875 13.1119 17.875 13.25H15.875ZM17.625 14.5C16.6585 14.5 15.875 15.2835 15.875 16.25H17.875C17.875 16.3881 17.7631 16.5 17.625 16.5V14.5ZM19.125 14.5H17.625V16.5H19.125V14.5ZM20.875 16.25C20.875 15.2835 20.0915 14.5 19.125 14.5V16.5C18.9869 16.5 18.875 16.3881 18.875 16.25H20.875ZM19.125 18C20.0915 18 20.875 17.2165 20.875 16.25H18.875C18.875 16.1119 18.9869 16 19.125 16V18ZM17.625 18H19.125V16H17.625V18ZM15.875 16.25C15.875 17.2165 16.6585 18 17.625 18V16C17.7631 16 17.875 16.1119 17.875 16.25H15.875Z" fill="black" mask="url(#path-1-outside-1_89_689)"/>
</g>
<defs>
<filter id="filter0_d_89_689" x="0.875" y="0.25" width="24" height="25.5" filterUnits="userSpaceOnUse" color-interpolation-filters="sRGB">
<feFlood flood-opacity="0" result="BackgroundImageFix"/>
<feColorMatrix in="SourceAlpha" type="matrix" values="0 0 0 0 0 0 0 0 0 0 0 0 0 0 0 0 0 0 127 0" result="hardAlpha"/>
<feOffset dx="1" dy="1"/>
<feComposite in2="hardAlpha" operator="out"/>
<feColorMatrix type="matrix" values="0 0 0 0 0 0 0 0 0 0 0 0 0 0 0 0 0 0 1 0"/>
<feBlend mode="normal" in2="BackgroundImageFix" result="effect1_dropShadow_89_689"/>
<feBlend mode="normal" in="SourceGraphic" in2="effect1_dropShadow_89_689" result="shape"/>
</filter>
</defs>
</svg>
