<svg width="25" height="25" viewBox="0 0 25 25" fill="none" xmlns="http://www.w3.org/2000/svg">
<path d="M3.25486 1.25969C3.49283 1.22108 3.73486 1.29921 3.90533 1.46968L4.875 2.43935L5.84467 1.46968C6.13756 1.17679 6.61244 1.17679 6.90533 1.46968L7.875 2.43935L8.84467 1.46968C9.13756 1.17679 9.61244 1.17679 9.90533 1.46968L10.875 2.43935L11.8447 1.46968C12.1376 1.17679 12.6124 1.17679 12.9053 1.46968L13.875 2.43935L14.8447 1.46968C15.1376 1.17679 15.6124 1.17679 15.9053 1.46968L16.875 2.43935L17.8447 1.46968C18.1376 1.17679 18.6124 1.17679 18.9053 1.46968L19.875 2.43935L20.8447 1.46968C21.0151 1.29921 21.2572 1.22108 21.4951 1.25969C21.7331 1.29831 21.938 1.44897 22.0458 1.6646L22.7958 3.1646C22.8479 3.26874 22.875 3.38358 22.875 3.50001V21.5C22.875 21.6164 22.8479 21.7313 22.7958 21.8354L22.0458 23.3354C21.938 23.5511 21.7331 23.7017 21.4951 23.7403C21.2572 23.7789 21.0151 23.7008 20.8447 23.5303L19.875 22.5607L18.9053 23.5303C18.6124 23.8232 18.1376 23.8232 17.8447 23.5303L16.875 22.5607L15.9053 23.5303C15.6124 23.8232 15.1376 23.8232 14.8447 23.5303L13.875 22.5607L12.9053 23.5303C12.6124 23.8232 12.1376 23.8232 11.8447 23.5303L10.875 22.5607L9.90533 23.5303C9.61244 23.8232 9.13756 23.8232 8.84467 23.5303L7.875 22.5607L6.90533 23.5303C6.61244 23.8232 6.13756 23.8232 5.84467 23.5303L4.875 22.5607L3.90533 23.5303C3.73486 23.7008 3.49283 23.7789 3.25486 23.7403C3.01689 23.7017 2.812 23.5511 2.70418 23.3354L1.95418 21.8354C1.90211 21.7313 1.875 21.6164 1.875 21.5V3.50001C1.875 3.38358 1.90211 3.26874 1.95418 3.1646L2.70418 1.6646C2.812 1.44897 3.01689 1.29831 3.25486 1.25969ZM3.58046 3.26613L3.375 3.67706V21.323L3.58046 21.7339L4.34467 20.9697C4.63756 20.6768 5.11244 20.6768 5.40533 20.9697L6.375 21.9393L7.34467 20.9697C7.63756 20.6768 8.11244 20.6768 8.40533 20.9697L9.375 21.9393L10.3447 20.9697C10.6376 20.6768 11.1124 20.6768 11.4053 20.9697L12.375 21.9393L13.3447 20.9697C13.6376 20.6768 14.1124 20.6768 14.4053 20.9697L15.375 21.9393L16.3447 20.9697C16.6376 20.6768 17.1124 20.6768 17.4053 20.9697L18.375 21.9393L19.3447 20.9697C19.6376 20.6768 20.1124 20.6768 20.4053 20.9697L21.1695 21.7339L21.375 21.323V3.67706L21.1695 3.26613L20.4053 4.03034C20.1124 4.32323 19.6376 4.32323 19.3447 4.03034L18.375 3.06067L17.4053 4.03034C17.1124 4.32323 16.6376 4.32323 16.3447 4.03034L15.375 3.06067L14.4053 4.03034C14.1124 4.32323 13.6376 4.32323 13.3447 4.03034L12.375 3.06067L11.4053 4.03034C11.1124 4.32323 10.6376 4.32323 10.3447 4.03034L9.375 3.06067L8.40533 4.03034C8.11244 4.32323 7.63756 4.32323 7.34467 4.03034L6.375 3.06067L5.40533 4.03034C5.11244 4.32323 4.63756 4.32323 4.34467 4.03034L3.58046 3.26613Z" fill="#5C5E61"/>
<path d="M4.875 7.25001C4.875 6.8358 5.21079 6.50001 5.625 6.50001H14.625C15.0392 6.50001 15.375 6.8358 15.375 7.25001C15.375 7.66422 15.0392 8.00001 14.625 8.00001H5.625C5.21079 8.00001 4.875 7.66422 4.875 7.25001ZM4.875 10.25C4.875 9.8358 5.21079 9.50001 5.625 9.50001H14.625C15.0392 9.50001 15.375 9.8358 15.375 10.25C15.375 10.6642 15.0392 11 14.625 11H5.625C5.21079 11 4.875 10.6642 4.875 10.25ZM4.875 13.25C4.875 12.8358 5.21079 12.5 5.625 12.5H14.625C15.0392 12.5 15.375 12.8358 15.375 13.25C15.375 13.6642 15.0392 14 14.625 14H5.625C5.21079 14 4.875 13.6642 4.875 13.25ZM4.875 16.25C4.875 15.8358 5.21079 15.5 5.625 15.5H14.625C15.0392 15.5 15.375 15.8358 15.375 16.25C15.375 16.6642 15.0392 17 14.625 17H5.625C5.21079 17 4.875 16.6642 4.875 16.25Z" fill="#5C5E61"/>
<path d="M16.875 7.25001C16.875 6.8358 17.2108 6.50001 17.625 6.50001H19.125C19.5392 6.50001 19.875 6.8358 19.875 7.25001C19.875 7.66422 19.5392 8.00001 19.125 8.00001H17.625C17.2108 8.00001 16.875 7.66422 16.875 7.25001ZM16.875 10.25C16.875 9.8358 17.2108 9.50001 17.625 9.50001H19.125C19.5392 9.50001 19.875 9.8358 19.875 10.25C19.875 10.6642 19.5392 11 19.125 11H17.625C17.2108 11 16.875 10.6642 16.875 10.25ZM16.875 13.25C16.875 12.8358 17.2108 12.5 17.625 12.5H19.125C19.5392 12.5 19.875 12.8358 19.875 13.25C19.875 13.6642 19.5392 14 19.125 14H17.625C17.2108 14 16.875 13.6642 16.875 13.25ZM16.875 16.25C16.875 15.8358 17.2108 15.5 17.625 15.5H19.125C19.5392 15.5 19.875 15.8358 19.875 16.25C19.875 16.6642 19.5392 17 19.125 17H17.625C17.2108 17 16.875 16.6642 16.875 16.25Z" fill="#5C5E61"/>
</svg>
