<svg width="16" height="16" viewBox="0 0 16 16" fill="none" xmlns="http://www.w3.org/2000/svg">
<g filter="url(#filter0_d_1_1684)">
<path d="M6.66659 1.5C6.39044 1.5 6.16659 1.72386 6.16659 2V2.5H3.33325C3.05711 2.5 2.83325 2.72386 2.83325 3C2.83325 3.27614 3.05711 3.5 3.33325 3.5H12.6666C12.9427 3.5 13.1666 3.27614 13.1666 3C13.1666 2.72386 12.9427 2.5 12.6666 2.5H9.83325V2C9.83325 1.72386 9.60939 1.5 9.33325 1.5H6.66659Z" fill="#242424"/>
<path d="M6.66659 7.1C6.94273 7.1 7.16659 7.32385 7.16659 7.6L7.16659 12.2667C7.16659 12.5428 6.94273 12.7667 6.66659 12.7667C6.39044 12.7667 6.16659 12.5428 6.16659 12.2667L6.16659 7.6C6.16659 7.32385 6.39044 7.1 6.66659 7.1Z" fill="#242424"/>
<path d="M9.83325 7.6C9.83325 7.32385 9.60939 7.1 9.33325 7.1C9.05711 7.1 8.83325 7.32385 8.83325 7.6V12.2667C8.83325 12.5428 9.05711 12.7667 9.33325 12.7667C9.60939 12.7667 9.83325 12.5428 9.83325 12.2667V7.6Z" fill="#242424"/>
<path fill-rule="evenodd" clip-rule="evenodd" d="M3.9942 5.27812C4.02234 5.0249 4.23637 4.83333 4.49114 4.83333H11.5087C11.7635 4.83333 11.9775 5.0249 12.0056 5.27812L12.1391 6.47902C12.3809 8.6559 12.3809 10.8529 12.1391 13.0298L12.1259 13.148C12.0299 14.0121 11.3602 14.7011 10.4992 14.8216C8.84109 15.0538 7.15874 15.0538 5.50064 14.8216C4.63961 14.7011 3.96992 14.0121 3.8739 13.148L3.86077 13.0298C3.61889 10.8529 3.61889 8.6559 3.86077 6.47901L3.9942 5.27812ZM4.93867 5.83333L4.85465 6.58945C4.62093 8.69293 4.62093 10.8158 4.85465 12.9193L4.86779 13.0375C4.91332 13.4474 5.23093 13.7741 5.63929 13.8313C7.2054 14.0506 8.79443 14.0506 10.3605 13.8313C10.7689 13.7741 11.0865 13.4474 11.132 13.0375L11.1452 12.9193C11.3789 10.8158 11.3789 8.69293 11.1452 6.58945L11.0612 5.83333H4.93867Z" fill="#242424"/>
</g>
<defs>
<filter id="filter0_d_1_1684" x="2.83325" y="1.5" width="10.8333" height="14.4958" filterUnits="userSpaceOnUse" color-interpolation-filters="sRGB">
<feFlood flood-opacity="0" result="BackgroundImageFix"/>
<feColorMatrix in="SourceAlpha" type="matrix" values="0 0 0 0 0 0 0 0 0 0 0 0 0 0 0 0 0 0 127 0" result="hardAlpha"/>
<feOffset dx="0.5" dy="1"/>
<feComposite in2="hardAlpha" operator="out"/>
<feColorMatrix type="matrix" values="0 0 0 0 1 0 0 0 0 0.752941 0 0 0 0 0 0 0 0 1 0"/>
<feBlend mode="normal" in2="BackgroundImageFix" result="effect1_dropShadow_1_1684"/>
<feBlend mode="normal" in="SourceGraphic" in2="effect1_dropShadow_1_1684" result="shape"/>
</filter>
</defs>
</svg>
