<svg width="30" height="31" viewBox="0 0 30 31" fill="none" xmlns="http://www.w3.org/2000/svg">
<g filter="url(#filter0_ii_1_5103)">
<path d="M20.3202 22.2476C20.2748 22.1094 20.1217 22.0396 19.9846 22.0879C19.4979 22.2594 18.9874 22.3557 18.4706 22.3731C18.1805 22.4047 17.8869 22.3693 17.6126 22.2696C17.3383 22.1699 17.0905 22.0085 16.8883 21.7979C16.6862 21.5874 16.5351 21.3332 16.4466 21.0551C16.3601 20.7828 16.3358 20.4947 16.3755 20.212C16.3772 20.1997 16.3782 20.1872 16.3782 20.1748V13.404H20.4874C20.6255 13.404 20.7374 13.292 20.7374 13.154V10.3845C20.7374 10.2465 20.6255 10.1345 20.4874 10.1345H16.3782V4.80469C16.3782 4.66662 16.2663 4.55469 16.1282 4.55469H13.1959C13.1545 4.55746 13.1157 4.57589 13.0873 4.60626C13.059 4.63662 13.0433 4.67663 13.0434 4.71816C12.9747 6.00828 12.5321 7.25055 11.7697 8.29355C11.0413 9.29002 10.051 10.0635 8.91029 10.529C8.81404 10.5683 8.74951 10.661 8.74951 10.765V13.154C8.74951 13.292 8.86144 13.404 8.99951 13.404H10.9291V20.5313C10.9291 22.9616 12.7273 26.4272 17.468 26.3509C18.9826 26.3509 20.6627 25.7275 21.1732 25.1714C21.2256 25.1143 21.2355 25.0327 21.2113 24.959L20.3202 22.2476Z" fill="#FFC000"/>
</g>
<path d="M20.3202 22.2476C20.2748 22.1094 20.1217 22.0396 19.9846 22.0879C19.4979 22.2594 18.9874 22.3557 18.4706 22.3731C18.1805 22.4047 17.8869 22.3693 17.6126 22.2696C17.3383 22.1699 17.0905 22.0085 16.8883 21.7979C16.6862 21.5874 16.5351 21.3332 16.4466 21.0551C16.3601 20.7828 16.3358 20.4947 16.3755 20.212C16.3772 20.1997 16.3782 20.1872 16.3782 20.1748V13.404H20.4874C20.6255 13.404 20.7374 13.292 20.7374 13.154V10.3845C20.7374 10.2465 20.6255 10.1345 20.4874 10.1345H16.3782V4.80469C16.3782 4.66662 16.2663 4.55469 16.1282 4.55469H13.1959C13.1545 4.55746 13.1157 4.57589 13.0873 4.60626C13.059 4.63662 13.0433 4.67663 13.0434 4.71816C12.9747 6.00828 12.5321 7.25055 11.7697 8.29355C11.0413 9.29002 10.051 10.0635 8.91029 10.529C8.81404 10.5683 8.74951 10.661 8.74951 10.765V13.154C8.74951 13.292 8.86144 13.404 8.99951 13.404H10.9291V20.5313C10.9291 22.9616 12.7273 26.4272 17.468 26.3509C18.9826 26.3509 20.6627 25.7275 21.1732 25.1714C21.2256 25.1143 21.2355 25.0327 21.2113 24.959L20.3202 22.2476Z" stroke="black" stroke-width="0.697683" stroke-linecap="round" stroke-linejoin="round"/>
<defs>
<filter id="filter0_ii_1_5103" x="8.40088" y="4.20581" width="13.1714" height="22.4952" filterUnits="userSpaceOnUse" color-interpolation-filters="sRGB">
<feFlood flood-opacity="0" result="BackgroundImageFix"/>
<feBlend mode="normal" in="SourceGraphic" in2="BackgroundImageFix" result="shape"/>
<feColorMatrix in="SourceAlpha" type="matrix" values="0 0 0 0 0 0 0 0 0 0 0 0 0 0 0 0 0 0 127 0" result="hardAlpha"/>
<feOffset dx="2" dy="2"/>
<feComposite in2="hardAlpha" operator="arithmetic" k2="-1" k3="1"/>
<feColorMatrix type="matrix" values="0 0 0 0 1 0 0 0 0 1 0 0 0 0 1 0 0 0 1 0"/>
<feBlend mode="normal" in2="shape" result="effect1_innerShadow_1_5103"/>
<feColorMatrix in="SourceAlpha" type="matrix" values="0 0 0 0 0 0 0 0 0 0 0 0 0 0 0 0 0 0 127 0" result="hardAlpha"/>
<feOffset dx="-2" dy="-2"/>
<feComposite in2="hardAlpha" operator="arithmetic" k2="-1" k3="1"/>
<feColorMatrix type="matrix" values="0 0 0 0 0 0 0 0 0 0 0 0 0 0 0 0 0 0 1 0"/>
<feBlend mode="normal" in2="effect1_innerShadow_1_5103" result="effect2_innerShadow_1_5103"/>
</filter>
</defs>
</svg>
