<svg width="16" height="16" viewBox="0 0 16 16" fill="none" xmlns="http://www.w3.org/2000/svg">
<rect width="16" height="16" rx="8" fill="#FFC000"/>
<path fill-rule="evenodd" clip-rule="evenodd" d="M12.7273 4.70788C12.8234 4.85343 12.8074 5.05124 12.6792 5.17938L8.08303 9.77557C8.03592 9.82268 7.9771 9.8564 7.91264 9.87323L5.99843 10.3732C5.93599 10.3895 5.87164 10.3892 5.81117 10.3738C5.74689 10.3575 5.687 10.3241 5.63849 10.2756C5.54436 10.1814 5.50719 10.0444 5.54083 9.91563L6.04083 8.00142C6.05557 7.94501 6.08321 7.88931 6.12146 7.84561L10.7347 3.23483C10.7751 3.19445 10.8237 3.16423 10.8766 3.14582C10.9159 3.13216 10.9575 3.125 10.9998 3.125C11.0993 3.125 11.1947 3.16451 11.265 3.23483L12.6792 4.64905C12.6975 4.66735 12.7135 4.68708 12.7273 4.70788ZM11.8837 4.91421L10.9998 4.03033L6.74077 8.28941L6.42827 9.48579L7.62466 9.17329L11.8837 4.91421Z" fill="#242424"/>
<path d="M11.8205 10.5802C11.9572 9.41135 12.0007 8.23439 11.951 7.0604C11.9486 7.00419 11.9698 6.94949 12.0096 6.90971L12.5012 6.41804C12.5617 6.3576 12.665 6.39597 12.6706 6.48127C12.7631 7.8761 12.728 9.27726 12.5654 10.6673C12.4472 11.6785 11.635 12.4711 10.629 12.5835C8.89569 12.7772 7.10402 12.7772 5.37073 12.5835C4.3647 12.4711 3.55254 11.6785 3.43426 10.6673C3.22699 8.89513 3.22699 7.10486 3.43426 5.33271C3.55254 4.32145 4.3647 3.52894 5.37073 3.41651C6.68561 3.26955 8.03408 3.23407 9.36517 3.31008C9.45096 3.31498 9.49007 3.41879 9.42931 3.47955L8.93303 3.97582C8.89369 4.01517 8.83973 4.0363 8.78411 4.03443C7.6709 3.99688 6.55012 4.03936 5.45404 4.16187C4.78898 4.23619 4.25624 4.761 4.17918 5.41984C3.97868 7.1341 3.97868 8.86589 4.17918 10.5802C4.25624 11.239 4.78898 11.7638 5.45404 11.8381C7.13196 12.0257 8.86775 12.0257 10.5457 11.8381C11.2107 11.7638 11.7435 11.239 11.8205 10.5802Z" fill="#242424"/>
</svg>
