<svg width="16" height="16" viewBox="0 0 16 16" fill="none" xmlns="http://www.w3.org/2000/svg">
<rect width="16" height="16" rx="8" fill="#FFC000"/>
<path d="M4.65385 5.94286C4.65385 4.86985 5.53206 4 6.61538 4C7.69871 4 8.57692 4.86985 8.57692 5.94286C8.57692 7.01587 7.69871 7.88571 6.61538 7.88571C5.53206 7.88571 4.65385 7.01587 4.65385 5.94286Z" fill="#363853"/>
<path d="M5.37562 8.76307L5.45781 8.75007C6.22468 8.62885 7.00609 8.62885 7.77295 8.75007L7.85515 8.76307C8.93569 8.93387 9.73077 9.85702 9.73077 10.9408C9.73077 11.5258 9.252 12 8.6614 12H4.56937C3.97877 12 3.5 11.5258 3.5 10.9408C3.5 9.85702 4.29508 8.93387 5.37562 8.76307Z" fill="#363853"/>
<path d="M9.38462 4C9.19344 4 9.03846 4.1535 9.03846 4.34286C9.03846 4.53221 9.19344 4.68571 9.38462 4.68571C10.0856 4.68571 10.6538 5.24856 10.6538 5.94286C10.6538 6.63716 10.0856 7.2 9.38462 7.2C9.19344 7.2 9.03846 7.3535 9.03846 7.54286C9.03846 7.73221 9.19344 7.88571 9.38462 7.88571C10.4679 7.88571 11.3462 7.01587 11.3462 5.94286C11.3462 4.86985 10.4679 4 9.38462 4Z" fill="#363853"/>
<path d="M9.95746 8.74579C9.76629 8.74579 9.61131 8.89929 9.61131 9.08864C9.61131 9.278 9.76629 9.4315 9.95746 9.4315H10.4043C10.4415 9.4315 10.4786 9.43442 10.5153 9.44021C11.2598 9.55791 11.8077 10.194 11.8077 10.9408C11.8077 11.1471 11.6389 11.3143 11.4306 11.3143H10.4876C10.2965 11.3143 10.1415 11.4678 10.1415 11.6571C10.1415 11.8465 10.2965 12 10.4876 12H11.4306C12.0212 12 12.5 11.5258 12.5 10.9408C12.5 9.85702 11.7049 8.93387 10.6244 8.76307C10.5516 8.75156 10.4779 8.74579 10.4043 8.74579H9.95746Z" fill="#363853"/>
</svg>
