<svg width="18" height="18" viewBox="0 0 18 18" fill="none" xmlns="http://www.w3.org/2000/svg">
<path d="M6 7.12521C5.48223 7.12521 5.0625 7.54494 5.0625 8.06271C5.0625 8.58048 5.48223 9.00021 6 9.00021C6.51777 9.00021 6.9375 8.58048 6.9375 8.06271C6.9375 7.54494 6.51777 7.12521 6 7.12521Z" fill="#7B6F72"/>
<path d="M9 7.12521C8.48223 7.12521 8.0625 7.54494 8.0625 8.06271C8.0625 8.58048 8.48223 9.00021 9 9.00021C9.51777 9.00021 9.9375 8.58048 9.9375 8.06271C9.9375 7.54494 9.51777 7.12521 9 7.12521Z" fill="#7B6F72"/>
<path d="M11.0625 8.06271C11.0625 7.54494 11.4822 7.12521 12 7.12521C12.5178 7.12521 12.9375 7.54494 12.9375 8.06271C12.9375 8.58048 12.5178 9.00021 12 9.00021C11.4822 9.00021 11.0625 8.58048 11.0625 8.06271Z" fill="#7B6F72"/>
<path fill-rule="evenodd" clip-rule="evenodd" d="M12.0755 3.4448C10.0549 3.27249 8.0237 3.26248 6.00146 3.4149L5.85653 3.42582C3.92805 3.57117 2.4375 5.17829 2.4375 7.11224V13.5002C2.4375 13.6981 2.5415 13.8815 2.71136 13.983C2.88122 14.0846 3.09195 14.0894 3.26628 13.9957L6.19937 12.4194C6.33581 12.3461 6.48828 12.3077 6.64317 12.3077H13.3755C14.2245 12.3077 14.9522 11.7007 15.1044 10.8654C15.4128 9.17243 15.4372 7.43995 15.1765 5.73902L15.0997 5.23778C14.9598 4.32522 14.2132 3.62711 13.2933 3.54866L12.0755 3.4448ZM6.08601 4.53672C8.04827 4.38882 10.0192 4.39853 11.98 4.56574L13.1978 4.66959C13.6 4.70389 13.9265 5.00917 13.9876 5.40823L14.0645 5.90948C14.3063 7.48694 14.2837 9.09366 13.9976 10.6637C13.9428 10.9643 13.681 11.1827 13.3755 11.1827H6.64317C6.30242 11.1827 5.96697 11.2671 5.66682 11.4284L3.5625 12.5593V7.11224C3.5625 5.76682 4.59946 4.64876 5.94108 4.54764L6.08601 4.53672Z" fill="#7B6F72"/>
</svg>
