<svg width="24" height="24" viewBox="0 0 24 24" fill="none" xmlns="http://www.w3.org/2000/svg">
<g filter="url(#filter0_d_118_1458)">
<path d="M4.5 20.5C4.5 20.5 3 20.5 3 19C3 17.5 4.5 13 12 13C19.5 13 21 17.5 21 19C21 20.5 19.5 20.5 19.5 20.5H4.5Z" fill="white"/>
<path d="M12 11.5C14.4853 11.5 16.5 9.48528 16.5 7C16.5 4.51472 14.4853 2.5 12 2.5C9.51472 2.5 7.5 4.51472 7.5 7C7.5 9.48528 9.51472 11.5 12 11.5Z" fill="white"/>
<path d="M4.5 20.5C4.5 20.5 3 20.5 3 19C3 17.5 4.5 13 12 13C19.5 13 21 17.5 21 19C21 20.5 19.5 20.5 19.5 20.5H4.5Z" stroke="black"/>
<path d="M12 11.5C14.4853 11.5 16.5 9.48528 16.5 7C16.5 4.51472 14.4853 2.5 12 2.5C9.51472 2.5 7.5 4.51472 7.5 7C7.5 9.48528 9.51472 11.5 12 11.5Z" stroke="black"/>
</g>
<defs>
<filter id="filter0_d_118_1458" x="2.5" y="2" width="20" height="20" filterUnits="userSpaceOnUse" color-interpolation-filters="sRGB">
<feFlood flood-opacity="0" result="BackgroundImageFix"/>
<feColorMatrix in="SourceAlpha" type="matrix" values="0 0 0 0 0 0 0 0 0 0 0 0 0 0 0 0 0 0 127 0" result="hardAlpha"/>
<feOffset dx="1" dy="1"/>
<feComposite in2="hardAlpha" operator="out"/>
<feColorMatrix type="matrix" values="0 0 0 0 0 0 0 0 0 0 0 0 0 0 0 0 0 0 1 0"/>
<feBlend mode="normal" in2="BackgroundImageFix" result="effect1_dropShadow_118_1458"/>
<feBlend mode="normal" in="SourceGraphic" in2="effect1_dropShadow_118_1458" result="shape"/>
</filter>
</defs>
</svg>
