<svg width="40" height="40" viewBox="0 0 40 40" fill="none" xmlns="http://www.w3.org/2000/svg">
<g filter="url(#filter0_ii_156_3787)">
<path fill-rule="evenodd" clip-rule="evenodd" d="M12.6223 12.0669L12.7621 6.12276C12.7886 4.99631 13.533 4.0132 14.61 3.68216C18.1222 2.60269 21.8775 2.60269 25.3897 3.68216C26.4667 4.0132 27.2111 4.99631 27.2376 6.12276L27.3774 12.0669C28.8393 13.427 29.9247 15.1863 30.4602 17.1713C30.6045 16.6404 31.0899 16.2499 31.6665 16.2499C32.3569 16.2499 32.9165 16.8096 32.9165 17.4999V22.4999C32.9165 23.1903 32.3569 23.7499 31.6665 23.7499C31.0899 23.7499 30.6045 23.3595 30.4602 22.8286C29.9247 24.8136 28.8393 26.5729 27.3774 27.933L27.2376 33.8771C27.2111 35.0036 26.4667 35.9867 25.3897 36.3177C21.8775 37.3972 18.1222 37.3972 14.61 36.3177C13.533 35.9867 12.7886 35.0036 12.7621 33.8771L12.6223 27.933C10.4963 25.955 9.1665 23.1328 9.1665 19.9999C9.1665 16.8671 10.4963 14.0448 12.6223 12.0669ZM15.3445 6.07184C18.378 5.13947 21.6217 5.13947 24.6552 6.07184C24.7036 6.08672 24.7371 6.13091 24.7383 6.18155L24.8352 10.303C23.3797 9.57575 21.7376 9.16661 19.9998 9.16661C18.2621 9.16661 16.62 9.57574 15.1645 10.3029L15.2614 6.18155C15.2626 6.13091 15.2961 6.08672 15.3445 6.07184ZM15.1645 29.6969L15.2614 33.8184C15.2626 33.869 15.2961 33.9132 15.3445 33.9281C18.378 34.8604 21.6217 34.8604 24.6552 33.9281C24.7036 33.9132 24.7371 33.869 24.7383 33.8184L24.8352 29.6969C23.3797 30.4241 21.7376 30.8333 19.9998 30.8333C18.2621 30.8333 16.62 30.4241 15.1645 29.6969ZM16.1697 23.8301C15.6815 23.342 14.89 23.342 14.4019 23.8301C13.9137 24.3183 13.9137 25.1097 14.4019 25.5979C17.4935 28.6895 22.5061 28.6895 25.5977 25.5979C26.0859 25.1097 26.0859 24.3183 25.5977 23.8301C25.1096 23.342 24.3181 23.342 23.83 23.8301C21.7146 25.9454 18.285 25.9454 16.1697 23.8301Z" fill="#FFC000"/>
</g>
<path fill-rule="evenodd" clip-rule="evenodd" d="M12.6223 12.0669L12.7621 6.12276C12.7886 4.99631 13.533 4.0132 14.61 3.68216C18.1222 2.60269 21.8775 2.60269 25.3897 3.68216C26.4667 4.0132 27.2111 4.99631 27.2376 6.12276L27.3774 12.0669C28.8393 13.427 29.9247 15.1863 30.4602 17.1713C30.6045 16.6404 31.0899 16.2499 31.6665 16.2499C32.3569 16.2499 32.9165 16.8096 32.9165 17.4999V22.4999C32.9165 23.1903 32.3569 23.7499 31.6665 23.7499C31.0899 23.7499 30.6045 23.3595 30.4602 22.8286C29.9247 24.8136 28.8393 26.5729 27.3774 27.933L27.2376 33.8771C27.2111 35.0036 26.4667 35.9867 25.3897 36.3177C21.8775 37.3972 18.1222 37.3972 14.61 36.3177C13.533 35.9867 12.7886 35.0036 12.7621 33.8771L12.6223 27.933C10.4963 25.955 9.1665 23.1328 9.1665 19.9999C9.1665 16.8671 10.4963 14.0448 12.6223 12.0669ZM15.3445 6.07184C18.378 5.13947 21.6217 5.13947 24.6552 6.07184C24.7036 6.08672 24.7371 6.13091 24.7383 6.18155L24.8352 10.303C23.3797 9.57575 21.7376 9.16661 19.9998 9.16661C18.2621 9.16661 16.62 9.57574 15.1645 10.3029L15.2614 6.18155C15.2626 6.13091 15.2961 6.08672 15.3445 6.07184ZM15.1645 29.6969L15.2614 33.8184C15.2626 33.869 15.2961 33.9132 15.3445 33.9281C18.378 34.8604 21.6217 34.8604 24.6552 33.9281C24.7036 33.9132 24.7371 33.869 24.7383 33.8184L24.8352 29.6969C23.3797 30.4241 21.7376 30.8333 19.9998 30.8333C18.2621 30.8333 16.62 30.4241 15.1645 29.6969ZM16.1697 23.8301C15.6815 23.342 14.89 23.342 14.4019 23.8301C13.9137 24.3183 13.9137 25.1097 14.4019 25.5979C17.4935 28.6895 22.5061 28.6895 25.5977 25.5979C26.0859 25.1097 26.0859 24.3183 25.5977 23.8301C25.1096 23.342 24.3181 23.342 23.83 23.8301C21.7146 25.9454 18.285 25.9454 16.1697 23.8301Z" stroke="black" stroke-width="1.5" stroke-linecap="round"/>
<defs>
<filter id="filter0_ii_156_3787" x="8.4165" y="2.12256" width="25.25" height="35.7549" filterUnits="userSpaceOnUse" color-interpolation-filters="sRGB">
<feFlood flood-opacity="0" result="BackgroundImageFix"/>
<feBlend mode="normal" in="SourceGraphic" in2="BackgroundImageFix" result="shape"/>
<feColorMatrix in="SourceAlpha" type="matrix" values="0 0 0 0 0 0 0 0 0 0 0 0 0 0 0 0 0 0 127 0" result="hardAlpha"/>
<feOffset dx="2" dy="2"/>
<feComposite in2="hardAlpha" operator="arithmetic" k2="-1" k3="1"/>
<feColorMatrix type="matrix" values="0 0 0 0 1 0 0 0 0 1 0 0 0 0 1 0 0 0 1 0"/>
<feBlend mode="normal" in2="shape" result="effect1_innerShadow_156_3787"/>
<feColorMatrix in="SourceAlpha" type="matrix" values="0 0 0 0 0 0 0 0 0 0 0 0 0 0 0 0 0 0 127 0" result="hardAlpha"/>
<feOffset dx="-2" dy="-2"/>
<feComposite in2="hardAlpha" operator="arithmetic" k2="-1" k3="1"/>
<feColorMatrix type="matrix" values="0 0 0 0 0 0 0 0 0 0 0 0 0 0 0 0 0 0 1 0"/>
<feBlend mode="normal" in2="effect1_innerShadow_156_3787" result="effect2_innerShadow_156_3787"/>
</filter>
</defs>
</svg>
