<svg width="43" height="43" viewBox="0 0 43 43" fill="none" xmlns="http://www.w3.org/2000/svg">
<g filter="url(#filter0_ii_1_4980)">
<path fill-rule="evenodd" clip-rule="evenodd" d="M3.91319 38.219C3.7666 38.7511 4.25122 39.2422 4.78523 39.1027L13.04 36.9466C15.6458 38.358 18.5794 39.1078 21.5664 39.1078H21.5752C31.4043 39.1078 39.4166 31.142 39.4166 21.3501C39.4166 16.6042 37.564 12.1404 34.1961 8.78812C30.8283 5.43602 26.3523 3.5835 21.5751 3.5835C11.7462 3.5835 3.73389 11.5493 3.73389 21.3413C3.73277 24.4564 4.555 27.5169 6.11803 30.2157L3.91319 38.219ZM15.9205 12.8461C16.2484 12.8549 16.6118 12.8727 16.9575 13.6402C17.1868 14.1511 17.5731 15.0917 17.8877 15.858C18.1325 16.4542 18.334 16.9449 18.3844 17.0453C18.4996 17.2746 18.5706 17.5393 18.4199 17.848C18.4021 17.8844 18.3854 17.9192 18.3692 17.9527C18.2483 18.2035 18.1623 18.382 17.9591 18.6155C17.8755 18.7114 17.7884 18.8166 17.7017 18.9214C17.5492 19.1057 17.3976 19.2889 17.2677 19.4183C17.0373 19.6475 16.7979 19.8947 17.0638 20.3533C17.3298 20.812 18.2604 22.3205 19.6342 23.5379C21.1111 24.8528 22.3954 25.4069 23.0446 25.687C23.1706 25.7414 23.2727 25.7854 23.3477 25.8227C23.8086 26.0521 24.0833 26.0168 24.3492 25.7081C24.6152 25.3992 25.5014 24.3671 25.8117 23.9084C26.113 23.4498 26.4232 23.5203 26.8487 23.6791C27.2741 23.8378 29.543 24.9493 30.0038 25.1787C30.0949 25.224 30.1801 25.2649 30.2591 25.3028C30.5798 25.4565 30.7977 25.561 30.8901 25.7169C31.0053 25.9109 31.0053 26.8284 30.6243 27.9046C30.2344 28.9808 28.3553 30.0129 27.5045 30.0923C27.4239 30.0999 27.3437 30.1096 27.2612 30.1196C26.4815 30.2139 25.4916 30.3337 21.9651 28.9455C17.6196 27.2367 14.7511 22.9969 14.1711 22.1397C14.1254 22.0721 14.0938 22.0255 14.077 22.0029L14.0672 21.9897C13.8033 21.6367 12.1891 19.4768 12.1891 17.2483C12.1891 15.1161 13.2394 14.0061 13.7185 13.4998C13.7489 13.4677 13.7769 13.438 13.8023 13.4107C14.2276 12.952 14.7241 12.8374 15.0342 12.8374C15.3445 12.8374 15.6547 12.8374 15.9205 12.8461Z" fill="#FFC000"/>
</g>
<path d="M17.4134 13.4348L17.4137 13.4355C17.6463 13.9537 18.0343 14.8987 18.3467 15.6596L18.3502 15.668C18.4728 15.9666 18.5839 16.2371 18.6706 16.4455C18.714 16.5498 18.7507 16.6371 18.7794 16.704C18.7938 16.7375 18.8057 16.7648 18.8151 16.7859L18.8266 16.8111L18.8301 16.8185C18.8308 16.82 18.8312 16.8208 18.8313 16.8209L17.4134 13.4348ZM17.4134 13.4348C17.2163 12.9972 16.9812 12.6989 16.6831 12.5261C16.3938 12.3584 16.1095 12.3509 15.9458 12.3466C15.9423 12.3465 15.9388 12.3465 15.9354 12.3464L17.4134 13.4348ZM18.8196 18.1697L18.8196 18.1698L18.8152 18.1789C18.694 18.4305 18.5836 18.6596 18.3362 18.9438L18.3361 18.9439C18.2574 19.0342 18.1745 19.1343 18.0869 19.2402L18.0764 19.2529C17.9318 19.4276 17.7677 19.626 17.6206 19.7725L17.6203 19.7728C17.561 19.8318 17.5212 19.8725 17.4897 19.9113C17.4598 19.9483 17.4505 19.9682 17.4478 19.9753C17.4472 19.977 17.4467 19.9774 17.4468 19.98C17.4469 19.981 17.447 19.9824 17.4472 19.9843C17.4486 19.9949 17.4557 20.0324 17.4963 20.1026C17.7529 20.5448 18.6516 21.9991 19.9658 23.1637L19.9667 23.1645C21.3833 24.4257 22.6094 24.9547 23.2415 25.2274L23.2427 25.2279L23.2537 25.2327C23.3705 25.2831 23.4831 25.3316 23.5704 25.3751C23.768 25.4734 23.8464 25.4726 23.8632 25.4706C23.8674 25.4701 23.8722 25.4695 23.884 25.4622C23.8989 25.4531 23.9277 25.4313 23.9703 25.3818L23.9704 25.3818C24.2462 25.0615 25.1045 24.0603 25.3959 23.6307C25.6 23.3214 25.868 23.1077 26.2251 23.0657C26.5296 23.0298 26.8216 23.1353 27.0235 23.2106L27.0235 23.2106C27.2636 23.3002 27.9645 23.6316 28.6298 23.9519C29.3095 24.2791 29.9939 24.6153 30.2266 24.731L30.2266 24.7311C30.314 24.7745 30.396 24.8139 30.4753 24.8519L30.4905 24.8592C30.6384 24.9301 30.7928 25.0041 30.9208 25.0823C31.0527 25.1629 31.2122 25.2798 31.3201 25.4616L18.8196 18.1697ZM18.8196 18.1697C18.8358 18.1361 18.8521 18.1024 18.8692 18.0673L18.8196 18.1697ZM31.0956 28.0715L31.0944 28.0749C30.8414 28.7731 30.1555 29.3756 29.508 29.7926C28.8541 30.2138 28.0922 30.5395 27.5514 30.5901C27.4785 30.597 27.4049 30.6059 27.3213 30.616C26.9091 30.6658 26.4132 30.7246 25.5605 30.5816C24.7262 30.4417 23.5608 30.111 21.7821 29.4108C17.292 27.6451 14.3532 23.3011 13.7629 22.4286L13.757 22.4199C13.7338 22.3856 13.7154 22.3584 13.7007 22.337L13.6832 22.3116L13.678 22.3043C13.6766 22.3024 13.6761 22.3017 13.6762 22.3018L13.6667 22.2891L13.6666 22.289L13.6666 22.2889C13.5291 22.105 13.0392 21.4495 12.5831 20.5481C12.1303 19.6533 11.6891 18.4746 11.6891 17.2483C11.6891 14.9208 12.8495 13.6907 13.3553 13.1561L13.7172 13.4986L13.3553 13.1561C13.3861 13.1236 13.4123 13.0958 13.4357 13.0707C13.4357 13.0707 13.4357 13.0707 13.4357 13.0707L13.8023 13.4107C14.2276 12.952 14.7241 12.8374 15.0342 12.8374C15.3445 12.8374 15.6547 12.8374 15.9205 12.8461L31.0956 28.0715ZM31.0956 28.0715C31.3005 27.4928 31.4047 26.9526 31.4415 26.5226M31.0956 28.0715L31.4415 26.5226M31.4415 26.5226C31.4599 26.308 31.4621 26.1134 31.4492 25.9499M31.4415 26.5226L31.4492 25.9499M31.4492 25.9499C31.4385 25.8132 31.4125 25.6173 31.3202 25.4617L31.4492 25.9499ZM13.2782 36.507C13.1667 36.4465 13.0364 36.4308 12.9137 36.4628L4.65887 38.6189C4.49742 38.6611 4.35091 38.5126 4.39523 38.3518L6.60007 30.3485C6.63568 30.2193 6.61789 30.0811 6.5507 29.9651C5.03175 27.3425 4.2328 24.3684 4.23389 21.3415V21.3413C4.23389 11.8278 12.0199 4.0835 21.5751 4.0835C26.2202 4.0835 30.5693 5.88369 33.8434 9.1425C37.1169 12.4009 38.9166 16.7371 38.9166 21.3501C38.9166 30.8635 31.1305 38.6078 21.5752 38.6078H21.5664C18.663 38.6078 15.8111 37.8789 13.2782 36.507ZM18.8693 18.0672C19.1159 17.5618 18.9823 17.1217 18.8313 16.821L18.8693 18.0672Z" stroke="black" stroke-linejoin="round"/>
<defs>
<filter id="filter0_ii_1_4980" x="3.73389" y="3.5835" width="35.6826" height="35.5435" filterUnits="userSpaceOnUse" color-interpolation-filters="sRGB">
<feFlood flood-opacity="0" result="BackgroundImageFix"/>
<feBlend mode="normal" in="SourceGraphic" in2="BackgroundImageFix" result="shape"/>
<feColorMatrix in="SourceAlpha" type="matrix" values="0 0 0 0 0 0 0 0 0 0 0 0 0 0 0 0 0 0 127 0" result="hardAlpha"/>
<feOffset dx="2" dy="2"/>
<feComposite in2="hardAlpha" operator="arithmetic" k2="-1" k3="1"/>
<feColorMatrix type="matrix" values="0 0 0 0 1 0 0 0 0 1 0 0 0 0 1 0 0 0 1 0"/>
<feBlend mode="normal" in2="shape" result="effect1_innerShadow_1_4980"/>
<feColorMatrix in="SourceAlpha" type="matrix" values="0 0 0 0 0 0 0 0 0 0 0 0 0 0 0 0 0 0 127 0" result="hardAlpha"/>
<feOffset dx="-2" dy="-2"/>
<feComposite in2="hardAlpha" operator="arithmetic" k2="-1" k3="1"/>
<feColorMatrix type="matrix" values="0 0 0 0 0 0 0 0 0 0 0 0 0 0 0 0 0 0 1 0"/>
<feBlend mode="normal" in2="effect1_innerShadow_1_4980" result="effect2_innerShadow_1_4980"/>
</filter>
</defs>
</svg>
